<?xml version="1.0" encoding="utf-8" standalone="no"?>
<!DOCTYPE svg PUBLIC "-//W3C//DTD SVG 1.1//EN"
  "http://www.w3.org/Graphics/SVG/1.1/DTD/svg11.dtd">
<svg xmlns:xlink="http://www.w3.org/1999/xlink" width="460.8pt" height="345.6pt" viewBox="0 0 460.8 345.6" xmlns="http://www.w3.org/2000/svg" version="1.1">
 <metadata>
  <rdf:RDF xmlns:dc="http://purl.org/dc/elements/1.1/" xmlns:cc="http://creativecommons.org/ns#" xmlns:rdf="http://www.w3.org/1999/02/22-rdf-syntax-ns#">
   <cc:Work>
    <dc:type rdf:resource="http://purl.org/dc/dcmitype/StillImage"/>
    <dc:date>2023-08-11T21:55:10.321711</dc:date>
    <dc:format>image/svg+xml</dc:format>
    <dc:creator>
     <cc:Agent>
      <dc:title>Matplotlib v3.7.1, https://matplotlib.org/</dc:title>
     </cc:Agent>
    </dc:creator>
   </cc:Work>
  </rdf:RDF>
 </metadata>
 <defs>
  <style type="text/css">*{stroke-linejoin: round; stroke-linecap: butt}</style>
 </defs>
 <g id="figure_1">
  <g id="patch_1">
   <path d="M 0 345.6 
L 460.8 345.6 
L 460.8 0 
L 0 0 
z
" style="fill: #ffffff"/>
  </g>
  <g id="axes_1">
   <g id="patch_2">
    <path d="M 59.51 289.816 
L 444.915 289.816 
L 444.915 10.8 
L 59.51 10.8 
z
" style="fill: #ffffff"/>
   </g>
   <g id="line2d_1">
    <path d="M 59.445766 216.591144 
L 59.766937 214.796126 
L 60.345044 212.506243 
L 60.987386 210.776736 
L 61.05162 210.875507 
L 61.244323 210.575162 
L 61.372791 210.474375 
L 61.565493 210.781775 
L 61.629728 210.684012 
L 61.693962 210.786815 
L 61.950898 211.406655 
L 62.015133 211.410687 
L 62.400538 212.845895 
L 63.492518 219.871764 
L 64.13486 225.527231 
L 66.190353 244.111668 
L 67.089632 248.824473 
L 67.475037 249.891809 
L 67.860442 250.152142 
L 68.053144 250.128053 
L 68.823954 248.489255 
L 69.594764 245.226777 
L 71.200618 238.108183 
L 71.907194 236.589322 
L 72.164131 236.500629 
L 72.292599 236.544975 
L 72.356833 236.514739 
L 72.549536 236.779809 
L 72.806473 237.296847 
L 73.705751 240.424271 
L 75.183137 248.285161 
L 75.889713 251.415306 
L 76.46782 253.016914 
L 76.788991 253.460277 
L 77.110162 253.525788 
L 77.431333 253.240662 
L 77.816738 252.477401 
L 78.651782 249.196781 
L 80.129168 240.377808 
L 80.643041 236.962637 
L 83.148173 223.179396 
L 83.276642 222.735126 
L 83.726281 221.065084 
L 83.854749 220.752644 
L 84.111686 219.967512 
L 84.304388 219.633907 
L 84.754028 218.90824 
L 84.882496 218.96468 
L 84.94673 218.690539 
L 85.010964 218.831641 
L 85.075198 218.86087 
L 85.139433 218.698602 
L 85.203667 218.737909 
L 85.589072 219.013058 
L 86.48835 221.572043 
L 86.809521 223.227975 
L 88.608078 237.533999 
L 90.920508 259.178635 
L 91.498615 262.628779 
L 91.948254 264.300333 
L 92.269425 264.91332 
L 92.526362 265.002416 
L 92.719064 264.846196 
L 92.976001 264.330368 
L 93.297172 263.176255 
L 93.811045 260.173303 
L 94.389153 255.210143 
L 95.159963 246.403466 
L 97.857798 210.045022 
L 98.757076 201.907471 
L 99.463652 197.861876 
L 99.59212 197.448649 
L 100.234462 195.75341 
L 100.36293 195.650607 
L 100.941037 194.921916 
L 101.069506 194.977248 
L 101.326443 194.563417 
L 101.454911 194.49861 
L 101.519145 194.310139 
L 101.583379 194.423826 
L 101.711848 194.349949 
L 101.90455 193.967866 
L 102.161487 193.357196 
L 102.225721 193.338954 
L 102.932297 190.822199 
L 103.703107 186.172991 
L 103.895809 184.79251 
L 104.98779 175.657167 
L 105.565898 170.466227 
L 106.52941 163.769529 
L 107.235986 160.871597 
L 107.364454 160.774237 
L 107.749859 160.379958 
L 107.814093 160.381671 
L 107.942562 160.585765 
L 108.135264 160.689475 
L 108.392201 161.397908 
L 109.034543 163.720143 
L 110.640397 173.183145 
L 111.539675 177.800505 
L 111.796612 179.004508 
L 113.4667 183.904071 
L 114.751383 186.106874 
L 115.00832 186.711194 
L 115.072554 186.711396 
L 115.393725 187.41751 
L 115.522193 187.821162 
L 116.100301 189.441113 
L 116.164535 189.44192 
L 116.485706 190.757998 
L 118.476965 200.617194 
L 119.954351 210.166772 
L 122.266781 225.737695 
L 122.844888 229.930791 
L 123.679933 236.07314 
L 124.25804 240.813793 
L 125.157318 248.177128 
L 125.928128 254.403886 
L 127.405514 263.528677 
L 127.919388 265.436063 
L 128.369027 266.465281 
L 128.8829 266.935735 
L 129.332539 266.745821 
L 129.846413 265.97737 
L 130.42452 264.584412 
L 132.672716 258.161522 
L 133.250823 257.282779 
L 133.636228 257.010875 
L 134.085868 257.022627 
L 134.728209 257.672372 
L 135.306317 258.746067 
L 136.526766 262.083662 
L 137.811449 265.799521 
L 138.967664 268.248094 
L 139.738474 269.172452 
L 140.316582 269.491837 
L 141.023158 269.406823 
L 141.665499 268.89812 
L 142.179373 268.177714 
L 143.078651 266.089959 
L 143.52829 264.610586 
L 144.106398 262.249618 
L 144.877207 258.206332 
L 146.033423 250.444626 
L 148.92396 229.301708 
L 149.887473 224.910716 
L 150.46558 223.350834 
L 150.979453 222.881872 
L 151.300624 222.84448 
L 151.686029 223.06984 
L 152.842244 225.898632 
L 155.154674 235.545066 
L 156.503592 239.673105 
L 156.63206 239.831643 
L 157.017465 240.252429 
L 157.210168 240.310079 
L 157.40287 240.357449 
L 158.109446 239.49582 
L 158.880256 237.47131 
L 160.100705 232.139067 
L 161.449623 225.021985 
L 162.734306 219.444528 
L 162.79854 219.445939 
L 163.055477 218.546716 
L 163.119711 218.651132 
L 163.312413 218.053162 
L 163.376648 218.055782 
L 163.505116 217.859449 
L 163.56935 217.862069 
L 163.633584 217.562429 
L 163.697818 217.665736 
L 163.762053 217.668457 
L 163.826287 217.36791 
L 163.890521 217.470209 
L 164.018989 217.374965 
L 164.147458 217.582083 
L 164.275926 217.386052 
L 165.046736 218.723598 
L 166.138717 222.481445 
L 168.322678 232.260717 
L 168.836552 234.231508 
L 169.800064 237.395014 
L 169.928533 237.704531 
L 170.50664 239.34978 
L 170.635108 239.609306 
L 172.626368 245.691002 
L 173.846817 251.159206 
L 175.195734 258.739082 
L 175.581139 260.925023 
L 176.737354 267.093033 
L 177.508164 270.129426 
L 178.086272 271.536263 
L 178.535911 272.037316 
L 178.857082 272.049642 
L 179.114018 271.84832 
L 179.627892 270.876924 
L 180.141765 269.205037 
L 180.719873 266.629725 
L 181.554917 261.862495 
L 182.325727 257.052128 
L 182.968068 253.022054 
L 183.867347 248.24656 
L 183.995815 247.788684 
L 184.766625 245.49487 
L 184.959328 245.197447 
L 185.280498 244.797827 
L 185.344733 244.937618 
L 185.408967 244.866765 
L 185.730138 245.064106 
L 185.92284 245.314764 
L 186.629416 247.383318 
L 186.886353 248.44511 
L 187.46446 251.445039 
L 188.171036 256.054839 
L 188.941846 261.730262 
L 190.5477 273.219801 
L 191.575447 279.195014 
L 192.474725 283.120793 
L 193.309769 285.712503 
L 194.080579 287.343442 
L 194.979858 288.530371 
L 195.750668 289.123289 
L 196.585712 289.483485 
L 197.806161 289.714253 
L 199.79742 289.805147 
L 209.368311 289.816 
L 295.955968 289.705038 
L 306.747308 289.21992 
L 309.959016 289.502251 
L 312.656851 289.678768 
L 314.969281 289.591508 
L 323.12702 289.020152 
L 329.036563 288.853665 
L 331.541696 288.529352 
L 334.753404 287.857434 
L 337.258537 286.949212 
L 339.827903 286.048276 
L 341.176821 285.827149 
L 343.296548 285.824831 
L 344.7097 285.741177 
L 345.801681 285.39457 
L 346.572491 284.944657 
L 347.664472 284.031022 
L 349.463028 281.964181 
L 353.766718 275.936608 
L 354.922933 275.031539 
L 355.565274 274.934784 
L 355.886445 275.027508 
L 356.143382 275.144421 
L 356.721489 275.650372 
L 357.299597 276.419378 
L 358.006173 277.683248 
L 358.905451 279.602235 
L 359.933198 281.856238 
L 360.832476 283.516907 
L 361.474818 284.366844 
L 361.988691 284.81575 
L 362.823735 285.053406 
L 363.401843 284.911498 
L 364.236887 284.333383 
L 365.714272 282.776625 
L 366.420848 282.036747 
L 367.191658 281.332548 
L 367.834 280.85008 
L 369.118683 280.11131 
L 371.238411 279.061008 
L 372.844265 278.631655 
L 373.743543 278.82819 
L 374.707056 279.430897 
L 375.5421 280.177729 
L 376.762549 281.241033 
L 377.340657 281.534324 
L 377.85453 281.586733 
L 378.304169 281.440592 
L 378.753808 281.087837 
L 379.267682 280.425665 
L 379.974258 279.014646 
L 380.873536 276.488921 
L 381.901283 272.864617 
L 383.378668 267.421105 
L 384.342181 264.646436 
L 384.984523 263.430944 
L 385.434162 262.941118 
L 385.883801 262.750631 
L 386.397674 262.818158 
L 387.040016 263.263637 
L 388.003528 264.179792 
L 388.838573 264.54968 
L 389.288212 264.366248 
L 389.802085 263.717179 
L 390.251724 262.730473 
L 390.894066 260.629062 
L 391.986047 255.495975 
L 393.720369 246.583371 
L 394.491179 243.916544 
L 395.005053 242.969145 
L 395.326223 242.755477 
L 395.647394 242.846185 
L 395.968565 243.222121 
L 396.418204 244.236039 
L 397.189014 247.09033 
L 398.537932 254.188766 
L 400.015318 261.864712 
L 400.721893 264.641397 
L 401.364235 266.454557 
L 401.942342 267.481577 
L 402.456216 267.965355 
L 403.162792 268.034899 
L 403.548197 267.856505 
L 404.83288 266.331596 
L 405.924861 264.205996 
L 407.659183 259.269444 
L 410.035848 251.591482 
L 410.613955 250.436462 
L 410.99936 249.971833 
L 411.577468 249.830732 
L 412.027107 250.206667 
L 412.348277 250.68339 
L 412.797917 251.678159 
L 413.632961 254.23412 
L 414.917644 258.949949 
L 416.073859 262.501686 
L 416.844669 264.101178 
L 417.743947 265.233017 
L 420.120612 267.48964 
L 420.762953 268.538834 
L 422.368808 272.048241 
L 423.525023 274.575982 
L 424.360067 275.966844 
L 424.938174 276.65018 
L 425.773218 277.181328 
L 426.608263 277.343596 
L 428.599522 277.449221 
L 429.049161 277.666618 
L 429.563034 278.012923 
L 430.719249 279.431904 
L 435.151407 287.42444 
L 436.050685 288.388825 
L 436.949963 289.028867 
L 437.913476 289.435379 
L 439.133925 289.683492 
L 441.06095 289.797605 
L 443.501848 289.81513 
L 443.501848 289.81513 
" clip-path="url(#p35a31e43ec)" style="fill: none; stroke: #1f77b4; stroke-width: 2; stroke-linecap: square"/>
   </g>
   <g id="line2d_2">
    <path d="M 59.445766 235.532065 
L 59.959639 234.501013 
L 60.345044 234.188573 
L 60.730449 234.361927 
L 61.05162 234.842681 
L 61.372791 235.636883 
L 62.079367 238.455899 
L 62.785943 242.461178 
L 66.061885 263.92863 
L 66.639993 265.968461 
L 67.025398 266.864659 
L 67.475037 267.384116 
L 67.860442 267.417477 
L 68.181613 267.183953 
L 68.75972 266.297631 
L 69.658998 264.144315 
L 71.200618 260.834164 
L 71.650258 260.421441 
L 72.164131 260.410152 
L 72.549536 260.725818 
L 72.999175 261.410565 
L 73.834219 263.417136 
L 75.761244 268.534702 
L 76.403586 269.372747 
L 76.853225 269.50377 
L 77.174396 269.368917 
L 77.559801 268.978467 
L 78.266377 267.58942 
L 79.101421 265.117918 
L 79.872231 262.470342 
L 80.643041 259.758261 
L 81.606553 256.731625 
L 82.6343 254.243191 
L 83.790515 252.389716 
L 84.689793 251.620711 
L 85.71754 251.525971 
L 86.359882 251.948269 
L 86.809521 252.456236 
L 87.965736 254.919472 
L 88.736546 257.386741 
L 89.764293 261.449469 
L 91.305913 268.169953 
L 92.333659 271.933344 
L 93.168703 273.934976 
L 93.618343 274.536675 
L 93.939513 274.73321 
L 94.260684 274.732202 
L 94.517621 274.612265 
L 95.159963 273.780771 
L 96.380412 270.706765 
L 98.243203 265.265773 
L 98.885544 264.014098 
L 99.335183 263.45614 
L 99.849057 263.138661 
L 100.298696 263.147732 
L 100.684101 263.329149 
L 101.262208 263.796801 
L 101.90455 264.522468 
L 103.703107 266.165298 
L 104.923556 266.282211 
L 105.565898 266.094747 
L 106.144005 265.808511 
L 106.657878 265.578717 
L 108.520669 264.858089 
L 109.933821 264.027603 
L 110.38346 263.6174 
L 111.346973 262.431135 
L 112.952827 260.197693 
L 113.595168 259.599018 
L 114.044808 259.389381 
L 114.494447 259.383333 
L 115.136788 259.731049 
L 116.100301 261.093691 
L 117.128048 263.360393 
L 119.568946 269.22721 
L 120.275522 270.49108 
L 120.982098 271.455613 
L 121.752908 272.219579 
L 123.48723 273.084333 
L 124.386508 273.266757 
L 125.350021 273.194191 
L 125.863894 273.004711 
L 126.698938 272.338508 
L 128.8829 268.880502 
L 129.525242 267.780915 
L 130.488754 266.605737 
L 130.874159 266.347722 
L 131.452267 266.322526 
L 131.773438 266.444478 
L 132.544248 267.267909 
L 133.443526 268.891589 
L 134.407038 270.960748 
L 135.177848 272.524964 
L 136.077127 273.825118 
L 136.719468 274.255479 
L 137.169107 274.275636 
L 137.939918 273.732394 
L 138.453791 272.997656 
L 138.90343 272.156083 
L 139.802708 269.9942 
L 141.537031 264.797617 
L 145.648018 251.682191 
L 146.675764 249.156466 
L 147.960448 247.263684 
L 148.15315 247.122582 
L 148.602789 246.971401 
L 149.630536 247.545888 
L 150.401346 248.703932 
L 151.23639 250.507013 
L 153.356118 255.807407 
L 154.448098 257.64274 
L 155.347377 258.046896 
L 155.668548 257.92696 
L 156.246655 257.29704 
L 156.824763 256.20854 
L 157.467104 254.494151 
L 158.687553 250.401187 
L 159.394129 247.945005 
L 160.48611 244.792384 
L 161.321154 243.335204 
L 161.899262 242.924194 
L 162.220433 242.913209 
L 162.605838 243.101378 
L 163.248179 243.929546 
L 163.954755 245.445485 
L 164.854033 248.195058 
L 167.102229 256.783026 
L 168.19421 260.302512 
L 169.029254 262.141876 
L 169.543128 262.856457 
L 169.992767 263.249527 
L 170.892045 263.46118 
L 172.690602 263.084236 
L 173.332943 263.215259 
L 174.232222 264.02458 
L 175.195734 265.631126 
L 177.44393 269.955901 
L 178.150506 270.484025 
L 178.535911 270.503175 
L 178.98555 270.244152 
L 179.563658 269.47817 
L 180.334468 267.838364 
L 181.29798 265.185647 
L 182.582663 261.59561 
L 183.481942 259.822765 
L 183.867347 259.328908 
L 184.38122 259.018484 
L 184.830859 259.061823 
L 185.601669 259.887269 
L 186.115543 260.935455 
L 186.629416 262.359577 
L 187.528694 265.62004 
L 189.391485 274.043221 
L 191.061573 281.12281 
L 191.896618 283.871173 
L 192.731662 285.973592 
L 193.502472 287.380832 
L 194.273282 288.350213 
L 195.044092 288.978036 
L 195.879136 289.38657 
L 196.971117 289.653198 
L 198.576971 289.784216 
L 202.816426 289.815873 
L 291.009937 289.72328 
L 292.358854 289.49448 
L 293.322367 289.119209 
L 294.157411 288.556428 
L 294.992455 287.695664 
L 295.763265 286.600972 
L 297.112183 284.010037 
L 300.452359 276.827507 
L 301.672808 274.687177 
L 305.205688 268.62577 
L 305.655327 268.28569 
L 306.040732 268.208204 
L 306.426137 268.359563 
L 306.747308 268.653412 
L 307.453883 269.92348 
L 308.224693 272.117926 
L 309.380908 276.387489 
L 311.243699 282.687663 
L 311.821807 283.904149 
L 312.33568 284.543673 
L 312.721085 284.74498 
L 313.042256 284.723776 
L 313.363427 284.537871 
L 313.813066 283.997022 
L 314.519642 282.50065 
L 315.41892 279.687133 
L 316.767838 274.464824 
L 317.924053 270.328249 
L 318.694862 268.381808 
L 319.27297 267.460392 
L 319.851078 267.058634 
L 320.364951 267.075526 
L 320.81459 267.309201 
L 322.291976 268.914206 
L 322.934318 269.60755 
L 323.512425 270.044866 
L 323.89783 270.204684 
L 324.411703 270.211406 
L 324.797108 270.069437 
L 325.632153 269.211175 
L 326.338728 267.904158 
L 327.238007 265.465321 
L 328.265753 261.81709 
L 329.550437 256.542014 
L 331.477462 248.719413 
L 332.569443 244.605353 
L 332.954848 243.118915 
L 334.68917 236.441668 
L 335.845385 231.716366 
L 336.23079 230.25969 
L 337.708176 225.837051 
L 338.029347 225.236964 
L 338.093581 225.314873 
L 338.157815 225.301972 
L 338.350518 225.030452 
L 338.800157 225.104631 
L 338.864391 225.289777 
L 338.928625 225.163591 
L 339.378264 225.836446 
L 340.277543 228.512444 
L 341.048353 232.393554 
L 341.497992 234.942359 
L 342.204568 239.415896 
L 343.93889 248.46043 
L 344.452763 249.814908 
L 344.773934 250.244362 
L 344.966637 250.348072 
L 345.287808 250.170686 
L 345.544744 249.766228 
L 345.930149 248.78567 
L 346.379788 246.993474 
L 347.857174 237.445105 
L 348.435282 232.909887 
L 349.912667 220.768266 
L 350.555009 215.489138 
L 351.004648 211.768884 
L 351.968161 203.5374 
L 354.280591 186.083895 
L 354.858698 183.688185 
L 354.922933 183.615619 
L 355.179869 183.025006 
L 355.436806 182.718614 
L 355.757977 182.887936 
L 356.593021 186.277406 
L 357.171128 190.883377 
L 358.070407 201.532543 
L 360.768242 241.221799 
L 361.66752 250.190945 
L 362.245628 253.71416 
L 362.695267 255.162571 
L 363.016438 255.512302 
L 363.20914 255.477833 
L 363.530311 255.024392 
L 363.915716 253.867054 
L 364.365355 251.838713 
L 365.007697 247.989553 
L 365.778507 242.477204 
L 366.806253 234.820407 
L 368.090937 226.392791 
L 368.861747 222.425508 
L 369.054449 221.621025 
L 369.825259 218.772177 
L 369.889493 218.763106 
L 370.403367 217.389378 
L 370.467601 217.414575 
L 370.724538 216.980182 
L 371.109943 216.614325 
L 371.302645 216.690923 
L 371.495348 216.714104 
L 372.266158 217.997124 
L 372.972733 220.515794 
L 374.257417 228.460841 
L 376.634081 246.227693 
L 377.276423 249.074627 
L 377.661828 249.973849 
L 377.918764 250.207373 
L 378.239935 250.025956 
L 378.561106 249.320648 
L 378.946511 247.778807 
L 379.460384 244.587282 
L 380.295428 236.940867 
L 381.644346 221.258595 
L 382.543624 211.221207 
L 383.121732 206.093159 
L 383.764073 202.219911 
L 384.342181 200.621427 
L 384.79182 200.692986 
L 385.177225 201.653487 
L 386.204972 206.866902 
L 386.975782 212.451011 
L 388.067763 218.956617 
L 388.581636 220.349697 
L 388.64587 220.357558 
L 388.710104 220.565885 
L 388.774338 220.430528 
L 388.902807 220.541495 
L 389.480914 219.007918 
L 390.059022 215.175791 
L 390.9583 204.621667 
L 391.600642 194.556059 
L 392.821091 172.16318 
L 394.105774 151.698358 
L 394.81235 144.663418 
L 395.518926 141.600498 
L 395.647394 141.379774 
L 395.711628 141.471491 
L 395.904331 141.55212 
L 395.968565 141.64686 
L 396.610907 144.85189 
L 397.574419 154.831829 
L 398.345229 165.90934 
L 401.364235 212.041614 
L 402.070811 219.350695 
L 402.777387 224.500916 
L 403.29126 226.98431 
L 403.676665 228.07906 
L 403.997836 228.612022 
L 404.126304 228.66171 
L 404.190538 228.717849 
L 404.254773 228.588841 
L 404.319007 228.643266 
L 404.383241 228.705754 
L 404.640178 228.323771 
L 405.154051 226.950043 
L 405.796393 223.651281 
L 406.567203 217.385346 
L 407.338013 208.585624 
L 408.815398 185.802699 
L 410.99936 151.709445 
L 411.77017 145.187511 
L 412.155575 143.300776 
L 412.412512 142.662794 
L 412.476746 142.765597 
L 412.669448 142.563015 
L 412.862151 142.973218 
L 412.926385 142.979266 
L 413.697195 146.828325 
L 416.523498 175.50518 
L 417.16584 181.512696 
L 418.257821 190.354345 
L 418.835928 194.739391 
L 419.285568 198.036641 
L 423.589257 232.377025 
L 424.424301 236.287666 
L 424.938174 237.902074 
L 425.452048 238.973743 
L 426.222858 239.887983 
L 427.18637 240.690349 
L 427.700243 241.371267 
L 428.278351 242.593008 
L 428.920693 244.683332 
L 429.4988 247.277089 
L 430.141142 250.896253 
L 431.297357 258.901773 
L 433.35285 273.792896 
L 434.380597 279.681171 
L 435.279875 283.5212 
L 436.050685 285.864359 
L 436.757261 287.360445 
L 437.463837 288.358477 
L 438.170412 288.992517 
L 438.941223 289.397803 
L 439.904735 289.650943 
L 441.382121 289.782916 
L 443.501848 289.813764 
L 443.501848 289.813764 
" clip-path="url(#p35a31e43ec)" style="fill: none; stroke: #ff7f0e; stroke-width: 2; stroke-linecap: square"/>
   </g>
   <g id="line2d_3">
    <path d="M 59.445766 241.161025 
L 59.831171 241.005813 
L 59.959639 240.990694 
L 60.858918 242.473273 
L 62.336303 249.034513 
L 65.226841 266.103818 
L 65.869183 268.518677 
L 66.318822 269.694862 
L 66.832695 270.43464 
L 67.153866 270.611017 
L 67.667739 270.441695 
L 68.117378 269.940783 
L 68.75972 268.809447 
L 70.558277 265.292381 
L 71.136384 264.723841 
L 71.778726 264.620332 
L 72.228365 264.882681 
L 72.61377 265.276456 
L 73.577283 266.601605 
L 74.091156 267.255713 
L 74.476561 267.561602 
L 74.797732 267.635479 
L 75.118903 267.46021 
L 75.440073 267.035796 
L 75.825478 266.085474 
L 76.339352 263.976504 
L 76.853225 260.850794 
L 77.495567 255.340964 
L 78.266377 246.46928 
L 79.55106 226.976247 
L 82.891237 170.69068 
L 83.597813 161.682329 
L 84.625559 152.34904 
L 85.332135 148.602884 
L 85.396369 148.51016 
L 85.653306 147.837809 
L 85.910243 147.36673 
L 86.167179 147.099039 
L 86.231413 147.106901 
L 86.424116 147.538471 
L 86.48835 147.445545 
L 86.681053 147.974678 
L 87.066458 149.439518 
L 87.901502 155.403494 
L 88.543843 162.448512 
L 89.378888 174.35661 
L 93.232938 239.514768 
L 94.067982 247.689509 
L 94.581855 250.874301 
L 95.031494 252.490342 
L 95.481133 253.104105 
L 95.73807 253.051373 
L 96.059241 252.653899 
L 96.444646 251.719321 
L 96.958519 249.933313 
L 97.922032 245.713377 
L 99.270949 240.040645 
L 99.656354 238.820587 
L 100.170228 237.062013 
L 101.390677 232.944759 
L 102.033018 229.919029 
L 102.546892 227.007189 
L 103.060765 223.529933 
L 103.831575 217.311369 
L 106.079771 200.88045 
L 106.850581 198.668576 
L 107.171752 198.574038 
L 107.364454 198.477786 
L 108.07103 199.706683 
L 108.327967 200.521648 
L 108.520669 201.052393 
L 108.84184 202.302153 
L 108.906074 202.355469 
L 109.805353 205.462736 
L 109.869587 205.544776 
L 110.062289 206.102633 
L 110.38346 206.701208 
L 110.640397 207.166441 
L 111.15427 207.598616 
L 111.346973 207.516374 
L 111.411207 207.656669 
L 111.475441 207.494604 
L 111.539675 207.523933 
L 111.603909 207.553363 
L 111.796612 207.338283 
L 111.92508 207.295247 
L 112.117783 207.059304 
L 112.246251 207.308248 
L 112.438953 207.071298 
L 112.631656 206.934933 
L 112.69589 207.064142 
L 112.888593 206.836766 
L 113.338232 207.035216 
L 113.595168 207.400066 
L 113.723637 207.57866 
L 114.365978 209.376299 
L 115.843364 218.475157 
L 118.541199 239.617762 
L 118.926604 241.614022 
L 119.247775 242.791659 
L 119.568946 243.615695 
L 119.954351 244.201772 
L 120.468224 244.169147 
L 120.660927 243.967482 
L 120.789395 243.812733 
L 120.982098 243.318363 
L 121.1748 242.863591 
L 122.331015 238.333906 
L 122.71642 236.572158 
L 125.542723 219.640821 
L 126.634704 211.575393 
L 128.8829 194.099938 
L 129.910647 189.440746 
L 130.231818 188.734476 
L 130.488754 188.431441 
L 131.259564 189.638846 
L 131.709203 191.754195 
L 132.030374 193.567269 
L 132.73695 199.410106 
L 132.865418 200.41737 
L 134.021633 212.159058 
L 134.599741 218.106377 
L 136.012893 229.808788 
L 136.783703 233.191929 
L 136.976405 233.575283 
L 137.169107 233.837178 
L 137.618747 233.640392 
L 137.939918 233.07672 
L 138.196854 232.203278 
L 138.839196 228.744819 
L 140.380816 214.647928 
L 143.207119 182.085156 
L 144.170632 173.831952 
L 144.877207 170.001559 
L 145.326847 168.455051 
L 145.455315 168.208445 
L 145.776486 167.683566 
L 145.84072 167.621673 
L 145.904954 167.770424 
L 145.969188 167.708632 
L 146.483062 168.216125 
L 146.996935 169.732961 
L 147.703511 173.103352 
L 149.566302 187.894112 
L 151.300624 205.569671 
L 151.942966 212.379372 
L 153.613054 228.294724 
L 154.576567 234.880265 
L 155.154674 237.519637 
L 155.925484 239.188631 
L 156.053953 239.121588 
L 156.182421 239.224461 
L 156.888997 238.205715 
L 157.40287 236.543806 
L 157.852509 234.606809 
L 158.494851 231.497527 
L 159.329895 227.298333 
L 159.522598 226.460328 
L 160.229173 224.020131 
L 160.678813 223.145995 
L 160.871515 223.107101 
L 161.064218 222.866855 
L 161.25692 223.081269 
L 161.385388 223.002867 
L 161.578091 223.388972 
L 161.642325 223.419884 
L 161.899262 224.06994 
L 161.963496 224.122128 
L 162.284667 225.278368 
L 162.670072 226.981418 
L 163.954755 234.465929 
L 164.725565 239.86976 
L 166.781058 253.783944 
L 168.386913 261.118625 
L 168.900786 262.501092 
L 169.414659 263.276659 
L 169.73583 263.486981 
L 170.185469 263.393169 
L 170.570874 263.026666 
L 171.405918 261.36378 
L 171.984026 259.834205 
L 172.883304 257.353622 
L 173.58988 255.815127 
L 174.232222 255.045386 
L 174.681861 254.923393 
L 175.324203 255.346649 
L 176.095013 256.617977 
L 176.865823 258.302372 
L 177.765101 260.1665 
L 178.278974 260.870185 
L 178.728613 261.160069 
L 179.114018 261.177566 
L 179.692126 260.699613 
L 180.205999 259.879609 
L 181.041043 257.930245 
L 182.325727 254.625769 
L 182.968068 253.451801 
L 183.417708 252.983322 
L 183.995815 252.921489 
L 184.445454 253.332721 
L 184.895093 254.137717 
L 185.730138 256.675083 
L 186.500948 259.977917 
L 187.914099 267.426497 
L 189.841124 277.456565 
L 190.868871 281.672246 
L 191.768149 284.497408 
L 192.731662 286.64919 
L 193.502472 287.831002 
L 194.273282 288.630295 
L 195.108326 289.17427 
L 196.071838 289.523006 
L 197.420756 289.730811 
L 199.733186 289.809147 
L 214.828215 289.816 
L 291.909215 289.706487 
L 293.386601 289.447744 
L 294.542816 289.000138 
L 295.570563 288.343601 
L 296.662543 287.356996 
L 298.204163 285.613581 
L 300.709296 282.872978 
L 302.636321 280.925368 
L 303.599833 279.854102 
L 304.434878 278.946816 
L 305.334156 278.241004 
L 306.040732 278.036406 
L 306.490371 278.123789 
L 307.068478 278.513936 
L 307.646586 279.186992 
L 308.353162 280.353199 
L 309.445143 282.575817 
L 310.665592 284.998185 
L 311.436402 286.148952 
L 312.142978 286.800803 
L 312.721085 287.006771 
L 313.234958 286.930747 
L 313.748832 286.622188 
L 314.326939 285.99248 
L 315.097749 284.767886 
L 316.18973 282.502283 
L 317.795584 279.09195 
L 318.694862 277.734952 
L 319.27297 277.193423 
L 319.915312 276.897109 
L 320.429185 276.873928 
L 321.135761 277.063408 
L 323.12702 277.83846 
L 324.090533 277.749768 
L 325.246748 276.855786 
L 325.760621 276.150276 
L 326.595665 274.622344 
L 327.238007 273.13271 
L 328.329988 270.222987 
L 329.678905 266.40114 
L 330.963588 263.248519 
L 332.248272 260.873975 
L 333.083316 259.73508 
L 334.367999 258.554863 
L 335.588448 258.032786 
L 336.359258 258.024723 
L 337.708176 258.87839 
L 338.54322 260.039457 
L 339.121328 261.103769 
L 340.598713 264.892357 
L 343.103846 272.258886 
L 343.810422 273.697118 
L 344.645466 274.574974 
L 345.159339 274.635446 
L 345.801681 274.1302 
L 346.508257 272.894954 
L 347.536003 270.080877 
L 349.077623 264.453227 
L 351.197351 254.827756 
L 354.987167 234.32262 
L 355.436806 233.052702 
L 355.565274 232.881364 
L 355.822211 232.520546 
L 355.950679 232.461082 
L 356.143382 232.410688 
L 356.785723 233.398402 
L 357.235363 234.9475 
L 357.685002 237.165824 
L 358.455812 242.229368 
L 361.410583 263.485369 
L 361.988691 265.610969 
L 362.43833 266.536194 
L 362.759501 266.799249 
L 363.080672 266.764981 
L 363.466077 266.341675 
L 363.915716 265.401331 
L 364.622292 263.198125 
L 365.714272 258.876374 
L 367.705532 251.45542 
L 368.283639 249.778322 
L 369.182918 247.693037 
L 369.825259 246.618646 
L 370.531835 245.936318 
L 370.981474 245.803279 
L 371.495348 246.003845 
L 372.394626 247.440061 
L 373.036968 249.289505 
L 373.615075 251.501782 
L 374.450119 255.424416 
L 376.762549 266.56643 
L 377.340657 268.372535 
L 377.918764 269.44995 
L 378.368403 269.740216 
L 378.689574 269.642453 
L 379.074979 269.216123 
L 379.460384 268.484409 
L 380.231194 266.199565 
L 382.672093 257.366583 
L 383.2502 256.325453 
L 383.635605 256.028131 
L 383.956776 256.064414 
L 384.470649 256.622775 
L 385.048757 257.982393 
L 385.819567 260.702637 
L 387.296953 267.161074 
L 388.196231 270.570702 
L 388.838573 272.244776 
L 389.288212 272.978506 
L 389.673617 273.271797 
L 390.059022 273.271797 
L 390.572895 272.775924 
L 391.022534 271.953501 
L 391.793344 269.791618 
L 392.692623 266.44851 
L 395.005053 257.518772 
L 395.775863 255.520164 
L 396.418204 254.5133 
L 396.867843 254.213963 
L 397.12478 254.17264 
L 397.638653 254.47097 
L 398.024058 254.975913 
L 398.6664 256.319405 
L 399.501444 258.934831 
L 401.043064 265.277363 
L 402.391982 270.771268 
L 403.034323 272.876106 
L 403.676665 274.434477 
L 404.254773 275.257807 
L 404.704412 275.472281 
L 405.154051 275.290663 
L 405.60369 274.684731 
L 406.181798 273.249119 
L 406.888373 270.514765 
L 407.787652 265.56763 
L 408.68693 259.432014 
L 410.870892 244.354968 
L 411.384765 241.688141 
L 412.284043 238.779425 
L 412.733683 238.029569 
L 413.054853 237.91568 
L 413.119088 238.013443 
L 413.247556 237.902578 
L 413.440258 238.032593 
L 413.697195 238.328907 
L 413.889898 238.538544 
L 415.110347 241.468425 
L 416.39503 245.456571 
L 420.441783 258.509509 
L 422.818447 266.879072 
L 423.717725 269.084999 
L 424.488535 270.313796 
L 425.516282 271.172905 
L 425.901687 271.337894 
L 427.122136 271.798995 
L 427.828712 272.309078 
L 428.856458 273.684117 
L 429.4988 274.935489 
L 430.655015 277.833522 
L 433.930958 286.042642 
L 434.830236 287.451504 
L 435.66528 288.375065 
L 436.564558 289.025501 
L 437.399603 289.392048 
L 438.555817 289.655199 
L 440.225906 289.784376 
L 443.501848 289.815414 
L 443.501848 289.815414 
" clip-path="url(#p35a31e43ec)" style="fill: none; stroke: #2ca02c; stroke-width: 2; stroke-linecap: square"/>
   </g>
   <g id="line2d_4">
    <path d="M 59.445766 113.652234 
L 59.766937 110.987422 
L 60.152342 108.901129 
L 60.216576 108.883996 
L 60.409278 108.437509 
L 60.537747 108.164376 
L 60.601981 108.238958 
L 60.730449 108.10088 
L 60.923152 108.580626 
L 61.115854 109.373821 
L 61.308557 110.332306 
L 61.82243 114.968513 
L 62.400538 122.792616 
L 63.492518 143.792013 
L 65.997651 195.658771 
L 66.575758 202.860715 
L 67.153866 207.111714 
L 67.475037 208.200517 
L 67.731973 208.420333 
L 68.310081 206.798467 
L 68.888188 203.17507 
L 69.851701 194.491455 
L 70.879447 185.780526 
L 71.521789 182.662274 
L 71.778726 182.086275 
L 71.84296 182.142817 
L 72.035663 181.883895 
L 72.228365 182.261947 
L 72.356833 182.415144 
L 73.320346 187.518398 
L 74.091156 194.229207 
L 75.440073 204.821226 
L 75.825478 206.273366 
L 76.082415 206.622493 
L 76.275118 206.525939 
L 76.532054 205.900757 
L 76.917459 203.736757 
L 77.23863 200.897584 
L 77.688269 195.276284 
L 78.394845 182.792188 
L 79.229889 163.424132 
L 82.698534 73.002073 
L 83.918983 51.379912 
L 84.818262 42.032009 
L 84.882496 41.762 
L 85.075198 40.511535 
L 85.203667 39.574316 
L 85.267901 39.619771 
L 85.460603 38.953568 
L 85.524838 38.930387 
L 85.589072 38.697468 
L 85.71754 38.928169 
L 85.781774 38.787975 
L 86.231413 39.954081 
L 87.066458 47.446998 
L 87.837268 60.228919 
L 88.543843 76.435889 
L 89.507356 103.765321 
L 91.241678 157.264628 
L 92.269425 182.821517 
L 92.911767 193.675885 
L 93.489874 199.395957 
L 93.811045 200.785509 
L 94.003748 201.009861 
L 94.132216 200.919656 
L 94.389153 200.119356 
L 94.774558 197.504576 
L 95.352665 190.650831 
L 96.123475 177.443487 
L 98.82131 127.794922 
L 99.270949 122.82766 
L 99.784823 118.643221 
L 100.427164 115.281004 
L 100.684101 114.370241 
L 100.941037 113.351948 
L 101.197974 112.568369 
L 101.583379 111.017659 
L 101.711848 110.481572 
L 102.097253 108.271915 
L 103.189233 98.237047 
L 104.602385 76.55119 
L 105.630132 59.68729 
L 106.400942 50.206146 
L 106.722113 47.6649 
L 107.107518 45.703482 
L 107.428688 44.891239 
L 107.621391 44.734515 
L 108.199498 46.371096 
L 108.970308 51.164631 
L 109.933821 59.091638 
L 110.576163 63.649835 
L 111.15427 66.651679 
L 111.603909 68.291283 
L 111.668143 68.224764 
L 112.374719 69.581257 
L 112.438953 69.494984 
L 112.503188 69.543664 
L 112.760124 69.981181 
L 112.824358 69.925042 
L 113.017061 70.180034 
L 113.916339 72.45248 
L 114.173276 73.618285 
L 114.751383 77.097153 
L 115.201023 81.02261 
L 115.586428 85.263429 
L 116.357238 95.021112 
L 118.86237 132.225674 
L 119.568946 140.840059 
L 119.890117 144.060973 
L 120.468224 148.91737 
L 120.660927 150.317212 
L 121.367503 154.306779 
L 121.431737 154.352758 
L 121.817142 155.984048 
L 122.009844 156.624983 
L 122.202547 157.147242 
L 122.909123 159.112117 
L 123.037591 159.284009 
L 123.294528 160.05115 
L 123.358762 160.086677 
L 124.707679 163.292443 
L 124.964616 163.728337 
L 125.221553 164.209031 
L 125.285787 164.173111 
L 125.671192 164.521834 
L 125.863894 164.570434 
L 125.928128 164.636963 
L 125.992363 164.559277 
L 126.056597 164.589503 
L 126.313533 164.217356 
L 126.377768 164.215794 
L 126.955875 162.563611 
L 127.148578 161.857124 
L 127.598217 159.478457 
L 127.726685 158.863485 
L 129.268305 147.244327 
L 129.782178 143.619249 
L 130.360286 140.358173 
L 130.42452 140.238627 
L 130.617223 139.307094 
L 130.745691 139.152048 
L 131.002628 138.549678 
L 131.19533 138.311686 
L 131.259564 138.327707 
L 131.452267 138.545572 
L 131.773438 139.306947 
L 132.287311 141.788858 
L 132.480013 143.200273 
L 132.993887 147.598472 
L 134.728209 169.02423 
L 136.205595 186.425896 
L 137.104873 192.184659 
L 137.36181 192.991218 
L 137.747215 193.473868 
L 137.939918 193.299173 
L 138.068386 193.034416 
L 138.261088 192.468063 
L 138.774962 189.89519 
L 139.417303 184.56839 
L 140.830455 166.350394 
L 142.372075 141.409789 
L 143.399822 124.362184 
L 144.620271 106.051757 
L 145.391081 96.153002 
L 146.161891 87.936766 
L 146.868467 82.329859 
L 147.639277 78.614896 
L 148.281618 77.751917 
L 148.410087 77.808065 
L 148.538555 77.825512 
L 149.180897 79.685709 
L 150.46558 89.373859 
L 151.878732 107.637561 
L 154.126928 140.934225 
L 155.347377 152.855505 
L 155.797016 155.142687 
L 156.182421 155.887836 
L 156.246655 155.874462 
L 156.310889 156.061956 
L 156.567826 155.604705 
L 156.63206 155.586392 
L 157.017465 154.206758 
L 157.595573 150.434478 
L 158.237914 144.424472 
L 160.48611 118.729152 
L 161.385388 111.97176 
L 161.513857 111.590412 
L 161.899262 110.12538 
L 161.963496 109.917134 
L 162.02773 110.038955 
L 162.348901 109.778249 
L 162.477369 109.904405 
L 162.605838 110.061118 
L 162.79854 110.664622 
L 162.862774 110.71823 
L 163.505116 114.125842 
L 164.982502 129.278982 
L 168.258444 173.576346 
L 169.221957 181.403483 
L 169.73583 184.08317 
L 170.185469 185.520112 
L 170.50664 186.23563 
L 170.763577 186.502927 
L 171.148982 186.786734 
L 171.213216 186.735766 
L 171.405918 186.831413 
L 171.662855 186.800925 
L 171.791323 186.967617 
L 171.855558 186.819197 
L 171.919792 186.861266 
L 172.176728 186.996613 
L 172.240963 186.849423 
L 172.305197 186.946229 
L 172.626368 187.1499 
L 173.397177 188.784909 
L 174.296456 193.018572 
L 175.067266 198.809638 
L 177.636633 220.949672 
L 178.150506 223.209954 
L 178.471677 223.916099 
L 178.664379 224.053925 
L 178.98555 223.790186 
L 179.306721 222.875069 
L 179.75636 220.622497 
L 180.270233 216.82114 
L 181.105277 208.412452 
L 183.481942 183.291891 
L 183.867347 180.832655 
L 184.060049 180.075522 
L 184.316986 179.226814 
L 184.573923 178.767245 
L 184.766625 178.760391 
L 184.830859 178.726557 
L 185.15203 179.422522 
L 185.408967 180.397255 
L 185.730138 182.215182 
L 186.179777 185.916246 
L 186.950587 194.774818 
L 187.592928 204.176712 
L 188.941846 227.087738 
L 190.676168 255.045274 
L 191.639681 267.120169 
L 192.474725 275.040416 
L 193.309769 280.73058 
L 194.080579 284.316089 
L 194.851389 286.648986 
L 195.493731 287.895974 
L 196.136073 288.694813 
L 196.842648 289.22239 
L 197.613458 289.534434 
L 198.705439 289.727216 
L 200.696698 289.807948 
L 212.515785 289.816 
L 290.753 289.706032 
L 291.973449 289.46303 
L 292.872728 289.060762 
L 293.643538 288.460998 
L 294.414348 287.527958 
L 295.120923 286.311206 
L 295.955968 284.386496 
L 297.304885 280.239912 
L 300.452359 269.74588 
L 301.608574 266.515697 
L 302.829023 263.01736 
L 304.370643 258.379018 
L 305.141453 256.626514 
L 305.655327 255.957844 
L 306.040732 255.817633 
L 306.361903 255.98326 
L 306.618839 256.28648 
L 307.132713 257.43387 
L 307.646586 259.234427 
L 308.160459 261.597458 
L 309.123972 267.077642 
L 311.050997 277.783991 
L 311.629104 279.927208 
L 312.142978 281.185708 
L 312.528383 281.693095 
L 312.849553 281.822448 
L 313.170724 281.676624 
L 313.491895 281.264384 
L 313.8773 280.413741 
L 314.455408 278.480968 
L 315.097749 275.512053 
L 316.18973 269.097507 
L 317.859818 259.171547 
L 318.566394 256.118622 
L 319.144502 254.451932 
L 319.594141 253.694364 
L 320.108014 253.380776 
L 320.493419 253.475509 
L 321.071527 254.025096 
L 321.5854 254.759493 
L 323.448191 257.264818 
L 324.090533 257.366557 
L 324.732874 256.821964 
L 325.054045 256.322496 
L 325.824855 254.313835 
L 326.338728 252.413089 
L 327.302241 247.575447 
L 328.458456 240.175486 
L 332.37674 214.713863 
L 336.616195 194.575108 
L 337.258537 192.647252 
L 337.322771 192.648562 
L 337.579708 192.001207 
L 337.77241 191.783708 
L 337.836644 191.897497 
L 338.029347 191.507249 
L 338.157815 191.700156 
L 338.222049 191.542625 
L 338.414752 191.707009 
L 338.671688 192.064904 
L 339.570967 194.788978 
L 341.241055 206.41215 
L 342.011865 213.54818 
L 343.681953 227.08157 
L 344.003124 228.827001 
L 344.516998 230.591582 
L 344.902403 231.039681 
L 345.030871 231.023253 
L 345.287808 230.711619 
L 345.608978 229.822576 
L 346.058618 227.710078 
L 346.700959 223.015213 
L 348.049877 208.304831 
L 349.013389 195.83535 
L 350.747712 171.539912 
L 351.64699 157.932041 
L 352.353566 146.972652 
L 352.995908 136.875598 
L 354.087888 121.562006 
L 354.665996 115.417016 
L 355.244103 111.775578 
L 355.629508 110.806006 
L 356.079148 111.681846 
L 356.143382 111.855199 
L 356.978426 119.397099 
L 357.620768 129.952532 
L 358.391578 146.774908 
L 361.089413 210.986474 
L 361.795988 221.169096 
L 362.245628 225.225777 
L 362.631033 227.157765 
L 362.887969 227.678935 
L 363.080672 227.673593 
L 363.337608 227.184171 
L 363.658779 225.832415 
L 364.108418 222.788745 
L 364.879228 215.075306 
L 365.906975 202.57065 
L 366.870488 190.636549 
L 367.512829 183.4212 
L 369.054449 170.089888 
L 369.825259 165.520806 
L 369.953728 165.052347 
L 370.403367 163.254305 
L 370.467601 163.185669 
L 370.724538 162.491649 
L 371.109943 161.934297 
L 371.302645 161.999808 
L 371.431113 161.949415 
L 371.816518 162.629728 
L 372.073455 163.399741 
L 372.523094 165.543483 
L 373.101202 169.676762 
L 374.128948 180.738147 
L 375.734803 202.882082 
L 376.634081 213.841773 
L 377.276423 219.171092 
L 377.726062 221.215055 
L 377.982998 221.623747 
L 378.111467 221.660836 
L 378.239935 221.567709 
L 378.496872 220.904832 
L 378.818043 219.327514 
L 379.331916 214.930374 
L 379.910023 207.556386 
L 380.423897 199.250521 
L 381.644346 176.117058 
L 382.607858 158.625456 
L 383.314434 148.91361 
L 383.764073 144.810567 
L 384.277947 142.339267 
L 384.470649 141.873631 
L 384.727586 141.952245 
L 385.112991 143.19495 
L 385.755333 147.784795 
L 386.204972 152.322936 
L 387.553889 168.559436 
L 388.324699 175.527957 
L 388.902807 177.827919 
L 389.159743 177.763113 
L 389.41668 176.938372 
L 389.609383 175.97777 
L 390.059022 172.014721 
L 390.765598 161.285228 
L 391.793344 137.670809 
L 394.491179 70.98502 
L 394.940818 64.884377 
L 395.58316 60.597901 
L 395.775863 60.301587 
L 395.904331 60.326784 
L 395.968565 60.38524 
L 396.482438 63.211311 
L 397.253248 72.83144 
L 398.216761 91.733054 
L 399.051805 112.202915 
L 400.143786 139.419465 
L 401.300001 164.363266 
L 402.135045 177.784077 
L 402.841621 185.621786 
L 403.355494 189.292251 
L 403.676665 190.632216 
L 403.997836 191.39598 
L 404.383241 191.430752 
L 405.089817 188.743264 
L 405.410988 186.412965 
L 405.796393 182.775961 
L 406.502968 173.269722 
L 407.273778 158.832674 
L 408.108823 139.068726 
L 410.613955 73.142872 
L 411.448999 59.027638 
L 411.77017 55.685538 
L 412.155575 53.106396 
L 412.412512 52.390807 
L 412.54098 52.457327 
L 412.669448 52.458334 
L 413.31179 56.015111 
L 414.275303 67.84651 
L 417.101606 113.324373 
L 417.808182 122.390677 
L 421.276827 166.135909 
L 423.846193 198.621307 
L 424.552769 203.731112 
L 425.066643 206.236277 
L 425.708984 208.131377 
L 426.672497 209.56084 
L 427.057902 210.046735 
L 427.764478 211.413912 
L 428.406819 213.702586 
L 428.856458 216.049514 
L 429.434566 220.040381 
L 430.141142 226.366183 
L 431.168888 237.749875 
L 433.609787 266.168966 
L 434.509065 274.204935 
L 435.344109 279.837301 
L 436.114919 283.576851 
L 436.821495 285.950675 
L 437.528071 287.533252 
L 438.170412 288.458773 
L 438.876988 289.084962 
L 439.647798 289.464096 
L 440.675545 289.695115 
L 442.345633 289.799015 
L 443.501848 289.812308 
L 443.501848 289.812308 
" clip-path="url(#p35a31e43ec)" style="fill: none; stroke: #000000; stroke-width: 2; stroke-linecap: square"/>
   </g>
   <g id="matplotlib.axis_1">
    <g id="xtick_1">
     <g id="line2d_5">
      <defs>
       <path id="m00d881c6cc" d="M 0 0 
L 0 3.5 
" style="stroke: #000000; stroke-width: 0.8"/>
      </defs>
      <g>
       <use xlink:href="#m00d881c6cc" x="59.51" y="289.816" style="stroke: #000000; stroke-width: 0.8"/>
      </g>
     </g>
     <g id="text_1">
      <!-- −3 -->
      <g transform="translate(47.71625 308.9735) scale(0.16 -0.16)">
       <defs>
        <path id="DejaVuSans-2212" d="M 678 2272 
L 4684 2272 
L 4684 1741 
L 678 1741 
L 678 2272 
z
" transform="scale(0.015625)"/>
        <path id="DejaVuSans-33" d="M 2597 2516 
Q 3050 2419 3304 2112 
Q 3559 1806 3559 1356 
Q 3559 666 3084 287 
Q 2609 -91 1734 -91 
Q 1441 -91 1130 -33 
Q 819 25 488 141 
L 488 750 
Q 750 597 1062 519 
Q 1375 441 1716 441 
Q 2309 441 2620 675 
Q 2931 909 2931 1356 
Q 2931 1769 2642 2001 
Q 2353 2234 1838 2234 
L 1294 2234 
L 1294 2753 
L 1863 2753 
Q 2328 2753 2575 2939 
Q 2822 3125 2822 3475 
Q 2822 3834 2567 4026 
Q 2313 4219 1838 4219 
Q 1578 4219 1281 4162 
Q 984 4106 628 3988 
L 628 4550 
Q 988 4650 1302 4700 
Q 1616 4750 1894 4750 
Q 2613 4750 3031 4423 
Q 3450 4097 3450 3541 
Q 3450 3153 3228 2886 
Q 3006 2619 2597 2516 
z
" transform="scale(0.015625)"/>
       </defs>
       <use xlink:href="#DejaVuSans-2212"/>
       <use xlink:href="#DejaVuSans-33" x="83.789062"/>
      </g>
     </g>
    </g>
    <g id="xtick_2">
     <g id="line2d_6">
      <g>
       <use xlink:href="#m00d881c6cc" x="123.744167" y="289.816" style="stroke: #000000; stroke-width: 0.8"/>
      </g>
     </g>
     <g id="text_2">
      <!-- −2 -->
      <g transform="translate(111.950417 308.9735) scale(0.16 -0.16)">
       <defs>
        <path id="DejaVuSans-32" d="M 1228 531 
L 3431 531 
L 3431 0 
L 469 0 
L 469 531 
Q 828 903 1448 1529 
Q 2069 2156 2228 2338 
Q 2531 2678 2651 2914 
Q 2772 3150 2772 3378 
Q 2772 3750 2511 3984 
Q 2250 4219 1831 4219 
Q 1534 4219 1204 4116 
Q 875 4013 500 3803 
L 500 4441 
Q 881 4594 1212 4672 
Q 1544 4750 1819 4750 
Q 2544 4750 2975 4387 
Q 3406 4025 3406 3419 
Q 3406 3131 3298 2873 
Q 3191 2616 2906 2266 
Q 2828 2175 2409 1742 
Q 1991 1309 1228 531 
z
" transform="scale(0.015625)"/>
       </defs>
       <use xlink:href="#DejaVuSans-2212"/>
       <use xlink:href="#DejaVuSans-32" x="83.789062"/>
      </g>
     </g>
    </g>
    <g id="xtick_3">
     <g id="line2d_7">
      <g>
       <use xlink:href="#m00d881c6cc" x="187.978333" y="289.816" style="stroke: #000000; stroke-width: 0.8"/>
      </g>
     </g>
     <g id="text_3">
      <!-- −1 -->
      <g transform="translate(176.184583 308.9735) scale(0.16 -0.16)">
       <defs>
        <path id="DejaVuSans-31" d="M 794 531 
L 1825 531 
L 1825 4091 
L 703 3866 
L 703 4441 
L 1819 4666 
L 2450 4666 
L 2450 531 
L 3481 531 
L 3481 0 
L 794 0 
L 794 531 
z
" transform="scale(0.015625)"/>
       </defs>
       <use xlink:href="#DejaVuSans-2212"/>
       <use xlink:href="#DejaVuSans-31" x="83.789062"/>
      </g>
     </g>
    </g>
    <g id="xtick_4">
     <g id="line2d_8">
      <g>
       <use xlink:href="#m00d881c6cc" x="252.2125" y="289.816" style="stroke: #000000; stroke-width: 0.8"/>
      </g>
     </g>
     <g id="text_4">
      <!-- 0 -->
      <g transform="translate(247.1225 308.9735) scale(0.16 -0.16)">
       <defs>
        <path id="DejaVuSans-30" d="M 2034 4250 
Q 1547 4250 1301 3770 
Q 1056 3291 1056 2328 
Q 1056 1369 1301 889 
Q 1547 409 2034 409 
Q 2525 409 2770 889 
Q 3016 1369 3016 2328 
Q 3016 3291 2770 3770 
Q 2525 4250 2034 4250 
z
M 2034 4750 
Q 2819 4750 3233 4129 
Q 3647 3509 3647 2328 
Q 3647 1150 3233 529 
Q 2819 -91 2034 -91 
Q 1250 -91 836 529 
Q 422 1150 422 2328 
Q 422 3509 836 4129 
Q 1250 4750 2034 4750 
z
" transform="scale(0.015625)"/>
       </defs>
       <use xlink:href="#DejaVuSans-30"/>
      </g>
     </g>
    </g>
    <g id="xtick_5">
     <g id="line2d_9">
      <g>
       <use xlink:href="#m00d881c6cc" x="316.446667" y="289.816" style="stroke: #000000; stroke-width: 0.8"/>
      </g>
     </g>
     <g id="text_5">
      <!-- 1 -->
      <g transform="translate(311.356667 308.9735) scale(0.16 -0.16)">
       <use xlink:href="#DejaVuSans-31"/>
      </g>
     </g>
    </g>
    <g id="xtick_6">
     <g id="line2d_10">
      <g>
       <use xlink:href="#m00d881c6cc" x="380.680833" y="289.816" style="stroke: #000000; stroke-width: 0.8"/>
      </g>
     </g>
     <g id="text_6">
      <!-- 2 -->
      <g transform="translate(375.590833 308.9735) scale(0.16 -0.16)">
       <use xlink:href="#DejaVuSans-32"/>
      </g>
     </g>
    </g>
    <g id="xtick_7">
     <g id="line2d_11">
      <g>
       <use xlink:href="#m00d881c6cc" x="444.915" y="289.816" style="stroke: #000000; stroke-width: 0.8"/>
      </g>
     </g>
     <g id="text_7">
      <!-- 3 -->
      <g transform="translate(439.825 308.9735) scale(0.16 -0.16)">
       <use xlink:href="#DejaVuSans-33"/>
      </g>
     </g>
    </g>
    <g id="text_8">
     <!-- $E$-$E_F$ (eV) -->
     <g transform="translate(212.0725 329.978187) scale(0.18 -0.18)">
      <defs>
       <path id="DejaVuSans-Oblique-45" d="M 1081 4666 
L 4031 4666 
L 3928 4134 
L 1606 4134 
L 1338 2753 
L 3566 2753 
L 3463 2222 
L 1234 2222 
L 909 531 
L 3284 531 
L 3181 0 
L 172 0 
L 1081 4666 
z
" transform="scale(0.015625)"/>
       <path id="DejaVuSans-2d" d="M 313 2009 
L 1997 2009 
L 1997 1497 
L 313 1497 
L 313 2009 
z
" transform="scale(0.015625)"/>
       <path id="DejaVuSans-Oblique-46" d="M 1081 4666 
L 3756 4666 
L 3653 4134 
L 1606 4134 
L 1338 2759 
L 3188 2759 
L 3084 2228 
L 1234 2228 
L 800 0 
L 172 0 
L 1081 4666 
z
" transform="scale(0.015625)"/>
       <path id="DejaVuSans-20" transform="scale(0.015625)"/>
       <path id="DejaVuSans-28" d="M 1984 4856 
Q 1566 4138 1362 3434 
Q 1159 2731 1159 2009 
Q 1159 1288 1364 580 
Q 1569 -128 1984 -844 
L 1484 -844 
Q 1016 -109 783 600 
Q 550 1309 550 2009 
Q 550 2706 781 3412 
Q 1013 4119 1484 4856 
L 1984 4856 
z
" transform="scale(0.015625)"/>
       <path id="DejaVuSans-65" d="M 3597 1894 
L 3597 1613 
L 953 1613 
Q 991 1019 1311 708 
Q 1631 397 2203 397 
Q 2534 397 2845 478 
Q 3156 559 3463 722 
L 3463 178 
Q 3153 47 2828 -22 
Q 2503 -91 2169 -91 
Q 1331 -91 842 396 
Q 353 884 353 1716 
Q 353 2575 817 3079 
Q 1281 3584 2069 3584 
Q 2775 3584 3186 3129 
Q 3597 2675 3597 1894 
z
M 3022 2063 
Q 3016 2534 2758 2815 
Q 2500 3097 2075 3097 
Q 1594 3097 1305 2825 
Q 1016 2553 972 2059 
L 3022 2063 
z
" transform="scale(0.015625)"/>
       <path id="DejaVuSans-56" d="M 1831 0 
L 50 4666 
L 709 4666 
L 2188 738 
L 3669 4666 
L 4325 4666 
L 2547 0 
L 1831 0 
z
" transform="scale(0.015625)"/>
       <path id="DejaVuSans-29" d="M 513 4856 
L 1013 4856 
Q 1481 4119 1714 3412 
Q 1947 2706 1947 2009 
Q 1947 1309 1714 600 
Q 1481 -109 1013 -844 
L 513 -844 
Q 928 -128 1133 580 
Q 1338 1288 1338 2009 
Q 1338 2731 1133 3434 
Q 928 4138 513 4856 
z
" transform="scale(0.015625)"/>
      </defs>
      <use xlink:href="#DejaVuSans-Oblique-45" transform="translate(0 0.125)"/>
      <use xlink:href="#DejaVuSans-2d" transform="translate(63.183594 0.125)"/>
      <use xlink:href="#DejaVuSans-Oblique-45" transform="translate(99.267578 0.125)"/>
      <use xlink:href="#DejaVuSans-Oblique-46" transform="translate(162.451172 -16.28125) scale(0.7)"/>
      <use xlink:href="#DejaVuSans-20" transform="translate(205.449219 0.125)"/>
      <use xlink:href="#DejaVuSans-28" transform="translate(237.236328 0.125)"/>
      <use xlink:href="#DejaVuSans-65" transform="translate(276.25 0.125)"/>
      <use xlink:href="#DejaVuSans-56" transform="translate(337.773438 0.125)"/>
      <use xlink:href="#DejaVuSans-29" transform="translate(406.181641 0.125)"/>
     </g>
    </g>
   </g>
   <g id="matplotlib.axis_2">
    <g id="ytick_1">
     <g id="line2d_12">
      <defs>
       <path id="m2f5381ebf4" d="M 0 0 
L -3.5 0 
" style="stroke: #000000; stroke-width: 0.8"/>
      </defs>
      <g>
       <use xlink:href="#m2f5381ebf4" x="59.51" y="289.816" style="stroke: #000000; stroke-width: 0.8"/>
      </g>
     </g>
     <g id="text_9">
      <!-- 0 -->
      <g transform="translate(42.33 295.89475) scale(0.16 -0.16)">
       <use xlink:href="#DejaVuSans-30"/>
      </g>
     </g>
    </g>
    <g id="ytick_2">
     <g id="line2d_13">
      <g>
       <use xlink:href="#m2f5381ebf4" x="59.51" y="239.422447" style="stroke: #000000; stroke-width: 0.8"/>
      </g>
     </g>
     <g id="text_10">
      <!-- 5 -->
      <g transform="translate(42.33 245.501197) scale(0.16 -0.16)">
       <defs>
        <path id="DejaVuSans-35" d="M 691 4666 
L 3169 4666 
L 3169 4134 
L 1269 4134 
L 1269 2991 
Q 1406 3038 1543 3061 
Q 1681 3084 1819 3084 
Q 2600 3084 3056 2656 
Q 3513 2228 3513 1497 
Q 3513 744 3044 326 
Q 2575 -91 1722 -91 
Q 1428 -91 1123 -41 
Q 819 9 494 109 
L 494 744 
Q 775 591 1075 516 
Q 1375 441 1709 441 
Q 2250 441 2565 725 
Q 2881 1009 2881 1497 
Q 2881 1984 2565 2268 
Q 2250 2553 1709 2553 
Q 1456 2553 1204 2497 
Q 953 2441 691 2322 
L 691 4666 
z
" transform="scale(0.015625)"/>
       </defs>
       <use xlink:href="#DejaVuSans-35"/>
      </g>
     </g>
    </g>
    <g id="ytick_3">
     <g id="line2d_14">
      <g>
       <use xlink:href="#m2f5381ebf4" x="59.51" y="189.028894" style="stroke: #000000; stroke-width: 0.8"/>
      </g>
     </g>
     <g id="text_11">
      <!-- 10 -->
      <g transform="translate(32.15 195.107644) scale(0.16 -0.16)">
       <use xlink:href="#DejaVuSans-31"/>
       <use xlink:href="#DejaVuSans-30" x="63.623047"/>
      </g>
     </g>
    </g>
    <g id="ytick_4">
     <g id="line2d_15">
      <g>
       <use xlink:href="#m2f5381ebf4" x="59.51" y="138.635341" style="stroke: #000000; stroke-width: 0.8"/>
      </g>
     </g>
     <g id="text_12">
      <!-- 15 -->
      <g transform="translate(32.15 144.714091) scale(0.16 -0.16)">
       <use xlink:href="#DejaVuSans-31"/>
       <use xlink:href="#DejaVuSans-35" x="63.623047"/>
      </g>
     </g>
    </g>
    <g id="ytick_5">
     <g id="line2d_16">
      <g>
       <use xlink:href="#m2f5381ebf4" x="59.51" y="88.241788" style="stroke: #000000; stroke-width: 0.8"/>
      </g>
     </g>
     <g id="text_13">
      <!-- 20 -->
      <g transform="translate(32.15 94.320538) scale(0.16 -0.16)">
       <use xlink:href="#DejaVuSans-32"/>
       <use xlink:href="#DejaVuSans-30" x="63.623047"/>
      </g>
     </g>
    </g>
    <g id="ytick_6">
     <g id="line2d_17">
      <g>
       <use xlink:href="#m2f5381ebf4" x="59.51" y="37.848236" style="stroke: #000000; stroke-width: 0.8"/>
      </g>
     </g>
     <g id="text_14">
      <!-- 25 -->
      <g transform="translate(32.15 43.926986) scale(0.16 -0.16)">
       <use xlink:href="#DejaVuSans-32"/>
       <use xlink:href="#DejaVuSans-35" x="63.623047"/>
      </g>
     </g>
    </g>
    <g id="text_15">
     <!-- DOS (States/eV) -->
     <g transform="translate(24.406563 223.157375) rotate(-90) scale(0.18 -0.18)">
      <defs>
       <path id="DejaVuSans-44" d="M 1259 4147 
L 1259 519 
L 2022 519 
Q 2988 519 3436 956 
Q 3884 1394 3884 2338 
Q 3884 3275 3436 3711 
Q 2988 4147 2022 4147 
L 1259 4147 
z
M 628 4666 
L 1925 4666 
Q 3281 4666 3915 4102 
Q 4550 3538 4550 2338 
Q 4550 1131 3912 565 
Q 3275 0 1925 0 
L 628 0 
L 628 4666 
z
" transform="scale(0.015625)"/>
       <path id="DejaVuSans-4f" d="M 2522 4238 
Q 1834 4238 1429 3725 
Q 1025 3213 1025 2328 
Q 1025 1447 1429 934 
Q 1834 422 2522 422 
Q 3209 422 3611 934 
Q 4013 1447 4013 2328 
Q 4013 3213 3611 3725 
Q 3209 4238 2522 4238 
z
M 2522 4750 
Q 3503 4750 4090 4092 
Q 4678 3434 4678 2328 
Q 4678 1225 4090 567 
Q 3503 -91 2522 -91 
Q 1538 -91 948 565 
Q 359 1222 359 2328 
Q 359 3434 948 4092 
Q 1538 4750 2522 4750 
z
" transform="scale(0.015625)"/>
       <path id="DejaVuSans-53" d="M 3425 4513 
L 3425 3897 
Q 3066 4069 2747 4153 
Q 2428 4238 2131 4238 
Q 1616 4238 1336 4038 
Q 1056 3838 1056 3469 
Q 1056 3159 1242 3001 
Q 1428 2844 1947 2747 
L 2328 2669 
Q 3034 2534 3370 2195 
Q 3706 1856 3706 1288 
Q 3706 609 3251 259 
Q 2797 -91 1919 -91 
Q 1588 -91 1214 -16 
Q 841 59 441 206 
L 441 856 
Q 825 641 1194 531 
Q 1563 422 1919 422 
Q 2459 422 2753 634 
Q 3047 847 3047 1241 
Q 3047 1584 2836 1778 
Q 2625 1972 2144 2069 
L 1759 2144 
Q 1053 2284 737 2584 
Q 422 2884 422 3419 
Q 422 4038 858 4394 
Q 1294 4750 2059 4750 
Q 2388 4750 2728 4690 
Q 3069 4631 3425 4513 
z
" transform="scale(0.015625)"/>
       <path id="DejaVuSans-74" d="M 1172 4494 
L 1172 3500 
L 2356 3500 
L 2356 3053 
L 1172 3053 
L 1172 1153 
Q 1172 725 1289 603 
Q 1406 481 1766 481 
L 2356 481 
L 2356 0 
L 1766 0 
Q 1100 0 847 248 
Q 594 497 594 1153 
L 594 3053 
L 172 3053 
L 172 3500 
L 594 3500 
L 594 4494 
L 1172 4494 
z
" transform="scale(0.015625)"/>
       <path id="DejaVuSans-61" d="M 2194 1759 
Q 1497 1759 1228 1600 
Q 959 1441 959 1056 
Q 959 750 1161 570 
Q 1363 391 1709 391 
Q 2188 391 2477 730 
Q 2766 1069 2766 1631 
L 2766 1759 
L 2194 1759 
z
M 3341 1997 
L 3341 0 
L 2766 0 
L 2766 531 
Q 2569 213 2275 61 
Q 1981 -91 1556 -91 
Q 1019 -91 701 211 
Q 384 513 384 1019 
Q 384 1609 779 1909 
Q 1175 2209 1959 2209 
L 2766 2209 
L 2766 2266 
Q 2766 2663 2505 2880 
Q 2244 3097 1772 3097 
Q 1472 3097 1187 3025 
Q 903 2953 641 2809 
L 641 3341 
Q 956 3463 1253 3523 
Q 1550 3584 1831 3584 
Q 2591 3584 2966 3190 
Q 3341 2797 3341 1997 
z
" transform="scale(0.015625)"/>
       <path id="DejaVuSans-73" d="M 2834 3397 
L 2834 2853 
Q 2591 2978 2328 3040 
Q 2066 3103 1784 3103 
Q 1356 3103 1142 2972 
Q 928 2841 928 2578 
Q 928 2378 1081 2264 
Q 1234 2150 1697 2047 
L 1894 2003 
Q 2506 1872 2764 1633 
Q 3022 1394 3022 966 
Q 3022 478 2636 193 
Q 2250 -91 1575 -91 
Q 1294 -91 989 -36 
Q 684 19 347 128 
L 347 722 
Q 666 556 975 473 
Q 1284 391 1588 391 
Q 1994 391 2212 530 
Q 2431 669 2431 922 
Q 2431 1156 2273 1281 
Q 2116 1406 1581 1522 
L 1381 1569 
Q 847 1681 609 1914 
Q 372 2147 372 2553 
Q 372 3047 722 3315 
Q 1072 3584 1716 3584 
Q 2034 3584 2315 3537 
Q 2597 3491 2834 3397 
z
" transform="scale(0.015625)"/>
       <path id="DejaVuSans-2f" d="M 1625 4666 
L 2156 4666 
L 531 -594 
L 0 -594 
L 1625 4666 
z
" transform="scale(0.015625)"/>
      </defs>
      <use xlink:href="#DejaVuSans-44"/>
      <use xlink:href="#DejaVuSans-4f" x="77.001953"/>
      <use xlink:href="#DejaVuSans-53" x="155.712891"/>
      <use xlink:href="#DejaVuSans-20" x="219.189453"/>
      <use xlink:href="#DejaVuSans-28" x="250.976562"/>
      <use xlink:href="#DejaVuSans-53" x="289.990234"/>
      <use xlink:href="#DejaVuSans-74" x="353.466797"/>
      <use xlink:href="#DejaVuSans-61" x="392.675781"/>
      <use xlink:href="#DejaVuSans-74" x="453.955078"/>
      <use xlink:href="#DejaVuSans-65" x="493.164062"/>
      <use xlink:href="#DejaVuSans-73" x="554.6875"/>
      <use xlink:href="#DejaVuSans-2f" x="606.787109"/>
      <use xlink:href="#DejaVuSans-65" x="640.478516"/>
      <use xlink:href="#DejaVuSans-56" x="702.001953"/>
      <use xlink:href="#DejaVuSans-29" x="770.410156"/>
     </g>
    </g>
   </g>
   <g id="line2d_18">
    <path d="M 252.2125 289.816 
L 252.2125 10.8 
" clip-path="url(#p35a31e43ec)" style="fill: none; stroke-dasharray: 5.55,2.4; stroke-dashoffset: 0; stroke: #808080; stroke-width: 1.5"/>
   </g>
   <g id="line2d_19">
    <path d="M 252.2125 289.816 
L 252.2125 10.8 
" clip-path="url(#p35a31e43ec)" style="fill: none; stroke-dasharray: 5.55,2.4; stroke-dashoffset: 0; stroke: #808080; stroke-width: 1.5"/>
   </g>
   <g id="line2d_20">
    <path d="M 252.2125 289.816 
L 252.2125 10.8 
" clip-path="url(#p35a31e43ec)" style="fill: none; stroke-dasharray: 5.55,2.4; stroke-dashoffset: 0; stroke: #808080; stroke-width: 1.5"/>
   </g>
   <g id="line2d_21">
    <path d="M 252.2125 289.816 
L 252.2125 10.8 
" clip-path="url(#p35a31e43ec)" style="fill: none; stroke-dasharray: 5.55,2.4; stroke-dashoffset: 0; stroke: #808080; stroke-width: 1.5"/>
   </g>
   <g id="patch_3">
    <path d="M 59.51 289.816 
L 59.51 10.8 
" style="fill: none; stroke: #000000; stroke-width: 0.8; stroke-linejoin: miter; stroke-linecap: square"/>
   </g>
   <g id="patch_4">
    <path d="M 444.915 289.816 
L 444.915 10.8 
" style="fill: none; stroke: #000000; stroke-width: 0.8; stroke-linejoin: miter; stroke-linecap: square"/>
   </g>
   <g id="patch_5">
    <path d="M 59.51 289.816 
L 444.915 289.816 
" style="fill: none; stroke: #000000; stroke-width: 0.8; stroke-linejoin: miter; stroke-linecap: square"/>
   </g>
   <g id="patch_6">
    <path d="M 59.51 10.8 
L 444.915 10.8 
" style="fill: none; stroke: #000000; stroke-width: 0.8; stroke-linejoin: miter; stroke-linecap: square"/>
   </g>
   <g id="legend_1">
    <g id="patch_7">
     <path d="M 382.561875 77.5125 
L 437.915 77.5125 
Q 439.915 77.5125 439.915 75.5125 
L 439.915 17.8 
Q 439.915 15.8 437.915 15.8 
L 382.561875 15.8 
Q 380.561875 15.8 380.561875 17.8 
L 380.561875 75.5125 
Q 380.561875 77.5125 382.561875 77.5125 
z
" style="fill: #ffffff; opacity: 0.8; stroke: #cccccc; stroke-linejoin: miter"/>
    </g>
    <g id="line2d_22">
     <path d="M 384.561875 23.898438 
L 394.561875 23.898438 
L 404.561875 23.898438 
" style="fill: none; stroke: #1f77b4; stroke-width: 2; stroke-linecap: square"/>
    </g>
    <g id="text_16">
     <!-- S -->
     <g transform="translate(412.561875 27.398438) scale(0.1 -0.1)">
      <use xlink:href="#DejaVuSans-53"/>
     </g>
    </g>
    <g id="line2d_23">
     <path d="M 384.561875 38.576563 
L 394.561875 38.576563 
L 404.561875 38.576563 
" style="fill: none; stroke: #ff7f0e; stroke-width: 2; stroke-linecap: square"/>
    </g>
    <g id="text_17">
     <!-- Sb -->
     <g transform="translate(412.561875 42.076563) scale(0.1 -0.1)">
      <defs>
       <path id="DejaVuSans-62" d="M 3116 1747 
Q 3116 2381 2855 2742 
Q 2594 3103 2138 3103 
Q 1681 3103 1420 2742 
Q 1159 2381 1159 1747 
Q 1159 1113 1420 752 
Q 1681 391 2138 391 
Q 2594 391 2855 752 
Q 3116 1113 3116 1747 
z
M 1159 2969 
Q 1341 3281 1617 3432 
Q 1894 3584 2278 3584 
Q 2916 3584 3314 3078 
Q 3713 2572 3713 1747 
Q 3713 922 3314 415 
Q 2916 -91 2278 -91 
Q 1894 -91 1617 61 
Q 1341 213 1159 525 
L 1159 0 
L 581 0 
L 581 4863 
L 1159 4863 
L 1159 2969 
z
" transform="scale(0.015625)"/>
      </defs>
      <use xlink:href="#DejaVuSans-53"/>
      <use xlink:href="#DejaVuSans-62" x="63.476562"/>
     </g>
    </g>
    <g id="line2d_24">
     <path d="M 384.561875 53.254688 
L 394.561875 53.254688 
L 404.561875 53.254688 
" style="fill: none; stroke: #2ca02c; stroke-width: 2; stroke-linecap: square"/>
    </g>
    <g id="text_18">
     <!-- Se -->
     <g transform="translate(412.561875 56.754688) scale(0.1 -0.1)">
      <use xlink:href="#DejaVuSans-53"/>
      <use xlink:href="#DejaVuSans-65" x="63.476562"/>
     </g>
    </g>
    <g id="line2d_25">
     <path d="M 384.561875 67.932813 
L 394.561875 67.932813 
L 404.561875 67.932813 
" style="fill: none; stroke: #000000; stroke-width: 2; stroke-linecap: square"/>
    </g>
    <g id="text_19">
     <!-- Total -->
     <g transform="translate(412.561875 71.432813) scale(0.1 -0.1)">
      <defs>
       <path id="DejaVuSans-54" d="M -19 4666 
L 3928 4666 
L 3928 4134 
L 2272 4134 
L 2272 0 
L 1638 0 
L 1638 4134 
L -19 4134 
L -19 4666 
z
" transform="scale(0.015625)"/>
       <path id="DejaVuSans-6f" d="M 1959 3097 
Q 1497 3097 1228 2736 
Q 959 2375 959 1747 
Q 959 1119 1226 758 
Q 1494 397 1959 397 
Q 2419 397 2687 759 
Q 2956 1122 2956 1747 
Q 2956 2369 2687 2733 
Q 2419 3097 1959 3097 
z
M 1959 3584 
Q 2709 3584 3137 3096 
Q 3566 2609 3566 1747 
Q 3566 888 3137 398 
Q 2709 -91 1959 -91 
Q 1206 -91 779 398 
Q 353 888 353 1747 
Q 353 2609 779 3096 
Q 1206 3584 1959 3584 
z
" transform="scale(0.015625)"/>
       <path id="DejaVuSans-6c" d="M 603 4863 
L 1178 4863 
L 1178 0 
L 603 0 
L 603 4863 
z
" transform="scale(0.015625)"/>
      </defs>
      <use xlink:href="#DejaVuSans-54"/>
      <use xlink:href="#DejaVuSans-6f" x="44.083984"/>
      <use xlink:href="#DejaVuSans-74" x="105.265625"/>
      <use xlink:href="#DejaVuSans-61" x="144.474609"/>
      <use xlink:href="#DejaVuSans-6c" x="205.753906"/>
     </g>
    </g>
   </g>
  </g>
 </g>
 <defs>
  <clipPath id="p35a31e43ec">
   <rect x="59.51" y="10.8" width="385.405" height="279.016"/>
  </clipPath>
 </defs>
</svg>
