<?xml version="1.0" encoding="utf-8" standalone="no"?>
<!DOCTYPE svg PUBLIC "-//W3C//DTD SVG 1.1//EN"
  "http://www.w3.org/Graphics/SVG/1.1/DTD/svg11.dtd">
<svg xmlns:xlink="http://www.w3.org/1999/xlink" width="460.8pt" height="345.6pt" viewBox="0 0 460.8 345.6" xmlns="http://www.w3.org/2000/svg" version="1.1">
 <metadata>
  <rdf:RDF xmlns:dc="http://purl.org/dc/elements/1.1/" xmlns:cc="http://creativecommons.org/ns#" xmlns:rdf="http://www.w3.org/1999/02/22-rdf-syntax-ns#">
   <cc:Work>
    <dc:type rdf:resource="http://purl.org/dc/dcmitype/StillImage"/>
    <dc:date>2024-05-04T23:47:52.786902</dc:date>
    <dc:format>image/svg+xml</dc:format>
    <dc:creator>
     <cc:Agent>
      <dc:title>Matplotlib v3.8.4, https://matplotlib.org/</dc:title>
     </cc:Agent>
    </dc:creator>
   </cc:Work>
  </rdf:RDF>
 </metadata>
 <defs>
  <style type="text/css">*{stroke-linejoin: round; stroke-linecap: butt}</style>
 </defs>
 <g id="figure_1">
  <g id="patch_1">
   <path d="M 0 345.6 
L 460.8 345.6 
L 460.8 0 
L 0 0 
z
" style="fill: #ffffff"/>
  </g>
  <g id="axes_1">
   <g id="patch_2">
    <path d="M 71.84 277 
L 450 277 
L 450 18.72 
L 71.84 18.72 
z
" style="fill: #ffffff"/>
   </g>
   <g id="line2d_1">
    <path d="M 71.802184 231.092323 
L 72.369424 237.894807 
L 73.012296 245.420914 
L 73.617352 251.643146 
L 74.033328 254.792681 
L 74.524936 256.958893 
L 74.827464 257.423779 
L 74.978728 257.429203 
L 75.24344 257.098854 
L 75.545968 256.280374 
L 76.113208 253.947856 
L 77.096424 249.960434 
L 77.5124 249.10638 
L 77.814928 248.960968 
L 77.966192 249.031005 
L 78.117456 249.196003 
L 78.382168 249.715792 
L 78.83596 251.133921 
L 79.365384 253.310765 
L 80.3486 257.28578 
L 80.878024 258.739725 
L 81.445264 259.545584 
L 81.709976 259.655336 
L 82.163768 259.435729 
L 82.352848 259.192369 
L 82.768824 258.317351 
L 83.109168 257.209123 
L 83.676408 254.404589 
L 84.205832 250.639117 
L 85.0756 242.131158 
L 86.739504 224.643975 
L 87.34456 220.954876 
L 87.987432 219.739324 
L 88.025248 219.705059 
L 88.063064 219.792271 
L 88.327776 220.106426 
L 88.403408 220.270778 
L 89.159728 223.346893 
L 89.42444 225.028881 
L 90.029496 228.84904 
L 90.407656 231.098823 
L 91.088344 234.035725 
L 91.353056 234.59757 
L 91.466504 234.655338 
L 91.579952 234.748491 
L 91.617768 234.715862 
L 91.731216 234.721975 
L 92.26064 233.483952 
L 92.676616 231.401699 
L 92.865696 230.342579 
L 93.319488 227.105642 
L 93.77328 223.588213 
L 94.90776 216.548189 
L 94.983392 216.121079 
L 95.021208 216.210272 
L 95.172472 215.701719 
L 95.323736 215.280292 
L 95.399368 215.370862 
L 95.512816 215.11792 
L 95.588448 215.208576 
L 95.626264 215.29708 
L 95.66408 215.127304 
L 95.777528 215.219682 
L 95.928792 215.572665 
L 97.138904 221.652318 
L 97.93304 226.961522 
L 98.046488 227.602314 
L 98.764992 231.365368 
L 99.294416 233.574092 
L 99.44568 234.11295 
L 100.731424 239.975992 
L 101.52556 245.397376 
L 102.773488 255.691745 
L 103.529808 260.348964 
L 103.945784 261.62076 
L 104.17268 261.831465 
L 104.323944 261.798156 
L 104.588656 261.306442 
L 104.929 260.008568 
L 105.420608 256.91675 
L 106.328192 249.012779 
L 106.857616 244.329302 
L 107.462672 240.239266 
L 108.067728 238.545035 
L 108.218992 238.662036 
L 108.445888 238.986608 
L 108.89968 240.909244 
L 110.563584 256.6797 
L 111.5468 266.171551 
L 112.30312 271.280889 
L 112.908176 273.893899 
L 113.399784 275.234078 
L 113.967024 276.146155 
L 114.534264 276.619686 
L 115.177136 276.863224 
L 116.198168 276.978584 
L 119.525976 276.999993 
L 173.37596 276.893086 
L 179.350888 276.482142 
L 180.863528 276.637275 
L 183.20812 276.884114 
L 184.682944 276.773727 
L 189.145232 276.321537 
L 192.170512 276.242785 
L 194.326024 275.866745 
L 195.952112 275.373671 
L 197.351304 274.661189 
L 199.09084 273.768142 
L 200.074056 273.575207 
L 202.418648 273.317788 
L 203.023704 272.838851 
L 203.780024 271.887864 
L 204.498528 270.70873 
L 206.691856 266.208201 
L 207.259096 265.144087 
L 208.015416 264.327922 
L 208.469208 264.332227 
L 209.11208 265.083822 
L 209.641504 266.319261 
L 210.511272 269.021731 
L 211.343224 271.44741 
L 211.872648 272.459524 
L 212.32644 272.882759 
L 212.7046 272.917454 
L 213.158392 272.614836 
L 213.725632 271.879513 
L 215.72988 269.158017 
L 218.263552 267.477216 
L 218.75516 267.497879 
L 219.13332 267.685562 
L 219.738376 268.319209 
L 220.986304 269.8422 
L 221.477912 269.965314 
L 221.893888 269.655378 
L 222.385496 268.704907 
L 222.877104 267.085492 
L 223.784688 262.72056 
L 225.221696 255.632496 
L 225.675488 254.380699 
L 226.091464 253.904602 
L 226.280544 253.877053 
L 226.583072 254.007053 
L 227.150312 254.747456 
L 227.944448 255.405209 
L 228.095712 255.339778 
L 228.511688 254.607124 
L 228.7764 253.70831 
L 229.230192 251.380346 
L 229.759616 247.683498 
L 230.931912 239.192113 
L 231.42352 237.226602 
L 231.688232 236.817659 
L 231.877312 236.834877 
L 232.142024 237.303225 
L 232.558 238.973436 
L 233.011792 241.814516 
L 234.978224 255.853755 
L 235.469832 257.579927 
L 235.885808 258.293641 
L 236.15052 258.423641 
L 236.377416 258.384039 
L 236.869024 257.851121 
L 237.511896 256.473627 
L 238.570744 252.799164 
L 239.402696 248.83801 
L 240.461544 244.090823 
L 240.839704 243.130883 
L 241.25568 242.831278 
L 241.44476 242.992272 
L 241.785104 243.667244 
L 242.541424 246.826009 
L 244.394408 255.034147 
L 245.03728 256.162831 
L 246.285208 257.843372 
L 247.003712 259.697823 
L 248.478536 264.39077 
L 248.970144 265.460911 
L 249.76428 266.269327 
L 250.558416 266.34087 
L 250.936576 266.332347 
L 251.806344 266.840987 
L 252.108872 267.240632 
L 252.638296 268.291745 
L 255.285416 275.159297 
L 255.928288 276.04665 
L 256.57116 276.559908 
L 257.289664 276.839405 
L 258.310696 276.970411 
L 260.088048 276.999257 
L 260.088048 276.999257 
" clip-path="url(#p905c596f82)" style="fill: none; stroke: #1f77b4; stroke-width: 2; stroke-linecap: square"/>
   </g>
   <g id="line2d_2">
    <path d="M 71.802184 262.738639 
L 72.104712 262.848839 
L 72.671952 262.840229 
L 72.861032 262.765328 
L 73.428272 262.273735 
L 73.844248 261.603068 
L 74.638384 259.721068 
L 75.508152 257.629861 
L 75.961944 257.015155 
L 76.18884 256.903233 
L 76.491368 256.986744 
L 76.680448 257.171844 
L 77.247688 258.275561 
L 77.70148 259.585901 
L 79.02504 263.214735 
L 79.441016 263.682222 
L 79.705728 263.733878 
L 79.97044 263.567718 
L 80.3486 262.980562 
L 80.91584 261.451544 
L 82.352848 255.449117 
L 84.168016 246.871638 
L 85.226864 242.623793 
L 86.021 240.728879 
L 86.626056 240.427552 
L 87.15548 241.03451 
L 87.873984 242.920815 
L 89.008464 247.056739 
L 89.764784 249.238344 
L 90.142944 249.770401 
L 90.36984 249.883183 
L 90.899264 249.375232 
L 91.239608 248.537544 
L 91.6934 246.82773 
L 92.82788 241.233386 
L 93.5842 238.183099 
L 94.037992 237.192681 
L 94.264888 236.970044 
L 94.491784 236.935176 
L 94.756496 237.155489 
L 95.09684 237.803341 
L 95.626264 239.556804 
L 96.571664 244.333607 
L 97.895224 251.320941 
L 98.386832 253.058305 
L 98.954072 254.176657 
L 99.218784 254.416858 
L 99.483496 254.477984 
L 99.899472 254.41858 
L 100.126368 254.315268 
L 100.882688 254.208512 
L 101.109584 254.361758 
L 101.374296 254.648449 
L 101.941536 255.820179 
L 103.718888 260.380543 
L 104.059232 260.509683 
L 104.286128 260.364185 
L 104.664288 259.710737 
L 105.004632 258.742187 
L 106.328192 253.473275 
L 106.857616 251.73505 
L 107.273592 250.910276 
L 107.538304 250.69246 
L 107.803016 250.72948 
L 108.33244 251.623129 
L 109.013128 254.269638 
L 109.769448 258.686226 
L 112.189672 272.819824 
L 112.832544 274.747738 
L 113.399784 275.802295 
L 113.967024 276.413377 
L 114.57208 276.750638 
L 115.366216 276.930151 
L 116.916672 276.996483 
L 132.648128 277 
L 170.501944 276.891736 
L 171.29608 276.640689 
L 171.938952 276.174284 
L 172.468376 275.506324 
L 173.073432 274.339585 
L 173.716304 272.621969 
L 174.964232 268.560634 
L 175.947448 265.700664 
L 178.745832 258.782908 
L 179.086176 258.542815 
L 179.350888 258.633441 
L 179.653416 259.066687 
L 179.99376 260.007614 
L 180.561 262.44597 
L 181.203872 265.947936 
L 182.111456 270.483644 
L 182.603064 272.035145 
L 182.981224 272.610247 
L 183.283752 272.650172 
L 183.510648 272.438824 
L 183.813176 271.834429 
L 184.191336 270.597652 
L 184.72076 268.151525 
L 185.514896 263.670548 
L 186.2334 260.027819 
L 186.80064 258.193325 
L 187.1788 257.634028 
L 187.405696 257.535046 
L 187.670408 257.618006 
L 188.048568 258.016609 
L 189.674656 260.247821 
L 190.015 260.244352 
L 190.241896 260.084511 
L 190.58224 259.627132 
L 191.073848 258.399527 
L 191.565456 256.5401 
L 192.435224 252.007484 
L 195.044528 236.911595 
L 195.157976 236.301951 
L 195.952112 231.816411 
L 196.216824 230.341546 
L 196.557168 228.2772 
L 197.237856 224.512338 
L 197.38912 223.870082 
L 197.76728 222.439555 
L 198.183256 221.65955 
L 198.447968 221.722914 
L 198.599232 221.910598 
L 198.90176 222.649106 
L 199.998424 229.876728 
L 200.338768 232.86322 
L 201.435432 241.474447 
L 201.813592 242.943371 
L 202.078304 243.286109 
L 202.267384 243.134585 
L 202.456464 242.677085 
L 202.721176 241.562434 
L 203.174968 238.337981 
L 203.590944 234.356164 
L 206.0868 204.771826 
L 207.0322 193.488606 
L 207.712888 187.318297 
L 208.16668 185.636033 
L 208.431392 185.661 
L 208.960816 188.93599 
L 209.338976 193.702978 
L 209.944032 204.69107 
L 211.57012 238.597896 
L 212.099544 245.021923 
L 212.477704 247.272316 
L 212.7046 247.697445 
L 212.818048 247.668001 
L 213.044944 247.152044 
L 213.347472 245.638868 
L 213.952528 240.494791 
L 214.633216 233.196401 
L 215.72988 222.49586 
L 215.91896 221.126632 
L 216.372752 218.071696 
L 216.4862 217.445798 
L 216.977808 215.381279 
L 217.582864 214.535843 
L 217.658496 214.491935 
L 217.696312 214.555644 
L 218.225736 215.976184 
L 218.603896 218.119908 
L 218.982056 221.122844 
L 220.07872 233.23101 
L 220.797224 240.347313 
L 221.251016 242.768602 
L 221.477912 243.165923 
L 221.666992 243.010955 
L 221.893888 242.237062 
L 222.196416 240.183391 
L 222.612392 235.627935 
L 223.368712 223.775379 
L 224.087216 211.513967 
L 224.767904 203.241259 
L 225.18388 200.987335 
L 225.221696 200.970977 
L 225.335144 200.727333 
L 225.37296 200.741969 
L 225.524224 200.870248 
L 225.826752 202.013568 
L 227.679736 217.45742 
L 227.831 217.845873 
L 227.868816 217.73025 
L 227.944448 217.825039 
L 227.982264 217.700634 
L 228.02008 217.712256 
L 228.360424 215.926078 
L 228.738584 211.640524 
L 228.96548 207.963478 
L 229.835248 187.74618 
L 230.705016 165.291317 
L 231.196624 156.103437 
L 231.499152 152.207713 
L 231.915128 150.204321 
L 231.99076 150.277501 
L 232.066392 150.351541 
L 232.17984 150.855187 
L 232.595816 154.382431 
L 233.427768 169.230948 
L 233.919376 180.936198 
L 234.63788 197.928439 
L 235.432016 213.098084 
L 236.074888 220.978207 
L 236.755576 224.542815 
L 236.944656 224.80936 
L 237.09592 224.652671 
L 237.133736 224.663002 
L 237.814424 221.134036 
L 238.343848 215.129026 
L 238.911088 205.41942 
L 241.028784 157.860602 
L 241.482576 152.825003 
L 241.709472 151.481947 
L 241.747288 151.481086 
L 241.898552 151.299429 
L 241.936368 151.215057 
L 242.20108 152.270561 
L 242.427976 153.790109 
L 243.259928 164.588796 
L 243.978432 176.060388 
L 244.696936 185.923929 
L 245.301992 192.880012 
L 248.705432 230.412745 
L 249.19704 232.795464 
L 249.613016 233.892121 
L 250.785312 235.618034 
L 251.201288 236.971077 
L 251.617264 239.121774 
L 252.184504 243.422911 
L 252.940824 251.012641 
L 254.453464 266.313157 
L 255.134152 271.007224 
L 255.739208 273.761883 
L 256.268632 275.257189 
L 256.798056 276.129233 
L 257.365296 276.621187 
L 258.008168 276.867983 
L 258.991384 276.979111 
L 260.088048 276.99809 
L 260.088048 276.99809 
" clip-path="url(#p905c596f82)" style="fill: none; stroke: #ff7f0e; stroke-width: 2; stroke-linecap: square"/>
   </g>
   <g id="line2d_3">
    <path d="M 71.802184 226.950209 
L 73.012296 215.860423 
L 73.91988 205.751189 
L 74.449304 199.526899 
L 75.319072 191.94796 
L 75.394704 191.517167 
L 75.735048 190.482654 
L 75.772864 190.568582 
L 75.81068 190.396317 
L 75.848496 190.482158 
L 75.886312 190.395984 
L 75.924128 190.568005 
L 76.264472 191.427693 
L 77.285504 201.667328 
L 78.571248 220.434797 
L 79.251936 227.254006 
L 79.478832 228.478985 
L 79.743544 229.182342 
L 80.008256 229.014245 
L 80.235152 228.400038 
L 80.72676 224.832399 
L 81.747792 210.913414 
L 83.525144 181.883655 
L 83.978936 176.965926 
L 84.394912 174.018814 
L 84.848704 172.620408 
L 84.962152 172.735661 
L 84.999968 172.690531 
L 85.0756 172.772458 
L 85.64284 175.031056 
L 86.021 178.048963 
L 86.58824 184.012226 
L 87.268928 193.099903 
L 88.819384 216.440942 
L 89.462256 224.865209 
L 90.18076 231.499682 
L 90.785816 233.753605 
L 90.861448 233.696336 
L 90.93708 233.784212 
L 90.974896 233.71674 
L 91.012712 233.743455 
L 91.050528 233.641211 
L 91.12616 233.539491 
L 91.731216 231.089499 
L 93.01696 222.191985 
L 93.735464 219.913758 
L 93.886728 219.899363 
L 94.491784 221.697853 
L 94.756496 223.326084 
L 95.626264 230.843444 
L 96.533848 240.167507 
L 97.819592 250.933771 
L 98.764992 254.389911 
L 98.991888 254.517449 
L 99.2566 254.342361 
L 99.483496 253.942948 
L 99.861656 252.842942 
L 101.260848 247.791821 
L 101.639008 247.23806 
L 101.979352 247.271688 
L 102.357512 247.840377 
L 103.0382 249.839654 
L 103.870152 252.15411 
L 104.210496 252.521823 
L 104.437392 252.536769 
L 104.815552 252.059364 
L 105.155896 251.203596 
L 105.912216 248.445063 
L 106.517272 246.382456 
L 106.971064 245.537166 
L 107.311408 245.484347 
L 107.613936 245.914074 
L 107.95428 246.939858 
L 108.33244 248.690704 
L 108.937496 252.593057 
L 111.584616 271.162095 
L 112.227488 273.638457 
L 112.794728 275.086905 
L 113.361968 275.987159 
L 113.967024 276.528091 
L 114.609896 276.810413 
L 115.555296 276.959272 
L 117.710808 276.999519 
L 170.464128 276.948572 
L 171.522976 276.752972 
L 172.24148 276.408849 
L 172.884352 275.864696 
L 173.640672 274.899495 
L 174.8886 272.835149 
L 175.720552 271.514735 
L 176.930664 269.756107 
L 178.556752 267.289016 
L 179.010544 266.9641 
L 179.42652 267.012398 
L 179.80468 267.397322 
L 180.18284 268.081161 
L 180.674448 269.331934 
L 181.998008 273.167736 
L 182.716512 274.39132 
L 183.094672 274.600329 
L 183.435016 274.513797 
L 183.77536 274.173306 
L 184.3426 273.077493 
L 185.288 270.25915 
L 186.2334 267.461634 
L 186.762824 266.446593 
L 187.216616 266.011047 
L 187.670408 265.951643 
L 188.50236 266.391579 
L 188.956152 266.667939 
L 189.44776 266.781582 
L 189.863736 266.636085 
L 190.20408 266.319261 
L 190.809136 265.239651 
L 191.225112 264.127325 
L 191.754536 262.340027 
L 194.023496 253.716919 
L 195.422688 250.797494 
L 195.87648 250.26802 
L 196.405904 249.89868 
L 196.708432 249.820335 
L 197.275672 249.98219 
L 198.221072 251.37518 
L 198.750496 252.857707 
L 199.166472 254.31785 
L 201.3598 263.130364 
L 201.73796 263.836329 
L 202.040488 264.03951 
L 202.229568 263.999046 
L 202.456464 263.780971 
L 202.87244 262.888356 
L 203.553128 260.310119 
L 204.271632 256.633503 
L 205.481744 249.038693 
L 206.46496 241.261796 
L 207.78852 230.636157 
L 208.242312 228.512235 
L 208.317944 228.365876 
L 208.54484 228.006867 
L 208.658288 227.96382 
L 209.074264 228.964225 
L 209.414608 230.873775 
L 209.830584 234.413933 
L 210.511272 241.974649 
L 211.57012 253.122014 
L 212.061728 256.16197 
L 212.402072 257.178732 
L 212.628968 257.351779 
L 212.855864 257.171844 
L 213.158392 256.423693 
L 213.612184 254.469375 
L 215.956776 242.242399 
L 216.637464 240.249339 
L 217.204704 239.459863 
L 217.469416 239.425426 
L 217.80976 239.750858 
L 218.225736 240.802058 
L 218.717344 242.951809 
L 219.549296 248.474696 
L 220.910672 257.725425 
L 221.40228 259.456761 
L 221.704808 259.837294 
L 221.893888 259.809744 
L 222.196416 259.322456 
L 222.498944 258.347879 
L 222.877104 256.619986 
L 224.61664 248.392046 
L 224.881352 248.128601 
L 225.146064 248.291317 
L 225.410776 248.858672 
L 225.902384 250.878422 
L 226.772152 256.216208 
L 227.604104 260.886772 
L 228.057896 262.403736 
L 228.436056 262.883276 
L 228.625136 262.867779 
L 228.96548 262.365941 
L 229.305824 261.339623 
L 229.759616 259.330204 
L 230.931912 252.546911 
L 231.650416 248.929269 
L 232.142024 247.296078 
L 232.482368 246.692564 
L 232.860528 246.585808 
L 233.276504 247.15058 
L 233.69248 248.386881 
L 234.335352 251.435446 
L 236.490864 263.393207 
L 236.982472 264.564248 
L 237.247184 264.747455 
L 237.549712 264.534977 
L 237.814424 263.961165 
L 238.2304 262.29104 
L 238.684192 259.422066 
L 239.251432 254.514143 
L 241.293496 235.226654 
L 241.82292 233.08293 
L 241.936368 232.88061 
L 242.087632 232.685179 
L 242.314528 232.669682 
L 242.617056 233.173328 
L 242.730504 233.361011 
L 242.995216 234.24519 
L 243.373376 235.701028 
L 244.734752 241.80935 
L 246.852448 252.116444 
L 248.138192 258.29476 
L 248.894512 260.341026 
L 249.5752 261.117932 
L 250.89876 262.11033 
L 251.239104 262.681215 
L 252.184504 265.465732 
L 254.566912 274.066619 
L 255.209784 275.380863 
L 255.81484 276.156848 
L 256.457712 276.619463 
L 257.214032 276.87044 
L 258.348512 276.980847 
L 260.088048 276.9995 
L 260.088048 276.9995 
" clip-path="url(#p905c596f82)" style="fill: none; stroke: #2ca02c; stroke-width: 2; stroke-linecap: square"/>
   </g>
   <g id="line2d_4">
    <path d="M 71.802184 166.781171 
L 72.02908 167.682465 
L 72.180344 168.165457 
L 72.40724 168.922338 
L 72.59632 169.407302 
L 72.936664 169.961932 
L 73.201376 170.030299 
L 73.466088 169.446887 
L 73.503904 169.433465 
L 74.411488 162.822048 
L 74.978728 156.693963 
L 75.583784 150.554087 
L 75.924128 148.402383 
L 76.264472 147.597216 
L 76.869528 150.553765 
L 77.096424 153.029276 
L 78.306536 173.818486 
L 79.289752 189.952563 
L 79.667912 193.432602 
L 79.97044 194.621749 
L 80.008256 194.585039 
L 80.121704 194.686784 
L 80.15952 194.572504 
L 80.235152 194.497525 
L 80.575496 192.572461 
L 80.91584 189.145739 
L 81.634344 177.102565 
L 82.882272 148.306118 
L 83.789856 127.148613 
L 84.470544 113.49681 
L 85.151232 103.105732 
L 85.64284 98.235889 
L 85.945368 96.501048 
L 86.058816 96.20815 
L 86.285712 95.852782 
L 86.39916 95.891757 
L 86.474792 96.06972 
L 86.815136 97.504646 
L 87.647088 107.027068 
L 88.252144 118.226055 
L 89.23536 139.826115 
L 90.029496 154.871674 
L 90.445472 160.007003 
L 90.785816 162.262132 
L 91.012712 162.745985 
L 91.50432 160.597905 
L 91.995928 155.081405 
L 92.714432 143.232079 
L 93.319488 132.978053 
L 94.000176 125.083707 
L 94.113624 124.473986 
L 94.302704 123.506512 
L 94.34052 123.328626 
L 94.416152 123.356916 
L 94.453968 123.394005 
L 94.491784 123.154735 
L 94.567416 123.209989 
L 94.643048 123.317752 
L 94.794312 123.715486 
L 95.361552 128.214543 
L 96.344768 144.258492 
L 97.101088 160.382103 
L 98.538096 183.693113 
L 98.991888 187.063839 
L 99.370048 188.520633 
L 99.559128 188.812266 
L 99.861656 189.031597 
L 100.088552 189.09274 
L 100.126368 189.145903 
L 100.164184 189.019122 
L 100.353264 189.170672 
L 100.39108 189.044941 
L 100.466712 189.149114 
L 100.95832 190.265521 
L 101.223032 191.509182 
L 101.828088 196.573881 
L 103.718888 219.288315 
L 104.021416 220.617743 
L 104.17268 220.825391 
L 104.210496 220.797153 
L 104.36176 220.600102 
L 104.626472 219.376053 
L 105.004632 215.98791 
L 105.647504 206.857532 
L 106.971064 186.391648 
L 107.424856 182.844293 
L 107.651752 182.141065 
L 107.7652 182.135211 
L 107.803016 182.106309 
L 107.840832 182.191395 
L 108.218992 184.091536 
L 108.597152 188.247812 
L 109.164392 198.088908 
L 109.920712 215.733935 
L 111.622432 254.469887 
L 112.30312 264.378551 
L 112.908176 270.11815 
L 113.4376 273.241198 
L 113.929208 274.988848 
L 114.420816 275.988717 
L 114.95024 276.55042 
L 115.51748 276.826728 
L 116.349432 276.963475 
L 118.429312 276.999685 
L 169.97252 276.932693 
L 170.842288 276.715187 
L 171.409528 276.354869 
L 171.938952 275.731932 
L 172.43056 274.792624 
L 172.959984 273.300746 
L 173.602856 270.781917 
L 174.623888 265.735461 
L 175.758368 260.339146 
L 177.044112 255.088393 
L 178.6702 248.561434 
L 178.972728 248.04386 
L 179.199624 247.968404 
L 179.42652 248.204133 
L 179.691232 248.890831 
L 180.18284 251.338615 
L 180.674448 254.960785 
L 182.300536 267.810572 
L 182.716512 269.523834 
L 183.01904 270.098444 
L 183.20812 270.161864 
L 183.359384 270.047266 
L 183.58628 269.598913 
L 183.888808 268.496899 
L 184.304784 266.127661 
L 184.872024 261.672464 
L 186.535928 248.21537 
L 186.951904 246.56799 
L 187.330064 245.92671 
L 187.55696 245.883116 
L 187.859488 246.159873 
L 188.615808 247.774976 
L 189.44776 249.208664 
L 189.674656 249.28907 
L 189.939368 249.17211 
L 190.506608 247.926005 
L 191.036032 245.486736 
L 191.52764 242.148608 
L 192.435224 233.855289 
L 194.36384 215.251382 
L 197.048776 196.211221 
L 197.540384 193.997503 
L 197.5782 193.998623 
L 197.76728 193.382108 
L 197.994176 193.023702 
L 198.14544 193.17514 
L 198.183256 193.140444 
L 198.221072 193.194339 
L 198.372336 193.500056 
L 198.977392 196.281129 
L 200.187504 209.769458 
L 200.98164 220.091015 
L 201.54888 225.140389 
L 201.851408 226.502816 
L 202.078304 226.811203 
L 202.267384 226.512459 
L 202.49428 225.5452 
L 202.834624 222.921936 
L 203.2506 217.967609 
L 204.95232 186.844181 
L 205.822088 168.560109 
L 207.523808 131.967171 
L 207.901968 126.724948 
L 208.35576 124.087909 
L 208.658288 124.98414 
L 209.187712 132.213398 
L 209.754952 147.172975 
L 210.549088 175.746492 
L 211.418856 205.572408 
L 211.910464 217.087133 
L 212.32644 222.530384 
L 212.591152 223.840466 
L 212.7046 223.946877 
L 212.742416 223.917347 
L 212.89368 223.499278 
L 213.158392 221.731782 
L 213.574368 216.729587 
L 214.179424 206.616978 
L 215.200456 188.49459 
L 215.956776 178.021422 
L 216.713096 170.825827 
L 216.826544 170.168332 
L 217.129072 168.602897 
L 217.469416 167.762196 
L 217.62068 167.788885 
L 217.696312 167.84915 
L 218.18792 170.001483 
L 218.528264 173.057797 
L 218.906424 178.072733 
L 219.776192 194.335764 
L 220.759408 212.649538 
L 221.2132 217.530341 
L 221.477912 218.734357 
L 221.666992 218.701641 
L 221.856072 217.926973 
L 222.082968 216.023622 
L 222.498944 209.81922 
L 223.066184 196.803199 
L 224.730088 155.514558 
L 225.070432 151.762611 
L 225.335144 150.626179 
L 225.486408 150.693332 
L 225.75112 152.096653 
L 226.204912 157.246756 
L 227.717552 180.283094 
L 227.944448 181.338684 
L 228.133528 181.157802 
L 228.20916 180.840462 
L 228.511688 178.134635 
L 228.889848 171.079372 
L 229.457088 154.125012 
L 231.385704 86.979099 
L 231.688232 82.529796 
L 231.952944 81.024884 
L 232.028576 80.925016 
L 232.066392 80.968063 
L 232.104208 81.017997 
L 232.482368 84.447094 
L 233.049608 96.553539 
L 233.654664 115.773876 
L 235.20512 168.857303 
L 235.923624 184.76649 
L 236.377416 190.478697 
L 236.71776 192.643858 
L 237.058104 192.958357 
L 237.511896 190.365226 
L 238.003504 183.652787 
L 238.684192 167.428756 
L 239.55396 136.301884 
L 240.461544 100.771251 
L 240.953152 85.478493 
L 241.520392 75.623389 
L 241.785104 74.189074 
L 241.82292 74.276028 
L 241.936368 74.246756 
L 242.352344 77.906584 
L 242.76832 85.192663 
L 243.259928 96.443339 
L 244.09188 116.831102 
L 245.03728 135.200578 
L 245.7936 147.861636 
L 246.54992 161.807034 
L 247.949112 190.398544 
L 248.478536 198.610987 
L 249.00796 204.064225 
L 249.423936 206.511342 
L 249.726464 207.561164 
L 250.70968 209.636013 
L 251.239104 212.211667 
L 251.730712 216.558261 
L 252.297952 223.919241 
L 253.054272 236.528979 
L 254.49128 259.953778 
L 255.171968 267.48932 
L 255.739208 271.670458 
L 256.268632 274.128025 
L 256.76024 275.488089 
L 257.251848 276.257128 
L 257.781272 276.679752 
L 258.424144 276.896739 
L 259.520808 276.988635 
L 260.088048 276.996846 
L 260.088048 276.996846 
" clip-path="url(#p905c596f82)" style="fill: none; stroke: #000000; stroke-width: 2; stroke-linecap: square"/>
   </g>
   <g id="matplotlib.axis_1">
    <g id="xtick_1">
     <g id="line2d_5">
      <defs>
       <path id="m654ee5c0a4" d="M 0 0 
L 0 3.5 
" style="stroke: #000000; stroke-width: 0.8"/>
      </defs>
      <g>
       <use xlink:href="#m654ee5c0a4" x="109.656" y="277" style="stroke: #000000; stroke-width: 0.8"/>
      </g>
     </g>
     <g id="text_1">
      <!-- −4 -->
      <g transform="translate(94.913813 299.196875) scale(0.2 -0.2)">
       <defs>
        <path id="DejaVuSans-2212" d="M 678 2272 
L 4684 2272 
L 4684 1741 
L 678 1741 
L 678 2272 
z
" transform="scale(0.015625)"/>
        <path id="DejaVuSans-34" d="M 2419 4116 
L 825 1625 
L 2419 1625 
L 2419 4116 
z
M 2253 4666 
L 3047 4666 
L 3047 1625 
L 3713 1625 
L 3713 1100 
L 3047 1100 
L 3047 0 
L 2419 0 
L 2419 1100 
L 313 1100 
L 313 1709 
L 2253 4666 
z
" transform="scale(0.015625)"/>
       </defs>
       <use xlink:href="#DejaVuSans-2212"/>
       <use xlink:href="#DejaVuSans-34" x="83.789062"/>
      </g>
     </g>
    </g>
    <g id="xtick_2">
     <g id="line2d_6">
      <g>
       <use xlink:href="#m654ee5c0a4" x="185.288" y="277" style="stroke: #000000; stroke-width: 0.8"/>
      </g>
     </g>
     <g id="text_2">
      <!-- −2 -->
      <g transform="translate(170.545813 299.196875) scale(0.2 -0.2)">
       <defs>
        <path id="DejaVuSans-32" d="M 1228 531 
L 3431 531 
L 3431 0 
L 469 0 
L 469 531 
Q 828 903 1448 1529 
Q 2069 2156 2228 2338 
Q 2531 2678 2651 2914 
Q 2772 3150 2772 3378 
Q 2772 3750 2511 3984 
Q 2250 4219 1831 4219 
Q 1534 4219 1204 4116 
Q 875 4013 500 3803 
L 500 4441 
Q 881 4594 1212 4672 
Q 1544 4750 1819 4750 
Q 2544 4750 2975 4387 
Q 3406 4025 3406 3419 
Q 3406 3131 3298 2873 
Q 3191 2616 2906 2266 
Q 2828 2175 2409 1742 
Q 1991 1309 1228 531 
z
" transform="scale(0.015625)"/>
       </defs>
       <use xlink:href="#DejaVuSans-2212"/>
       <use xlink:href="#DejaVuSans-32" x="83.789062"/>
      </g>
     </g>
    </g>
    <g id="xtick_3">
     <g id="line2d_7">
      <g>
       <use xlink:href="#m654ee5c0a4" x="260.92" y="277" style="stroke: #000000; stroke-width: 0.8"/>
      </g>
     </g>
     <g id="text_3">
      <!-- 0 -->
      <g transform="translate(254.5575 299.196875) scale(0.2 -0.2)">
       <defs>
        <path id="DejaVuSans-30" d="M 2034 4250 
Q 1547 4250 1301 3770 
Q 1056 3291 1056 2328 
Q 1056 1369 1301 889 
Q 1547 409 2034 409 
Q 2525 409 2770 889 
Q 3016 1369 3016 2328 
Q 3016 3291 2770 3770 
Q 2525 4250 2034 4250 
z
M 2034 4750 
Q 2819 4750 3233 4129 
Q 3647 3509 3647 2328 
Q 3647 1150 3233 529 
Q 2819 -91 2034 -91 
Q 1250 -91 836 529 
Q 422 1150 422 2328 
Q 422 3509 836 4129 
Q 1250 4750 2034 4750 
z
" transform="scale(0.015625)"/>
       </defs>
       <use xlink:href="#DejaVuSans-30"/>
      </g>
     </g>
    </g>
    <g id="xtick_4">
     <g id="line2d_8">
      <g>
       <use xlink:href="#m654ee5c0a4" x="336.552" y="277" style="stroke: #000000; stroke-width: 0.8"/>
      </g>
     </g>
     <g id="text_4">
      <!-- 2 -->
      <g transform="translate(330.1895 299.196875) scale(0.2 -0.2)">
       <use xlink:href="#DejaVuSans-32"/>
      </g>
     </g>
    </g>
    <g id="xtick_5">
     <g id="line2d_9">
      <g>
       <use xlink:href="#m654ee5c0a4" x="412.184" y="277" style="stroke: #000000; stroke-width: 0.8"/>
      </g>
     </g>
     <g id="text_5">
      <!-- 4 -->
      <g transform="translate(405.8215 299.196875) scale(0.2 -0.2)">
       <use xlink:href="#DejaVuSans-34"/>
      </g>
     </g>
    </g>
    <g id="text_6">
     <!-- $E$-$E_F$ (eV) -->
     <g transform="translate(205.17 326.352344) scale(0.25 -0.25)">
      <defs>
       <path id="DejaVuSans-Oblique-45" d="M 1081 4666 
L 4031 4666 
L 3928 4134 
L 1606 4134 
L 1338 2753 
L 3566 2753 
L 3463 2222 
L 1234 2222 
L 909 531 
L 3284 531 
L 3181 0 
L 172 0 
L 1081 4666 
z
" transform="scale(0.015625)"/>
       <path id="DejaVuSans-2d" d="M 313 2009 
L 1997 2009 
L 1997 1497 
L 313 1497 
L 313 2009 
z
" transform="scale(0.015625)"/>
       <path id="DejaVuSans-Oblique-46" d="M 1081 4666 
L 3756 4666 
L 3653 4134 
L 1606 4134 
L 1338 2759 
L 3188 2759 
L 3084 2228 
L 1234 2228 
L 800 0 
L 172 0 
L 1081 4666 
z
" transform="scale(0.015625)"/>
       <path id="DejaVuSans-20" transform="scale(0.015625)"/>
       <path id="DejaVuSans-28" d="M 1984 4856 
Q 1566 4138 1362 3434 
Q 1159 2731 1159 2009 
Q 1159 1288 1364 580 
Q 1569 -128 1984 -844 
L 1484 -844 
Q 1016 -109 783 600 
Q 550 1309 550 2009 
Q 550 2706 781 3412 
Q 1013 4119 1484 4856 
L 1984 4856 
z
" transform="scale(0.015625)"/>
       <path id="DejaVuSans-65" d="M 3597 1894 
L 3597 1613 
L 953 1613 
Q 991 1019 1311 708 
Q 1631 397 2203 397 
Q 2534 397 2845 478 
Q 3156 559 3463 722 
L 3463 178 
Q 3153 47 2828 -22 
Q 2503 -91 2169 -91 
Q 1331 -91 842 396 
Q 353 884 353 1716 
Q 353 2575 817 3079 
Q 1281 3584 2069 3584 
Q 2775 3584 3186 3129 
Q 3597 2675 3597 1894 
z
M 3022 2063 
Q 3016 2534 2758 2815 
Q 2500 3097 2075 3097 
Q 1594 3097 1305 2825 
Q 1016 2553 972 2059 
L 3022 2063 
z
" transform="scale(0.015625)"/>
       <path id="DejaVuSans-56" d="M 1831 0 
L 50 4666 
L 709 4666 
L 2188 738 
L 3669 4666 
L 4325 4666 
L 2547 0 
L 1831 0 
z
" transform="scale(0.015625)"/>
       <path id="DejaVuSans-29" d="M 513 4856 
L 1013 4856 
Q 1481 4119 1714 3412 
Q 1947 2706 1947 2009 
Q 1947 1309 1714 600 
Q 1481 -109 1013 -844 
L 513 -844 
Q 928 -128 1133 580 
Q 1338 1288 1338 2009 
Q 1338 2731 1133 3434 
Q 928 4138 513 4856 
z
" transform="scale(0.015625)"/>
      </defs>
      <use xlink:href="#DejaVuSans-Oblique-45" transform="translate(0 0.125)"/>
      <use xlink:href="#DejaVuSans-2d" transform="translate(63.183594 0.125)"/>
      <use xlink:href="#DejaVuSans-Oblique-45" transform="translate(99.267578 0.125)"/>
      <use xlink:href="#DejaVuSans-Oblique-46" transform="translate(162.451172 -16.28125) scale(0.7)"/>
      <use xlink:href="#DejaVuSans-20" transform="translate(205.449219 0.125)"/>
      <use xlink:href="#DejaVuSans-28" transform="translate(237.236328 0.125)"/>
      <use xlink:href="#DejaVuSans-65" transform="translate(276.25 0.125)"/>
      <use xlink:href="#DejaVuSans-56" transform="translate(337.773438 0.125)"/>
      <use xlink:href="#DejaVuSans-29" transform="translate(406.181641 0.125)"/>
     </g>
    </g>
   </g>
   <g id="matplotlib.axis_2">
    <g id="ytick_1">
     <g id="line2d_10">
      <defs>
       <path id="me1b25685c2" d="M 0 0 
L -3.5 0 
" style="stroke: #000000; stroke-width: 0.8"/>
      </defs>
      <g>
       <use xlink:href="#me1b25685c2" x="71.84" y="277" style="stroke: #000000; stroke-width: 0.8"/>
      </g>
     </g>
     <g id="text_7">
      <!-- 0 -->
      <g transform="translate(52.115 284.598437) scale(0.2 -0.2)">
       <use xlink:href="#DejaVuSans-30"/>
      </g>
     </g>
    </g>
    <g id="ytick_2">
     <g id="line2d_11">
      <g>
       <use xlink:href="#me1b25685c2" x="71.84" y="233.953333" style="stroke: #000000; stroke-width: 0.8"/>
      </g>
     </g>
     <g id="text_8">
      <!-- 5 -->
      <g transform="translate(52.115 241.551771) scale(0.2 -0.2)">
       <defs>
        <path id="DejaVuSans-35" d="M 691 4666 
L 3169 4666 
L 3169 4134 
L 1269 4134 
L 1269 2991 
Q 1406 3038 1543 3061 
Q 1681 3084 1819 3084 
Q 2600 3084 3056 2656 
Q 3513 2228 3513 1497 
Q 3513 744 3044 326 
Q 2575 -91 1722 -91 
Q 1428 -91 1123 -41 
Q 819 9 494 109 
L 494 744 
Q 775 591 1075 516 
Q 1375 441 1709 441 
Q 2250 441 2565 725 
Q 2881 1009 2881 1497 
Q 2881 1984 2565 2268 
Q 2250 2553 1709 2553 
Q 1456 2553 1204 2497 
Q 953 2441 691 2322 
L 691 4666 
z
" transform="scale(0.015625)"/>
       </defs>
       <use xlink:href="#DejaVuSans-35"/>
      </g>
     </g>
    </g>
    <g id="ytick_3">
     <g id="line2d_12">
      <g>
       <use xlink:href="#me1b25685c2" x="71.84" y="190.906667" style="stroke: #000000; stroke-width: 0.8"/>
      </g>
     </g>
     <g id="text_9">
      <!-- 10 -->
      <g transform="translate(39.39 198.505104) scale(0.2 -0.2)">
       <defs>
        <path id="DejaVuSans-31" d="M 794 531 
L 1825 531 
L 1825 4091 
L 703 3866 
L 703 4441 
L 1819 4666 
L 2450 4666 
L 2450 531 
L 3481 531 
L 3481 0 
L 794 0 
L 794 531 
z
" transform="scale(0.015625)"/>
       </defs>
       <use xlink:href="#DejaVuSans-31"/>
       <use xlink:href="#DejaVuSans-30" x="63.623047"/>
      </g>
     </g>
    </g>
    <g id="ytick_4">
     <g id="line2d_13">
      <g>
       <use xlink:href="#me1b25685c2" x="71.84" y="147.86" style="stroke: #000000; stroke-width: 0.8"/>
      </g>
     </g>
     <g id="text_10">
      <!-- 15 -->
      <g transform="translate(39.39 155.458437) scale(0.2 -0.2)">
       <use xlink:href="#DejaVuSans-31"/>
       <use xlink:href="#DejaVuSans-35" x="63.623047"/>
      </g>
     </g>
    </g>
    <g id="ytick_5">
     <g id="line2d_14">
      <g>
       <use xlink:href="#me1b25685c2" x="71.84" y="104.813333" style="stroke: #000000; stroke-width: 0.8"/>
      </g>
     </g>
     <g id="text_11">
      <!-- 20 -->
      <g transform="translate(39.39 112.411771) scale(0.2 -0.2)">
       <use xlink:href="#DejaVuSans-32"/>
       <use xlink:href="#DejaVuSans-30" x="63.623047"/>
      </g>
     </g>
    </g>
    <g id="ytick_6">
     <g id="line2d_15">
      <g>
       <use xlink:href="#me1b25685c2" x="71.84" y="61.766667" style="stroke: #000000; stroke-width: 0.8"/>
      </g>
     </g>
     <g id="text_12">
      <!-- 25 -->
      <g transform="translate(39.39 69.365104) scale(0.2 -0.2)">
       <use xlink:href="#DejaVuSans-32"/>
       <use xlink:href="#DejaVuSans-35" x="63.623047"/>
      </g>
     </g>
    </g>
    <g id="ytick_7">
     <g id="line2d_16">
      <g>
       <use xlink:href="#me1b25685c2" x="71.84" y="18.72" style="stroke: #000000; stroke-width: 0.8"/>
      </g>
     </g>
     <g id="text_13">
      <!-- 30 -->
      <g transform="translate(39.39 26.318437) scale(0.2 -0.2)">
       <defs>
        <path id="DejaVuSans-33" d="M 2597 2516 
Q 3050 2419 3304 2112 
Q 3559 1806 3559 1356 
Q 3559 666 3084 287 
Q 2609 -91 1734 -91 
Q 1441 -91 1130 -33 
Q 819 25 488 141 
L 488 750 
Q 750 597 1062 519 
Q 1375 441 1716 441 
Q 2309 441 2620 675 
Q 2931 909 2931 1356 
Q 2931 1769 2642 2001 
Q 2353 2234 1838 2234 
L 1294 2234 
L 1294 2753 
L 1863 2753 
Q 2328 2753 2575 2939 
Q 2822 3125 2822 3475 
Q 2822 3834 2567 4026 
Q 2313 4219 1838 4219 
Q 1578 4219 1281 4162 
Q 984 4106 628 3988 
L 628 4550 
Q 988 4650 1302 4700 
Q 1616 4750 1894 4750 
Q 2613 4750 3031 4423 
Q 3450 4097 3450 3541 
Q 3450 3153 3228 2886 
Q 3006 2619 2597 2516 
z
" transform="scale(0.015625)"/>
       </defs>
       <use xlink:href="#DejaVuSans-33"/>
       <use xlink:href="#DejaVuSans-30" x="63.623047"/>
      </g>
     </g>
    </g>
    <g id="text_14">
     <!-- DOS (States/eV) -->
     <g transform="translate(30.190781 249.039687) rotate(-90) scale(0.25 -0.25)">
      <defs>
       <path id="DejaVuSans-44" d="M 1259 4147 
L 1259 519 
L 2022 519 
Q 2988 519 3436 956 
Q 3884 1394 3884 2338 
Q 3884 3275 3436 3711 
Q 2988 4147 2022 4147 
L 1259 4147 
z
M 628 4666 
L 1925 4666 
Q 3281 4666 3915 4102 
Q 4550 3538 4550 2338 
Q 4550 1131 3912 565 
Q 3275 0 1925 0 
L 628 0 
L 628 4666 
z
" transform="scale(0.015625)"/>
       <path id="DejaVuSans-4f" d="M 2522 4238 
Q 1834 4238 1429 3725 
Q 1025 3213 1025 2328 
Q 1025 1447 1429 934 
Q 1834 422 2522 422 
Q 3209 422 3611 934 
Q 4013 1447 4013 2328 
Q 4013 3213 3611 3725 
Q 3209 4238 2522 4238 
z
M 2522 4750 
Q 3503 4750 4090 4092 
Q 4678 3434 4678 2328 
Q 4678 1225 4090 567 
Q 3503 -91 2522 -91 
Q 1538 -91 948 565 
Q 359 1222 359 2328 
Q 359 3434 948 4092 
Q 1538 4750 2522 4750 
z
" transform="scale(0.015625)"/>
       <path id="DejaVuSans-53" d="M 3425 4513 
L 3425 3897 
Q 3066 4069 2747 4153 
Q 2428 4238 2131 4238 
Q 1616 4238 1336 4038 
Q 1056 3838 1056 3469 
Q 1056 3159 1242 3001 
Q 1428 2844 1947 2747 
L 2328 2669 
Q 3034 2534 3370 2195 
Q 3706 1856 3706 1288 
Q 3706 609 3251 259 
Q 2797 -91 1919 -91 
Q 1588 -91 1214 -16 
Q 841 59 441 206 
L 441 856 
Q 825 641 1194 531 
Q 1563 422 1919 422 
Q 2459 422 2753 634 
Q 3047 847 3047 1241 
Q 3047 1584 2836 1778 
Q 2625 1972 2144 2069 
L 1759 2144 
Q 1053 2284 737 2584 
Q 422 2884 422 3419 
Q 422 4038 858 4394 
Q 1294 4750 2059 4750 
Q 2388 4750 2728 4690 
Q 3069 4631 3425 4513 
z
" transform="scale(0.015625)"/>
       <path id="DejaVuSans-74" d="M 1172 4494 
L 1172 3500 
L 2356 3500 
L 2356 3053 
L 1172 3053 
L 1172 1153 
Q 1172 725 1289 603 
Q 1406 481 1766 481 
L 2356 481 
L 2356 0 
L 1766 0 
Q 1100 0 847 248 
Q 594 497 594 1153 
L 594 3053 
L 172 3053 
L 172 3500 
L 594 3500 
L 594 4494 
L 1172 4494 
z
" transform="scale(0.015625)"/>
       <path id="DejaVuSans-61" d="M 2194 1759 
Q 1497 1759 1228 1600 
Q 959 1441 959 1056 
Q 959 750 1161 570 
Q 1363 391 1709 391 
Q 2188 391 2477 730 
Q 2766 1069 2766 1631 
L 2766 1759 
L 2194 1759 
z
M 3341 1997 
L 3341 0 
L 2766 0 
L 2766 531 
Q 2569 213 2275 61 
Q 1981 -91 1556 -91 
Q 1019 -91 701 211 
Q 384 513 384 1019 
Q 384 1609 779 1909 
Q 1175 2209 1959 2209 
L 2766 2209 
L 2766 2266 
Q 2766 2663 2505 2880 
Q 2244 3097 1772 3097 
Q 1472 3097 1187 3025 
Q 903 2953 641 2809 
L 641 3341 
Q 956 3463 1253 3523 
Q 1550 3584 1831 3584 
Q 2591 3584 2966 3190 
Q 3341 2797 3341 1997 
z
" transform="scale(0.015625)"/>
       <path id="DejaVuSans-73" d="M 2834 3397 
L 2834 2853 
Q 2591 2978 2328 3040 
Q 2066 3103 1784 3103 
Q 1356 3103 1142 2972 
Q 928 2841 928 2578 
Q 928 2378 1081 2264 
Q 1234 2150 1697 2047 
L 1894 2003 
Q 2506 1872 2764 1633 
Q 3022 1394 3022 966 
Q 3022 478 2636 193 
Q 2250 -91 1575 -91 
Q 1294 -91 989 -36 
Q 684 19 347 128 
L 347 722 
Q 666 556 975 473 
Q 1284 391 1588 391 
Q 1994 391 2212 530 
Q 2431 669 2431 922 
Q 2431 1156 2273 1281 
Q 2116 1406 1581 1522 
L 1381 1569 
Q 847 1681 609 1914 
Q 372 2147 372 2553 
Q 372 3047 722 3315 
Q 1072 3584 1716 3584 
Q 2034 3584 2315 3537 
Q 2597 3491 2834 3397 
z
" transform="scale(0.015625)"/>
       <path id="DejaVuSans-2f" d="M 1625 4666 
L 2156 4666 
L 531 -594 
L 0 -594 
L 1625 4666 
z
" transform="scale(0.015625)"/>
      </defs>
      <use xlink:href="#DejaVuSans-44"/>
      <use xlink:href="#DejaVuSans-4f" x="77.001953"/>
      <use xlink:href="#DejaVuSans-53" x="155.712891"/>
      <use xlink:href="#DejaVuSans-20" x="219.189453"/>
      <use xlink:href="#DejaVuSans-28" x="250.976562"/>
      <use xlink:href="#DejaVuSans-53" x="289.990234"/>
      <use xlink:href="#DejaVuSans-74" x="353.466797"/>
      <use xlink:href="#DejaVuSans-61" x="392.675781"/>
      <use xlink:href="#DejaVuSans-74" x="453.955078"/>
      <use xlink:href="#DejaVuSans-65" x="493.164062"/>
      <use xlink:href="#DejaVuSans-73" x="554.6875"/>
      <use xlink:href="#DejaVuSans-2f" x="606.787109"/>
      <use xlink:href="#DejaVuSans-65" x="640.478516"/>
      <use xlink:href="#DejaVuSans-56" x="702.001953"/>
      <use xlink:href="#DejaVuSans-29" x="770.410156"/>
     </g>
    </g>
   </g>
   <g id="line2d_17">
    <path d="M 260.92 277 
L 260.92 18.72 
" clip-path="url(#p905c596f82)" style="fill: none; stroke-dasharray: 5.55,2.4; stroke-dashoffset: 0; stroke: #808080; stroke-width: 1.5"/>
   </g>
   <g id="line2d_18">
    <path d="M 260.92 277 
L 260.92 18.72 
" clip-path="url(#p905c596f82)" style="fill: none; stroke-dasharray: 5.55,2.4; stroke-dashoffset: 0; stroke: #808080; stroke-width: 1.5"/>
   </g>
   <g id="line2d_19">
    <path d="M 260.92 277 
L 260.92 18.72 
" clip-path="url(#p905c596f82)" style="fill: none; stroke-dasharray: 5.55,2.4; stroke-dashoffset: 0; stroke: #808080; stroke-width: 1.5"/>
   </g>
   <g id="line2d_20">
    <path d="M 260.92 277 
L 260.92 18.72 
" clip-path="url(#p905c596f82)" style="fill: none; stroke-dasharray: 5.55,2.4; stroke-dashoffset: 0; stroke: #808080; stroke-width: 1.5"/>
   </g>
   <g id="patch_3">
    <path d="M 71.84 277 
L 71.84 18.72 
" style="fill: none; stroke: #000000; stroke-width: 0.8; stroke-linejoin: miter; stroke-linecap: square"/>
   </g>
   <g id="patch_4">
    <path d="M 450 277 
L 450 18.72 
" style="fill: none; stroke: #000000; stroke-width: 0.8; stroke-linejoin: miter; stroke-linecap: square"/>
   </g>
   <g id="patch_5">
    <path d="M 71.84 277 
L 450 277 
" style="fill: none; stroke: #000000; stroke-width: 0.8; stroke-linejoin: miter; stroke-linecap: square"/>
   </g>
   <g id="patch_6">
    <path d="M 71.84 18.72 
L 450 18.72 
" style="fill: none; stroke: #000000; stroke-width: 0.8; stroke-linejoin: miter; stroke-linecap: square"/>
   </g>
   <g id="legend_1">
    <g id="patch_7">
     <path d="M 325.29375 152.145 
L 436 152.145 
Q 440 152.145 440 148.145 
L 440 32.72 
Q 440 28.72 436 28.72 
L 325.29375 28.72 
Q 321.29375 28.72 321.29375 32.72 
L 321.29375 148.145 
Q 321.29375 152.145 325.29375 152.145 
z
" style="fill: #ffffff; opacity: 0.8; stroke: #cccccc; stroke-linejoin: miter"/>
    </g>
    <g id="line2d_21">
     <path d="M 329.29375 44.916875 
L 349.29375 44.916875 
L 369.29375 44.916875 
" style="fill: none; stroke: #1f77b4; stroke-width: 2; stroke-linecap: square"/>
    </g>
    <g id="text_15">
     <!-- S -->
     <g transform="translate(385.29375 51.916875) scale(0.2 -0.2)">
      <use xlink:href="#DejaVuSans-53"/>
     </g>
    </g>
    <g id="line2d_22">
     <path d="M 329.29375 74.273125 
L 349.29375 74.273125 
L 369.29375 74.273125 
" style="fill: none; stroke: #ff7f0e; stroke-width: 2; stroke-linecap: square"/>
    </g>
    <g id="text_16">
     <!-- Sb -->
     <g transform="translate(385.29375 81.273125) scale(0.2 -0.2)">
      <defs>
       <path id="DejaVuSans-62" d="M 3116 1747 
Q 3116 2381 2855 2742 
Q 2594 3103 2138 3103 
Q 1681 3103 1420 2742 
Q 1159 2381 1159 1747 
Q 1159 1113 1420 752 
Q 1681 391 2138 391 
Q 2594 391 2855 752 
Q 3116 1113 3116 1747 
z
M 1159 2969 
Q 1341 3281 1617 3432 
Q 1894 3584 2278 3584 
Q 2916 3584 3314 3078 
Q 3713 2572 3713 1747 
Q 3713 922 3314 415 
Q 2916 -91 2278 -91 
Q 1894 -91 1617 61 
Q 1341 213 1159 525 
L 1159 0 
L 581 0 
L 581 4863 
L 1159 4863 
L 1159 2969 
z
" transform="scale(0.015625)"/>
      </defs>
      <use xlink:href="#DejaVuSans-53"/>
      <use xlink:href="#DejaVuSans-62" x="63.476562"/>
     </g>
    </g>
    <g id="line2d_23">
     <path d="M 329.29375 103.629375 
L 349.29375 103.629375 
L 369.29375 103.629375 
" style="fill: none; stroke: #2ca02c; stroke-width: 2; stroke-linecap: square"/>
    </g>
    <g id="text_17">
     <!-- Se -->
     <g transform="translate(385.29375 110.629375) scale(0.2 -0.2)">
      <use xlink:href="#DejaVuSans-53"/>
      <use xlink:href="#DejaVuSans-65" x="63.476562"/>
     </g>
    </g>
    <g id="line2d_24">
     <path d="M 329.29375 132.985625 
L 349.29375 132.985625 
L 369.29375 132.985625 
" style="fill: none; stroke: #000000; stroke-width: 2; stroke-linecap: square"/>
    </g>
    <g id="text_18">
     <!-- Total -->
     <g transform="translate(385.29375 139.985625) scale(0.2 -0.2)">
      <defs>
       <path id="DejaVuSans-54" d="M -19 4666 
L 3928 4666 
L 3928 4134 
L 2272 4134 
L 2272 0 
L 1638 0 
L 1638 4134 
L -19 4134 
L -19 4666 
z
" transform="scale(0.015625)"/>
       <path id="DejaVuSans-6f" d="M 1959 3097 
Q 1497 3097 1228 2736 
Q 959 2375 959 1747 
Q 959 1119 1226 758 
Q 1494 397 1959 397 
Q 2419 397 2687 759 
Q 2956 1122 2956 1747 
Q 2956 2369 2687 2733 
Q 2419 3097 1959 3097 
z
M 1959 3584 
Q 2709 3584 3137 3096 
Q 3566 2609 3566 1747 
Q 3566 888 3137 398 
Q 2709 -91 1959 -91 
Q 1206 -91 779 398 
Q 353 888 353 1747 
Q 353 2609 779 3096 
Q 1206 3584 1959 3584 
z
" transform="scale(0.015625)"/>
       <path id="DejaVuSans-6c" d="M 603 4863 
L 1178 4863 
L 1178 0 
L 603 0 
L 603 4863 
z
" transform="scale(0.015625)"/>
      </defs>
      <use xlink:href="#DejaVuSans-54"/>
      <use xlink:href="#DejaVuSans-6f" x="44.083984"/>
      <use xlink:href="#DejaVuSans-74" x="105.265625"/>
      <use xlink:href="#DejaVuSans-61" x="144.474609"/>
      <use xlink:href="#DejaVuSans-6c" x="205.753906"/>
     </g>
    </g>
   </g>
  </g>
 </g>
 <defs>
  <clipPath id="p905c596f82">
   <rect x="71.84" y="18.72" width="378.16" height="258.28"/>
  </clipPath>
 </defs>
</svg>
