<?xml version="1.0" encoding="utf-8" standalone="no"?>
<!DOCTYPE svg PUBLIC "-//W3C//DTD SVG 1.1//EN"
  "http://www.w3.org/Graphics/SVG/1.1/DTD/svg11.dtd">
<svg xmlns:xlink="http://www.w3.org/1999/xlink" width="460.8pt" height="345.6pt" viewBox="0 0 460.8 345.6" xmlns="http://www.w3.org/2000/svg" version="1.1">
 <metadata>
  <rdf:RDF xmlns:dc="http://purl.org/dc/elements/1.1/" xmlns:cc="http://creativecommons.org/ns#" xmlns:rdf="http://www.w3.org/1999/02/22-rdf-syntax-ns#">
   <cc:Work>
    <dc:type rdf:resource="http://purl.org/dc/dcmitype/StillImage"/>
    <dc:date>2023-08-11T23:17:18.916088</dc:date>
    <dc:format>image/svg+xml</dc:format>
    <dc:creator>
     <cc:Agent>
      <dc:title>Matplotlib v3.7.1, https://matplotlib.org/</dc:title>
     </cc:Agent>
    </dc:creator>
   </cc:Work>
  </rdf:RDF>
 </metadata>
 <defs>
  <style type="text/css">*{stroke-linejoin: round; stroke-linecap: butt}</style>
 </defs>
 <g id="figure_1">
  <g id="patch_1">
   <path d="M 0 345.6 
L 460.8 345.6 
L 460.8 0 
L 0 0 
z
" style="fill: #ffffff"/>
  </g>
  <g id="axes_1">
   <g id="patch_2">
    <path d="M 49.34 289.816 
L 444.915 289.816 
L 444.915 10.8 
L 49.34 10.8 
z
" style="fill: #ffffff"/>
   </g>
   <g id="line2d_1">
    <path d="M 49.274071 261.201159 
L 49.669646 261.497817 
L 50.197079 262.198434 
L 51.120088 264.372871 
L 51.911238 266.831343 
L 55.009908 276.693632 
L 55.735129 278.110646 
L 56.394421 278.934344 
L 56.987783 279.313056 
L 57.713004 279.395111 
L 58.570083 279.142636 
L 59.361233 278.801795 
L 60.943533 278.577724 
L 61.405038 278.675558 
L 62.262117 278.928033 
L 62.78955 278.978527 
L 63.119196 278.918565 
L 63.778488 278.331561 
L 64.305921 277.327975 
L 65.031142 274.777981 
L 65.690433 271.012954 
L 66.481583 264.483329 
L 67.140875 257.404572 
L 68.129813 244.563083 
L 69.778042 221.553178 
L 70.766979 210.538973 
L 71.360342 205.773515 
L 71.887775 202.838498 
L 72.481138 200.913379 
L 72.942642 200.187515 
L 73.799721 199.840362 
L 73.931579 199.840362 
L 74.129367 199.808803 
L 74.261225 199.777243 
L 74.459013 199.745684 
L 74.6568 199.556328 
L 74.788658 199.398531 
L 75.316092 198.483311 
L 75.843525 196.968463 
L 76.370958 194.822429 
L 78.480692 185.133716 
L 78.876267 184.376292 
L 79.337771 184.47097 
L 79.469629 184.691886 
L 79.733346 185.386191 
L 80.260779 188.100293 
L 80.656354 191.161547 
L 81.117858 195.769209 
L 82.040867 207.982668 
L 83.491308 231.084095 
L 84.546175 247.053113 
L 85.403254 257.61602 
L 86.392192 266.294834 
L 86.919625 269.453923 
L 87.578917 271.988137 
L 87.974492 272.859174 
L 88.304138 273.310473 
L 88.765642 273.414618 
L 89.029358 273.269445 
L 89.424933 272.736093 
L 89.886438 271.640984 
L 90.347942 270.009367 
L 91.007233 266.683014 
L 91.732454 261.365268 
L 92.391746 254.851423 
L 92.919179 248.498531 
L 93.6444 238.159695 
L 94.897054 217.7345 
L 96.215638 198.04148 
L 96.874929 191.129988 
L 97.336433 187.879377 
L 97.732008 186.427648 
L 97.995725 185.985818 
L 98.325371 186.206733 
L 98.523158 186.648564 
L 98.852804 187.879377 
L 99.314308 190.530361 
L 100.039529 196.084802 
L 100.896608 203.311888 
L 101.753688 209.491204 
L 102.412979 212.83018 
L 103.1382 214.976215 
L 104.193067 216.352201 
L 104.390854 216.525778 
L 105.379792 218.028001 
L 106.105013 220.350768 
L 106.764304 223.63925 
L 107.489525 228.414176 
L 110.720054 252.885277 
L 111.379346 255.861321 
L 111.84085 257.180501 
L 112.170496 257.739101 
L 112.500142 257.963172 
L 112.961646 257.634955 
L 113.42315 256.56825 
L 113.752796 255.432114 
L 114.280229 252.781131 
L 115.071379 247.122544 
L 115.994388 237.83779 
L 117.115183 222.976504 
L 118.104121 207.152658 
L 120.741288 164.222507 
L 121.598367 155.53738 
L 121.730225 154.603224 
L 121.928013 153.4734 
L 122.389517 151.72817 
L 122.521375 151.7976 
L 122.587304 151.835471 
L 122.653233 151.245312 
L 122.719163 151.630336 
L 122.785092 151.390485 
L 123.048808 152.324641 
L 123.114738 152.435099 
L 124.037746 158.895293 
L 124.433321 163.859575 
L 124.565179 165.147195 
L 125.554117 179.869621 
L 127.268275 205.685149 
L 127.927567 212.833336 
L 128.455 216.693042 
L 128.850575 218.302568 
L 129.114292 218.823296 
L 129.312079 218.902195 
L 129.443938 218.807517 
L 129.773583 218.018534 
L 130.301017 215.36755 
L 130.894379 210.412736 
L 131.751458 200.313752 
L 133.267829 177.243885 
L 133.861192 167.492053 
L 135.57535 144.453745 
L 136.498358 137.984083 
L 136.893933 136.816388 
L 137.025792 136.879507 
L 137.816942 139.309575 
L 138.674021 147.04161 
L 139.5311 159.381306 
L 143.025346 221.013514 
L 143.750567 231.147213 
L 144.607646 240.782275 
L 145.332867 246.76908 
L 145.926229 250.101744 
L 146.387733 251.670243 
L 146.783308 252.213063 
L 147.047025 252.222531 
L 147.310742 251.891158 
L 147.838175 250.256385 
L 148.497467 246.453486 
L 149.222688 240.220519 
L 150.211625 229.282057 
L 151.464279 214.575411 
L 152.321358 206.736075 
L 152.848792 203.630637 
L 153.244367 202.453474 
L 153.574013 202.232559 
L 153.903658 202.762756 
L 154.233304 204.006193 
L 154.760738 207.525058 
L 155.288171 212.599797 
L 156.079321 222.537829 
L 159.112063 263.713282 
L 160.035071 271.814561 
L 160.628433 275.557497 
L 161.155867 277.962317 
L 161.749229 279.720172 
L 162.210733 280.480751 
L 162.606308 280.764785 
L 162.935954 280.764785 
L 163.2656 280.578585 
L 163.727104 280.042077 
L 164.254538 279.107921 
L 165.111617 277.119683 
L 166.957633 272.714001 
L 167.814712 271.454784 
L 168.935508 271.022421 
L 169.726658 271.195998 
L 170.056304 271.363262 
L 171.440817 271.669388 
L 172.297896 271.274896 
L 172.7594 270.893028 
L 173.089046 270.476445 
L 175.066921 268.311475 
L 175.858071 268.27676 
L 176.385504 268.705967 
L 176.781079 269.233008 
L 177.835946 271.594276 
L 179.220458 275.970924 
L 180.077538 278.902785 
L 181.264263 282.524849 
L 181.989483 284.37107 
L 182.912492 286.234648 
L 183.769571 287.503269 
L 184.692579 288.45188 
L 185.549658 289.02424 
L 186.604525 289.440192 
L 187.857179 289.678398 
L 189.835054 289.794544 
L 196.164254 289.815995 
L 296.442517 289.706963 
L 298.881896 289.425864 
L 302.573929 288.943069 
L 304.222158 289.00745 
L 309.694279 289.477684 
L 311.144721 289.246039 
L 313.518171 288.587837 
L 315.496046 288.203634 
L 319.056221 287.897509 
L 319.715512 287.481241 
L 320.374804 286.772103 
L 321.100025 285.575058 
L 321.891175 283.690335 
L 322.748254 280.960138 
L 323.803121 276.832493 
L 325.055775 271.486344 
L 326.704004 265.802509 
L 327.165508 264.779987 
L 327.627012 263.972068 
L 328.550021 263.340882 
L 328.813738 263.356661 
L 329.4071 263.647007 
L 330.330108 264.666373 
L 332.176125 267.784435 
L 332.835417 269.024716 
L 333.36285 270.006211 
L 334.351788 271.928174 
L 335.406654 274.153107 
L 336.395592 276.50112 
L 336.923025 277.776117 
L 339.428333 283.403461 
L 340.153554 284.48279 
L 340.812846 285.113345 
L 341.340279 285.361717 
L 341.933642 285.354774 
L 342.461075 285.108611 
L 343.120367 284.516874 
L 343.845587 283.576406 
L 345.164171 281.385242 
L 347.999125 276.081381 
L 349.779212 271.716727 
L 351.361512 266.455787 
L 353.075671 260.355369 
L 354.394254 257.287803 
L 354.789829 256.830193 
L 355.449121 256.861752 
L 356.438058 258.464966 
L 356.701775 259.200298 
L 357.031421 260.216508 
L 359.734517 270.321804 
L 360.459737 271.805093 
L 361.119029 272.205896 
L 361.382746 272.11753 
L 361.712392 271.792469 
L 362.767258 269.176201 
L 363.228762 267.440438 
L 364.481417 261.671393 
L 365.8 255.015531 
L 366.920796 249.902921 
L 368.041592 246.172608 
L 369.162387 244.389506 
L 369.623892 244.339011 
L 370.085396 244.749283 
L 370.415042 245.282635 
L 371.008404 246.85429 
L 371.403979 248.2429 
L 372.195129 251.777545 
L 373.909287 260.954996 
L 374.634508 264.331844 
L 375.491587 266.884994 
L 376.019021 267.396255 
L 376.348667 267.307889 
L 376.810171 266.503126 
L 377.469462 264.189827 
L 378.260612 259.863044 
L 380.634062 244.40213 
L 381.095567 242.543286 
L 381.557071 241.441865 
L 381.820787 241.145208 
L 382.018575 241.145208 
L 382.480079 241.69434 
L 383.271229 244.436845 
L 384.128308 249.413751 
L 386.501758 264.726336 
L 387.226979 267.566675 
L 387.754412 268.712279 
L 388.084058 269.002625 
L 388.347775 269.031028 
L 388.875208 268.459804 
L 389.270783 267.591923 
L 389.732287 266.077075 
L 390.457508 262.94639 
L 393.556179 246.740676 
L 394.347329 244.247489 
L 394.808833 243.341737 
L 395.336267 242.925154 
L 395.731842 243.01352 
L 395.929629 243.174472 
L 396.65485 244.449469 
L 397.248212 246.1947 
L 398.039362 249.334853 
L 398.830512 253.008358 
L 401.863254 266.29799 
L 402.456617 267.774967 
L 403.181837 268.775397 
L 403.7752 268.83536 
L 404.236704 268.421933 
L 404.830067 267.213211 
L 405.621217 264.568539 
L 406.14865 262.334139 
L 406.9398 258.433406 
L 407.665021 254.766213 
L 408.588029 250.723463 
L 409.31325 248.507998 
L 409.576967 247.924151 
L 410.236258 247.21091 
L 410.89555 247.340303 
L 411.093337 247.529659 
L 411.488912 248.063012 
L 411.884487 248.792032 
L 412.345992 249.729344 
L 413.005283 251.130578 
L 414.719442 253.806809 
L 414.8513 253.933046 
L 415.180946 254.21708 
L 415.972096 254.848267 
L 416.499529 255.223823 
L 416.697317 255.447894 
L 416.763246 255.428959 
L 417.026962 255.769799 
L 417.752183 256.757606 
L 419.466342 260.860319 
L 420.38935 263.760621 
L 421.642004 267.793902 
L 423.026517 271.435849 
L 424.213242 273.398839 
L 425.399967 274.329839 
L 425.795542 274.512883 
L 425.9274 274.522351 
L 426.257046 274.617029 
L 426.454833 274.635964 
L 426.982267 274.74011 
L 427.707487 274.938934 
L 428.366779 275.311334 
L 429.685362 276.843224 
L 431.069875 279.516298 
L 431.992883 281.614678 
L 433.443325 284.821105 
L 434.564121 286.796404 
L 435.487129 287.982498 
L 436.344208 288.738817 
L 437.399075 289.304676 
L 438.519871 289.609712 
L 440.102171 289.769257 
L 443.464558 289.815109 
L 443.464558 289.815109 
" clip-path="url(#pca6cc7afba)" style="fill: none; stroke: #1f77b4; stroke-width: 2; stroke-linecap: square"/>
   </g>
   <g id="line2d_2">
    <path d="M 49.274071 205.871349 
L 49.405929 205.868193 
L 49.735575 206.114356 
L 50.328938 207.780688 
L 50.724513 209.746834 
L 51.186017 212.84596 
L 51.779379 217.99013 
L 52.570529 226.274453 
L 54.416546 247.545439 
L 55.6692 258.891017 
L 56.526279 263.770088 
L 57.2515 265.875095 
L 57.647075 266.266431 
L 57.910792 266.279055 
L 58.438225 265.742546 
L 58.8338 264.937783 
L 59.097517 264.278194 
L 61.536896 257.369857 
L 61.932471 256.890155 
L 62.459904 256.640837 
L 63.382913 257.410884 
L 64.108133 258.707972 
L 64.965213 260.257535 
L 65.492646 260.822447 
L 65.822292 260.850851 
L 66.349725 260.140766 
L 66.547513 259.714715 
L 67.206804 256.827037 
L 67.997954 250.461521 
L 68.789104 240.615011 
L 69.646183 225.813687 
L 70.371404 210.349617 
L 72.151492 165.125103 
L 73.601933 130.283608 
L 74.195296 119.269403 
L 74.854588 110.464351 
L 75.118304 108.065842 
L 75.513879 105.35174 
L 75.579808 105.541096 
L 75.645738 105.446418 
L 75.843525 104.846791 
L 75.909454 105.099266 
L 75.975383 104.752113 
L 76.041313 105.004588 
L 76.107242 104.973028 
L 76.173171 104.941469 
L 76.436888 106.266961 
L 77.096179 112.073877 
L 77.425825 116.176589 
L 78.085117 127.159234 
L 79.205913 151.459915 
L 79.799275 166.103443 
L 81.183788 199.840362 
L 82.172725 220.164568 
L 82.897946 231.494366 
L 83.491308 237.900909 
L 83.952813 241.091557 
L 84.348388 242.429672 
L 84.546175 242.685303 
L 84.809892 242.578001 
L 85.271396 240.984255 
L 85.601042 239.021265 
L 86.194404 233.766637 
L 86.985554 224.361958 
L 89.095288 197.410294 
L 89.622721 192.960429 
L 90.084225 190.467242 
L 90.413871 189.488903 
L 90.611658 189.236428 
L 90.677588 189.299547 
L 90.875375 189.394225 
L 91.007233 189.583581 
L 91.468738 191.224666 
L 91.864313 193.528497 
L 92.787321 201.418328 
L 95.292629 225.498094 
L 96.347496 231.683722 
L 97.204575 234.905929 
L 97.863867 236.613288 
L 99.116521 238.835065 
L 100.039529 239.841807 
L 100.76475 240.065879 
L 101.028467 240.056411 
L 101.226254 239.983824 
L 101.5559 239.699791 
L 101.753688 239.510435 
L 102.874483 237.711553 
L 104.127138 235.53396 
L 104.588642 235.02901 
L 104.7205 234.997451 
L 104.984217 234.934332 
L 105.577579 235.313044 
L 105.907225 235.754875 
L 106.500588 237.080366 
L 109.203683 245.759181 
L 109.731117 246.73752 
L 110.126692 247.116232 
L 110.390408 247.21091 
L 110.654125 247.053113 
L 110.720054 247.084673 
L 111.511204 245.79074 
L 112.038638 244.282205 
L 113.159433 239.974357 
L 114.280229 235.136312 
L 116.719608 226.293389 
L 116.785538 226.359663 
L 117.642617 222.926009 
L 117.708546 222.910229 
L 118.829342 217.428374 
L 121.268721 202.055827 
L 122.389517 196.11005 
L 122.455446 195.996436 
L 122.719163 194.948666 
L 122.785092 194.853988 
L 123.048808 193.875649 
L 123.7081 193.086666 
L 123.905888 193.086666 
L 124.367392 193.402259 
L 124.697038 193.970327 
L 124.894825 194.806649 
L 125.158542 195.598789 
L 125.356329 196.788575 
L 125.422258 196.902189 
L 126.543054 204.700498 
L 126.938629 208.471838 
L 127.466063 213.565513 
L 129.048362 229.651301 
L 130.0373 236.875231 
L 130.432875 238.620462 
L 130.960308 239.51359 
L 131.092167 239.494655 
L 131.224025 239.406289 
L 131.421813 239.005485 
L 131.817388 237.585316 
L 132.278892 234.744976 
L 132.938183 228.622467 
L 133.729333 218.775957 
L 134.7842 203.21721 
L 135.904996 186.175174 
L 136.432429 178.916529 
L 137.025792 171.594765 
L 137.289508 168.975341 
L 137.751013 164.36768 
L 138.937738 156.572526 
L 139.267383 155.341712 
L 139.333313 155.278594 
L 139.465171 154.868323 
L 139.662958 154.710526 
L 139.794817 154.300255 
L 140.124463 154.04778 
L 140.32225 153.889983 
L 140.388179 154.142458 
L 140.454108 154.079339 
L 140.520038 154.016221 
L 140.651896 154.52117 
L 140.717825 154.458051 
L 140.783754 154.394933 
L 140.849683 154.931441 
L 140.915613 154.868323 
L 140.981542 154.742085 
L 141.179329 155.46795 
L 141.706763 157.077475 
L 141.970479 158.497645 
L 142.102338 159.097272 
L 142.300125 159.917815 
L 144.278 173.898596 
L 145.201008 181.589604 
L 145.530654 184.559336 
L 145.926229 187.759452 
L 146.387733 191.767486 
L 146.783308 194.522616 
L 147.178883 197.366111 
L 147.4426 198.748409 
L 147.706317 200.364247 
L 148.761183 203.709535 
L 148.827113 203.501244 
L 148.893042 203.542271 
L 149.090829 203.819993 
L 149.222688 203.987257 
L 149.288617 203.737939 
L 149.354546 203.772654 
L 149.486404 203.902047 
L 149.684192 203.327667 
L 149.81605 203.416034 
L 150.013838 202.765911 
L 150.079767 202.819562 
L 150.277554 202.156816 
L 150.343483 202.147349 
L 150.870917 200.187515 
L 150.936846 200.219074 
L 151.530208 197.757446 
L 151.596138 197.820565 
L 152.123571 195.832328 
L 153.046579 193.465378 
L 153.639942 192.802632 
L 153.705871 192.802632 
L 153.837729 192.550158 
L 154.035517 192.802632 
L 154.101446 192.581717 
L 154.167375 192.676395 
L 154.299233 192.89731 
L 154.365163 192.739514 
L 154.431092 192.865751 
L 154.56295 193.212904 
L 154.628879 193.086666 
L 154.958525 193.875649 
L 155.024454 193.780971 
L 155.288171 194.538395 
L 155.3541 194.506836 
L 155.749675 195.73765 
L 155.815604 195.800768 
L 156.277108 197.694328 
L 156.343038 197.820565 
L 156.804542 199.998159 
L 156.870471 200.092837 
L 157.529763 203.65904 
L 157.595692 203.753718 
L 159.243921 214.515448 
L 159.573567 216.945517 
L 159.705425 217.766059 
L 160.101 220.732636 
L 160.232858 221.426941 
L 160.760292 224.835348 
L 161.287725 227.685155 
L 161.947017 230.238305 
L 162.47445 231.197708 
L 162.672238 231.39022 
L 163.001883 231.28923 
L 163.199671 231.058847 
L 163.463388 230.569678 
L 163.858963 229.499816 
L 165.111617 224.273592 
L 165.836838 221.253365 
L 166.4302 219.470263 
L 167.023563 218.832764 
L 167.155421 218.864324 
L 167.353208 218.959002 
L 167.880642 220.174036 
L 168.210288 221.354354 
L 168.671792 223.70868 
L 169.397013 228.347901 
L 170.649667 237.414895 
L 171.308958 241.214638 
L 171.836392 243.297554 
L 172.429754 244.244333 
L 172.561613 244.212774 
L 172.7594 244.118096 
L 172.957188 243.802503 
L 173.220904 243.108198 
L 173.55055 241.908943 
L 174.209842 238.216502 
L 175.462496 228.49623 
L 176.385504 221.395382 
L 177.044796 217.608262 
L 177.5063 215.935618 
L 177.770017 215.39911 
L 178.033733 215.115076 
L 178.231521 215.178194 
L 178.429308 215.430669 
L 178.890813 216.78772 
L 179.286388 218.681279 
L 179.945679 223.446738 
L 180.802758 231.683722 
L 183.901429 266.02658 
L 184.956296 274.686459 
L 185.747446 279.568687 
L 186.406738 282.680436 
L 187.131958 285.200133 
L 187.857179 286.949151 
L 188.5824 288.110534 
L 189.241692 288.793793 
L 190.098771 289.316763 
L 191.021779 289.601807 
L 192.340363 289.760083 
L 195.109387 289.814037 
L 240.270867 289.816 
L 289.388096 289.707541 
L 291.300042 289.451837 
L 293.146058 288.971378 
L 302.046496 285.843628 
L 302.969504 285.852149 
L 303.694725 286.042136 
L 304.485875 286.412011 
L 305.738529 287.228135 
L 307.386758 288.255297 
L 308.309767 288.58708 
L 309.100917 288.653354 
L 309.892067 288.486721 
L 310.683217 288.077081 
L 311.474367 287.431693 
L 312.397375 286.415798 
L 313.781887 284.50141 
L 315.298258 282.147084 
L 319.781442 274.591781 
L 320.045158 274.257252 
L 321.561529 272.985412 
L 322.484537 272.890734 
L 322.814183 272.94754 
L 323.209758 273.029595 
L 324.857987 273.63869 
L 326.044712 273.610286 
L 326.374358 273.52192 
L 327.231437 272.874954 
L 328.286304 271.404289 
L 329.077454 269.750581 
L 330.659754 264.805234 
L 331.648692 261.027583 
L 333.099133 255.523637 
L 334.285858 252.235155 
L 334.94515 251.16845 
L 335.670371 250.830765 
L 335.868158 250.897039 
L 336.131875 251.0359 
L 336.923025 252.102606 
L 337.516387 253.428097 
L 338.9009 257.694918 
L 339.889837 260.96762 
L 340.944704 263.741685 
L 341.472137 264.596943 
L 341.735854 264.80839 
L 341.999571 264.903068 
L 342.329217 264.877821 
L 342.922579 264.211919 
L 343.318154 263.385065 
L 343.977446 261.308461 
L 344.504879 259.140335 
L 345.691604 253.049385 
L 347.933196 239.990136 
L 350.834079 225.308738 
L 351.295583 223.762331 
L 351.823017 222.531517 
L 352.548237 221.963449 
L 352.877883 222.215924 
L 353.471246 223.572975 
L 353.93275 225.434975 
L 354.987617 232.093993 
L 355.646908 237.616875 
L 357.558854 254.860891 
L 358.481862 261.220095 
L 359.075225 263.9626 
L 359.602658 265.363834 
L 360.064162 265.837224 
L 360.657525 265.502695 
L 361.184958 264.391807 
L 362.042037 261.567247 
L 364.811062 251.733361 
L 365.8 249.57786 
L 367.514158 246.519761 
L 369.492033 243.903493 
L 369.689821 243.849842 
L 369.821679 243.821438 
L 370.283183 243.931896 
L 370.5469 244.127564 
L 371.667696 246.5671 
L 372.261058 248.763629 
L 372.986279 252.118385 
L 375.821233 265.660492 
L 376.810171 267.781279 
L 377.271675 268.036909 
L 377.865037 267.740252 
L 379.183621 264.817858 
L 381.557071 257.451911 
L 382.41415 256.236877 
L 382.809725 256.120108 
L 383.139371 256.258969 
L 384.194237 258.221959 
L 384.985388 260.800356 
L 387.095121 268.870075 
L 388.215917 271.577866 
L 389.007067 272.297418 
L 389.468571 272.237455 
L 389.864146 271.956577 
L 390.457508 271.104476 
L 391.90795 267.579299 
L 393.226533 263.602824 
L 394.479187 260.011373 
L 394.808833 259.304444 
L 395.665912 257.773816 
L 396.325204 257.265711 
L 396.522992 257.230996 
L 396.786708 257.246776 
L 397.380071 257.723322 
L 398.105292 259.137179 
L 398.434937 260.03662 
L 399.226087 262.810685 
L 399.81945 265.247065 
L 401.995112 274.235161 
L 402.588475 275.907805 
L 403.115908 276.895612 
L 403.511483 277.299571 
L 404.038917 277.280636 
L 404.302633 277.040785 
L 404.764137 276.24549 
L 405.3575 274.459232 
L 406.016792 271.514747 
L 406.9398 265.909811 
L 408.917675 250.840233 
L 409.774754 244.985978 
L 410.499975 241.328252 
L 410.961479 239.794468 
L 411.357054 238.973926 
L 411.6867 238.689892 
L 412.082275 238.753011 
L 412.543779 239.289519 
L 413.071212 240.457214 
L 414.455725 244.730347 
L 415.378733 247.176195 
L 415.840237 248.009361 
L 416.103954 248.419632 
L 417.158821 249.300137 
L 417.884042 249.650446 
L 418.609262 250.265853 
L 419.004837 250.827609 
L 419.993775 253.043073 
L 421.642004 259.279196 
L 424.411029 269.88313 
L 425.070321 271.577866 
L 425.9274 273.395683 
L 427.114125 275.491222 
L 428.564567 278.056995 
L 431.663237 284.335723 
L 432.849962 286.343843 
L 433.970758 287.760099 
L 434.893767 288.572373 
L 435.948633 289.170801 
L 437.069429 289.525654 
L 438.5858 289.732895 
L 441.157037 289.809782 
L 443.464558 289.815642 
L 443.464558 289.815642 
" clip-path="url(#pca6cc7afba)" style="fill: none; stroke: #ff7f0e; stroke-width: 2; stroke-linecap: square"/>
   </g>
   <g id="line2d_3">
    <path d="M 49.274071 177.256508 
L 49.405929 177.284912 
L 49.735575 177.865603 
L 50.263008 180.011638 
L 50.790442 183.764041 
L 51.515663 191.275161 
L 52.5046 204.596352 
L 55.141767 241.782706 
L 55.866988 248.668951 
L 56.394421 252.279338 
L 56.987783 254.823019 
L 57.449288 255.728772 
L 57.844863 255.870789 
L 58.108579 255.690901 
L 58.438225 255.135457 
L 58.899729 253.993009 
L 60.811675 247.756886 
L 61.405038 246.500825 
L 61.800613 245.99272 
L 61.9984 245.89173 
L 62.262117 245.819144 
L 62.459904 245.781273 
L 62.657692 245.901198 
L 62.723621 245.860171 
L 62.987338 246.055839 
L 63.514771 246.45033 
L 63.976275 246.674402 
L 64.437779 246.503981 
L 64.833354 245.841235 
L 65.426717 243.609991 
L 65.822292 241.107336 
L 66.415654 235.335136 
L 67.074946 225.905209 
L 67.800167 211.675109 
L 69.052821 178.064427 
L 70.569192 128.358489 
L 72.217421 75.244143 
L 73.206358 48.986784 
L 73.997508 32.702172 
L 74.590871 23.234374 
L 75.118304 17.174984 
L 75.777596 12.314848 
L 76.173171 10.8 
L 76.2391 11.147153 
L 76.370958 10.8 
L 76.502817 11.147153 
L 76.568746 11.084034 
L 76.634675 10.926237 
L 76.964321 12.598882 
L 77.03025 12.535763 
L 77.293967 14.587119 
L 77.887329 20.993662 
L 78.61255 32.891528 
L 79.205913 45.957089 
L 83.623167 182.419614 
L 84.414317 197.98783 
L 84.94175 204.653159 
L 85.403254 208.08997 
L 85.864758 209.2766 
L 85.930688 209.295536 
L 86.326263 208.443434 
L 86.655908 206.710827 
L 87.183342 202.507125 
L 87.908563 194.683568 
L 89.886438 173.144328 
L 90.809446 167.299541 
L 91.600596 164.560192 
L 92.0621 163.547137 
L 92.391746 162.76131 
L 92.457675 162.698191 
L 93.776258 157.980072 
L 94.699267 151.870187 
L 96.479354 137.409704 
L 96.940858 134.765032 
L 97.336433 133.344862 
L 97.666079 132.858849 
L 97.929796 132.975618 
L 98.127583 133.300679 
L 98.523158 134.739785 
L 98.852804 136.472392 
L 99.775813 143.686853 
L 100.698821 152.021671 
L 101.753688 159.185638 
L 102.281121 161.208591 
L 102.874483 162.227957 
L 103.270058 162.369974 
L 104.390854 161.928144 
L 104.852358 162.20271 
L 105.247933 162.93173 
L 105.51165 163.771208 
L 106.105013 166.668355 
L 106.698375 171.055101 
L 107.489525 178.866034 
L 109.928904 205.053963 
L 110.851913 210.703082 
L 111.313417 212.072757 
L 111.708992 212.375726 
L 112.038638 212.028574 
L 112.566071 210.504258 
L 113.027575 208.216207 
L 113.489079 205.145485 
L 114.543946 195.393653 
L 115.862529 178.881814 
L 117.115183 158.150492 
L 118.367838 132.5401 
L 120.873146 77.301811 
L 121.862083 62.566762 
L 122.257658 58.83645 
L 122.323588 58.713369 
L 122.521375 57.577233 
L 122.587304 57.469931 
L 122.653233 56.482124 
L 122.719163 56.763002 
L 122.851021 56.374822 
L 123.114738 56.40007 
L 123.312525 57.242704 
L 123.378454 57.132246 
L 123.642171 58.767019 
L 124.565179 69.049048 
L 126.213408 102.688133 
L 128.191283 146.29681 
L 128.916504 157.150062 
L 129.509867 162.366818 
L 129.905442 163.919537 
L 130.103229 163.998436 
L 130.366946 163.43668 
L 130.564733 162.515147 
L 130.82845 160.691018 
L 131.224025 156.49994 
L 131.751458 148.398661 
L 132.542608 131.514421 
L 133.729333 98.598045 
L 136.300571 29.54624 
L 136.564288 25.348849 
L 136.893933 20.078442 
L 137.091721 18.342679 
L 137.619154 13.861255 
L 137.685083 13.861255 
L 137.882871 13.166949 
L 137.9488 13.60878 
L 138.080658 12.819797 
L 138.278446 13.482543 
L 138.542163 14.397763 
L 138.73995 15.817933 
L 138.805879 15.975729 
L 140.124463 33.459596 
L 140.783754 46.11173 
L 141.1134 53.162083 
L 143.948354 114.892125 
L 145.06915 135.68972 
L 146.387733 153.621729 
L 147.376671 160.419608 
L 147.4426 160.530066 
L 147.574458 160.956117 
L 147.640388 161.016079 
L 147.706317 161.325361 
L 147.772246 161.278022 
L 147.838175 161.274866 
L 147.904104 161.132849 
L 147.970033 161.397947 
L 148.035963 161.218059 
L 148.299679 160.384893 
L 148.761183 158.270418 
L 149.156758 154.934597 
L 149.486404 151.592465 
L 151.530208 121.841488 
L 151.793925 118.458328 
L 152.387288 111.461626 
L 152.914721 107.26108 
L 153.244367 105.850378 
L 153.310296 105.803039 
L 153.442154 105.272842 
L 153.574013 105.219191 
L 153.705871 105.358052 
L 153.7718 105.193944 
L 153.969588 105.84091 
L 154.628879 109.776358 
L 155.3541 118.02281 
L 156.540825 137.95568 
L 158.123125 169.193101 
L 159.837283 199.490053 
L 160.232858 204.826735 
L 160.760292 211.27115 
L 161.287725 216.292239 
L 161.881088 220.196127 
L 162.276663 221.688883 
L 162.606308 222.275887 
L 162.804096 222.354785 
L 163.001883 222.21908 
L 163.2656 221.739378 
L 163.793033 219.817415 
L 164.254538 217.340008 
L 165.375333 209.690028 
L 166.364271 203.782122 
L 166.759846 202.25465 
L 167.155421 201.389925 
L 167.353208 201.216349 
L 167.616925 201.32365 
L 167.946571 201.935901 
L 168.276217 202.958423 
L 168.935508 206.521471 
L 169.660729 211.675109 
L 171.045242 221.717287 
L 171.770463 224.888999 
L 172.166038 225.57068 
L 172.495683 225.58646 
L 173.023117 224.415609 
L 173.352763 223.06487 
L 174.3417 216.383761 
L 176.583292 199.224008 
L 177.044796 197.482565 
L 177.374442 196.864002 
L 177.572229 196.814769 
L 177.704088 196.852956 
L 178.231521 198.114698 
L 178.627096 200.037608 
L 179.154529 203.950649 
L 179.813821 210.509308 
L 181.46205 232.352148 
L 183.110279 254.802822 
L 184.428863 269.065869 
L 185.220013 275.507191 
L 186.143021 281.01524 
L 186.868242 284.077625 
L 187.593463 286.218616 
L 188.252754 287.549258 
L 188.977975 288.505692 
L 189.835054 289.167649 
L 190.692133 289.514931 
L 191.812929 289.716371 
L 193.922663 289.806828 
L 205.130621 289.816 
L 289.388096 289.707444 
L 291.300042 289.450769 
L 293.146058 288.963775 
L 297.958887 287.063869 
L 299.936762 285.950172 
L 301.519063 285.146798 
L 302.310212 284.95902 
L 303.035433 284.982374 
L 303.958442 285.311537 
L 305.145167 286.129555 
L 307.650475 288.029774 
L 308.441625 288.311851 
L 309.100917 288.351774 
L 309.760208 288.187349 
L 310.4195 287.814539 
L 311.144721 287.158389 
L 311.935871 286.186772 
L 313.452242 283.776429 
L 318.067283 275.764841 
L 318.792504 274.353824 
L 320.374804 270.825176 
L 322.880112 263.609136 
L 323.803121 260.273315 
L 326.572146 249.691473 
L 327.956658 245.746557 
L 328.418162 244.714567 
L 329.011525 243.458506 
L 329.473029 242.565377 
L 329.934533 241.624909 
L 330.264179 240.977943 
L 331.516833 238.361675 
L 332.5717 236.089404 
L 332.835417 235.6886 
L 333.296921 234.915397 
L 333.428779 234.804939 
L 333.758425 234.438851 
L 334.483646 234.240027 
L 334.94515 234.536685 
L 335.802229 236.105183 
L 336.988954 240.343601 
L 338.373467 247.39711 
L 339.889837 255.28631 
L 340.812846 258.783399 
L 341.076562 259.415533 
L 341.472137 260.166645 
L 341.735854 260.381248 
L 341.999571 260.422591 
L 342.329217 260.253748 
L 342.922579 259.120453 
L 343.318154 257.85808 
L 344.043375 254.539301 
L 344.966383 248.876927 
L 345.955321 241.718009 
L 346.944258 234.088858 
L 349.449567 214.455486 
L 350.504433 206.174319 
L 351.163725 201.538254 
L 351.823017 197.470257 
L 352.680096 193.85987 
L 352.811954 193.541121 
L 353.273458 192.973053 
L 353.537175 193.01408 
L 353.800892 193.380168 
L 354.460183 195.73765 
L 355.251333 201.197413 
L 355.976554 208.298261 
L 356.701775 216.721445 
L 358.877437 240.801211 
L 359.602658 245.478303 
L 360.064162 247.14148 
L 360.591596 247.731639 
L 360.723454 247.655897 
L 361.184958 246.781703 
L 361.778321 244.351635 
L 362.305754 241.296692 
L 363.228762 234.50197 
L 364.942921 220.918836 
L 366.393362 210.829319 
L 367.777875 203.20143 
L 368.503096 200.367403 
L 369.228317 198.669511 
L 369.689821 198.417036 
L 369.821679 198.476999 
L 370.151325 198.846243 
L 370.5469 199.856142 
L 371.469908 204.656315 
L 372.063271 209.260821 
L 373.118137 219.703802 
L 374.568579 234.659766 
L 375.2938 240.349913 
L 375.887162 243.373296 
L 376.348667 244.468405 
L 376.612383 244.600954 
L 376.810171 244.468405 
L 377.337604 242.944089 
L 377.66725 241.372435 
L 378.392471 236.102027 
L 379.645125 223.860165 
L 380.502204 215.705235 
L 381.293354 210.242316 
L 381.820787 208.257234 
L 382.084504 207.935329 
L 382.282292 207.862743 
L 382.611937 208.301417 
L 383.073442 210.005621 
L 383.403087 211.911804 
L 383.99645 216.424788 
L 384.7876 224.226253 
L 386.897333 244.828181 
L 387.556625 248.725758 
L 388.018129 250.398402 
L 388.413704 251.020121 
L 388.677421 251.083239 
L 388.875208 250.919131 
L 389.204854 250.246917 
L 389.468571 249.420063 
L 389.930075 247.387642 
L 390.787154 241.874228 
L 391.380517 237.225539 
L 393.424321 220.461225 
L 394.215471 215.519035 
L 394.808833 212.83018 
L 395.402196 211.277462 
L 395.8637 210.911373 
L 396.061487 210.920841 
L 396.259275 211.103885 
L 396.720779 212.03173 
L 397.511929 215.28234 
L 398.632725 222.834487 
L 399.885379 233.908654 
L 401.40175 247.090985 
L 402.324758 252.92946 
L 402.918121 255.324813 
L 403.445554 256.318932 
L 403.709271 256.416765 
L 404.038917 256.091704 
L 404.368562 255.327969 
L 404.632279 254.362253 
L 405.225642 251.124266 
L 405.819004 246.472422 
L 406.478296 239.873367 
L 409.511037 204.905634 
L 410.170329 200.269569 
L 410.631833 198.199277 
L 411.093337 197.192535 
L 411.291125 197.063141 
L 411.620771 197.179911 
L 412.345992 198.88727 
L 415.115017 210.901906 
L 416.169883 213.641255 
L 418.147758 217.507273 
L 419.268554 221.76147 
L 419.730058 224.134731 
L 423.751737 250.736087 
L 424.279171 253.118816 
L 424.938462 255.586755 
L 425.597754 257.373013 
L 426.850408 259.926162 
L 427.707487 261.62721 
L 428.498637 263.527082 
L 429.949079 268.302954 
L 433.970758 283.764689 
L 434.827837 285.887842 
L 435.684917 287.417018 
L 436.410137 288.311526 
L 437.135358 288.916796 
L 437.992437 289.356061 
L 439.047304 289.632097 
L 440.563675 289.775098 
L 443.464558 289.814751 
L 443.464558 289.814751 
" clip-path="url(#pca6cc7afba)" style="fill: none; stroke: #000000; stroke-width: 2; stroke-linecap: square"/>
   </g>
   <g id="matplotlib.axis_1">
    <g id="xtick_1">
     <g id="line2d_4">
      <defs>
       <path id="m3e9bda964d" d="M 0 0 
L 0 3.5 
" style="stroke: #000000; stroke-width: 0.8"/>
      </defs>
      <g>
       <use xlink:href="#m3e9bda964d" x="49.34" y="289.816" style="stroke: #000000; stroke-width: 0.8"/>
      </g>
     </g>
     <g id="text_1">
      <!-- −3 -->
      <g transform="translate(37.54625 308.9735) scale(0.16 -0.16)">
       <defs>
        <path id="DejaVuSans-2212" d="M 678 2272 
L 4684 2272 
L 4684 1741 
L 678 1741 
L 678 2272 
z
" transform="scale(0.015625)"/>
        <path id="DejaVuSans-33" d="M 2597 2516 
Q 3050 2419 3304 2112 
Q 3559 1806 3559 1356 
Q 3559 666 3084 287 
Q 2609 -91 1734 -91 
Q 1441 -91 1130 -33 
Q 819 25 488 141 
L 488 750 
Q 750 597 1062 519 
Q 1375 441 1716 441 
Q 2309 441 2620 675 
Q 2931 909 2931 1356 
Q 2931 1769 2642 2001 
Q 2353 2234 1838 2234 
L 1294 2234 
L 1294 2753 
L 1863 2753 
Q 2328 2753 2575 2939 
Q 2822 3125 2822 3475 
Q 2822 3834 2567 4026 
Q 2313 4219 1838 4219 
Q 1578 4219 1281 4162 
Q 984 4106 628 3988 
L 628 4550 
Q 988 4650 1302 4700 
Q 1616 4750 1894 4750 
Q 2613 4750 3031 4423 
Q 3450 4097 3450 3541 
Q 3450 3153 3228 2886 
Q 3006 2619 2597 2516 
z
" transform="scale(0.015625)"/>
       </defs>
       <use xlink:href="#DejaVuSans-2212"/>
       <use xlink:href="#DejaVuSans-33" x="83.789062"/>
      </g>
     </g>
    </g>
    <g id="xtick_2">
     <g id="line2d_5">
      <g>
       <use xlink:href="#m3e9bda964d" x="115.269167" y="289.816" style="stroke: #000000; stroke-width: 0.8"/>
      </g>
     </g>
     <g id="text_2">
      <!-- −2 -->
      <g transform="translate(103.475417 308.9735) scale(0.16 -0.16)">
       <defs>
        <path id="DejaVuSans-32" d="M 1228 531 
L 3431 531 
L 3431 0 
L 469 0 
L 469 531 
Q 828 903 1448 1529 
Q 2069 2156 2228 2338 
Q 2531 2678 2651 2914 
Q 2772 3150 2772 3378 
Q 2772 3750 2511 3984 
Q 2250 4219 1831 4219 
Q 1534 4219 1204 4116 
Q 875 4013 500 3803 
L 500 4441 
Q 881 4594 1212 4672 
Q 1544 4750 1819 4750 
Q 2544 4750 2975 4387 
Q 3406 4025 3406 3419 
Q 3406 3131 3298 2873 
Q 3191 2616 2906 2266 
Q 2828 2175 2409 1742 
Q 1991 1309 1228 531 
z
" transform="scale(0.015625)"/>
       </defs>
       <use xlink:href="#DejaVuSans-2212"/>
       <use xlink:href="#DejaVuSans-32" x="83.789062"/>
      </g>
     </g>
    </g>
    <g id="xtick_3">
     <g id="line2d_6">
      <g>
       <use xlink:href="#m3e9bda964d" x="181.198333" y="289.816" style="stroke: #000000; stroke-width: 0.8"/>
      </g>
     </g>
     <g id="text_3">
      <!-- −1 -->
      <g transform="translate(169.404583 308.9735) scale(0.16 -0.16)">
       <defs>
        <path id="DejaVuSans-31" d="M 794 531 
L 1825 531 
L 1825 4091 
L 703 3866 
L 703 4441 
L 1819 4666 
L 2450 4666 
L 2450 531 
L 3481 531 
L 3481 0 
L 794 0 
L 794 531 
z
" transform="scale(0.015625)"/>
       </defs>
       <use xlink:href="#DejaVuSans-2212"/>
       <use xlink:href="#DejaVuSans-31" x="83.789062"/>
      </g>
     </g>
    </g>
    <g id="xtick_4">
     <g id="line2d_7">
      <g>
       <use xlink:href="#m3e9bda964d" x="247.1275" y="289.816" style="stroke: #000000; stroke-width: 0.8"/>
      </g>
     </g>
     <g id="text_4">
      <!-- 0 -->
      <g transform="translate(242.0375 308.9735) scale(0.16 -0.16)">
       <defs>
        <path id="DejaVuSans-30" d="M 2034 4250 
Q 1547 4250 1301 3770 
Q 1056 3291 1056 2328 
Q 1056 1369 1301 889 
Q 1547 409 2034 409 
Q 2525 409 2770 889 
Q 3016 1369 3016 2328 
Q 3016 3291 2770 3770 
Q 2525 4250 2034 4250 
z
M 2034 4750 
Q 2819 4750 3233 4129 
Q 3647 3509 3647 2328 
Q 3647 1150 3233 529 
Q 2819 -91 2034 -91 
Q 1250 -91 836 529 
Q 422 1150 422 2328 
Q 422 3509 836 4129 
Q 1250 4750 2034 4750 
z
" transform="scale(0.015625)"/>
       </defs>
       <use xlink:href="#DejaVuSans-30"/>
      </g>
     </g>
    </g>
    <g id="xtick_5">
     <g id="line2d_8">
      <g>
       <use xlink:href="#m3e9bda964d" x="313.056667" y="289.816" style="stroke: #000000; stroke-width: 0.8"/>
      </g>
     </g>
     <g id="text_5">
      <!-- 1 -->
      <g transform="translate(307.966667 308.9735) scale(0.16 -0.16)">
       <use xlink:href="#DejaVuSans-31"/>
      </g>
     </g>
    </g>
    <g id="xtick_6">
     <g id="line2d_9">
      <g>
       <use xlink:href="#m3e9bda964d" x="378.985833" y="289.816" style="stroke: #000000; stroke-width: 0.8"/>
      </g>
     </g>
     <g id="text_6">
      <!-- 2 -->
      <g transform="translate(373.895833 308.9735) scale(0.16 -0.16)">
       <use xlink:href="#DejaVuSans-32"/>
      </g>
     </g>
    </g>
    <g id="xtick_7">
     <g id="line2d_10">
      <g>
       <use xlink:href="#m3e9bda964d" x="444.915" y="289.816" style="stroke: #000000; stroke-width: 0.8"/>
      </g>
     </g>
     <g id="text_7">
      <!-- 3 -->
      <g transform="translate(439.825 308.9735) scale(0.16 -0.16)">
       <use xlink:href="#DejaVuSans-33"/>
      </g>
     </g>
    </g>
    <g id="text_8">
     <!-- $E$-$E_F$ (eV) -->
     <g transform="translate(206.9875 329.978187) scale(0.18 -0.18)">
      <defs>
       <path id="DejaVuSans-Oblique-45" d="M 1081 4666 
L 4031 4666 
L 3928 4134 
L 1606 4134 
L 1338 2753 
L 3566 2753 
L 3463 2222 
L 1234 2222 
L 909 531 
L 3284 531 
L 3181 0 
L 172 0 
L 1081 4666 
z
" transform="scale(0.015625)"/>
       <path id="DejaVuSans-2d" d="M 313 2009 
L 1997 2009 
L 1997 1497 
L 313 1497 
L 313 2009 
z
" transform="scale(0.015625)"/>
       <path id="DejaVuSans-Oblique-46" d="M 1081 4666 
L 3756 4666 
L 3653 4134 
L 1606 4134 
L 1338 2759 
L 3188 2759 
L 3084 2228 
L 1234 2228 
L 800 0 
L 172 0 
L 1081 4666 
z
" transform="scale(0.015625)"/>
       <path id="DejaVuSans-20" transform="scale(0.015625)"/>
       <path id="DejaVuSans-28" d="M 1984 4856 
Q 1566 4138 1362 3434 
Q 1159 2731 1159 2009 
Q 1159 1288 1364 580 
Q 1569 -128 1984 -844 
L 1484 -844 
Q 1016 -109 783 600 
Q 550 1309 550 2009 
Q 550 2706 781 3412 
Q 1013 4119 1484 4856 
L 1984 4856 
z
" transform="scale(0.015625)"/>
       <path id="DejaVuSans-65" d="M 3597 1894 
L 3597 1613 
L 953 1613 
Q 991 1019 1311 708 
Q 1631 397 2203 397 
Q 2534 397 2845 478 
Q 3156 559 3463 722 
L 3463 178 
Q 3153 47 2828 -22 
Q 2503 -91 2169 -91 
Q 1331 -91 842 396 
Q 353 884 353 1716 
Q 353 2575 817 3079 
Q 1281 3584 2069 3584 
Q 2775 3584 3186 3129 
Q 3597 2675 3597 1894 
z
M 3022 2063 
Q 3016 2534 2758 2815 
Q 2500 3097 2075 3097 
Q 1594 3097 1305 2825 
Q 1016 2553 972 2059 
L 3022 2063 
z
" transform="scale(0.015625)"/>
       <path id="DejaVuSans-56" d="M 1831 0 
L 50 4666 
L 709 4666 
L 2188 738 
L 3669 4666 
L 4325 4666 
L 2547 0 
L 1831 0 
z
" transform="scale(0.015625)"/>
       <path id="DejaVuSans-29" d="M 513 4856 
L 1013 4856 
Q 1481 4119 1714 3412 
Q 1947 2706 1947 2009 
Q 1947 1309 1714 600 
Q 1481 -109 1013 -844 
L 513 -844 
Q 928 -128 1133 580 
Q 1338 1288 1338 2009 
Q 1338 2731 1133 3434 
Q 928 4138 513 4856 
z
" transform="scale(0.015625)"/>
      </defs>
      <use xlink:href="#DejaVuSans-Oblique-45" transform="translate(0 0.125)"/>
      <use xlink:href="#DejaVuSans-2d" transform="translate(63.183594 0.125)"/>
      <use xlink:href="#DejaVuSans-Oblique-45" transform="translate(99.267578 0.125)"/>
      <use xlink:href="#DejaVuSans-Oblique-46" transform="translate(162.451172 -16.28125) scale(0.7)"/>
      <use xlink:href="#DejaVuSans-20" transform="translate(205.449219 0.125)"/>
      <use xlink:href="#DejaVuSans-28" transform="translate(237.236328 0.125)"/>
      <use xlink:href="#DejaVuSans-65" transform="translate(276.25 0.125)"/>
      <use xlink:href="#DejaVuSans-56" transform="translate(337.773438 0.125)"/>
      <use xlink:href="#DejaVuSans-29" transform="translate(406.181641 0.125)"/>
     </g>
    </g>
   </g>
   <g id="matplotlib.axis_2">
    <g id="ytick_1">
     <g id="line2d_11">
      <defs>
       <path id="m039ce9c482" d="M 0 0 
L -3.5 0 
" style="stroke: #000000; stroke-width: 0.8"/>
      </defs>
      <g>
       <use xlink:href="#m039ce9c482" x="49.34" y="289.816" style="stroke: #000000; stroke-width: 0.8"/>
      </g>
     </g>
     <g id="text_9">
      <!-- 0 -->
      <g transform="translate(32.16 295.89475) scale(0.16 -0.16)">
       <use xlink:href="#DejaVuSans-30"/>
      </g>
     </g>
    </g>
    <g id="ytick_2">
     <g id="line2d_12">
      <g>
       <use xlink:href="#m039ce9c482" x="49.34" y="258.256674" style="stroke: #000000; stroke-width: 0.8"/>
      </g>
     </g>
     <g id="text_10">
      <!-- 1 -->
      <g transform="translate(32.16 264.335424) scale(0.16 -0.16)">
       <use xlink:href="#DejaVuSans-31"/>
      </g>
     </g>
    </g>
    <g id="ytick_3">
     <g id="line2d_13">
      <g>
       <use xlink:href="#m039ce9c482" x="49.34" y="226.697348" style="stroke: #000000; stroke-width: 0.8"/>
      </g>
     </g>
     <g id="text_11">
      <!-- 2 -->
      <g transform="translate(32.16 232.776098) scale(0.16 -0.16)">
       <use xlink:href="#DejaVuSans-32"/>
      </g>
     </g>
    </g>
    <g id="ytick_4">
     <g id="line2d_14">
      <g>
       <use xlink:href="#m039ce9c482" x="49.34" y="195.138022" style="stroke: #000000; stroke-width: 0.8"/>
      </g>
     </g>
     <g id="text_12">
      <!-- 3 -->
      <g transform="translate(32.16 201.216772) scale(0.16 -0.16)">
       <use xlink:href="#DejaVuSans-33"/>
      </g>
     </g>
    </g>
    <g id="ytick_5">
     <g id="line2d_15">
      <g>
       <use xlink:href="#m039ce9c482" x="49.34" y="163.578697" style="stroke: #000000; stroke-width: 0.8"/>
      </g>
     </g>
     <g id="text_13">
      <!-- 4 -->
      <g transform="translate(32.16 169.657447) scale(0.16 -0.16)">
       <defs>
        <path id="DejaVuSans-34" d="M 2419 4116 
L 825 1625 
L 2419 1625 
L 2419 4116 
z
M 2253 4666 
L 3047 4666 
L 3047 1625 
L 3713 1625 
L 3713 1100 
L 3047 1100 
L 3047 0 
L 2419 0 
L 2419 1100 
L 313 1100 
L 313 1709 
L 2253 4666 
z
" transform="scale(0.015625)"/>
       </defs>
       <use xlink:href="#DejaVuSans-34"/>
      </g>
     </g>
    </g>
    <g id="ytick_6">
     <g id="line2d_16">
      <g>
       <use xlink:href="#m039ce9c482" x="49.34" y="132.019371" style="stroke: #000000; stroke-width: 0.8"/>
      </g>
     </g>
     <g id="text_14">
      <!-- 5 -->
      <g transform="translate(32.16 138.098121) scale(0.16 -0.16)">
       <defs>
        <path id="DejaVuSans-35" d="M 691 4666 
L 3169 4666 
L 3169 4134 
L 1269 4134 
L 1269 2991 
Q 1406 3038 1543 3061 
Q 1681 3084 1819 3084 
Q 2600 3084 3056 2656 
Q 3513 2228 3513 1497 
Q 3513 744 3044 326 
Q 2575 -91 1722 -91 
Q 1428 -91 1123 -41 
Q 819 9 494 109 
L 494 744 
Q 775 591 1075 516 
Q 1375 441 1709 441 
Q 2250 441 2565 725 
Q 2881 1009 2881 1497 
Q 2881 1984 2565 2268 
Q 2250 2553 1709 2553 
Q 1456 2553 1204 2497 
Q 953 2441 691 2322 
L 691 4666 
z
" transform="scale(0.015625)"/>
       </defs>
       <use xlink:href="#DejaVuSans-35"/>
      </g>
     </g>
    </g>
    <g id="ytick_7">
     <g id="line2d_17">
      <g>
       <use xlink:href="#m039ce9c482" x="49.34" y="100.460045" style="stroke: #000000; stroke-width: 0.8"/>
      </g>
     </g>
     <g id="text_15">
      <!-- 6 -->
      <g transform="translate(32.16 106.538795) scale(0.16 -0.16)">
       <defs>
        <path id="DejaVuSans-36" d="M 2113 2584 
Q 1688 2584 1439 2293 
Q 1191 2003 1191 1497 
Q 1191 994 1439 701 
Q 1688 409 2113 409 
Q 2538 409 2786 701 
Q 3034 994 3034 1497 
Q 3034 2003 2786 2293 
Q 2538 2584 2113 2584 
z
M 3366 4563 
L 3366 3988 
Q 3128 4100 2886 4159 
Q 2644 4219 2406 4219 
Q 1781 4219 1451 3797 
Q 1122 3375 1075 2522 
Q 1259 2794 1537 2939 
Q 1816 3084 2150 3084 
Q 2853 3084 3261 2657 
Q 3669 2231 3669 1497 
Q 3669 778 3244 343 
Q 2819 -91 2113 -91 
Q 1303 -91 875 529 
Q 447 1150 447 2328 
Q 447 3434 972 4092 
Q 1497 4750 2381 4750 
Q 2619 4750 2861 4703 
Q 3103 4656 3366 4563 
z
" transform="scale(0.015625)"/>
       </defs>
       <use xlink:href="#DejaVuSans-36"/>
      </g>
     </g>
    </g>
    <g id="ytick_8">
     <g id="line2d_18">
      <g>
       <use xlink:href="#m039ce9c482" x="49.34" y="68.900719" style="stroke: #000000; stroke-width: 0.8"/>
      </g>
     </g>
     <g id="text_16">
      <!-- 7 -->
      <g transform="translate(32.16 74.979469) scale(0.16 -0.16)">
       <defs>
        <path id="DejaVuSans-37" d="M 525 4666 
L 3525 4666 
L 3525 4397 
L 1831 0 
L 1172 0 
L 2766 4134 
L 525 4134 
L 525 4666 
z
" transform="scale(0.015625)"/>
       </defs>
       <use xlink:href="#DejaVuSans-37"/>
      </g>
     </g>
    </g>
    <g id="ytick_9">
     <g id="line2d_19">
      <g>
       <use xlink:href="#m039ce9c482" x="49.34" y="37.341393" style="stroke: #000000; stroke-width: 0.8"/>
      </g>
     </g>
     <g id="text_17">
      <!-- 8 -->
      <g transform="translate(32.16 43.420143) scale(0.16 -0.16)">
       <defs>
        <path id="DejaVuSans-38" d="M 2034 2216 
Q 1584 2216 1326 1975 
Q 1069 1734 1069 1313 
Q 1069 891 1326 650 
Q 1584 409 2034 409 
Q 2484 409 2743 651 
Q 3003 894 3003 1313 
Q 3003 1734 2745 1975 
Q 2488 2216 2034 2216 
z
M 1403 2484 
Q 997 2584 770 2862 
Q 544 3141 544 3541 
Q 544 4100 942 4425 
Q 1341 4750 2034 4750 
Q 2731 4750 3128 4425 
Q 3525 4100 3525 3541 
Q 3525 3141 3298 2862 
Q 3072 2584 2669 2484 
Q 3125 2378 3379 2068 
Q 3634 1759 3634 1313 
Q 3634 634 3220 271 
Q 2806 -91 2034 -91 
Q 1263 -91 848 271 
Q 434 634 434 1313 
Q 434 1759 690 2068 
Q 947 2378 1403 2484 
z
M 1172 3481 
Q 1172 3119 1398 2916 
Q 1625 2713 2034 2713 
Q 2441 2713 2670 2916 
Q 2900 3119 2900 3481 
Q 2900 3844 2670 4047 
Q 2441 4250 2034 4250 
Q 1625 4250 1398 4047 
Q 1172 3844 1172 3481 
z
" transform="scale(0.015625)"/>
       </defs>
       <use xlink:href="#DejaVuSans-38"/>
      </g>
     </g>
    </g>
    <g id="text_18">
     <!-- DOS (States/eV) -->
     <g transform="translate(24.416563 223.157375) rotate(-90) scale(0.18 -0.18)">
      <defs>
       <path id="DejaVuSans-44" d="M 1259 4147 
L 1259 519 
L 2022 519 
Q 2988 519 3436 956 
Q 3884 1394 3884 2338 
Q 3884 3275 3436 3711 
Q 2988 4147 2022 4147 
L 1259 4147 
z
M 628 4666 
L 1925 4666 
Q 3281 4666 3915 4102 
Q 4550 3538 4550 2338 
Q 4550 1131 3912 565 
Q 3275 0 1925 0 
L 628 0 
L 628 4666 
z
" transform="scale(0.015625)"/>
       <path id="DejaVuSans-4f" d="M 2522 4238 
Q 1834 4238 1429 3725 
Q 1025 3213 1025 2328 
Q 1025 1447 1429 934 
Q 1834 422 2522 422 
Q 3209 422 3611 934 
Q 4013 1447 4013 2328 
Q 4013 3213 3611 3725 
Q 3209 4238 2522 4238 
z
M 2522 4750 
Q 3503 4750 4090 4092 
Q 4678 3434 4678 2328 
Q 4678 1225 4090 567 
Q 3503 -91 2522 -91 
Q 1538 -91 948 565 
Q 359 1222 359 2328 
Q 359 3434 948 4092 
Q 1538 4750 2522 4750 
z
" transform="scale(0.015625)"/>
       <path id="DejaVuSans-53" d="M 3425 4513 
L 3425 3897 
Q 3066 4069 2747 4153 
Q 2428 4238 2131 4238 
Q 1616 4238 1336 4038 
Q 1056 3838 1056 3469 
Q 1056 3159 1242 3001 
Q 1428 2844 1947 2747 
L 2328 2669 
Q 3034 2534 3370 2195 
Q 3706 1856 3706 1288 
Q 3706 609 3251 259 
Q 2797 -91 1919 -91 
Q 1588 -91 1214 -16 
Q 841 59 441 206 
L 441 856 
Q 825 641 1194 531 
Q 1563 422 1919 422 
Q 2459 422 2753 634 
Q 3047 847 3047 1241 
Q 3047 1584 2836 1778 
Q 2625 1972 2144 2069 
L 1759 2144 
Q 1053 2284 737 2584 
Q 422 2884 422 3419 
Q 422 4038 858 4394 
Q 1294 4750 2059 4750 
Q 2388 4750 2728 4690 
Q 3069 4631 3425 4513 
z
" transform="scale(0.015625)"/>
       <path id="DejaVuSans-74" d="M 1172 4494 
L 1172 3500 
L 2356 3500 
L 2356 3053 
L 1172 3053 
L 1172 1153 
Q 1172 725 1289 603 
Q 1406 481 1766 481 
L 2356 481 
L 2356 0 
L 1766 0 
Q 1100 0 847 248 
Q 594 497 594 1153 
L 594 3053 
L 172 3053 
L 172 3500 
L 594 3500 
L 594 4494 
L 1172 4494 
z
" transform="scale(0.015625)"/>
       <path id="DejaVuSans-61" d="M 2194 1759 
Q 1497 1759 1228 1600 
Q 959 1441 959 1056 
Q 959 750 1161 570 
Q 1363 391 1709 391 
Q 2188 391 2477 730 
Q 2766 1069 2766 1631 
L 2766 1759 
L 2194 1759 
z
M 3341 1997 
L 3341 0 
L 2766 0 
L 2766 531 
Q 2569 213 2275 61 
Q 1981 -91 1556 -91 
Q 1019 -91 701 211 
Q 384 513 384 1019 
Q 384 1609 779 1909 
Q 1175 2209 1959 2209 
L 2766 2209 
L 2766 2266 
Q 2766 2663 2505 2880 
Q 2244 3097 1772 3097 
Q 1472 3097 1187 3025 
Q 903 2953 641 2809 
L 641 3341 
Q 956 3463 1253 3523 
Q 1550 3584 1831 3584 
Q 2591 3584 2966 3190 
Q 3341 2797 3341 1997 
z
" transform="scale(0.015625)"/>
       <path id="DejaVuSans-73" d="M 2834 3397 
L 2834 2853 
Q 2591 2978 2328 3040 
Q 2066 3103 1784 3103 
Q 1356 3103 1142 2972 
Q 928 2841 928 2578 
Q 928 2378 1081 2264 
Q 1234 2150 1697 2047 
L 1894 2003 
Q 2506 1872 2764 1633 
Q 3022 1394 3022 966 
Q 3022 478 2636 193 
Q 2250 -91 1575 -91 
Q 1294 -91 989 -36 
Q 684 19 347 128 
L 347 722 
Q 666 556 975 473 
Q 1284 391 1588 391 
Q 1994 391 2212 530 
Q 2431 669 2431 922 
Q 2431 1156 2273 1281 
Q 2116 1406 1581 1522 
L 1381 1569 
Q 847 1681 609 1914 
Q 372 2147 372 2553 
Q 372 3047 722 3315 
Q 1072 3584 1716 3584 
Q 2034 3584 2315 3537 
Q 2597 3491 2834 3397 
z
" transform="scale(0.015625)"/>
       <path id="DejaVuSans-2f" d="M 1625 4666 
L 2156 4666 
L 531 -594 
L 0 -594 
L 1625 4666 
z
" transform="scale(0.015625)"/>
      </defs>
      <use xlink:href="#DejaVuSans-44"/>
      <use xlink:href="#DejaVuSans-4f" x="77.001953"/>
      <use xlink:href="#DejaVuSans-53" x="155.712891"/>
      <use xlink:href="#DejaVuSans-20" x="219.189453"/>
      <use xlink:href="#DejaVuSans-28" x="250.976562"/>
      <use xlink:href="#DejaVuSans-53" x="289.990234"/>
      <use xlink:href="#DejaVuSans-74" x="353.466797"/>
      <use xlink:href="#DejaVuSans-61" x="392.675781"/>
      <use xlink:href="#DejaVuSans-74" x="453.955078"/>
      <use xlink:href="#DejaVuSans-65" x="493.164062"/>
      <use xlink:href="#DejaVuSans-73" x="554.6875"/>
      <use xlink:href="#DejaVuSans-2f" x="606.787109"/>
      <use xlink:href="#DejaVuSans-65" x="640.478516"/>
      <use xlink:href="#DejaVuSans-56" x="702.001953"/>
      <use xlink:href="#DejaVuSans-29" x="770.410156"/>
     </g>
    </g>
   </g>
   <g id="line2d_20">
    <path d="M 247.1275 289.816 
L 247.1275 10.8 
" clip-path="url(#pca6cc7afba)" style="fill: none; stroke-dasharray: 5.55,2.4; stroke-dashoffset: 0; stroke: #808080; stroke-width: 1.5"/>
   </g>
   <g id="line2d_21">
    <path d="M 247.1275 289.816 
L 247.1275 10.8 
" clip-path="url(#pca6cc7afba)" style="fill: none; stroke-dasharray: 5.55,2.4; stroke-dashoffset: 0; stroke: #808080; stroke-width: 1.5"/>
   </g>
   <g id="line2d_22">
    <path d="M 247.1275 289.816 
L 247.1275 10.8 
" clip-path="url(#pca6cc7afba)" style="fill: none; stroke-dasharray: 5.55,2.4; stroke-dashoffset: 0; stroke: #808080; stroke-width: 1.5"/>
   </g>
   <g id="patch_3">
    <path d="M 49.34 289.816 
L 49.34 10.8 
" style="fill: none; stroke: #000000; stroke-width: 0.8; stroke-linejoin: miter; stroke-linecap: square"/>
   </g>
   <g id="patch_4">
    <path d="M 444.915 289.816 
L 444.915 10.8 
" style="fill: none; stroke: #000000; stroke-width: 0.8; stroke-linejoin: miter; stroke-linecap: square"/>
   </g>
   <g id="patch_5">
    <path d="M 49.34 289.816 
L 444.915 289.816 
" style="fill: none; stroke: #000000; stroke-width: 0.8; stroke-linejoin: miter; stroke-linecap: square"/>
   </g>
   <g id="patch_6">
    <path d="M 49.34 10.8 
L 444.915 10.8 
" style="fill: none; stroke: #000000; stroke-width: 0.8; stroke-linejoin: miter; stroke-linecap: square"/>
   </g>
   <g id="legend_1">
    <g id="patch_7">
     <path d="M 382.561875 63.875 
L 437.915 63.875 
Q 439.915 63.875 439.915 61.875 
L 439.915 17.8 
Q 439.915 15.8 437.915 15.8 
L 382.561875 15.8 
Q 380.561875 15.8 380.561875 17.8 
L 380.561875 61.875 
Q 380.561875 63.875 382.561875 63.875 
z
" style="fill: #ffffff; opacity: 0.8; stroke: #cccccc; stroke-linejoin: miter"/>
    </g>
    <g id="line2d_23">
     <path d="M 384.561875 23.898438 
L 394.561875 23.898438 
L 404.561875 23.898438 
" style="fill: none; stroke: #1f77b4; stroke-width: 2; stroke-linecap: square"/>
    </g>
    <g id="text_19">
     <!-- $p_y$ -->
     <g transform="translate(412.561875 27.398438) scale(0.1 -0.1)">
      <defs>
       <path id="DejaVuSans-Oblique-70" d="M 3175 2156 
Q 3175 2616 2975 2859 
Q 2775 3103 2400 3103 
Q 2144 3103 1911 2972 
Q 1678 2841 1497 2591 
Q 1319 2344 1212 1994 
Q 1106 1644 1106 1300 
Q 1106 863 1306 627 
Q 1506 391 1875 391 
Q 2147 391 2380 519 
Q 2613 647 2778 891 
Q 2956 1147 3065 1494 
Q 3175 1841 3175 2156 
z
M 1394 2969 
Q 1625 3272 1939 3428 
Q 2253 3584 2638 3584 
Q 3175 3584 3472 3232 
Q 3769 2881 3769 2247 
Q 3769 1728 3584 1258 
Q 3400 788 3053 416 
Q 2822 169 2531 39 
Q 2241 -91 1919 -91 
Q 1547 -91 1294 64 
Q 1041 219 916 525 
L 556 -1331 
L -19 -1331 
L 922 3500 
L 1497 3500 
L 1394 2969 
z
" transform="scale(0.015625)"/>
       <path id="DejaVuSans-Oblique-79" d="M 1588 -325 
Q 1188 -997 936 -1164 
Q 684 -1331 294 -1331 
L -159 -1331 
L -63 -850 
L 269 -850 
Q 509 -850 678 -719 
Q 847 -588 1056 -206 
L 1234 128 
L 459 3500 
L 1069 3500 
L 1650 819 
L 3256 3500 
L 3859 3500 
L 1588 -325 
z
" transform="scale(0.015625)"/>
      </defs>
      <use xlink:href="#DejaVuSans-Oblique-70"/>
      <use xlink:href="#DejaVuSans-Oblique-79" transform="translate(63.476562 -16.40625) scale(0.7)"/>
     </g>
    </g>
    <g id="line2d_24">
     <path d="M 384.561875 39.596875 
L 394.561875 39.596875 
L 404.561875 39.596875 
" style="fill: none; stroke: #ff7f0e; stroke-width: 2; stroke-linecap: square"/>
    </g>
    <g id="text_20">
     <!-- $p_z$ -->
     <g transform="translate(412.561875 43.096875) scale(0.1 -0.1)">
      <defs>
       <path id="DejaVuSans-Oblique-7a" d="M 744 3500 
L 3475 3500 
L 3372 2975 
L 738 459 
L 2913 459 
L 2822 0 
L -19 0 
L 84 525 
L 2719 3041 
L 653 3041 
L 744 3500 
z
" transform="scale(0.015625)"/>
      </defs>
      <use xlink:href="#DejaVuSans-Oblique-70"/>
      <use xlink:href="#DejaVuSans-Oblique-7a" transform="translate(63.476562 -16.40625) scale(0.7)"/>
     </g>
    </g>
    <g id="line2d_25">
     <path d="M 384.561875 54.295313 
L 394.561875 54.295313 
L 404.561875 54.295313 
" style="fill: none; stroke: #000000; stroke-width: 2; stroke-linecap: square"/>
    </g>
    <g id="text_21">
     <!-- Total -->
     <g transform="translate(412.561875 57.795313) scale(0.1 -0.1)">
      <defs>
       <path id="DejaVuSans-54" d="M -19 4666 
L 3928 4666 
L 3928 4134 
L 2272 4134 
L 2272 0 
L 1638 0 
L 1638 4134 
L -19 4134 
L -19 4666 
z
" transform="scale(0.015625)"/>
       <path id="DejaVuSans-6f" d="M 1959 3097 
Q 1497 3097 1228 2736 
Q 959 2375 959 1747 
Q 959 1119 1226 758 
Q 1494 397 1959 397 
Q 2419 397 2687 759 
Q 2956 1122 2956 1747 
Q 2956 2369 2687 2733 
Q 2419 3097 1959 3097 
z
M 1959 3584 
Q 2709 3584 3137 3096 
Q 3566 2609 3566 1747 
Q 3566 888 3137 398 
Q 2709 -91 1959 -91 
Q 1206 -91 779 398 
Q 353 888 353 1747 
Q 353 2609 779 3096 
Q 1206 3584 1959 3584 
z
" transform="scale(0.015625)"/>
       <path id="DejaVuSans-6c" d="M 603 4863 
L 1178 4863 
L 1178 0 
L 603 0 
L 603 4863 
z
" transform="scale(0.015625)"/>
      </defs>
      <use xlink:href="#DejaVuSans-54"/>
      <use xlink:href="#DejaVuSans-6f" x="44.083984"/>
      <use xlink:href="#DejaVuSans-74" x="105.265625"/>
      <use xlink:href="#DejaVuSans-61" x="144.474609"/>
      <use xlink:href="#DejaVuSans-6c" x="205.753906"/>
     </g>
    </g>
   </g>
  </g>
 </g>
 <defs>
  <clipPath id="pca6cc7afba">
   <rect x="49.34" y="10.8" width="395.575" height="279.016"/>
  </clipPath>
 </defs>
</svg>
