<?xml version="1.0" encoding="utf-8" standalone="no"?>
<!DOCTYPE svg PUBLIC "-//W3C//DTD SVG 1.1//EN"
  "http://www.w3.org/Graphics/SVG/1.1/DTD/svg11.dtd">
<svg xmlns:xlink="http://www.w3.org/1999/xlink" width="460.8pt" height="345.6pt" viewBox="0 0 460.8 345.6" xmlns="http://www.w3.org/2000/svg" version="1.1">
 <metadata>
  <rdf:RDF xmlns:dc="http://purl.org/dc/elements/1.1/" xmlns:cc="http://creativecommons.org/ns#" xmlns:rdf="http://www.w3.org/1999/02/22-rdf-syntax-ns#">
   <cc:Work>
    <dc:type rdf:resource="http://purl.org/dc/dcmitype/StillImage"/>
    <dc:date>2023-08-09T23:00:20.464933</dc:date>
    <dc:format>image/svg+xml</dc:format>
    <dc:creator>
     <cc:Agent>
      <dc:title>Matplotlib v3.7.1, https://matplotlib.org/</dc:title>
     </cc:Agent>
    </dc:creator>
   </cc:Work>
  </rdf:RDF>
 </metadata>
 <defs>
  <style type="text/css">*{stroke-linejoin: round; stroke-linecap: butt}</style>
 </defs>
 <g id="figure_1">
  <g id="patch_1">
   <path d="M 0 345.6 
L 460.8 345.6 
L 460.8 0 
L 0 0 
z
" style="fill: #ffffff"/>
  </g>
  <g id="axes_1">
   <g id="patch_2">
    <path d="M 59.51 289.816 
L 450 289.816 
L 450 10.8 
L 59.51 10.8 
z
" style="fill: #ffffff"/>
   </g>
   <g id="line2d_1">
    <path d="M 59.51 289.816 
L 73.168149 289.705707 
L 73.872581 289.465055 
L 74.381337 289.071576 
L 74.850958 288.416813 
L 75.320579 287.334551 
L 75.7902 285.668228 
L 76.338092 282.790433 
L 76.925118 278.4582 
L 77.746955 270.400271 
L 79.390629 251.236409 
L 81.269114 225.552126 
L 83.147599 196.257345 
L 83.61722 192.803371 
L 83.85203 192.143216 
L 83.891166 192.062586 
L 83.969436 192.144224 
L 84.086841 192.309515 
L 84.165111 192.494963 
L 84.478192 194.198265 
L 84.908678 198.534126 
L 85.495705 207.244148 
L 87.061108 236.356503 
L 88.117756 253.896483 
L 89.056998 265.46382 
L 89.60489 269.501351 
L 89.917971 270.656371 
L 90.113646 270.888182 
L 90.231051 270.863993 
L 90.387592 270.581789 
L 90.661537 269.493288 
L 91.052888 266.650084 
L 91.639915 259.970922 
L 93.59667 235.422207 
L 94.027156 233.256292 
L 94.340237 232.659632 
L 94.575047 232.728168 
L 94.770723 232.998277 
L 95.005533 233.568732 
L 95.318614 234.58769 
L 97.784125 242.958059 
L 98.214611 244.80851 
L 99.66261 252.605401 
L 101.032338 260.965691 
L 103.928335 282.98082 
L 104.437092 284.984569 
L 104.828443 285.736743 
L 105.063253 285.827048 
L 105.298064 285.621543 
L 105.572009 284.985173 
L 105.924225 283.469638 
L 106.354711 280.422642 
L 106.824333 275.406467 
L 107.411359 266.46262 
L 108.076656 252.964203 
L 110.698707 194.21943 
L 111.324869 185.128433 
L 112.0293 177.508928 
L 112.224976 176.027358 
L 112.655462 173.640719 
L 112.812002 173.008784 
L 112.851138 173.025918 
L 113.007678 172.764879 
L 113.046813 172.812249 
L 113.359894 173.361539 
L 113.672975 175.295643 
L 114.338271 183.613603 
L 115.081838 198.814314 
L 116.568972 230.480615 
L 117.077728 236.449227 
L 117.429944 238.626229 
L 117.70389 239.265219 
L 117.899565 239.263203 
L 118.056105 239.034417 
L 118.330051 238.262388 
L 119.386699 233.093017 
L 120.286806 229.043391 
L 120.834697 226.614422 
L 121.617399 221.821995 
L 122.165291 216.85823 
L 123.143668 204.224566 
L 124.278586 185.439865 
L 125.256963 166.612834 
L 126.587557 134.865904 
L 127.526799 109.397002 
L 128.544311 84.875499 
L 128.779122 80.037718 
L 129.99231 61.926275 
L 130.109715 61.039349 
L 130.461931 58.68093 
L 130.501066 58.650694 
L 130.696742 57.874633 
L 130.853282 58.025814 
L 130.892417 57.794004 
L 130.931552 57.844397 
L 131.088093 58.428963 
L 131.322903 59.93069 
L 131.714254 64.707999 
L 132.379551 79.654727 
L 132.614362 86.538486 
L 133.631874 123.315701 
L 134.805927 163.207238 
L 135.432089 176.622002 
L 135.82344 181.298523 
L 136.13652 182.931274 
L 136.332196 183.092534 
L 136.488736 182.749858 
L 136.762682 180.965926 
L 137.075763 177.589558 
L 137.545384 169.849108 
L 138.171545 155.8397 
L 140.1283 108.963617 
L 140.558786 103.420327 
L 140.911002 101.152617 
L 141.184948 100.920806 
L 141.224083 100.961121 
L 141.732839 104.528985 
L 142.241596 112.702819 
L 143.219973 139.864944 
L 145.098458 200.780671 
L 145.528944 208.138129 
L 145.842024 210.607414 
L 145.998565 210.899696 
L 146.155105 210.536863 
L 146.350781 209.166158 
L 146.742132 203.632946 
L 147.211753 192.999906 
L 149.168508 142.757534 
L 149.520724 138.746207 
L 149.912075 136.790937 
L 149.95121 136.669993 
L 149.990345 136.69015 
L 150.146885 136.921961 
L 150.18602 136.932039 
L 150.420831 137.919753 
L 151.203533 145.498943 
L 152.494991 162.259839 
L 152.964612 166.492897 
L 153.316828 168.538876 
L 153.629909 169.325015 
L 153.825584 169.506432 
L 153.982125 169.314936 
L 154.412611 168.246593 
L 154.647421 167.430217 
L 155.273583 165.76723 
L 155.508393 166.190536 
L 155.547529 166.119985 
L 155.93888 168.075255 
L 156.330231 172.086582 
L 156.995527 183.344501 
L 158.482661 211.443947 
L 158.913147 214.880787 
L 159.147958 215.314171 
L 159.343633 214.850551 
L 159.578444 213.338744 
L 159.891524 209.801117 
L 160.361146 201.637361 
L 161.065577 184.795836 
L 162.865792 140.318486 
L 163.570223 130.90497 
L 164.039845 128.072853 
L 164.118115 127.921672 
L 164.392061 127.3875 
L 164.705141 127.15569 
L 165.174762 126.722305 
L 165.605249 124.918216 
L 165.840059 122.7009 
L 166.270545 116.260604 
L 166.857572 101.545686 
L 167.327193 85.923685 
L 168.422976 45.649158 
L 168.892597 32.748408 
L 169.283948 25.904964 
L 169.597028 23.8993 
L 169.714434 23.97993 
L 170.06665 26.39882 
L 170.849352 45.669315 
L 171.318973 63.992411 
L 173.080052 149.711844 
L 173.745349 171.098868 
L 174.1367 177.700424 
L 174.410645 179.625457 
L 174.567186 179.746402 
L 174.645456 179.645615 
L 174.841131 178.557114 
L 175.115077 175.906413 
L 175.467293 171.139183 
L 176.28913 158.440008 
L 177.150102 151.082549 
L 177.384913 150.477826 
L 177.776264 149.873104 
L 177.815399 150.145229 
L 177.893669 149.953733 
L 177.932804 150.094835 
L 177.971939 149.923497 
L 178.167615 149.772317 
L 178.20675 149.883182 
L 178.245885 149.671529 
L 178.44156 149.570742 
L 178.598101 149.147436 
L 178.911182 147.937991 
L 179.302533 145.902092 
L 179.576478 144.017373 
L 179.928694 141.608561 
L 180.046099 141.003838 
L 180.35918 139.572661 
L 180.398315 139.58274 
L 180.43745 139.572661 
L 180.515721 139.391245 
L 180.554856 139.532347 
L 180.633126 139.340851 
L 180.672261 139.411402 
L 180.946207 140.28825 
L 181.102747 141.316278 
L 181.376693 143.775484 
L 181.924584 151.757823 
L 183.568258 178.607507 
L 183.842204 180.099157 
L 183.959609 180.280573 
L 183.998744 180.260416 
L 184.11615 180.078999 
L 184.311825 179.151758 
L 184.585771 176.591765 
L 185.172797 166.724708 
L 186.699066 133.323861 
L 187.207822 127.105296 
L 187.560038 125.381837 
L 187.599173 125.442309 
L 187.638308 125.331443 
L 187.716578 125.341522 
L 187.990524 126.107504 
L 188.068794 126.278842 
L 189.242847 138.826837 
L 190.103819 148.119408 
L 190.534305 151.132942 
L 191.043062 152.937032 
L 191.160467 152.977346 
L 191.434413 153.320023 
L 191.551818 153.330101 
L 191.590953 153.239393 
L 191.630088 153.289787 
L 191.982304 153.602227 
L 192.021439 153.57199 
L 192.060574 153.662699 
L 192.686736 155.738913 
L 193.078087 158.258591 
L 193.586843 162.894798 
L 194.25214 169.839029 
L 194.800031 173.799963 
L 195.073977 175.100116 
L 195.230517 175.291612 
L 195.347922 175.442792 
L 195.387058 175.362163 
L 195.426193 175.372241 
L 195.778408 174.686889 
L 195.817544 174.656653 
L 196.24803 172.983587 
L 196.287165 172.953351 
L 196.56111 171.985795 
L 196.795921 171.451623 
L 196.874191 171.290364 
L 196.913326 171.542331 
L 196.952461 171.350836 
L 197.030732 171.411308 
L 197.069867 171.340757 
L 197.265542 171.854771 
L 197.304677 171.874929 
L 197.813434 174.827991 
L 198.24392 178.758688 
L 198.987486 186.257249 
L 199.339702 188.444329 
L 199.535378 188.968422 
L 199.652783 189.008737 
L 199.887594 188.28307 
L 200.200674 185.682762 
L 200.592025 179.766559 
L 201.139917 167.09762 
L 203.331482 109.971488 
L 203.761968 105.022842 
L 204.30986 102.200803 
L 204.348995 102.462849 
L 204.38813 102.130252 
L 204.427265 102.311668 
L 204.54467 102.069779 
L 204.583805 102.200803 
L 204.740346 102.5334 
L 204.779481 102.392298 
L 204.975156 103.188516 
L 205.014291 103.248989 
L 205.249102 104.387883 
L 205.288237 104.448355 
L 205.953534 108.590705 
L 206.031804 109.003932 
L 206.971046 117.298711 
L 207.871154 127.891436 
L 208.575585 136.760701 
L 209.123477 143.10021 
L 210.140989 150.971683 
L 210.219259 151.38491 
L 210.571475 153.390574 
L 210.767151 154.479074 
L 211.862933 161.564408 
L 212.254284 164.376368 
L 212.763041 166.815416 
L 212.919581 167.148014 
L 212.958716 167.057305 
L 212.997851 166.956518 
L 213.036986 167.117777 
L 213.232662 166.795259 
L 213.389202 166.049434 
L 213.584878 164.870225 
L 214.132769 158.26867 
L 216.36347 117.792568 
L 216.52001 116.845169 
L 216.793956 116.411785 
L 216.833091 116.512572 
L 217.185307 119.062485 
L 217.811468 130.562294 
L 218.67244 157.331349 
L 219.885628 197.172492 
L 220.43352 208.178444 
L 220.903141 212.068827 
L 221.059681 212.290558 
L 221.490167 210.16395 
L 222.038059 203.673261 
L 223.133841 189.4522 
L 223.525192 187.365907 
L 223.564328 187.426379 
L 223.603463 187.285277 
L 223.681733 187.174411 
L 223.916543 187.990787 
L 223.955678 187.990787 
L 224.58184 193.957384 
L 225.716758 208.490884 
L 225.990704 210.143793 
L 226.186379 210.405839 
L 226.303784 210.153872 
L 226.460325 209.317339 
L 226.73427 206.41467 
L 227.086486 199.893744 
L 227.477837 189.290941 
L 228.103999 166.180457 
L 229.317187 113.16644 
L 230.099889 82.416294 
L 230.882591 60.313681 
L 231.234807 53.702047 
L 231.547887 49.680642 
L 231.587022 49.680642 
L 231.860968 48.12852 
L 231.900103 48.148678 
L 231.939238 47.967261 
L 231.978373 48.20915 
L 232.252319 49.116234 
L 232.408859 50.648198 
L 232.917616 59.527542 
L 233.387237 73.315218 
L 234.248209 110.021882 
L 235.696208 178.481524 
L 236.400639 199.638753 
L 236.79199 205.066139 
L 237.026801 205.939963 
L 237.144206 205.741412 
L 237.379017 204.076409 
L 237.770368 197.726821 
L 238.4748 178.257776 
L 239.961933 134.482913 
L 240.54896 125.51286 
L 240.901176 122.499326 
L 241.214256 120.493662 
L 241.683878 117.893355 
L 241.801283 117.097137 
L 242.427444 109.719521 
L 243.171011 93.966496 
L 244.579875 59.446912 
L 244.932091 55.223933 
L 245.284306 53.581103 
L 245.401712 53.732283 
L 245.440847 53.611339 
L 245.479982 53.822992 
L 246.458359 63.890616 
L 246.967116 70.402471 
L 247.436737 75.44485 
L 247.906358 78.124779 
L 248.375979 79.667829 
L 248.415114 79.720239 
L 248.571655 80.114316 
L 249.236951 83.098622 
L 250.293599 96.792567 
L 250.91976 109.809221 
L 251.545922 124.87387 
L 252.641705 147.814023 
L 252.993921 152.969284 
L 253.424407 157.847379 
L 254.089703 162.790987 
L 254.285379 163.654732 
L 254.637595 165.382223 
L 256.163863 171.857795 
L 256.59435 172.764879 
L 256.711755 172.573383 
L 256.75089 172.625793 
L 256.790025 172.678202 
L 256.82916 172.588502 
L 257.220511 171.36797 
L 257.807538 167.043195 
L 258.394564 160.689576 
L 258.511969 159.36221 
L 259.020726 154.348051 
L 259.529482 151.313351 
L 259.764292 150.811432 
L 259.920833 151.099683 
L 260.077373 151.642925 
L 260.429589 154.072902 
L 261.134021 164.006479 
L 262.855965 195.768528 
L 263.560397 201.616196 
L 263.756072 201.895376 
L 264.147423 200.589175 
L 264.460504 197.910254 
L 265.164936 186.84383 
L 265.947638 169.420763 
L 266.847745 146.473555 
L 268.765365 107.762235 
L 269.156716 103.139131 
L 269.782877 99.318291 
L 269.822012 99.338449 
L 270.017688 99.005851 
L 270.056823 99.046166 
L 270.291634 99.358606 
L 270.839525 102.916391 
L 271.465687 110.848336 
L 272.600604 133.918505 
L 274.166008 166.200615 
L 274.479089 169.798714 
L 274.79217 172.076503 
L 275.02698 172.822328 
L 275.066115 172.681226 
L 275.144386 172.731619 
L 275.770547 169.113362 
L 276.9446 151.596563 
L 277.414221 144.138317 
L 278.118653 136.307159 
L 278.196923 136.024955 
L 278.470869 134.573621 
L 278.588274 134.694566 
L 278.627409 134.42244 
L 278.705679 134.492991 
L 278.78395 134.603857 
L 278.86222 134.73488 
L 279.175301 136.428104 
L 279.214436 136.448261 
L 279.566652 140.096754 
L 279.644922 140.842579 
L 279.879732 143.916586 
L 281.210326 169.13352 
L 282.306108 188.961367 
L 283.127945 197.652239 
L 283.988918 200.592199 
L 284.106323 200.637553 
L 284.301998 200.851222 
L 284.419404 200.909678 
L 284.497674 200.846182 
L 284.575944 200.988292 
L 284.615079 200.954025 
L 284.654214 201.030623 
L 284.732484 200.960072 
L 284.889025 201.262433 
L 284.967295 201.330968 
L 285.436916 202.917357 
L 286.102213 207.897248 
L 286.806645 216.505475 
L 287.941562 230.907952 
L 288.411184 234.020258 
L 288.645994 234.550398 
L 288.84167 234.407281 
L 289.07648 233.499189 
L 289.350426 231.551982 
L 289.780912 226.726295 
L 290.446209 216.469192 
L 291.268046 203.464631 
L 291.776802 197.797372 
L 292.050748 196.013441 
L 292.402964 195.329096 
L 292.442099 195.395616 
L 292.872585 197.456712 
L 293.185665 200.674844 
L 293.694422 208.617876 
L 294.242313 220.141874 
L 295.964257 260.081788 
L 296.746959 273.269781 
L 297.451391 281.087837 
L 298.038418 285.122647 
L 298.625444 287.48167 
L 299.1342 288.626168 
L 299.642957 289.24624 
L 300.190848 289.576187 
L 300.934415 289.750473 
L 302.421548 289.812827 
L 319.17137 289.816 
L 356.975874 289.708693 
L 357.758576 289.454134 
L 358.345602 289.01104 
L 358.854359 288.327988 
L 359.363115 287.257687 
L 359.911006 285.579354 
L 360.615438 282.60814 
L 361.828626 276.315003 
L 362.572193 272.663859 
L 365.54646 260.03343 
L 365.898676 259.143732 
L 366.211757 258.841663 
L 366.368297 258.916094 
L 366.603108 259.27152 
L 366.994459 260.675726 
L 367.46408 263.535944 
L 368.168512 269.455291 
L 369.342565 279.124131 
L 369.890456 281.735142 
L 370.242672 282.471795 
L 370.438347 282.541882 
L 370.594888 282.424092 
L 370.829698 281.951673 
L 371.142779 280.785747 
L 371.573265 278.275372 
L 372.121157 273.925058 
L 373.60829 261.031606 
L 374.077911 258.502756 
L 374.547533 257.303894 
L 374.743208 257.135479 
L 375.017154 257.241809 
L 375.36937 257.801581 
L 376.895638 261.293249 
L 377.130449 261.424474 
L 377.404395 261.339611 
L 377.991421 260.050443 
L 378.539312 257.445701 
L 379.048069 253.870984 
L 379.987311 245.035483 
L 382.022336 224.897513 
L 384.800928 202.741484 
L 385.387954 199.785902 
L 385.42709 199.776831 
L 385.58363 199.348486 
L 385.622765 199.451289 
L 385.74017 199.045117 
L 385.896711 199.20436 
L 385.935846 199.148928 
L 385.974981 199.205368 
L 386.131521 199.539981 
L 386.757683 202.696634 
L 388.010006 217.977975 
L 388.753573 228.361062 
L 389.144924 232.643506 
L 389.57541 235.637891 
L 389.81022 236.314173 
L 389.966761 236.367388 
L 390.162436 235.912939 
L 390.397247 234.696943 
L 390.749463 231.57607 
L 391.219084 225.122269 
L 391.766975 215.477648 
L 392.588812 198.8637 
L 394.271622 161.685352 
L 395.328269 137.704068 
L 396.150106 125.619695 
L 396.541457 124.258061 
L 396.580592 124.417304 
L 396.697998 124.686406 
L 397.128484 129.302455 
L 397.63724 140.564407 
L 398.224266 159.889326 
L 399.86794 218.295454 
L 400.376697 228.187708 
L 400.728913 231.461274 
L 400.963723 232.060957 
L 401.081128 231.911792 
L 401.276804 231.035952 
L 401.589885 228.243141 
L 402.059506 221.607318 
L 403.85972 189.94001 
L 404.564152 180.966934 
L 405.268584 174.824967 
L 405.894745 172.509888 
L 405.933881 172.543147 
L 406.012151 172.568344 
L 406.051286 172.532061 
L 406.090421 172.50384 
L 406.129556 172.588502 
L 406.638312 174.881408 
L 406.990528 178.173115 
L 407.381879 183.590422 
L 408.242851 200.334184 
L 409.260364 220.405936 
L 409.729985 225.955274 
L 410.043066 227.532592 
L 410.238741 227.479175 
L 410.434417 226.62954 
L 410.669227 224.552318 
L 411.099713 217.832841 
L 411.68674 203.84863 
L 413.330414 161.776061 
L 413.68263 157.663947 
L 413.91744 156.494816 
L 414.034846 156.222691 
L 414.073981 156.283164 
L 414.191386 156.484738 
L 414.504467 158.752448 
L 414.700142 160.838741 
L 416.539492 188.897871 
L 416.735167 189.482436 
L 416.813438 189.432043 
L 417.087383 187.910157 
L 417.439599 182.991747 
L 417.98749 168.619505 
L 418.613652 144.712804 
L 419.944245 91.557684 
L 420.374731 81.247163 
L 420.648677 77.437411 
L 420.883488 76.107021 
L 420.961758 75.986076 
L 421.000893 76.016313 
L 421.040028 76.056627 
L 421.431379 79.735357 
L 422.057541 93.996732 
L 422.644567 113.821556 
L 424.288241 173.033981 
L 424.953538 188.837399 
L 425.423159 195.519584 
L 425.775375 198.200521 
L 425.97105 198.75485 
L 426.049321 198.865716 
L 426.558077 196.678636 
L 427.027698 190.55078 
L 427.536454 179.403726 
L 428.201751 157.815128 
L 430.393316 73.557107 
L 430.784667 67.167205 
L 431.058613 65.514296 
L 431.097748 65.594926 
L 431.215153 65.524375 
L 431.645639 69.485308 
L 432.03699 76.439618 
L 433.87634 122.136492 
L 434.345961 131.37867 
L 436.772337 179.696008 
L 437.476769 194.340375 
L 438.416011 207.160495 
L 438.885632 210.274816 
L 439.433524 211.837016 
L 439.78574 212.381267 
L 440.177091 213.13717 
L 440.568442 214.638898 
L 440.920657 216.88645 
L 441.585954 224.193515 
L 442.251251 234.9475 
L 443.464439 258.101321 
L 444.286276 271.553376 
L 444.990708 279.776596 
L 445.577734 284.25104 
L 446.125625 286.849231 
L 446.634382 288.270329 
L 447.104003 289.020266 
L 447.612759 289.452662 
L 448.238921 289.6903 
L 449.217298 289.796651 
L 450 289.812423 
L 450 289.812423 
" clip-path="url(#p3c622c38ce)" style="fill: none; stroke: #1f77b4; stroke-width: 2; stroke-linecap: square"/>
   </g>
   <g id="line2d_2">
    <path d="M 59.51 289.816 
L 75.359714 289.707236 
L 76.612037 289.434574 
L 77.78609 288.941987 
L 79.664575 287.890241 
L 81.386519 286.706617 
L 83.382409 285.360303 
L 83.969436 285.264354 
L 84.634732 285.393865 
L 85.378299 285.758513 
L 87.256784 287.035989 
L 89.68316 288.716362 
L 90.504997 289.034094 
L 91.248564 289.102699 
L 92.148671 288.951136 
L 94.457642 288.410121 
L 97.549314 288.273897 
L 100.562717 288.340537 
L 101.423689 288.531795 
L 102.284661 288.844708 
L 104.202281 289.53341 
L 105.258929 289.662009 
L 106.276441 289.557352 
L 107.137413 289.248691 
L 107.998385 288.69172 
L 109.094168 287.642214 
L 110.698707 285.815357 
L 111.990165 284.504822 
L 112.772867 284.006934 
L 113.359894 283.908061 
L 113.94692 284.113566 
L 114.494812 284.574264 
L 115.160108 285.400013 
L 116.960323 287.616321 
L 117.586484 287.976131 
L 118.173511 288.086392 
L 118.877942 287.997065 
L 119.93459 287.603622 
L 121.421724 286.807706 
L 126.900637 283.466916 
L 128.231231 282.908253 
L 129.99231 282.536147 
L 131.283768 282.436368 
L 132.301281 282.729659 
L 133.083983 283.300114 
L 133.90582 284.159828 
L 135.197278 285.497776 
L 135.940845 285.903646 
L 136.488736 285.934185 
L 136.997492 285.746116 
L 137.623654 285.27282 
L 138.523761 284.330158 
L 139.619544 283.296082 
L 140.323976 282.938288 
L 140.832732 282.868745 
L 141.458894 283.007831 
L 142.085055 283.37772 
L 142.828622 284.088269 
L 144.080945 285.644825 
L 144.902782 286.498492 
L 145.489809 286.807001 
L 145.95943 286.810125 
L 146.389916 286.621956 
L 147.055212 286.026707 
L 148.933697 284.109232 
L 149.520724 283.950997 
L 149.990345 284.036767 
L 150.655641 284.424495 
L 151.829694 285.499389 
L 152.808072 286.264162 
L 153.512504 286.500205 
L 154.09953 286.452029 
L 155.038772 286.066115 
L 155.899744 285.770809 
L 156.682446 285.849624 
L 157.230338 286.105422 
L 158.756607 286.910509 
L 159.382768 286.932481 
L 159.969795 286.719921 
L 160.517686 286.346303 
L 161.222118 285.684333 
L 163.335413 283.493322 
L 164.039845 283.072738 
L 165.644384 282.423064 
L 166.270545 281.830638 
L 166.896707 280.867113 
L 168.970867 277.099691 
L 169.401353 276.771125 
L 170.06665 276.804385 
L 170.653676 277.373832 
L 171.475513 278.890678 
L 172.29735 280.897349 
L 173.314863 283.226539 
L 173.823619 284.012275 
L 174.332375 284.418044 
L 174.762861 284.476299 
L 175.232482 284.308993 
L 177.032697 283.406746 
L 177.541453 283.486671 
L 178.089345 283.7209 
L 179.928694 284.623247 
L 181.611503 285.293683 
L 182.589881 285.663168 
L 183.333448 285.649663 
L 183.842204 285.386709 
L 184.35096 284.871989 
L 184.937987 283.992219 
L 185.994634 281.993711 
L 186.620796 280.843932 
L 187.873119 279.397335 
L 188.655821 279.130551 
L 189.321117 279.243433 
L 190.221225 279.831021 
L 192.060574 281.976779 
L 194.095599 284.56862 
L 194.839166 285.059756 
L 195.308787 285.127485 
L 195.895814 284.937703 
L 196.639381 284.403531 
L 197.578623 283.720698 
L 198.517865 283.510658 
L 200.004999 283.683205 
L 200.435485 283.542003 
L 200.944241 283.158004 
L 201.570403 282.384967 
L 203.174942 280.12794 
L 203.879374 279.657466 
L 204.740346 279.762486 
L 205.914399 280.638326 
L 207.323262 281.762506 
L 207.988559 282.086334 
L 208.927801 282.216652 
L 209.671368 282.109818 
L 210.688881 281.983431 
L 211.588988 282.27138 
L 213.271797 283.455628 
L 213.780553 283.556214 
L 214.211039 283.457341 
L 214.876336 282.98465 
L 216.44174 281.599835 
L 216.911361 281.501064 
L 217.341847 281.64015 
L 217.811468 282.046322 
L 218.320224 282.727542 
L 220.198709 285.587779 
L 220.66833 285.893971 
L 221.137951 285.939022 
L 221.607573 285.757807 
L 222.42941 285.137362 
L 223.172977 284.642195 
L 223.681733 284.525483 
L 224.151354 284.62496 
L 224.66011 284.924802 
L 226.342919 286.087885 
L 226.890811 286.106228 
L 227.438702 285.873813 
L 228.025729 285.40727 
L 229.825943 283.37006 
L 231.117401 281.672402 
L 233.074156 279.405397 
L 233.465507 279.297051 
L 233.856858 279.387558 
L 234.287344 279.72842 
L 234.991776 280.831837 
L 235.813613 282.606194 
L 236.752855 284.478416 
L 237.339882 285.176588 
L 237.770368 285.383847 
L 238.161719 285.35604 
L 238.63134 285.1077 
L 239.414042 284.407361 
L 240.392419 283.567431 
L 241.018581 283.206049 
L 242.075229 282.773904 
L 242.897066 282.328828 
L 244.305929 281.35976 
L 245.166901 281.017487 
L 246.69317 280.83476 
L 248.336844 279.859141 
L 248.68906 279.598304 
L 249.510897 279.340188 
L 250.058788 279.529668 
L 250.76322 280.205405 
L 251.663327 281.51472 
L 252.367759 282.524627 
L 253.111326 283.261976 
L 254.050568 283.53401 
L 254.559325 283.414003 
L 254.950675 283.228363 
L 255.381162 282.958838 
L 256.398674 281.914775 
L 256.90743 281.158619 
L 259.098996 277.519814 
L 259.686022 277.29974 
L 260.038238 277.453078 
L 260.429589 277.855514 
L 261.329696 279.392938 
L 262.112398 280.804672 
L 262.73856 281.488304 
L 263.012506 281.616999 
L 263.482127 281.560911 
L 263.873478 281.273174 
L 264.538774 280.36992 
L 265.243206 279.122196 
L 267.865258 273.608385 
L 269.861148 268.849349 
L 270.761255 268.00824 
L 271.191741 268.109642 
L 271.426551 268.297126 
L 271.974443 269.063028 
L 273.03109 271.233075 
L 273.539847 272.24916 
L 274.166008 273.100469 
L 274.596494 273.270789 
L 274.79217 273.235019 
L 275.340061 272.653518 
L 275.731412 271.853984 
L 276.435844 269.864759 
L 277.766437 266.075023 
L 278.236058 265.341303 
L 278.588274 265.115106 
L 278.86222 265.142238 
L 279.253571 265.506059 
L 279.527517 265.940754 
L 279.997138 267.043063 
L 280.818975 269.696878 
L 281.953893 273.523875 
L 282.658324 275.14935 
L 283.167081 275.770339 
L 283.519296 275.955999 
L 283.754107 275.998904 
L 284.184593 275.884249 
L 284.458539 275.805403 
L 285.123835 275.62965 
L 285.671727 275.804889 
L 285.984808 276.092344 
L 286.415294 276.654232 
L 288.098103 279.233495 
L 288.293778 279.337286 
L 288.606859 279.332327 
L 288.880805 279.154186 
L 289.467831 278.261091 
L 290.093993 276.777636 
L 291.346316 273.796837 
L 291.855072 273.202959 
L 292.129018 273.129384 
L 292.402964 273.213461 
L 292.83345 273.713264 
L 293.577016 275.566719 
L 294.633664 279.594051 
L 296.042528 285.039592 
L 296.942635 287.429553 
L 297.607931 288.539766 
L 298.194958 289.141008 
L 298.860255 289.518483 
L 299.682092 289.72287 
L 301.090955 289.80745 
L 308.800569 289.816 
L 358.658683 289.706192 
L 359.871871 289.435356 
L 361.006789 288.965166 
L 363.55057 287.799383 
L 366.250892 286.792816 
L 366.916189 286.927906 
L 367.54235 287.295298 
L 368.638133 288.232914 
L 369.61651 288.907856 
L 370.281807 289.082777 
L 370.868833 289.004188 
L 371.45586 288.710151 
L 372.199427 288.092736 
L 374.234452 286.304084 
L 374.978019 286.020998 
L 376.347747 285.861077 
L 377.717475 285.634176 
L 378.734988 285.179075 
L 379.59596 284.48568 
L 380.613473 283.396063 
L 381.865796 282.216269 
L 382.765903 281.817697 
L 384.292172 281.961661 
L 384.918333 282.11526 
L 387.65779 282.755158 
L 388.166546 283.052984 
L 390.397247 284.698333 
L 390.945138 284.72736 
L 391.453895 284.517924 
L 391.962651 284.096533 
L 392.667083 283.207389 
L 393.48892 281.777825 
L 394.467297 279.609491 
L 395.48481 277.349643 
L 396.228376 276.443567 
L 396.580592 276.394181 
L 396.854538 276.582653 
L 397.089349 276.863849 
L 397.519835 277.708445 
L 398.302537 280.070895 
L 399.63313 284.207903 
L 400.141886 285.126779 
L 400.533237 285.466331 
L 400.885453 285.492435 
L 401.276804 285.242987 
L 401.78556 284.566907 
L 402.450857 283.333676 
L 403.820585 280.807648 
L 404.446747 280.014756 
L 404.994638 279.542871 
L 405.69907 279.254519 
L 406.325232 279.323054 
L 406.794853 279.60929 
L 407.303609 280.132375 
L 408.164581 281.459741 
L 409.221229 283.197512 
L 409.729985 283.73763 
L 410.160471 283.906953 
L 410.551822 283.78621 
L 410.943173 283.387194 
L 411.412794 282.55187 
L 412.117226 280.692751 
L 413.800035 275.856986 
L 414.308791 275.165586 
L 414.778413 275.074878 
L 415.013223 275.204087 
L 415.404574 275.675569 
L 417.283059 278.767919 
L 417.67441 278.839276 
L 418.104896 278.523813 
L 418.574517 277.789075 
L 419.083273 276.715692 
L 419.944245 274.899508 
L 420.492137 274.229274 
L 420.805217 274.095227 
L 421.235704 274.257494 
L 421.82273 275.091004 
L 422.214081 275.938623 
L 424.288241 281.145285 
L 424.875268 281.976779 
L 425.384024 282.357754 
L 425.931915 282.477288 
L 426.597212 282.303934 
L 427.536454 281.560125 
L 428.04521 280.899566 
L 430.549857 276.823534 
L 431.058613 276.692511 
L 431.72391 277.164195 
L 432.310936 277.98561 
L 433.915475 280.379001 
L 434.854717 281.298079 
L 435.87223 282.378012 
L 436.772337 283.66849 
L 438.494281 286.097057 
L 439.316118 286.791984 
L 440.451036 287.34208 
L 442.212116 288.134569 
L 444.873302 289.468474 
L 446.047355 289.713413 
L 447.769299 289.80703 
L 450 289.815885 
L 450 289.815885 
" clip-path="url(#p3c622c38ce)" style="fill: none; stroke: #ff7f0e; stroke-width: 2; stroke-linecap: square"/>
   </g>
   <g id="line2d_3">
    <path d="M 59.51 289.816 
L 73.129014 289.708825 
L 73.833446 289.472101 
L 74.342202 289.082636 
L 74.811823 288.429637 
L 75.242309 287.457606 
L 75.71193 285.831392 
L 76.220687 283.231776 
L 76.807713 278.976999 
L 77.47301 272.585792 
L 78.764468 257.252896 
L 80.721223 231.446972 
L 81.6996 214.892277 
L 82.991058 193.546475 
L 83.69549 187.997338 
L 83.891166 187.512653 
L 84.282517 188.46751 
L 84.634732 191.091402 
L 85.143489 197.486948 
L 85.965326 212.018836 
L 88.352567 255.213932 
L 89.056998 263.986472 
L 89.60489 268.360653 
L 89.917971 269.671832 
L 90.152781 270.022279 
L 90.309322 269.92376 
L 90.504997 269.439065 
L 90.818078 267.807785 
L 91.248564 263.987561 
L 91.75732 257.61458 
L 93.400994 235.726836 
L 93.83148 232.716889 
L 94.183696 231.47619 
L 94.418507 231.244783 
L 94.731587 231.476492 
L 95.279479 232.97439 
L 96.375262 236.843607 
L 97.392774 239.971878 
L 98.058071 242.548006 
L 99.036448 247.517597 
L 101.228014 261.043095 
L 102.676012 273.434999 
L 103.65439 281.028507 
L 104.163146 283.749031 
L 104.632767 285.249966 
L 104.945848 285.647679 
L 105.141523 285.63542 
L 105.337199 285.402715 
L 105.611145 284.694597 
L 105.96336 283.047969 
L 106.393846 279.788356 
L 106.902603 273.930808 
L 107.489629 264.274632 
L 108.154926 249.900567 
L 109.446384 217.116457 
L 110.424761 195.23607 
L 111.324869 180.449593 
L 112.0293 172.166304 
L 112.264111 170.211841 
L 112.733732 167.512661 
L 113.007678 166.884254 
L 113.320759 167.334873 
L 113.477299 168.022745 
L 114.338271 178.212321 
L 115.081838 194.288469 
L 116.608107 228.531493 
L 117.116863 234.696036 
L 117.508214 237.020892 
L 117.78216 237.532588 
L 117.899565 237.506988 
L 118.056105 237.299367 
L 118.330051 236.53026 
L 119.230158 231.990608 
L 119.973725 228.135501 
L 120.756427 224.369994 
L 121.539129 219.341221 
L 122.243561 212.430753 
L 122.830587 204.767607 
L 124.00464 185.509106 
L 125.217828 161.956369 
L 126.196206 138.974188 
L 127.605069 100.502238 
L 128.309501 83.135712 
L 128.818257 72.340002 
L 129.522689 60.437045 
L 129.679229 58.509693 
L 129.91404 55.486987 
L 130.696742 50.501049 
L 130.853282 50.644167 
L 130.892417 50.41538 
L 130.931552 50.461742 
L 131.088093 51.044291 
L 131.322903 52.558114 
L 131.714254 57.394887 
L 132.379551 72.611724 
L 132.614362 79.644648 
L 133.592739 115.669991 
L 134.414576 146.464383 
L 135.275548 169.671118 
L 135.745169 176.612427 
L 136.097385 178.94333 
L 136.293061 179.251134 
L 136.410466 179.111241 
L 136.606142 178.285593 
L 137.193168 171.825039 
L 137.662789 162.993367 
L 138.406356 144.373151 
L 140.323976 99.284024 
L 140.715327 95.334177 
L 141.028407 93.953394 
L 141.184948 94.022937 
L 141.224083 94.072323 
L 141.732839 97.85587 
L 142.241596 106.39153 
L 143.180838 133.243231 
L 145.215863 200.10701 
L 145.646349 206.404591 
L 145.920295 207.86288 
L 146.0377 207.822464 
L 146.155105 207.467694 
L 146.350781 205.994489 
L 146.742132 200.160024 
L 147.211753 189.03474 
L 149.168508 136.953003 
L 149.520724 132.881204 
L 149.872939 131.134059 
L 149.95121 130.877657 
L 149.990345 130.910917 
L 150.499101 132.969695 
L 151.281803 141.767099 
L 152.02537 152.516447 
L 152.808072 161.771929 
L 153.473368 165.722279 
L 153.708179 166.207972 
L 153.864719 166.026052 
L 153.903854 166.070398 
L 153.94299 166.024036 
L 154.09953 165.709076 
L 154.569151 164.152923 
L 154.803962 163.206532 
L 154.843097 163.178715 
L 155.077907 162.331297 
L 155.156178 162.266793 
L 155.390988 161.92321 
L 155.782339 163.054041 
L 156.408501 169.119006 
L 157.073797 181.169617 
L 158.521796 208.877604 
L 158.874012 211.856367 
L 159.108822 212.452019 
L 159.226228 212.347906 
L 159.421903 211.566604 
L 159.656714 209.688034 
L 160.126335 202.916148 
L 160.713361 190.069017 
L 161.730874 162.1268 
L 162.748386 136.741955 
L 163.374548 126.648428 
L 163.765899 122.830815 
L 164.196385 120.888345 
L 164.509466 120.329279 
L 164.626871 120.234639 
L 164.783412 120.093034 
L 164.822547 120.178098 
L 164.861682 120.099786 
L 165.018222 119.888436 
L 165.253033 119.383996 
L 165.605249 117.550477 
L 165.840059 115.160109 
L 166.270545 108.275241 
L 166.857572 92.675413 
L 167.327193 76.151367 
L 168.462111 32.24548 
L 169.166542 14.893972 
L 169.440488 11.587147 
L 169.597028 10.8 
L 169.636164 10.915905 
L 169.675299 11.148723 
L 169.714434 10.87559 
L 169.753569 11.11244 
L 169.792704 11.06507 
L 170.22319 15.884709 
L 170.731946 29.258151 
L 171.632054 68.258729 
L 172.806106 130.174264 
L 173.471403 157.431229 
L 173.941024 169.303547 
L 174.29324 173.64596 
L 174.528051 174.417082 
L 174.645456 174.312969 
L 174.841131 173.204008 
L 175.115077 170.459576 
L 175.506428 164.778206 
L 176.406535 150.668314 
L 176.523941 149.508154 
L 176.797886 146.88779 
L 177.071832 145.165136 
L 177.228372 144.359243 
L 177.267508 144.364988 
L 177.776264 143.62521 
L 177.815399 143.917392 
L 177.893669 143.763288 
L 177.932804 143.922028 
L 177.971939 143.770444 
L 178.167615 143.71864 
L 178.20675 143.850167 
L 178.245885 143.661292 
L 178.44156 143.671068 
L 178.598101 143.332625 
L 178.793776 142.830705 
L 178.989452 142.012818 
L 179.106857 141.48802 
L 179.537343 138.922081 
L 180.35918 134.536934 
L 180.43745 134.564853 
L 180.476585 134.398856 
L 180.515721 134.413168 
L 180.554856 134.567675 
L 180.593991 134.520405 
L 180.633126 134.406718 
L 180.672261 134.492387 
L 180.946207 135.475061 
L 181.141882 136.848487 
L 181.728909 144.154242 
L 183.529123 174.077127 
L 183.842204 175.669866 
L 183.959609 175.75493 
L 184.11615 175.402881 
L 184.35096 173.925543 
L 184.664041 170.18866 
L 185.211932 159.493636 
L 185.916364 141.848434 
L 186.816471 122.079648 
L 186.973012 120.039012 
L 187.246957 116.999575 
L 187.560038 115.204456 
L 187.599173 115.231265 
L 187.677443 115.018806 
L 187.716578 115.031304 
L 187.755714 115.172909 
L 187.794849 115.003386 
L 187.833984 115.014069 
L 188.029659 115.682691 
L 188.068794 115.758281 
L 189.008037 125.204452 
L 190.064684 137.707092 
L 190.729981 142.448521 
L 191.082197 143.829405 
L 191.512683 144.815002 
L 191.630088 144.877188 
L 192.49106 147.429621 
L 192.843276 149.776852 
L 193.430303 155.483116 
L 194.17387 163.977352 
L 194.760896 169.003504 
L 194.800031 169.031321 
L 195.073977 170.402127 
L 195.230517 170.604205 
L 195.347922 170.748935 
L 195.387058 170.66508 
L 195.426193 170.667499 
L 196.287165 167.820062 
L 196.600246 166.452381 
L 196.835056 165.808251 
L 196.913326 165.906417 
L 196.991597 165.593574 
L 197.187272 165.827299 
L 197.226407 165.737296 
L 197.500353 166.640954 
L 197.852569 168.911385 
L 198.635271 176.631173 
L 199.104892 180.963406 
L 199.535378 182.837038 
L 199.652783 182.888944 
L 199.887594 182.164587 
L 200.200674 179.506327 
L 200.55289 174.203111 
L 201.139917 160.232002 
L 203.370617 99.524199 
L 203.957644 93.254637 
L 203.996779 93.307046 
L 204.30986 92.009916 
L 204.348995 92.280933 
L 204.38813 91.952165 
L 204.427265 92.14749 
L 204.54467 91.9311 
L 204.583805 92.075932 
L 204.740346 92.479886 
L 204.779481 92.363679 
L 204.975156 93.263909 
L 205.014291 93.347059 
L 205.249102 94.650841 
L 205.327372 95.053989 
L 206.814506 107.231087 
L 207.518938 115.566281 
L 207.871154 120.124781 
L 208.61472 129.72173 
L 209.710503 140.474706 
L 211.706393 152.915564 
L 212.058609 155.905716 
L 212.68477 159.906158 
L 212.723906 159.935789 
L 212.919581 160.596146 
L 212.997851 160.455347 
L 213.036986 160.639888 
L 213.115257 160.601589 
L 213.154392 160.634748 
L 213.584878 158.603484 
L 214.093634 152.57823 
L 214.68066 141.428152 
L 215.698173 118.915336 
L 216.206929 110.987422 
L 216.52001 108.593729 
L 216.793956 108.10088 
L 216.833091 108.196628 
L 217.185307 110.810037 
L 217.772333 121.781722 
L 218.35936 139.602998 
L 220.316114 202.12759 
L 220.66833 206.735778 
L 220.903141 208.200517 
L 221.059681 208.420333 
L 221.451032 206.448736 
L 221.724978 203.694628 
L 222.58595 190.936693 
L 222.977301 185.780526 
L 223.446922 182.29178 
L 223.681733 181.883895 
L 223.916543 182.721536 
L 223.955678 182.732623 
L 224.542705 188.517097 
L 225.168867 197.674009 
L 225.716758 204.450128 
L 226.029839 206.395016 
L 226.186379 206.626222 
L 226.264649 206.525939 
L 226.42119 205.900757 
L 226.695135 203.304279 
L 227.086486 196.128136 
L 227.477837 185.325573 
L 228.103999 161.695734 
L 229.317187 107.335301 
L 230.099889 75.635438 
L 230.882591 52.497641 
L 231.234807 45.39719 
L 231.587022 40.882331 
L 231.900103 38.930387 
L 231.939238 38.697468 
L 231.978373 38.887955 
L 232.017509 38.928169 
L 232.056644 38.787975 
L 232.095779 38.940062 
L 232.252319 39.449541 
L 232.369724 40.483919 
L 232.604535 43.228654 
L 233.035021 52.146398 
L 233.426372 64.286407 
L 234.091669 92.256441 
L 236.244099 189.817856 
L 236.674585 198.489175 
L 236.987666 200.90857 
L 237.065936 201.009861 
L 237.105071 200.970856 
L 237.183341 200.75626 
L 237.379017 199.467999 
L 237.770368 193.294668 
L 238.435664 174.944249 
L 239.922798 129.403434 
L 240.431554 120.684694 
L 240.78377 116.777793 
L 242.075229 107.474891 
L 242.466579 101.770845 
L 242.77966 95.72513 
L 243.836308 67.720223 
L 244.658145 49.480479 
L 245.284306 44.762937 
L 245.323442 44.852536 
L 245.362577 44.734515 
L 245.401712 44.897387 
L 245.440847 44.776039 
L 245.832198 47.33462 
L 246.497494 55.358181 
L 246.84971 60.059194 
L 247.906358 68.495881 
L 248.258574 69.581257 
L 248.297709 69.494984 
L 248.415114 69.69303 
L 248.571655 69.979467 
L 249.236951 72.659195 
L 250.176194 84.35836 
L 252.91565 145.216689 
L 253.580947 152.974776 
L 254.246244 157.147242 
L 254.91154 160.05115 
L 254.989811 160.253228 
L 255.302891 161.5826 
L 255.342026 161.596236 
L 255.615972 162.699049 
L 256.163863 164.253166 
L 256.516079 164.636963 
L 256.555214 164.559277 
L 256.59435 164.589503 
L 256.868295 163.906519 
L 256.90743 163.890806 
L 257.846673 156.151001 
L 258.355429 149.816205 
L 259.138131 141.03853 
L 259.490347 138.893314 
L 259.725157 138.311686 
L 259.764292 138.327707 
L 260.390454 141.788858 
L 260.586129 144.22181 
L 260.938345 149.630743 
L 261.955858 170.82059 
L 262.855965 187.506203 
L 263.482127 192.991218 
L 263.716937 193.473868 
L 263.834343 193.299173 
L 263.951748 192.904158 
L 264.186558 191.413235 
L 264.773585 183.796219 
L 265.438882 170.116889 
L 266.80861 133.682129 
L 268.021798 103.388931 
L 268.88277 87.349178 
L 269.587202 79.566881 
L 269.978553 77.941528 
L 270.135093 77.751917 
L 270.252498 77.797543 
L 270.291634 77.825512 
L 270.761255 80.49383 
L 270.95693 82.374094 
L 271.935308 98.586537 
L 273.109361 127.137044 
L 273.578982 138.521109 
L 274.596494 154.281532 
L 274.909575 155.912287 
L 274.94871 155.887836 
L 274.987845 155.874462 
L 275.02698 156.061956 
L 275.105251 155.919514 
L 275.222656 155.586392 
L 275.496602 153.852219 
L 275.770547 151.055709 
L 276.78806 133.217561 
L 277.414221 121.213454 
L 278.118653 111.97176 
L 278.236058 111.257975 
L 278.431734 110.12538 
L 278.470869 109.917134 
L 278.549139 109.950253 
L 278.588274 109.993672 
L 278.627409 109.713564 
L 278.705679 109.778249 
L 278.78395 109.904405 
L 278.86222 110.061118 
L 279.605787 116.558339 
L 280.466759 132.850504 
L 282.501784 176.639407 
L 283.127945 183.57869 
L 283.910647 186.630282 
L 284.341133 186.84765 
L 284.380269 186.800925 
L 284.419404 186.90538 
L 284.458539 186.967617 
L 284.497674 186.819197 
L 284.575944 186.914532 
L 284.615079 186.878198 
L 284.654214 186.951511 
L 284.693349 186.996613 
L 284.732484 186.849423 
L 284.810755 186.971376 
L 285.319511 188.278323 
L 285.593457 189.734243 
L 286.219618 195.663347 
L 288.176373 222.254513 
L 288.489454 223.810837 
L 288.645994 224.053925 
L 288.685129 224.020867 
L 288.84167 223.790186 
L 289.115615 222.357225 
L 289.506966 218.390819 
L 290.133128 208.412452 
L 291.698532 181.976599 
L 292.050748 179.323449 
L 292.402964 178.726557 
L 292.637774 179.603768 
L 292.755179 180.397255 
L 293.029125 183.155274 
L 293.342206 187.86825 
L 293.929232 200.213774 
L 295.06415 231.526654 
L 296.120798 258.554294 
L 296.82523 271.674538 
L 297.451391 279.5969 
L 298.038418 284.316089 
L 298.586309 286.943491 
L 299.095065 288.34293 
L 299.603821 289.106204 
L 300.112578 289.495882 
L 300.777874 289.713618 
L 301.873657 289.803822 
L 306.882949 289.816 
L 356.936739 289.706032 
L 357.680306 289.46303 
L 358.228197 289.060762 
L 358.736953 288.396375 
L 359.206574 287.43312 
L 359.754466 285.773619 
L 360.419762 282.930907 
L 361.437275 277.306027 
L 362.689598 270.498081 
L 365.703001 256.626514 
L 366.094352 255.87199 
L 366.329162 255.853542 
L 366.603108 256.28648 
L 366.955324 257.620052 
L 367.38581 260.341043 
L 368.011971 265.899968 
L 369.420835 278.573965 
L 369.929591 281.063857 
L 370.242672 281.736538 
L 370.438347 281.810782 
L 370.594888 281.676624 
L 370.829698 281.15175 
L 371.142779 279.861653 
L 371.573265 277.088051 
L 372.160292 271.872473 
L 373.882236 256.118622 
L 374.312722 254.19008 
L 374.704073 253.439351 
L 374.899748 253.383203 
L 375.056289 253.475509 
L 375.44764 254.096316 
L 376.934774 257.321373 
L 377.36526 257.274765 
L 377.60007 256.927328 
L 378.108826 255.282138 
L 378.578448 252.67484 
L 379.126339 248.291554 
L 379.830771 241.082316 
L 381.74839 219.831329 
L 383.626875 203.647933 
L 383.979091 200.874403 
L 384.722658 195.544075 
L 385.114009 193.345404 
L 385.42709 192.179398 
L 385.58363 191.783708 
L 385.622765 191.897497 
L 385.74017 191.507249 
L 385.896711 191.684534 
L 385.935846 191.643916 
L 385.974981 191.707009 
L 386.131521 192.064904 
L 386.757683 195.32063 
L 388.010006 211.111047 
L 388.792708 222.672235 
L 389.340599 228.541572 
L 389.73195 230.700331 
L 389.966761 231.06135 
L 390.123301 230.805654 
L 390.279842 230.250317 
L 390.632058 227.710078 
L 391.101679 221.81242 
L 391.610435 213.038298 
L 393.019298 182.599483 
L 395.954431 114.336578 
L 396.345782 111.074099 
L 396.424052 110.914856 
L 396.541457 110.824147 
L 396.854538 112.531481 
L 397.285024 119.397099 
L 397.79378 133.842914 
L 398.224266 149.877135 
L 399.828805 212.07951 
L 400.298427 222.52942 
L 400.650642 226.673886 
L 400.885453 227.678935 
L 401.002858 227.673593 
L 401.159399 227.184171 
L 401.433344 225.115012 
L 401.86383 219.25908 
L 402.489992 207.420525 
L 403.54664 186.205142 
L 404.329342 173.944491 
L 405.112043 165.520806 
L 405.229449 164.751095 
L 405.54253 162.918483 
L 405.894745 161.934297 
L 406.051286 161.965541 
L 406.129556 162.036092 
L 406.638312 164.555769 
L 406.990528 168.133711 
L 407.381879 174.00456 
L 408.242851 192.118019 
L 409.299499 214.482678 
L 409.76912 220.1965 
L 410.043066 221.606008 
L 410.199606 221.632918 
L 410.317011 221.317051 
L 410.551822 219.69065 
L 410.825768 216.223977 
L 411.256254 207.556386 
L 411.68674 195.931803 
L 413.408684 147.596323 
L 413.7609 143.204021 
L 414.034846 141.873631 
L 414.191386 141.952245 
L 414.465332 143.595075 
L 414.934953 149.624159 
L 416.500357 176.592169 
L 416.735167 177.827919 
L 416.891708 177.763113 
L 417.087383 176.717648 
L 417.400464 172.721742 
L 417.75268 164.710981 
L 418.261436 147.458245 
L 418.965868 116.672823 
L 419.90511 77.819394 
L 420.453002 64.366331 
L 420.726947 61.1099 
L 420.961758 60.27639 
L 421.040028 60.38524 
L 421.431379 64.399591 
L 422.018405 78.572274 
L 422.605432 99.440244 
L 424.209971 161.948407 
L 424.796997 177.784077 
L 425.344889 187.222185 
L 425.697105 190.464808 
L 426.049321 191.510374 
L 426.558077 189.165965 
L 426.988563 183.384816 
L 427.340779 176.1993 
L 427.8104 162.805803 
L 428.436561 139.068726 
L 430.119371 68.122666 
L 430.628127 56.162261 
L 431.019478 52.573232 
L 431.058613 52.390807 
L 431.136883 52.457327 
L 431.215153 52.458334 
L 431.645639 56.742794 
L 432.076125 65.272407 
L 432.584882 78.443266 
L 433.445854 102.310661 
L 434.385096 123.176111 
L 435.089528 136.388797 
L 436.341851 163.242009 
L 437.476769 189.286909 
L 438.376876 202.949912 
L 438.846497 206.705844 
L 439.276983 208.525857 
L 440.294496 210.954827 
L 440.803252 213.702586 
L 441.155468 216.825776 
L 441.742494 224.490938 
L 442.446926 236.997076 
L 444.403681 272.638409 
L 445.068978 280.197683 
L 445.656004 284.546412 
L 446.203896 287.035136 
L 446.712652 288.384209 
L 447.221408 289.12666 
L 447.769299 289.525502 
L 448.434596 289.72489 
L 449.608649 289.807229 
L 450 289.812308 
L 450 289.812308 
" clip-path="url(#p3c622c38ce)" style="fill: none; stroke: #000000; stroke-width: 2; stroke-linecap: square"/>
   </g>
   <g id="matplotlib.axis_1">
    <g id="xtick_1">
     <g id="line2d_4">
      <defs>
       <path id="m8861fa575d" d="M 0 0 
L 0 3.5 
" style="stroke: #000000; stroke-width: 0.8"/>
      </defs>
      <g>
       <use xlink:href="#m8861fa575d" x="98.645097" y="289.816" style="stroke: #000000; stroke-width: 0.8"/>
      </g>
     </g>
     <g id="text_1">
      <!-- −6 -->
      <g transform="translate(86.851347 308.9735) scale(0.16 -0.16)">
       <defs>
        <path id="DejaVuSans-2212" d="M 678 2272 
L 4684 2272 
L 4684 1741 
L 678 1741 
L 678 2272 
z
" transform="scale(0.015625)"/>
        <path id="DejaVuSans-36" d="M 2113 2584 
Q 1688 2584 1439 2293 
Q 1191 2003 1191 1497 
Q 1191 994 1439 701 
Q 1688 409 2113 409 
Q 2538 409 2786 701 
Q 3034 994 3034 1497 
Q 3034 2003 2786 2293 
Q 2538 2584 2113 2584 
z
M 3366 4563 
L 3366 3988 
Q 3128 4100 2886 4159 
Q 2644 4219 2406 4219 
Q 1781 4219 1451 3797 
Q 1122 3375 1075 2522 
Q 1259 2794 1537 2939 
Q 1816 3084 2150 3084 
Q 2853 3084 3261 2657 
Q 3669 2231 3669 1497 
Q 3669 778 3244 343 
Q 2819 -91 2113 -91 
Q 1303 -91 875 529 
Q 447 1150 447 2328 
Q 447 3434 972 4092 
Q 1497 4750 2381 4750 
Q 2619 4750 2861 4703 
Q 3103 4656 3366 4563 
z
" transform="scale(0.015625)"/>
       </defs>
       <use xlink:href="#DejaVuSans-2212"/>
       <use xlink:href="#DejaVuSans-36" x="83.789062"/>
      </g>
     </g>
    </g>
    <g id="xtick_2">
     <g id="line2d_5">
      <g>
       <use xlink:href="#m8861fa575d" x="176.915292" y="289.816" style="stroke: #000000; stroke-width: 0.8"/>
      </g>
     </g>
     <g id="text_2">
      <!-- −4 -->
      <g transform="translate(165.121542 308.9735) scale(0.16 -0.16)">
       <defs>
        <path id="DejaVuSans-34" d="M 2419 4116 
L 825 1625 
L 2419 1625 
L 2419 4116 
z
M 2253 4666 
L 3047 4666 
L 3047 1625 
L 3713 1625 
L 3713 1100 
L 3047 1100 
L 3047 0 
L 2419 0 
L 2419 1100 
L 313 1100 
L 313 1709 
L 2253 4666 
z
" transform="scale(0.015625)"/>
       </defs>
       <use xlink:href="#DejaVuSans-2212"/>
       <use xlink:href="#DejaVuSans-34" x="83.789062"/>
      </g>
     </g>
    </g>
    <g id="xtick_3">
     <g id="line2d_6">
      <g>
       <use xlink:href="#m8861fa575d" x="255.185486" y="289.816" style="stroke: #000000; stroke-width: 0.8"/>
      </g>
     </g>
     <g id="text_3">
      <!-- −2 -->
      <g transform="translate(243.391736 308.9735) scale(0.16 -0.16)">
       <defs>
        <path id="DejaVuSans-32" d="M 1228 531 
L 3431 531 
L 3431 0 
L 469 0 
L 469 531 
Q 828 903 1448 1529 
Q 2069 2156 2228 2338 
Q 2531 2678 2651 2914 
Q 2772 3150 2772 3378 
Q 2772 3750 2511 3984 
Q 2250 4219 1831 4219 
Q 1534 4219 1204 4116 
Q 875 4013 500 3803 
L 500 4441 
Q 881 4594 1212 4672 
Q 1544 4750 1819 4750 
Q 2544 4750 2975 4387 
Q 3406 4025 3406 3419 
Q 3406 3131 3298 2873 
Q 3191 2616 2906 2266 
Q 2828 2175 2409 1742 
Q 1991 1309 1228 531 
z
" transform="scale(0.015625)"/>
       </defs>
       <use xlink:href="#DejaVuSans-2212"/>
       <use xlink:href="#DejaVuSans-32" x="83.789062"/>
      </g>
     </g>
    </g>
    <g id="xtick_4">
     <g id="line2d_7">
      <g>
       <use xlink:href="#m8861fa575d" x="333.45568" y="289.816" style="stroke: #000000; stroke-width: 0.8"/>
      </g>
     </g>
     <g id="text_4">
      <!-- 0 -->
      <g transform="translate(328.36568 308.9735) scale(0.16 -0.16)">
       <defs>
        <path id="DejaVuSans-30" d="M 2034 4250 
Q 1547 4250 1301 3770 
Q 1056 3291 1056 2328 
Q 1056 1369 1301 889 
Q 1547 409 2034 409 
Q 2525 409 2770 889 
Q 3016 1369 3016 2328 
Q 3016 3291 2770 3770 
Q 2525 4250 2034 4250 
z
M 2034 4750 
Q 2819 4750 3233 4129 
Q 3647 3509 3647 2328 
Q 3647 1150 3233 529 
Q 2819 -91 2034 -91 
Q 1250 -91 836 529 
Q 422 1150 422 2328 
Q 422 3509 836 4129 
Q 1250 4750 2034 4750 
z
" transform="scale(0.015625)"/>
       </defs>
       <use xlink:href="#DejaVuSans-30"/>
      </g>
     </g>
    </g>
    <g id="xtick_5">
     <g id="line2d_8">
      <g>
       <use xlink:href="#m8861fa575d" x="411.725875" y="289.816" style="stroke: #000000; stroke-width: 0.8"/>
      </g>
     </g>
     <g id="text_5">
      <!-- 2 -->
      <g transform="translate(406.635875 308.9735) scale(0.16 -0.16)">
       <use xlink:href="#DejaVuSans-32"/>
      </g>
     </g>
    </g>
    <g id="text_6">
     <!-- $E$-$E_F$ (eV) -->
     <g transform="translate(214.615 329.978187) scale(0.18 -0.18)">
      <defs>
       <path id="DejaVuSans-Oblique-45" d="M 1081 4666 
L 4031 4666 
L 3928 4134 
L 1606 4134 
L 1338 2753 
L 3566 2753 
L 3463 2222 
L 1234 2222 
L 909 531 
L 3284 531 
L 3181 0 
L 172 0 
L 1081 4666 
z
" transform="scale(0.015625)"/>
       <path id="DejaVuSans-2d" d="M 313 2009 
L 1997 2009 
L 1997 1497 
L 313 1497 
L 313 2009 
z
" transform="scale(0.015625)"/>
       <path id="DejaVuSans-Oblique-46" d="M 1081 4666 
L 3756 4666 
L 3653 4134 
L 1606 4134 
L 1338 2759 
L 3188 2759 
L 3084 2228 
L 1234 2228 
L 800 0 
L 172 0 
L 1081 4666 
z
" transform="scale(0.015625)"/>
       <path id="DejaVuSans-20" transform="scale(0.015625)"/>
       <path id="DejaVuSans-28" d="M 1984 4856 
Q 1566 4138 1362 3434 
Q 1159 2731 1159 2009 
Q 1159 1288 1364 580 
Q 1569 -128 1984 -844 
L 1484 -844 
Q 1016 -109 783 600 
Q 550 1309 550 2009 
Q 550 2706 781 3412 
Q 1013 4119 1484 4856 
L 1984 4856 
z
" transform="scale(0.015625)"/>
       <path id="DejaVuSans-65" d="M 3597 1894 
L 3597 1613 
L 953 1613 
Q 991 1019 1311 708 
Q 1631 397 2203 397 
Q 2534 397 2845 478 
Q 3156 559 3463 722 
L 3463 178 
Q 3153 47 2828 -22 
Q 2503 -91 2169 -91 
Q 1331 -91 842 396 
Q 353 884 353 1716 
Q 353 2575 817 3079 
Q 1281 3584 2069 3584 
Q 2775 3584 3186 3129 
Q 3597 2675 3597 1894 
z
M 3022 2063 
Q 3016 2534 2758 2815 
Q 2500 3097 2075 3097 
Q 1594 3097 1305 2825 
Q 1016 2553 972 2059 
L 3022 2063 
z
" transform="scale(0.015625)"/>
       <path id="DejaVuSans-56" d="M 1831 0 
L 50 4666 
L 709 4666 
L 2188 738 
L 3669 4666 
L 4325 4666 
L 2547 0 
L 1831 0 
z
" transform="scale(0.015625)"/>
       <path id="DejaVuSans-29" d="M 513 4856 
L 1013 4856 
Q 1481 4119 1714 3412 
Q 1947 2706 1947 2009 
Q 1947 1309 1714 600 
Q 1481 -109 1013 -844 
L 513 -844 
Q 928 -128 1133 580 
Q 1338 1288 1338 2009 
Q 1338 2731 1133 3434 
Q 928 4138 513 4856 
z
" transform="scale(0.015625)"/>
      </defs>
      <use xlink:href="#DejaVuSans-Oblique-45" transform="translate(0 0.125)"/>
      <use xlink:href="#DejaVuSans-2d" transform="translate(63.183594 0.125)"/>
      <use xlink:href="#DejaVuSans-Oblique-45" transform="translate(99.267578 0.125)"/>
      <use xlink:href="#DejaVuSans-Oblique-46" transform="translate(162.451172 -16.28125) scale(0.7)"/>
      <use xlink:href="#DejaVuSans-20" transform="translate(205.449219 0.125)"/>
      <use xlink:href="#DejaVuSans-28" transform="translate(237.236328 0.125)"/>
      <use xlink:href="#DejaVuSans-65" transform="translate(276.25 0.125)"/>
      <use xlink:href="#DejaVuSans-56" transform="translate(337.773438 0.125)"/>
      <use xlink:href="#DejaVuSans-29" transform="translate(406.181641 0.125)"/>
     </g>
    </g>
   </g>
   <g id="matplotlib.axis_2">
    <g id="ytick_1">
     <g id="line2d_9">
      <defs>
       <path id="m96c6713d10" d="M 0 0 
L -3.5 0 
" style="stroke: #000000; stroke-width: 0.8"/>
      </defs>
      <g>
       <use xlink:href="#m96c6713d10" x="59.51" y="289.816" style="stroke: #000000; stroke-width: 0.8"/>
      </g>
     </g>
     <g id="text_7">
      <!-- 0 -->
      <g transform="translate(42.33 295.89475) scale(0.16 -0.16)">
       <use xlink:href="#DejaVuSans-30"/>
      </g>
     </g>
    </g>
    <g id="ytick_2">
     <g id="line2d_10">
      <g>
       <use xlink:href="#m96c6713d10" x="59.51" y="239.422447" style="stroke: #000000; stroke-width: 0.8"/>
      </g>
     </g>
     <g id="text_8">
      <!-- 5 -->
      <g transform="translate(42.33 245.501197) scale(0.16 -0.16)">
       <defs>
        <path id="DejaVuSans-35" d="M 691 4666 
L 3169 4666 
L 3169 4134 
L 1269 4134 
L 1269 2991 
Q 1406 3038 1543 3061 
Q 1681 3084 1819 3084 
Q 2600 3084 3056 2656 
Q 3513 2228 3513 1497 
Q 3513 744 3044 326 
Q 2575 -91 1722 -91 
Q 1428 -91 1123 -41 
Q 819 9 494 109 
L 494 744 
Q 775 591 1075 516 
Q 1375 441 1709 441 
Q 2250 441 2565 725 
Q 2881 1009 2881 1497 
Q 2881 1984 2565 2268 
Q 2250 2553 1709 2553 
Q 1456 2553 1204 2497 
Q 953 2441 691 2322 
L 691 4666 
z
" transform="scale(0.015625)"/>
       </defs>
       <use xlink:href="#DejaVuSans-35"/>
      </g>
     </g>
    </g>
    <g id="ytick_3">
     <g id="line2d_11">
      <g>
       <use xlink:href="#m96c6713d10" x="59.51" y="189.028894" style="stroke: #000000; stroke-width: 0.8"/>
      </g>
     </g>
     <g id="text_9">
      <!-- 10 -->
      <g transform="translate(32.15 195.107644) scale(0.16 -0.16)">
       <defs>
        <path id="DejaVuSans-31" d="M 794 531 
L 1825 531 
L 1825 4091 
L 703 3866 
L 703 4441 
L 1819 4666 
L 2450 4666 
L 2450 531 
L 3481 531 
L 3481 0 
L 794 0 
L 794 531 
z
" transform="scale(0.015625)"/>
       </defs>
       <use xlink:href="#DejaVuSans-31"/>
       <use xlink:href="#DejaVuSans-30" x="63.623047"/>
      </g>
     </g>
    </g>
    <g id="ytick_4">
     <g id="line2d_12">
      <g>
       <use xlink:href="#m96c6713d10" x="59.51" y="138.635341" style="stroke: #000000; stroke-width: 0.8"/>
      </g>
     </g>
     <g id="text_10">
      <!-- 15 -->
      <g transform="translate(32.15 144.714091) scale(0.16 -0.16)">
       <use xlink:href="#DejaVuSans-31"/>
       <use xlink:href="#DejaVuSans-35" x="63.623047"/>
      </g>
     </g>
    </g>
    <g id="ytick_5">
     <g id="line2d_13">
      <g>
       <use xlink:href="#m96c6713d10" x="59.51" y="88.241788" style="stroke: #000000; stroke-width: 0.8"/>
      </g>
     </g>
     <g id="text_11">
      <!-- 20 -->
      <g transform="translate(32.15 94.320538) scale(0.16 -0.16)">
       <use xlink:href="#DejaVuSans-32"/>
       <use xlink:href="#DejaVuSans-30" x="63.623047"/>
      </g>
     </g>
    </g>
    <g id="ytick_6">
     <g id="line2d_14">
      <g>
       <use xlink:href="#m96c6713d10" x="59.51" y="37.848236" style="stroke: #000000; stroke-width: 0.8"/>
      </g>
     </g>
     <g id="text_12">
      <!-- 25 -->
      <g transform="translate(32.15 43.926986) scale(0.16 -0.16)">
       <use xlink:href="#DejaVuSans-32"/>
       <use xlink:href="#DejaVuSans-35" x="63.623047"/>
      </g>
     </g>
    </g>
    <g id="text_13">
     <!-- DOS (States/eV) -->
     <g transform="translate(24.406563 223.157375) rotate(-90) scale(0.18 -0.18)">
      <defs>
       <path id="DejaVuSans-44" d="M 1259 4147 
L 1259 519 
L 2022 519 
Q 2988 519 3436 956 
Q 3884 1394 3884 2338 
Q 3884 3275 3436 3711 
Q 2988 4147 2022 4147 
L 1259 4147 
z
M 628 4666 
L 1925 4666 
Q 3281 4666 3915 4102 
Q 4550 3538 4550 2338 
Q 4550 1131 3912 565 
Q 3275 0 1925 0 
L 628 0 
L 628 4666 
z
" transform="scale(0.015625)"/>
       <path id="DejaVuSans-4f" d="M 2522 4238 
Q 1834 4238 1429 3725 
Q 1025 3213 1025 2328 
Q 1025 1447 1429 934 
Q 1834 422 2522 422 
Q 3209 422 3611 934 
Q 4013 1447 4013 2328 
Q 4013 3213 3611 3725 
Q 3209 4238 2522 4238 
z
M 2522 4750 
Q 3503 4750 4090 4092 
Q 4678 3434 4678 2328 
Q 4678 1225 4090 567 
Q 3503 -91 2522 -91 
Q 1538 -91 948 565 
Q 359 1222 359 2328 
Q 359 3434 948 4092 
Q 1538 4750 2522 4750 
z
" transform="scale(0.015625)"/>
       <path id="DejaVuSans-53" d="M 3425 4513 
L 3425 3897 
Q 3066 4069 2747 4153 
Q 2428 4238 2131 4238 
Q 1616 4238 1336 4038 
Q 1056 3838 1056 3469 
Q 1056 3159 1242 3001 
Q 1428 2844 1947 2747 
L 2328 2669 
Q 3034 2534 3370 2195 
Q 3706 1856 3706 1288 
Q 3706 609 3251 259 
Q 2797 -91 1919 -91 
Q 1588 -91 1214 -16 
Q 841 59 441 206 
L 441 856 
Q 825 641 1194 531 
Q 1563 422 1919 422 
Q 2459 422 2753 634 
Q 3047 847 3047 1241 
Q 3047 1584 2836 1778 
Q 2625 1972 2144 2069 
L 1759 2144 
Q 1053 2284 737 2584 
Q 422 2884 422 3419 
Q 422 4038 858 4394 
Q 1294 4750 2059 4750 
Q 2388 4750 2728 4690 
Q 3069 4631 3425 4513 
z
" transform="scale(0.015625)"/>
       <path id="DejaVuSans-74" d="M 1172 4494 
L 1172 3500 
L 2356 3500 
L 2356 3053 
L 1172 3053 
L 1172 1153 
Q 1172 725 1289 603 
Q 1406 481 1766 481 
L 2356 481 
L 2356 0 
L 1766 0 
Q 1100 0 847 248 
Q 594 497 594 1153 
L 594 3053 
L 172 3053 
L 172 3500 
L 594 3500 
L 594 4494 
L 1172 4494 
z
" transform="scale(0.015625)"/>
       <path id="DejaVuSans-61" d="M 2194 1759 
Q 1497 1759 1228 1600 
Q 959 1441 959 1056 
Q 959 750 1161 570 
Q 1363 391 1709 391 
Q 2188 391 2477 730 
Q 2766 1069 2766 1631 
L 2766 1759 
L 2194 1759 
z
M 3341 1997 
L 3341 0 
L 2766 0 
L 2766 531 
Q 2569 213 2275 61 
Q 1981 -91 1556 -91 
Q 1019 -91 701 211 
Q 384 513 384 1019 
Q 384 1609 779 1909 
Q 1175 2209 1959 2209 
L 2766 2209 
L 2766 2266 
Q 2766 2663 2505 2880 
Q 2244 3097 1772 3097 
Q 1472 3097 1187 3025 
Q 903 2953 641 2809 
L 641 3341 
Q 956 3463 1253 3523 
Q 1550 3584 1831 3584 
Q 2591 3584 2966 3190 
Q 3341 2797 3341 1997 
z
" transform="scale(0.015625)"/>
       <path id="DejaVuSans-73" d="M 2834 3397 
L 2834 2853 
Q 2591 2978 2328 3040 
Q 2066 3103 1784 3103 
Q 1356 3103 1142 2972 
Q 928 2841 928 2578 
Q 928 2378 1081 2264 
Q 1234 2150 1697 2047 
L 1894 2003 
Q 2506 1872 2764 1633 
Q 3022 1394 3022 966 
Q 3022 478 2636 193 
Q 2250 -91 1575 -91 
Q 1294 -91 989 -36 
Q 684 19 347 128 
L 347 722 
Q 666 556 975 473 
Q 1284 391 1588 391 
Q 1994 391 2212 530 
Q 2431 669 2431 922 
Q 2431 1156 2273 1281 
Q 2116 1406 1581 1522 
L 1381 1569 
Q 847 1681 609 1914 
Q 372 2147 372 2553 
Q 372 3047 722 3315 
Q 1072 3584 1716 3584 
Q 2034 3584 2315 3537 
Q 2597 3491 2834 3397 
z
" transform="scale(0.015625)"/>
       <path id="DejaVuSans-2f" d="M 1625 4666 
L 2156 4666 
L 531 -594 
L 0 -594 
L 1625 4666 
z
" transform="scale(0.015625)"/>
      </defs>
      <use xlink:href="#DejaVuSans-44"/>
      <use xlink:href="#DejaVuSans-4f" x="77.001953"/>
      <use xlink:href="#DejaVuSans-53" x="155.712891"/>
      <use xlink:href="#DejaVuSans-20" x="219.189453"/>
      <use xlink:href="#DejaVuSans-28" x="250.976562"/>
      <use xlink:href="#DejaVuSans-53" x="289.990234"/>
      <use xlink:href="#DejaVuSans-74" x="353.466797"/>
      <use xlink:href="#DejaVuSans-61" x="392.675781"/>
      <use xlink:href="#DejaVuSans-74" x="453.955078"/>
      <use xlink:href="#DejaVuSans-65" x="493.164062"/>
      <use xlink:href="#DejaVuSans-73" x="554.6875"/>
      <use xlink:href="#DejaVuSans-2f" x="606.787109"/>
      <use xlink:href="#DejaVuSans-65" x="640.478516"/>
      <use xlink:href="#DejaVuSans-56" x="702.001953"/>
      <use xlink:href="#DejaVuSans-29" x="770.410156"/>
     </g>
    </g>
   </g>
   <g id="line2d_15">
    <path d="M 333.45568 289.816 
L 333.45568 10.8 
" clip-path="url(#p3c622c38ce)" style="fill: none; stroke-dasharray: 5.55,2.4; stroke-dashoffset: 0; stroke: #808080; stroke-width: 1.5"/>
   </g>
   <g id="line2d_16">
    <path d="M 333.45568 289.816 
L 333.45568 10.8 
" clip-path="url(#p3c622c38ce)" style="fill: none; stroke-dasharray: 5.55,2.4; stroke-dashoffset: 0; stroke: #808080; stroke-width: 1.5"/>
   </g>
   <g id="line2d_17">
    <path d="M 333.45568 289.816 
L 333.45568 10.8 
" clip-path="url(#p3c622c38ce)" style="fill: none; stroke-dasharray: 5.55,2.4; stroke-dashoffset: 0; stroke: #808080; stroke-width: 1.5"/>
   </g>
   <g id="patch_3">
    <path d="M 59.51 289.816 
L 59.51 10.8 
" style="fill: none; stroke: #000000; stroke-width: 0.8; stroke-linejoin: miter; stroke-linecap: square"/>
   </g>
   <g id="patch_4">
    <path d="M 450 289.816 
L 450 10.8 
" style="fill: none; stroke: #000000; stroke-width: 0.8; stroke-linejoin: miter; stroke-linecap: square"/>
   </g>
   <g id="patch_5">
    <path d="M 59.51 289.816 
L 450 289.816 
" style="fill: none; stroke: #000000; stroke-width: 0.8; stroke-linejoin: miter; stroke-linecap: square"/>
   </g>
   <g id="patch_6">
    <path d="M 59.51 10.8 
L 450 10.8 
" style="fill: none; stroke: #000000; stroke-width: 0.8; stroke-linejoin: miter; stroke-linecap: square"/>
   </g>
   <g id="legend_1">
    <g id="patch_7">
     <path d="M 387.646875 62.834375 
L 443 62.834375 
Q 445 62.834375 445 60.834375 
L 445 17.8 
Q 445 15.8 443 15.8 
L 387.646875 15.8 
Q 385.646875 15.8 385.646875 17.8 
L 385.646875 60.834375 
Q 385.646875 62.834375 387.646875 62.834375 
z
" style="fill: #ffffff; opacity: 0.8; stroke: #cccccc; stroke-linejoin: miter"/>
    </g>
    <g id="line2d_18">
     <path d="M 389.646875 23.898438 
L 399.646875 23.898438 
L 409.646875 23.898438 
" style="fill: none; stroke: #1f77b4; stroke-width: 2; stroke-linecap: square"/>
    </g>
    <g id="text_14">
     <!-- p -->
     <g transform="translate(417.646875 27.398438) scale(0.1 -0.1)">
      <defs>
       <path id="DejaVuSans-70" d="M 1159 525 
L 1159 -1331 
L 581 -1331 
L 581 3500 
L 1159 3500 
L 1159 2969 
Q 1341 3281 1617 3432 
Q 1894 3584 2278 3584 
Q 2916 3584 3314 3078 
Q 3713 2572 3713 1747 
Q 3713 922 3314 415 
Q 2916 -91 2278 -91 
Q 1894 -91 1617 61 
Q 1341 213 1159 525 
z
M 3116 1747 
Q 3116 2381 2855 2742 
Q 2594 3103 2138 3103 
Q 1681 3103 1420 2742 
Q 1159 2381 1159 1747 
Q 1159 1113 1420 752 
Q 1681 391 2138 391 
Q 2594 391 2855 752 
Q 3116 1113 3116 1747 
z
" transform="scale(0.015625)"/>
      </defs>
      <use xlink:href="#DejaVuSans-70"/>
     </g>
    </g>
    <g id="line2d_19">
     <path d="M 389.646875 38.576563 
L 399.646875 38.576563 
L 409.646875 38.576563 
" style="fill: none; stroke: #ff7f0e; stroke-width: 2; stroke-linecap: square"/>
    </g>
    <g id="text_15">
     <!-- s -->
     <g transform="translate(417.646875 42.076563) scale(0.1 -0.1)">
      <use xlink:href="#DejaVuSans-73"/>
     </g>
    </g>
    <g id="line2d_20">
     <path d="M 389.646875 53.254687 
L 399.646875 53.254687 
L 409.646875 53.254687 
" style="fill: none; stroke: #000000; stroke-width: 2; stroke-linecap: square"/>
    </g>
    <g id="text_16">
     <!-- Total -->
     <g transform="translate(417.646875 56.754687) scale(0.1 -0.1)">
      <defs>
       <path id="DejaVuSans-54" d="M -19 4666 
L 3928 4666 
L 3928 4134 
L 2272 4134 
L 2272 0 
L 1638 0 
L 1638 4134 
L -19 4134 
L -19 4666 
z
" transform="scale(0.015625)"/>
       <path id="DejaVuSans-6f" d="M 1959 3097 
Q 1497 3097 1228 2736 
Q 959 2375 959 1747 
Q 959 1119 1226 758 
Q 1494 397 1959 397 
Q 2419 397 2687 759 
Q 2956 1122 2956 1747 
Q 2956 2369 2687 2733 
Q 2419 3097 1959 3097 
z
M 1959 3584 
Q 2709 3584 3137 3096 
Q 3566 2609 3566 1747 
Q 3566 888 3137 398 
Q 2709 -91 1959 -91 
Q 1206 -91 779 398 
Q 353 888 353 1747 
Q 353 2609 779 3096 
Q 1206 3584 1959 3584 
z
" transform="scale(0.015625)"/>
       <path id="DejaVuSans-6c" d="M 603 4863 
L 1178 4863 
L 1178 0 
L 603 0 
L 603 4863 
z
" transform="scale(0.015625)"/>
      </defs>
      <use xlink:href="#DejaVuSans-54"/>
      <use xlink:href="#DejaVuSans-6f" x="44.083984"/>
      <use xlink:href="#DejaVuSans-74" x="105.265625"/>
      <use xlink:href="#DejaVuSans-61" x="144.474609"/>
      <use xlink:href="#DejaVuSans-6c" x="205.753906"/>
     </g>
    </g>
   </g>
  </g>
 </g>
 <defs>
  <clipPath id="p3c622c38ce">
   <rect x="59.51" y="10.8" width="390.49" height="279.016"/>
  </clipPath>
 </defs>
</svg>
