<?xml version="1.0" encoding="utf-8" standalone="no"?>
<!DOCTYPE svg PUBLIC "-//W3C//DTD SVG 1.1//EN"
  "http://www.w3.org/Graphics/SVG/1.1/DTD/svg11.dtd">
<svg xmlns:xlink="http://www.w3.org/1999/xlink" width="460.8pt" height="345.6pt" viewBox="0 0 460.8 345.6" xmlns="http://www.w3.org/2000/svg" version="1.1">
 <metadata>
  <rdf:RDF xmlns:dc="http://purl.org/dc/elements/1.1/" xmlns:cc="http://creativecommons.org/ns#" xmlns:rdf="http://www.w3.org/1999/02/22-rdf-syntax-ns#">
   <cc:Work>
    <dc:type rdf:resource="http://purl.org/dc/dcmitype/StillImage"/>
    <dc:date>2023-08-11T19:08:26.930954</dc:date>
    <dc:format>image/svg+xml</dc:format>
    <dc:creator>
     <cc:Agent>
      <dc:title>Matplotlib v3.7.1, https://matplotlib.org/</dc:title>
     </cc:Agent>
    </dc:creator>
   </cc:Work>
  </rdf:RDF>
 </metadata>
 <defs>
  <style type="text/css">*{stroke-linejoin: round; stroke-linecap: butt}</style>
 </defs>
 <g id="figure_1">
  <g id="patch_1">
   <path d="M 0 345.6 
L 460.8 345.6 
L 460.8 0 
L 0 0 
z
" style="fill: #ffffff"/>
  </g>
  <g id="axes_1">
   <g id="patch_2">
    <path d="M 59.6 289.816 
L 444.87 289.816 
L 444.87 10.8 
L 59.6 10.8 
z
" style="fill: #ffffff"/>
   </g>
   <g id="line2d_1">
    <path d="M 59.492124 289.811492 
L 62.11196 289.699972 
L 63.190716 289.45868 
L 63.961256 289.075529 
L 64.577688 288.546491 
L 65.19412 287.722026 
L 65.810552 286.492875 
L 66.426984 284.7366 
L 67.043416 282.338561 
L 67.813956 278.286995 
L 68.584496 272.996559 
L 69.509144 265.123607 
L 71.204332 248.208279 
L 72.591304 235.135394 
L 73.515952 228.256517 
L 74.286492 223.959013 
L 75.057032 220.988911 
L 75.827572 219.268445 
L 76.444004 218.55421 
L 76.75222 218.341268 
L 77.214544 218.223804 
L 77.676868 218.288503 
L 79.526164 219.538203 
L 80.60492 220.552034 
L 83.68708 223.211297 
L 88.002104 226.733636 
L 88.618536 227.125914 
L 94.012316 230.154528 
L 95.399288 230.909248 
L 95.861612 231.191286 
L 97.5568 232.103357 
L 98.173232 232.418059 
L 98.481448 232.567558 
L 99.09788 232.843943 
L 100.022528 233.239048 
L 101.717716 233.842698 
L 102.334148 234.058152 
L 102.95058 234.257275 
L 103.875228 234.545909 
L 104.337552 234.675936 
L 105.416308 234.960801 
L 106.03274 235.163692 
L 106.649172 235.341144 
L 108.34436 236.053464 
L 109.731332 236.589902 
L 111.888844 237.156805 
L 116.974408 238.313225 
L 118.207272 238.389545 
L 120.056568 238.612851 
L 123.75516 239.61726 
L 124.833916 239.621029 
L 126.83732 239.579571 
L 128.224292 239.871031 
L 130.535912 240.298486 
L 131.614668 240.158409 
L 135.159152 239.646469 
L 137.162556 239.664999 
L 138.241312 239.435725 
L 139.474176 238.949225 
L 142.402228 237.397072 
L 143.7892 236.479034 
L 144.867956 235.39171 
L 145.484388 234.58611 
L 147.333684 231.188459 
L 148.104224 229.661746 
L 149.18298 228.123412 
L 149.799412 227.759715 
L 150.415844 227.937795 
L 150.72406 228.212924 
L 151.340492 229.163939 
L 151.956924 230.578842 
L 153.498004 235.777079 
L 154.884976 241.200506 
L 157.504812 251.105454 
L 159.508216 257.937817 
L 160.74108 261.410217 
L 161.665728 263.44416 
L 162.590376 264.972443 
L 163.515024 266.045005 
L 164.285564 266.643316 
L 165.056104 267.006699 
L 165.826644 267.123849 
L 166.597184 266.997591 
L 167.367724 266.617876 
L 168.292372 265.897391 
L 170.912208 263.613445 
L 171.990964 263.046542 
L 174.148476 262.096469 
L 174.919016 261.4991 
L 175.843664 260.463599 
L 176.92242 258.826332 
L 178.617608 255.715744 
L 180.00458 253.330981 
L 180.929228 252.164197 
L 181.699768 251.577821 
L 182.3162 251.398485 
L 182.932632 251.466639 
L 183.549064 251.767835 
L 184.319604 252.413885 
L 185.39836 253.648824 
L 188.172304 256.925871 
L 189.405168 257.930907 
L 195.723596 262.18064 
L 197.264676 262.789944 
L 198.959864 263.499123 
L 200.500944 264.435377 
L 202.504348 265.680366 
L 203.89132 266.298463 
L 207.127588 267.383588 
L 212.059044 268.984737 
L 213.291908 269.053205 
L 215.911744 269.013317 
L 217.144608 269.328962 
L 220.226768 270.408434 
L 221.305524 270.371373 
L 223.771252 270.071746 
L 224.6959 270.281234 
L 225.928764 270.85913 
L 227.315736 271.526536 
L 228.240384 271.731627 
L 229.165032 271.693938 
L 231.938976 271.280303 
L 232.863624 271.510833 
L 233.94238 272.024029 
L 235.637568 272.814239 
L 236.562216 272.981955 
L 237.640972 272.909404 
L 239.644376 272.640871 
L 240.723132 272.791626 
L 241.801888 273.184847 
L 243.9594 274.086239 
L 245.192264 274.290072 
L 246.733344 274.223803 
L 248.274424 274.197735 
L 249.35318 274.40628 
L 250.89426 274.995796 
L 252.743556 275.644673 
L 253.97642 275.795114 
L 257.520904 276.106676 
L 259.3702 276.760263 
L 260.91128 277.262782 
L 262.298252 277.524405 
L 265.380412 278.078117 
L 267.383816 278.791065 
L 271.544732 280.227011 
L 274.318676 281.229535 
L 276.784404 282.185889 
L 278.941916 282.832253 
L 285.106236 284.31509 
L 292.041096 285.747738 
L 305.140276 287.784036 
L 310.842272 288.488473 
L 316.544268 289.085778 
L 323.170912 289.599955 
L 327.331828 289.684319 
L 338.581712 289.720948 
L 345.824788 289.794155 
L 379.266224 289.736277 
L 388.05038 289.757627 
L 416.252144 289.764447 
L 434.745104 289.732328 
L 444.916232 289.810577 
L 444.916232 289.810577 
" clip-path="url(#pe162303763)" style="fill: none; stroke: #1f77b4; stroke-width: 2; stroke-linecap: square"/>
   </g>
   <g id="line2d_2">
    <path d="M 59.492124 289.815955 
L 66.7352 289.708328 
L 68.584496 289.459196 
L 70.125576 289.02954 
L 71.512548 288.430589 
L 73.207736 287.453725 
L 81.683676 282.139407 
L 83.995296 281.005474 
L 87.693888 279.489565 
L 93.7041 277.320571 
L 96.940368 276.441793 
L 102.488256 274.952768 
L 104.799876 274.343151 
L 108.34436 273.623608 
L 113.892248 272.585594 
L 123.292836 270.835888 
L 129.303048 269.905915 
L 137.933096 268.316387 
L 143.172768 267.242883 
L 145.484388 266.342433 
L 149.028872 264.896751 
L 149.95352 264.875708 
L 150.72406 265.111578 
L 151.4946 265.600277 
L 152.419248 266.499156 
L 153.498004 267.863493 
L 158.583568 274.781912 
L 159.97054 276.185194 
L 161.049296 277.014035 
L 161.819836 277.407256 
L 162.590376 277.579996 
L 163.206808 277.518438 
L 163.82324 277.247392 
L 164.439672 276.738592 
L 165.056104 275.976963 
L 165.826644 274.659423 
L 166.751292 272.578998 
L 168.292372 268.35973 
L 169.833452 264.276455 
L 170.7581 262.349298 
L 171.682748 260.91241 
L 172.607396 259.859635 
L 175.997772 256.407335 
L 178.771716 253.11584 
L 180.00458 251.994597 
L 180.929228 251.414816 
L 181.853876 251.1422 
L 182.470308 251.179575 
L 183.08674 251.409477 
L 183.85728 251.977951 
L 184.781928 253.01251 
L 188.018196 257.035796 
L 188.942844 257.620288 
L 190.175708 258.030782 
L 191.56268 258.500951 
L 192.641436 259.141662 
L 194.953056 260.720825 
L 195.723596 260.969572 
L 196.648244 261.030188 
L 198.651648 261.010715 
L 199.422188 261.239361 
L 200.500944 261.82291 
L 202.196132 262.810044 
L 202.966672 263.007911 
L 203.583104 262.974619 
L 204.199536 262.75885 
L 204.970076 262.236546 
L 205.894724 261.29558 
L 207.127588 259.692233 
L 209.901532 255.991815 
L 215.295312 249.8501 
L 215.911744 249.578426 
L 216.528176 249.529117 
L 217.298716 249.731695 
L 219.30212 250.496778 
L 219.918552 250.419516 
L 220.534984 250.095392 
L 221.305524 249.385585 
L 223.308928 247.327459 
L 223.92536 247.068662 
L 224.541792 247.089391 
L 225.312332 247.432988 
L 227.00752 248.379921 
L 227.469844 248.41918 
L 227.932168 248.296691 
L 228.5486 247.874262 
L 229.31914 247.008988 
L 231.014328 244.913487 
L 231.63076 244.478495 
L 232.247192 244.343757 
L 232.863624 244.471585 
L 233.788272 244.972533 
L 234.71292 245.445214 
L 235.329352 245.527816 
L 235.945784 245.329321 
L 236.562216 244.840622 
L 237.332756 243.926667 
L 239.027944 241.798503 
L 239.644376 241.341839 
L 240.260808 241.13141 
L 240.87724 241.140832 
L 241.955996 241.425383 
L 242.880644 241.58085 
L 243.497076 241.499818 
L 244.113508 241.216838 
L 244.884048 240.583979 
L 245.962804 239.32203 
L 247.8121 237.135448 
L 248.58264 236.56352 
L 249.199072 236.303152 
L 249.969612 236.190086 
L 251.818908 235.992847 
L 252.43534 235.634803 
L 253.20588 234.852131 
L 253.822312 233.99785 
L 255.363392 231.38664 
L 256.442148 229.875945 
L 257.82912 228.695027 
L 260.14074 226.941238 
L 261.373604 224.834431 
L 262.914684 220.945882 
L 265.226304 214.252968 
L 266.30506 210.936662 
L 267.537924 206.490319 
L 269.541328 197.805548 
L 270.620084 193.492057 
L 271.390624 191.320237 
L 271.852948 190.533482 
L 272.315272 190.280338 
L 272.623488 190.364824 
L 272.931704 190.669162 
L 273.394028 191.593481 
L 273.856352 192.897516 
L 274.626892 195.996168 
L 275.859756 202.164265 
L 276.938512 207.631349 
L 278.171376 212.834925 
L 279.250132 216.459651 
L 280.17478 219.110435 
L 282.640508 225.627153 
L 283.873372 228.429006 
L 284.181588 228.947228 
L 284.79802 230.018534 
L 286.493208 232.310017 
L 287.10964 233.010716 
L 290.037692 237.283063 
L 290.96234 238.6675 
L 292.195204 240.157781 
L 293.119852 241.003582 
L 296.972552 244.368569 
L 298.513632 245.72474 
L 299.900604 246.636811 
L 302.212224 248.112016 
L 310.071732 253.677719 
L 312.383352 254.895383 
L 315.773728 256.677752 
L 317.1607 257.627512 
L 318.239456 258.612133 
L 319.164104 259.760701 
L 320.088752 261.324161 
L 321.0134 263.402702 
L 321.938048 266.024276 
L 323.170912 270.228155 
L 326.098964 280.658548 
L 327.17772 283.54517 
L 328.102368 285.376001 
L 328.872908 286.472275 
L 329.643448 287.243766 
L 330.568096 287.848359 
L 331.646852 288.269946 
L 333.187932 288.61816 
L 336.732416 289.134734 
L 340.585116 289.480613 
L 344.90014 289.597725 
L 373.718336 289.734432 
L 384.505896 289.534838 
L 392.827728 289.673041 
L 417.793224 289.650045 
L 421.645924 289.477576 
L 434.436888 288.581564 
L 437.210832 288.651383 
L 439.67656 288.937096 
L 444.916232 289.690304 
L 444.916232 289.690304 
" clip-path="url(#pe162303763)" style="fill: none; stroke: #ff7f0e; stroke-width: 2; stroke-linecap: square"/>
   </g>
   <g id="line2d_3">
    <path d="M 59.492124 289.815998 
L 123.138728 289.704718 
L 156.88838 289.590128 
L 163.669132 289.651422 
L 176.15188 289.681954 
L 198.805756 289.693151 
L 220.380876 289.667598 
L 241.64778 289.470195 
L 245.192264 289.298337 
L 246.579236 289.018444 
L 247.349776 288.673713 
L 248.120316 288.066766 
L 248.736748 287.292856 
L 249.35318 286.161279 
L 249.969612 284.566507 
L 250.586044 282.408285 
L 251.356584 278.795462 
L 252.127124 274.104769 
L 253.20588 265.871637 
L 255.363392 246.708419 
L 256.596256 236.991916 
L 257.520904 231.265093 
L 258.291444 227.720456 
L 259.061984 225.096997 
L 259.832524 223.291072 
L 260.603064 222.101674 
L 261.68182 221.15003 
L 263.068792 220.51246 
L 264.301656 220.151275 
L 265.226304 220.028787 
L 265.688628 219.962831 
L 270.774192 218.93581 
L 272.007056 218.568343 
L 273.23992 218.348491 
L 273.702244 218.323366 
L 274.164568 218.254269 
L 274.626892 218.263692 
L 277.554944 218.059544 
L 278.325484 217.91821 
L 280.482996 217.462803 
L 280.94532 217.264937 
L 281.561752 217.11104 
L 282.4864 216.790685 
L 284.79802 216.106004 
L 287.417856 215.798212 
L 290.345908 214.997323 
L 292.657528 214.623575 
L 293.890392 214.196749 
L 294.352716 213.95397 
L 296.35612 212.982539 
L 297.434876 212.786557 
L 299.592388 212.769911 
L 300.20882 212.539381 
L 300.671144 212.350309 
L 303.599196 210.499157 
L 306.681356 209.895193 
L 308.376544 208.825144 
L 310.22584 207.09177 
L 311.458704 206.350556 
L 312.383352 206.091131 
L 314.232648 205.723036 
L 314.540864 205.599919 
L 315.465512 204.860589 
L 316.698376 203.435322 
L 318.547672 201.378452 
L 319.780536 200.566571 
L 320.859292 199.889114 
L 321.475724 199.31907 
L 321.938048 198.760961 
L 322.55448 197.830988 
L 323.170912 196.640334 
L 323.787344 195.290444 
L 325.020208 192.193048 
L 327.794152 185.267405 
L 328.7188 182.573279 
L 329.48934 179.746929 
L 330.568096 174.773883 
L 333.34204 160.595647 
L 333.804364 159.217805 
L 334.266688 158.454919 
L 334.574904 158.306048 
L 334.88312 158.490095 
L 335.191336 158.968744 
L 335.499552 159.76712 
L 335.961876 161.523421 
L 336.578308 164.736082 
L 337.657064 172.206329 
L 342.434412 207.530092 
L 343.975492 217.065751 
L 345.208356 223.169996 
L 346.133004 226.79488 
L 347.057652 229.873401 
L 349.831596 239.004219 
L 351.835 245.990258 
L 353.067864 249.558765 
L 354.300728 252.386058 
L 358.615752 261.582738 
L 361.697912 268.549273 
L 368.01634 281.802782 
L 368.940988 283.123463 
L 369.711528 283.902382 
L 370.482068 284.35745 
L 371.0985 284.475139 
L 371.714932 284.372233 
L 372.331364 284.040816 
L 372.947796 283.483212 
L 373.718336 282.463531 
L 374.642984 280.7887 
L 375.72174 278.305036 
L 377.571036 273.358404 
L 379.112116 269.445954 
L 380.499088 266.551921 
L 383.735356 260.150938 
L 384.814112 257.319656 
L 386.355192 252.559993 
L 387.896272 247.013417 
L 388.975028 242.25815 
L 390.053784 236.144074 
L 390.978432 229.413879 
L 391.90308 221.201319 
L 393.44416 204.725255 
L 396.218104 174.191904 
L 396.988644 167.877135 
L 397.605076 164.09757 
L 398.221508 161.765886 
L 398.529724 161.108215 
L 398.83794 160.818639 
L 398.992048 160.766189 
L 399.300264 161.066757 
L 399.60848 161.596286 
L 400.070804 163.05296 
L 400.687236 165.810843 
L 401.611884 171.324096 
L 404.23172 187.680435 
L 405.310476 192.675465 
L 406.235124 196.113318 
L 407.467988 199.979253 
L 411.16658 209.110323 
L 415.943928 218.386809 
L 417.176792 219.967856 
L 418.255548 220.931435 
L 419.180196 221.672021 
L 420.875384 223.498675 
L 421.95414 225.050514 
L 423.649328 227.353931 
L 424.419868 227.993072 
L 425.344516 228.252811 
L 426.423272 228.023537 
L 426.885596 227.83258 
L 427.964352 227.611158 
L 428.889 227.993072 
L 430.121864 229.408603 
L 432.7417 233.538674 
L 433.820456 234.610294 
L 434.745104 235.428771 
L 435.361536 236.202963 
L 435.977968 237.352787 
L 436.440292 238.573906 
L 437.056724 240.806972 
L 437.827264 244.647153 
L 438.751912 250.700298 
L 440.292992 262.875686 
L 441.834072 274.462185 
L 442.75872 279.889695 
L 443.52926 283.305437 
L 444.2998 285.773869 
L 444.916232 287.162767 
L 444.916232 287.162767 
" clip-path="url(#pe162303763)" style="fill: none; stroke: #2ca02c; stroke-width: 2; stroke-linecap: square"/>
   </g>
   <g id="line2d_4">
    <path d="M 59.492124 289.815955 
L 66.7352 289.710258 
L 68.584496 289.464504 
L 70.125576 289.040316 
L 71.666656 288.370192 
L 73.515952 287.285852 
L 80.913136 282.596384 
L 84.303512 280.915429 
L 87.231564 279.672922 
L 90.62194 278.407173 
L 94.936964 277.019688 
L 99.406096 275.773443 
L 103.72112 274.727577 
L 108.806684 273.597854 
L 111.580628 272.993261 
L 113.892248 272.513043 
L 118.207272 271.692053 
L 120.056568 271.327728 
L 123.909268 270.83526 
L 126.991428 270.031859 
L 128.686616 269.96873 
L 130.381804 269.865086 
L 131.614668 269.572683 
L 134.234504 268.826129 
L 135.621476 268.732221 
L 137.778988 268.616014 
L 138.857744 268.329579 
L 141.939904 267.31512 
L 143.635092 267.175357 
L 144.867956 266.983458 
L 145.792604 266.623843 
L 147.025468 265.853734 
L 148.566548 264.92596 
L 149.337088 264.743797 
L 149.95352 264.815092 
L 150.569952 265.096502 
L 151.340492 265.705806 
L 152.419248 266.897402 
L 155.193192 270.140214 
L 157.504812 272.703057 
L 160.586972 276.46472 
L 161.357512 276.983884 
L 161.973944 277.164476 
L 162.590376 277.117679 
L 163.206808 276.835641 
L 163.82324 276.326527 
L 164.59378 275.375512 
L 165.518428 273.793208 
L 166.597184 271.412842 
L 168.44648 266.569195 
L 169.833452 263.145789 
L 170.912208 261.068819 
L 171.836856 259.785827 
L 172.761504 258.868731 
L 174.764908 257.369657 
L 175.997772 256.262547 
L 177.384744 254.69469 
L 179.388148 252.399752 
L 180.158688 251.788564 
L 180.929228 251.458473 
L 181.54566 251.419213 
L 182.162092 251.578135 
L 182.932632 252.023492 
L 184.011388 252.968854 
L 188.018196 256.853634 
L 189.405168 257.818783 
L 191.408572 258.880352 
L 195.569488 260.649844 
L 198.189324 261.525168 
L 201.117376 262.392012 
L 202.35024 262.555645 
L 203.583104 262.501624 
L 204.66186 262.203254 
L 205.586508 261.684718 
L 206.511156 260.862786 
L 207.435804 259.707309 
L 208.668668 257.779837 
L 210.980288 254.176154 
L 212.213152 252.785435 
L 213.446016 251.734858 
L 214.832988 250.813993 
L 216.065852 250.239552 
L 216.9905 250.014989 
L 218.223364 249.971647 
L 219.764444 249.939297 
L 220.689092 249.660086 
L 221.61374 249.123333 
L 223.92536 247.591595 
L 224.6959 247.394043 
L 225.46644 247.42545 
L 226.699304 247.745177 
L 227.623952 247.907239 
L 228.240384 247.840342 
L 228.856816 247.585628 
L 229.627356 247.005533 
L 231.168436 245.393706 
L 232.093084 244.604439 
L 232.863624 244.262098 
L 233.480056 244.223467 
L 234.250596 244.396522 
L 235.945784 244.890246 
L 236.562216 244.82963 
L 237.178648 244.557014 
L 237.949188 243.932007 
L 239.182052 242.527154 
L 240.414916 241.212127 
L 241.185456 240.68354 
L 241.955996 240.452696 
L 242.726536 240.455523 
L 244.421724 240.661555 
L 245.192264 240.479078 
L 245.808696 240.103446 
L 246.425128 239.509532 
L 247.195668 238.535589 
L 249.199072 235.949505 
L 249.815504 235.459864 
L 250.431936 235.164949 
L 251.048368 235.046543 
L 252.743556 234.75571 
L 253.359988 234.376937 
L 254.284636 233.423095 
L 255.209284 232.110266 
L 256.750364 229.635364 
L 257.82912 228.159531 
L 259.832524 226.015035 
L 261.373604 223.847925 
L 262.298252 222.133082 
L 264.455764 216.731011 
L 265.688628 212.739132 
L 266.921492 207.971491 
L 268.924896 199.262223 
L 269.849544 195.574995 
L 270.774192 192.779738 
L 271.544732 191.38525 
L 271.852948 191.127709 
L 272.161164 190.983235 
L 272.623488 191.168539 
L 272.931704 191.536005 
L 273.394028 192.355738 
L 274.01046 193.941811 
L 274.626892 196.118343 
L 275.55154 199.990874 
L 278.017268 211.551933 
L 279.40424 217.078063 
L 280.637104 221.09067 
L 281.869968 224.21759 
L 283.873372 227.992444 
L 289.267152 236.764527 
L 290.808232 238.394884 
L 294.81504 242.249513 
L 297.280768 245.005197 
L 298.513632 245.956527 
L 302.674548 248.66667 
L 305.140276 250.68271 
L 306.37314 251.414188 
L 309.609408 253.174886 
L 312.999784 255.282636 
L 316.698376 257.308413 
L 318.085348 258.401704 
L 319.009996 259.385383 
L 319.934644 260.726792 
L 320.705184 262.217387 
L 321.629832 264.55284 
L 322.708588 268.027125 
L 324.249668 273.92983 
L 325.944856 280.278519 
L 327.023612 283.469666 
L 327.794152 285.193995 
L 328.564692 286.453714 
L 329.335232 287.310005 
L 330.105772 287.84996 
L 331.03042 288.212625 
L 332.263284 288.441095 
L 337.502956 289.17627 
L 340.431008 289.547567 
L 343.35906 289.698107 
L 350.448028 289.768685 
L 376.800496 289.782425 
L 392.211296 289.76669 
L 421.029492 289.609408 
L 425.80684 289.192881 
L 430.738296 288.832321 
L 435.977968 288.696389 
L 438.597804 288.85082 
L 441.525856 289.284983 
L 444.608016 289.67776 
L 444.916232 289.700631 
L 444.916232 289.700631 
" clip-path="url(#pe162303763)" style="fill: none; stroke: #d62728; stroke-width: 2; stroke-linecap: square"/>
   </g>
   <g id="line2d_5">
    <path d="M 59.492124 289.8114 
L 62.11196 289.697196 
L 63.190716 289.449457 
L 63.961256 289.055266 
L 64.577688 288.509998 
L 65.19412 287.658637 
L 65.810552 286.386621 
L 66.426984 284.564541 
L 67.043416 282.069257 
L 67.813956 277.836835 
L 68.584496 272.280406 
L 69.509144 263.949148 
L 71.050224 247.44352 
L 72.745412 229.711935 
L 73.824168 220.868957 
L 74.594708 216.076434 
L 75.365248 212.578837 
L 76.135788 210.134144 
L 76.906328 208.561288 
L 77.676868 207.578527 
L 79.372056 206.617028 
L 80.296704 206.397291 
L 81.221352 206.210671 
L 82.146 206.009469 
L 84.765836 205.796043 
L 86.306916 205.809159 
L 87.693888 205.776434 
L 92.779452 205.054997 
L 93.241776 205.065627 
L 93.858208 204.989567 
L 95.707504 204.938574 
L 98.481448 204.917365 
L 98.943772 204.896899 
L 107.419712 203.537577 
L 108.34436 203.619167 
L 109.423116 203.683493 
L 110.810088 203.558083 
L 114.354572 202.970846 
L 115.125112 202.907221 
L 116.974408 202.504034 
L 118.977812 201.722563 
L 119.90246 201.514056 
L 120.981216 201.515984 
L 122.21408 201.670907 
L 123.138728 201.658506 
L 123.909268 201.479995 
L 125.142132 200.877396 
L 126.529104 200.243351 
L 127.453752 200.099976 
L 130.073588 200.221617 
L 130.998236 199.860798 
L 132.2311 198.994439 
L 133.618072 198.0161 
L 134.54272 197.628703 
L 135.467368 197.436645 
L 137.162556 197.075901 
L 138.087204 196.559813 
L 139.16596 195.659006 
L 143.480984 191.282293 
L 144.251524 190.248307 
L 144.867956 189.216507 
L 145.484388 187.936225 
L 147.025468 183.532861 
L 148.104224 180.212497 
L 148.874764 178.473255 
L 149.337088 177.846457 
L 149.645304 177.641286 
L 149.95352 177.704991 
L 150.261736 177.965043 
L 150.569952 178.408877 
L 151.032276 179.566071 
L 151.4946 181.133225 
L 152.419248 185.562709 
L 154.114436 196.015917 
L 157.042488 214.623034 
L 159.662324 229.959971 
L 160.74108 234.972393 
L 161.51162 237.642366 
L 162.128052 239.140275 
L 162.744484 240.025229 
L 163.206808 240.28379 
L 163.515024 240.270992 
L 163.977348 239.948581 
L 164.439672 239.27803 
L 164.901996 238.263726 
L 165.518428 236.353161 
L 166.288968 233.125943 
L 167.213616 228.171805 
L 169.21702 215.66743 
L 170.295776 209.734179 
L 171.220424 205.83571 
L 172.145072 203.020936 
L 173.223828 200.587131 
L 174.6108 197.459051 
L 175.535448 194.755366 
L 176.614204 190.818592 
L 180.00458 177.424571 
L 180.77512 175.522548 
L 181.391552 174.608951 
L 181.853876 174.325396 
L 182.162092 174.332908 
L 182.624416 174.635442 
L 183.08674 175.26822 
L 183.703172 176.59383 
L 184.473712 178.848218 
L 185.706576 183.263394 
L 187.401764 189.166208 
L 188.326412 191.652602 
L 189.25106 193.524692 
L 190.329816 195.177472 
L 192.025004 197.750209 
L 193.566084 200.68905 
L 194.798948 202.900646 
L 195.723596 204.092245 
L 196.648244 204.855686 
L 198.651648 206.279588 
L 199.422188 207.172645 
L 200.500944 208.757472 
L 201.887916 210.779046 
L 202.658456 211.547533 
L 203.274888 211.868427 
L 203.89132 211.894113 
L 204.507752 211.630781 
L 205.124184 211.06816 
L 205.894724 209.980059 
L 206.819372 208.170122 
L 208.206344 204.744982 
L 210.517964 198.953527 
L 212.521368 194.666398 
L 214.524772 190.690565 
L 215.295312 189.61374 
L 215.911744 189.115433 
L 216.528176 188.996533 
L 216.9905 189.144134 
L 217.606932 189.582307 
L 219.148012 190.863153 
L 219.610336 190.96992 
L 220.07266 190.841683 
L 220.534984 190.460133 
L 221.151416 189.572989 
L 222.076064 187.733895 
L 223.15482 185.715069 
L 223.771252 185.04523 
L 224.233576 184.885811 
L 224.6959 185.017138 
L 225.158224 185.403965 
L 225.928764 186.425874 
L 226.853412 187.655182 
L 227.315736 188.027473 
L 227.77806 188.116433 
L 228.240384 187.879208 
L 228.702708 187.317459 
L 229.31914 186.122985 
L 230.552004 183.009651 
L 231.322544 181.341694 
L 231.938976 180.531633 
L 232.4013 180.304047 
L 232.709516 180.336715 
L 233.17184 180.620801 
L 233.94238 181.543126 
L 235.021136 182.912194 
L 235.48346 183.218147 
L 235.945784 183.240029 
L 236.408108 182.934803 
L 236.870432 182.323114 
L 237.640972 180.726776 
L 239.644376 176.032993 
L 240.260808 175.223974 
L 240.723132 174.921965 
L 241.185456 174.854068 
L 241.801888 175.049228 
L 243.342968 175.941971 
L 243.805292 176.00487 
L 244.267616 175.868193 
L 244.72994 175.496285 
L 245.192264 174.876202 
L 245.808696 173.67013 
L 246.579236 171.680133 
L 250.12372 160.779757 
L 250.89426 157.869171 
L 251.510692 154.840243 
L 252.281232 149.745337 
L 253.051772 143.042686 
L 253.97642 133.052625 
L 256.904472 100.205523 
L 257.82912 93.369392 
L 258.753768 88.32034 
L 262.144144 74.416604 
L 265.226304 57.22263 
L 266.921492 45.718418 
L 268.154356 35.794941 
L 269.849544 21.420094 
L 270.774192 15.234409 
L 271.390624 12.39895 
L 271.852948 11.158672 
L 272.161164 10.8 
L 272.46938 10.907099 
L 272.777596 11.393286 
L 273.23992 12.92471 
L 274.01046 17.304784 
L 274.781 23.626463 
L 276.476188 40.522066 
L 277.709052 52.292613 
L 278.941916 62.01634 
L 279.712456 67.253207 
L 281.099428 75.181217 
L 282.640508 82.505294 
L 285.722668 93.479694 
L 286.184992 94.823868 
L 288.804828 102.585575 
L 290.96234 108.208785 
L 292.195204 110.79176 
L 293.119852 112.377613 
L 296.510228 118.152615 
L 298.359524 121.646373 
L 299.284172 122.948711 
L 300.517036 124.178154 
L 302.52044 125.913883 
L 304.215628 128.146351 
L 305.756708 130.39892 
L 307.451896 132.074693 
L 308.992976 132.875142 
L 309.609408 133.103819 
L 311.612812 134.426038 
L 313.153892 135.916068 
L 314.07854 136.728043 
L 314.84908 137.210115 
L 316.236052 137.609648 
L 317.1607 137.827933 
L 317.623024 138.096956 
L 318.085348 138.480625 
L 318.70178 139.271636 
L 319.47232 140.873042 
L 320.24286 143.154559 
L 321.321616 147.443926 
L 322.55448 153.480573 
L 325.328424 167.868206 
L 326.253072 171.712308 
L 327.023612 174.134642 
L 327.640044 175.330602 
L 328.102368 175.797331 
L 328.564692 175.818018 
L 328.872908 175.589219 
L 329.335232 174.849917 
L 329.797556 173.700014 
L 330.722204 170.18214 
L 331.646852 165.668245 
L 333.187932 158.478562 
L 333.804364 156.717101 
L 334.266688 156.087269 
L 334.574904 156.029116 
L 334.88312 156.306118 
L 335.191336 156.880542 
L 335.499552 157.77613 
L 335.961876 159.679925 
L 336.578308 163.091375 
L 337.657064 170.896413 
L 341.972088 203.943033 
L 343.975492 216.707137 
L 345.208356 222.847003 
L 346.133004 226.489484 
L 347.057652 229.583879 
L 349.831596 238.766462 
L 351.835 245.790037 
L 353.067864 249.376021 
L 354.300728 252.217154 
L 358.615752 261.445146 
L 361.697912 268.430804 
L 368.01634 281.743026 
L 368.940988 283.067722 
L 369.711528 283.848034 
L 370.482068 284.30206 
L 371.0985 284.416452 
L 371.714932 284.307391 
L 372.331364 283.96633 
L 372.947796 283.394677 
L 373.718336 282.350575 
L 374.642984 280.635345 
L 375.72174 278.089908 
L 377.416928 273.436623 
L 379.266224 268.650283 
L 380.653196 265.763012 
L 383.581248 260.066757 
L 384.814112 256.918217 
L 386.355192 252.214442 
L 387.742164 247.310333 
L 388.82092 242.714992 
L 389.745568 237.787547 
L 390.670216 231.567363 
L 391.748972 222.434743 
L 392.981836 209.689222 
L 396.680428 169.95924 
L 397.450968 164.70536 
L 397.913292 162.54185 
L 398.375616 161.144271 
L 398.683832 160.668817 
L 398.992048 160.535551 
L 399.300264 160.835939 
L 399.60848 161.365202 
L 400.070804 162.821468 
L 400.687236 165.578731 
L 401.611884 171.090492 
L 404.23172 187.440436 
L 405.310476 192.432338 
L 406.235124 195.867464 
L 407.467988 199.728752 
L 411.16658 208.841197 
L 414.24874 215.135558 
L 414.865172 216.326657 
L 416.56036 218.923246 
L 417.3309 219.825374 
L 418.563764 220.786814 
L 419.488412 221.54093 
L 420.567168 222.517514 
L 421.645924 223.796668 
L 422.262356 224.666913 
L 423.803436 226.35452 
L 424.573976 226.763733 
L 425.344516 226.82227 
L 426.731488 226.234161 
L 427.502028 225.841553 
L 428.272568 225.804699 
L 428.889 226.021837 
L 430.121864 227.292237 
L 432.7417 231.186262 
L 433.820456 232.196668 
L 434.590996 232.835258 
L 435.207428 233.521807 
L 435.82386 234.563304 
L 436.440292 236.178836 
L 437.056724 238.471408 
L 437.827264 242.426146 
L 438.751912 248.680445 
L 440.138884 260.016088 
L 441.834072 273.441758 
L 442.75872 279.164056 
L 443.52926 282.788153 
L 444.2998 285.423794 
L 444.916232 286.916279 
L 444.916232 286.916279 
" clip-path="url(#pe162303763)" style="fill: none; stroke: #000000; stroke-width: 2; stroke-linecap: square"/>
   </g>
   <g id="matplotlib.axis_1">
    <g id="xtick_1">
     <g id="line2d_6">
      <defs>
       <path id="m0d40d1c3d3" d="M 0 0 
L 0 3.5 
" style="stroke: #000000; stroke-width: 0.8"/>
      </defs>
      <g>
       <use xlink:href="#m0d40d1c3d3" x="59.6" y="289.816" style="stroke: #000000; stroke-width: 0.8"/>
      </g>
     </g>
     <g id="text_1">
      <!-- −20 -->
      <g transform="translate(42.71625 308.9735) scale(0.16 -0.16)">
       <defs>
        <path id="DejaVuSans-2212" d="M 678 2272 
L 4684 2272 
L 4684 1741 
L 678 1741 
L 678 2272 
z
" transform="scale(0.015625)"/>
        <path id="DejaVuSans-32" d="M 1228 531 
L 3431 531 
L 3431 0 
L 469 0 
L 469 531 
Q 828 903 1448 1529 
Q 2069 2156 2228 2338 
Q 2531 2678 2651 2914 
Q 2772 3150 2772 3378 
Q 2772 3750 2511 3984 
Q 2250 4219 1831 4219 
Q 1534 4219 1204 4116 
Q 875 4013 500 3803 
L 500 4441 
Q 881 4594 1212 4672 
Q 1544 4750 1819 4750 
Q 2544 4750 2975 4387 
Q 3406 4025 3406 3419 
Q 3406 3131 3298 2873 
Q 3191 2616 2906 2266 
Q 2828 2175 2409 1742 
Q 1991 1309 1228 531 
z
" transform="scale(0.015625)"/>
        <path id="DejaVuSans-30" d="M 2034 4250 
Q 1547 4250 1301 3770 
Q 1056 3291 1056 2328 
Q 1056 1369 1301 889 
Q 1547 409 2034 409 
Q 2525 409 2770 889 
Q 3016 1369 3016 2328 
Q 3016 3291 2770 3770 
Q 2525 4250 2034 4250 
z
M 2034 4750 
Q 2819 4750 3233 4129 
Q 3647 3509 3647 2328 
Q 3647 1150 3233 529 
Q 2819 -91 2034 -91 
Q 1250 -91 836 529 
Q 422 1150 422 2328 
Q 422 3509 836 4129 
Q 1250 4750 2034 4750 
z
" transform="scale(0.015625)"/>
       </defs>
       <use xlink:href="#DejaVuSans-2212"/>
       <use xlink:href="#DejaVuSans-32" x="83.789062"/>
       <use xlink:href="#DejaVuSans-30" x="147.412109"/>
      </g>
     </g>
    </g>
    <g id="xtick_2">
     <g id="line2d_7">
      <g>
       <use xlink:href="#m0d40d1c3d3" x="136.654" y="289.816" style="stroke: #000000; stroke-width: 0.8"/>
      </g>
     </g>
     <g id="text_2">
      <!-- −15 -->
      <g transform="translate(119.77025 308.9735) scale(0.16 -0.16)">
       <defs>
        <path id="DejaVuSans-31" d="M 794 531 
L 1825 531 
L 1825 4091 
L 703 3866 
L 703 4441 
L 1819 4666 
L 2450 4666 
L 2450 531 
L 3481 531 
L 3481 0 
L 794 0 
L 794 531 
z
" transform="scale(0.015625)"/>
        <path id="DejaVuSans-35" d="M 691 4666 
L 3169 4666 
L 3169 4134 
L 1269 4134 
L 1269 2991 
Q 1406 3038 1543 3061 
Q 1681 3084 1819 3084 
Q 2600 3084 3056 2656 
Q 3513 2228 3513 1497 
Q 3513 744 3044 326 
Q 2575 -91 1722 -91 
Q 1428 -91 1123 -41 
Q 819 9 494 109 
L 494 744 
Q 775 591 1075 516 
Q 1375 441 1709 441 
Q 2250 441 2565 725 
Q 2881 1009 2881 1497 
Q 2881 1984 2565 2268 
Q 2250 2553 1709 2553 
Q 1456 2553 1204 2497 
Q 953 2441 691 2322 
L 691 4666 
z
" transform="scale(0.015625)"/>
       </defs>
       <use xlink:href="#DejaVuSans-2212"/>
       <use xlink:href="#DejaVuSans-31" x="83.789062"/>
       <use xlink:href="#DejaVuSans-35" x="147.412109"/>
      </g>
     </g>
    </g>
    <g id="xtick_3">
     <g id="line2d_8">
      <g>
       <use xlink:href="#m0d40d1c3d3" x="213.708" y="289.816" style="stroke: #000000; stroke-width: 0.8"/>
      </g>
     </g>
     <g id="text_3">
      <!-- −10 -->
      <g transform="translate(196.82425 308.9735) scale(0.16 -0.16)">
       <use xlink:href="#DejaVuSans-2212"/>
       <use xlink:href="#DejaVuSans-31" x="83.789062"/>
       <use xlink:href="#DejaVuSans-30" x="147.412109"/>
      </g>
     </g>
    </g>
    <g id="xtick_4">
     <g id="line2d_9">
      <g>
       <use xlink:href="#m0d40d1c3d3" x="290.762" y="289.816" style="stroke: #000000; stroke-width: 0.8"/>
      </g>
     </g>
     <g id="text_4">
      <!-- −5 -->
      <g transform="translate(278.96825 308.9735) scale(0.16 -0.16)">
       <use xlink:href="#DejaVuSans-2212"/>
       <use xlink:href="#DejaVuSans-35" x="83.789062"/>
      </g>
     </g>
    </g>
    <g id="xtick_5">
     <g id="line2d_10">
      <g>
       <use xlink:href="#m0d40d1c3d3" x="367.816" y="289.816" style="stroke: #000000; stroke-width: 0.8"/>
      </g>
     </g>
     <g id="text_5">
      <!-- 0 -->
      <g transform="translate(362.726 308.9735) scale(0.16 -0.16)">
       <use xlink:href="#DejaVuSans-30"/>
      </g>
     </g>
    </g>
    <g id="xtick_6">
     <g id="line2d_11">
      <g>
       <use xlink:href="#m0d40d1c3d3" x="444.87" y="289.816" style="stroke: #000000; stroke-width: 0.8"/>
      </g>
     </g>
     <g id="text_6">
      <!-- 5 -->
      <g transform="translate(439.78 308.9735) scale(0.16 -0.16)">
       <use xlink:href="#DejaVuSans-35"/>
      </g>
     </g>
    </g>
    <g id="text_7">
     <!-- $E$-$E_F$ (eV) -->
     <g transform="translate(212.095 329.978187) scale(0.18 -0.18)">
      <defs>
       <path id="DejaVuSans-Oblique-45" d="M 1081 4666 
L 4031 4666 
L 3928 4134 
L 1606 4134 
L 1338 2753 
L 3566 2753 
L 3463 2222 
L 1234 2222 
L 909 531 
L 3284 531 
L 3181 0 
L 172 0 
L 1081 4666 
z
" transform="scale(0.015625)"/>
       <path id="DejaVuSans-2d" d="M 313 2009 
L 1997 2009 
L 1997 1497 
L 313 1497 
L 313 2009 
z
" transform="scale(0.015625)"/>
       <path id="DejaVuSans-Oblique-46" d="M 1081 4666 
L 3756 4666 
L 3653 4134 
L 1606 4134 
L 1338 2759 
L 3188 2759 
L 3084 2228 
L 1234 2228 
L 800 0 
L 172 0 
L 1081 4666 
z
" transform="scale(0.015625)"/>
       <path id="DejaVuSans-20" transform="scale(0.015625)"/>
       <path id="DejaVuSans-28" d="M 1984 4856 
Q 1566 4138 1362 3434 
Q 1159 2731 1159 2009 
Q 1159 1288 1364 580 
Q 1569 -128 1984 -844 
L 1484 -844 
Q 1016 -109 783 600 
Q 550 1309 550 2009 
Q 550 2706 781 3412 
Q 1013 4119 1484 4856 
L 1984 4856 
z
" transform="scale(0.015625)"/>
       <path id="DejaVuSans-65" d="M 3597 1894 
L 3597 1613 
L 953 1613 
Q 991 1019 1311 708 
Q 1631 397 2203 397 
Q 2534 397 2845 478 
Q 3156 559 3463 722 
L 3463 178 
Q 3153 47 2828 -22 
Q 2503 -91 2169 -91 
Q 1331 -91 842 396 
Q 353 884 353 1716 
Q 353 2575 817 3079 
Q 1281 3584 2069 3584 
Q 2775 3584 3186 3129 
Q 3597 2675 3597 1894 
z
M 3022 2063 
Q 3016 2534 2758 2815 
Q 2500 3097 2075 3097 
Q 1594 3097 1305 2825 
Q 1016 2553 972 2059 
L 3022 2063 
z
" transform="scale(0.015625)"/>
       <path id="DejaVuSans-56" d="M 1831 0 
L 50 4666 
L 709 4666 
L 2188 738 
L 3669 4666 
L 4325 4666 
L 2547 0 
L 1831 0 
z
" transform="scale(0.015625)"/>
       <path id="DejaVuSans-29" d="M 513 4856 
L 1013 4856 
Q 1481 4119 1714 3412 
Q 1947 2706 1947 2009 
Q 1947 1309 1714 600 
Q 1481 -109 1013 -844 
L 513 -844 
Q 928 -128 1133 580 
Q 1338 1288 1338 2009 
Q 1338 2731 1133 3434 
Q 928 4138 513 4856 
z
" transform="scale(0.015625)"/>
      </defs>
      <use xlink:href="#DejaVuSans-Oblique-45" transform="translate(0 0.125)"/>
      <use xlink:href="#DejaVuSans-2d" transform="translate(63.183594 0.125)"/>
      <use xlink:href="#DejaVuSans-Oblique-45" transform="translate(99.267578 0.125)"/>
      <use xlink:href="#DejaVuSans-Oblique-46" transform="translate(162.451172 -16.28125) scale(0.7)"/>
      <use xlink:href="#DejaVuSans-20" transform="translate(205.449219 0.125)"/>
      <use xlink:href="#DejaVuSans-28" transform="translate(237.236328 0.125)"/>
      <use xlink:href="#DejaVuSans-65" transform="translate(276.25 0.125)"/>
      <use xlink:href="#DejaVuSans-56" transform="translate(337.773438 0.125)"/>
      <use xlink:href="#DejaVuSans-29" transform="translate(406.181641 0.125)"/>
     </g>
    </g>
   </g>
   <g id="matplotlib.axis_2">
    <g id="ytick_1">
     <g id="line2d_12">
      <defs>
       <path id="m9e08e09deb" d="M 0 0 
L -3.5 0 
" style="stroke: #000000; stroke-width: 0.8"/>
      </defs>
      <g>
       <use xlink:href="#m9e08e09deb" x="59.6" y="289.816" style="stroke: #000000; stroke-width: 0.8"/>
      </g>
     </g>
     <g id="text_8">
      <!-- 0 -->
      <g transform="translate(42.42 295.89475) scale(0.16 -0.16)">
       <use xlink:href="#DejaVuSans-30"/>
      </g>
     </g>
    </g>
    <g id="ytick_2">
     <g id="line2d_13">
      <g>
       <use xlink:href="#m9e08e09deb" x="59.6" y="258.408613" style="stroke: #000000; stroke-width: 0.8"/>
      </g>
     </g>
     <g id="text_9">
      <!-- 10 -->
      <g transform="translate(32.24 264.487363) scale(0.16 -0.16)">
       <use xlink:href="#DejaVuSans-31"/>
       <use xlink:href="#DejaVuSans-30" x="63.623047"/>
      </g>
     </g>
    </g>
    <g id="ytick_3">
     <g id="line2d_14">
      <g>
       <use xlink:href="#m9e08e09deb" x="59.6" y="227.001227" style="stroke: #000000; stroke-width: 0.8"/>
      </g>
     </g>
     <g id="text_10">
      <!-- 20 -->
      <g transform="translate(32.24 233.079977) scale(0.16 -0.16)">
       <use xlink:href="#DejaVuSans-32"/>
       <use xlink:href="#DejaVuSans-30" x="63.623047"/>
      </g>
     </g>
    </g>
    <g id="ytick_4">
     <g id="line2d_15">
      <g>
       <use xlink:href="#m9e08e09deb" x="59.6" y="195.59384" style="stroke: #000000; stroke-width: 0.8"/>
      </g>
     </g>
     <g id="text_11">
      <!-- 30 -->
      <g transform="translate(32.24 201.67259) scale(0.16 -0.16)">
       <defs>
        <path id="DejaVuSans-33" d="M 2597 2516 
Q 3050 2419 3304 2112 
Q 3559 1806 3559 1356 
Q 3559 666 3084 287 
Q 2609 -91 1734 -91 
Q 1441 -91 1130 -33 
Q 819 25 488 141 
L 488 750 
Q 750 597 1062 519 
Q 1375 441 1716 441 
Q 2309 441 2620 675 
Q 2931 909 2931 1356 
Q 2931 1769 2642 2001 
Q 2353 2234 1838 2234 
L 1294 2234 
L 1294 2753 
L 1863 2753 
Q 2328 2753 2575 2939 
Q 2822 3125 2822 3475 
Q 2822 3834 2567 4026 
Q 2313 4219 1838 4219 
Q 1578 4219 1281 4162 
Q 984 4106 628 3988 
L 628 4550 
Q 988 4650 1302 4700 
Q 1616 4750 1894 4750 
Q 2613 4750 3031 4423 
Q 3450 4097 3450 3541 
Q 3450 3153 3228 2886 
Q 3006 2619 2597 2516 
z
" transform="scale(0.015625)"/>
       </defs>
       <use xlink:href="#DejaVuSans-33"/>
       <use xlink:href="#DejaVuSans-30" x="63.623047"/>
      </g>
     </g>
    </g>
    <g id="ytick_5">
     <g id="line2d_16">
      <g>
       <use xlink:href="#m9e08e09deb" x="59.6" y="164.186453" style="stroke: #000000; stroke-width: 0.8"/>
      </g>
     </g>
     <g id="text_12">
      <!-- 40 -->
      <g transform="translate(32.24 170.265203) scale(0.16 -0.16)">
       <defs>
        <path id="DejaVuSans-34" d="M 2419 4116 
L 825 1625 
L 2419 1625 
L 2419 4116 
z
M 2253 4666 
L 3047 4666 
L 3047 1625 
L 3713 1625 
L 3713 1100 
L 3047 1100 
L 3047 0 
L 2419 0 
L 2419 1100 
L 313 1100 
L 313 1709 
L 2253 4666 
z
" transform="scale(0.015625)"/>
       </defs>
       <use xlink:href="#DejaVuSans-34"/>
       <use xlink:href="#DejaVuSans-30" x="63.623047"/>
      </g>
     </g>
    </g>
    <g id="ytick_6">
     <g id="line2d_17">
      <g>
       <use xlink:href="#m9e08e09deb" x="59.6" y="132.779066" style="stroke: #000000; stroke-width: 0.8"/>
      </g>
     </g>
     <g id="text_13">
      <!-- 50 -->
      <g transform="translate(32.24 138.857816) scale(0.16 -0.16)">
       <use xlink:href="#DejaVuSans-35"/>
       <use xlink:href="#DejaVuSans-30" x="63.623047"/>
      </g>
     </g>
    </g>
    <g id="ytick_7">
     <g id="line2d_18">
      <g>
       <use xlink:href="#m9e08e09deb" x="59.6" y="101.37168" style="stroke: #000000; stroke-width: 0.8"/>
      </g>
     </g>
     <g id="text_14">
      <!-- 60 -->
      <g transform="translate(32.24 107.45043) scale(0.16 -0.16)">
       <defs>
        <path id="DejaVuSans-36" d="M 2113 2584 
Q 1688 2584 1439 2293 
Q 1191 2003 1191 1497 
Q 1191 994 1439 701 
Q 1688 409 2113 409 
Q 2538 409 2786 701 
Q 3034 994 3034 1497 
Q 3034 2003 2786 2293 
Q 2538 2584 2113 2584 
z
M 3366 4563 
L 3366 3988 
Q 3128 4100 2886 4159 
Q 2644 4219 2406 4219 
Q 1781 4219 1451 3797 
Q 1122 3375 1075 2522 
Q 1259 2794 1537 2939 
Q 1816 3084 2150 3084 
Q 2853 3084 3261 2657 
Q 3669 2231 3669 1497 
Q 3669 778 3244 343 
Q 2819 -91 2113 -91 
Q 1303 -91 875 529 
Q 447 1150 447 2328 
Q 447 3434 972 4092 
Q 1497 4750 2381 4750 
Q 2619 4750 2861 4703 
Q 3103 4656 3366 4563 
z
" transform="scale(0.015625)"/>
       </defs>
       <use xlink:href="#DejaVuSans-36"/>
       <use xlink:href="#DejaVuSans-30" x="63.623047"/>
      </g>
     </g>
    </g>
    <g id="ytick_8">
     <g id="line2d_19">
      <g>
       <use xlink:href="#m9e08e09deb" x="59.6" y="69.964293" style="stroke: #000000; stroke-width: 0.8"/>
      </g>
     </g>
     <g id="text_15">
      <!-- 70 -->
      <g transform="translate(32.24 76.043043) scale(0.16 -0.16)">
       <defs>
        <path id="DejaVuSans-37" d="M 525 4666 
L 3525 4666 
L 3525 4397 
L 1831 0 
L 1172 0 
L 2766 4134 
L 525 4134 
L 525 4666 
z
" transform="scale(0.015625)"/>
       </defs>
       <use xlink:href="#DejaVuSans-37"/>
       <use xlink:href="#DejaVuSans-30" x="63.623047"/>
      </g>
     </g>
    </g>
    <g id="ytick_9">
     <g id="line2d_20">
      <g>
       <use xlink:href="#m9e08e09deb" x="59.6" y="38.556906" style="stroke: #000000; stroke-width: 0.8"/>
      </g>
     </g>
     <g id="text_16">
      <!-- 80 -->
      <g transform="translate(32.24 44.635656) scale(0.16 -0.16)">
       <defs>
        <path id="DejaVuSans-38" d="M 2034 2216 
Q 1584 2216 1326 1975 
Q 1069 1734 1069 1313 
Q 1069 891 1326 650 
Q 1584 409 2034 409 
Q 2484 409 2743 651 
Q 3003 894 3003 1313 
Q 3003 1734 2745 1975 
Q 2488 2216 2034 2216 
z
M 1403 2484 
Q 997 2584 770 2862 
Q 544 3141 544 3541 
Q 544 4100 942 4425 
Q 1341 4750 2034 4750 
Q 2731 4750 3128 4425 
Q 3525 4100 3525 3541 
Q 3525 3141 3298 2862 
Q 3072 2584 2669 2484 
Q 3125 2378 3379 2068 
Q 3634 1759 3634 1313 
Q 3634 634 3220 271 
Q 2806 -91 2034 -91 
Q 1263 -91 848 271 
Q 434 634 434 1313 
Q 434 1759 690 2068 
Q 947 2378 1403 2484 
z
M 1172 3481 
Q 1172 3119 1398 2916 
Q 1625 2713 2034 2713 
Q 2441 2713 2670 2916 
Q 2900 3119 2900 3481 
Q 2900 3844 2670 4047 
Q 2441 4250 2034 4250 
Q 1625 4250 1398 4047 
Q 1172 3844 1172 3481 
z
" transform="scale(0.015625)"/>
       </defs>
       <use xlink:href="#DejaVuSans-38"/>
       <use xlink:href="#DejaVuSans-30" x="63.623047"/>
      </g>
     </g>
    </g>
    <g id="text_17">
     <!-- DOS (States/eV) -->
     <g transform="translate(24.496563 223.157375) rotate(-90) scale(0.18 -0.18)">
      <defs>
       <path id="DejaVuSans-44" d="M 1259 4147 
L 1259 519 
L 2022 519 
Q 2988 519 3436 956 
Q 3884 1394 3884 2338 
Q 3884 3275 3436 3711 
Q 2988 4147 2022 4147 
L 1259 4147 
z
M 628 4666 
L 1925 4666 
Q 3281 4666 3915 4102 
Q 4550 3538 4550 2338 
Q 4550 1131 3912 565 
Q 3275 0 1925 0 
L 628 0 
L 628 4666 
z
" transform="scale(0.015625)"/>
       <path id="DejaVuSans-4f" d="M 2522 4238 
Q 1834 4238 1429 3725 
Q 1025 3213 1025 2328 
Q 1025 1447 1429 934 
Q 1834 422 2522 422 
Q 3209 422 3611 934 
Q 4013 1447 4013 2328 
Q 4013 3213 3611 3725 
Q 3209 4238 2522 4238 
z
M 2522 4750 
Q 3503 4750 4090 4092 
Q 4678 3434 4678 2328 
Q 4678 1225 4090 567 
Q 3503 -91 2522 -91 
Q 1538 -91 948 565 
Q 359 1222 359 2328 
Q 359 3434 948 4092 
Q 1538 4750 2522 4750 
z
" transform="scale(0.015625)"/>
       <path id="DejaVuSans-53" d="M 3425 4513 
L 3425 3897 
Q 3066 4069 2747 4153 
Q 2428 4238 2131 4238 
Q 1616 4238 1336 4038 
Q 1056 3838 1056 3469 
Q 1056 3159 1242 3001 
Q 1428 2844 1947 2747 
L 2328 2669 
Q 3034 2534 3370 2195 
Q 3706 1856 3706 1288 
Q 3706 609 3251 259 
Q 2797 -91 1919 -91 
Q 1588 -91 1214 -16 
Q 841 59 441 206 
L 441 856 
Q 825 641 1194 531 
Q 1563 422 1919 422 
Q 2459 422 2753 634 
Q 3047 847 3047 1241 
Q 3047 1584 2836 1778 
Q 2625 1972 2144 2069 
L 1759 2144 
Q 1053 2284 737 2584 
Q 422 2884 422 3419 
Q 422 4038 858 4394 
Q 1294 4750 2059 4750 
Q 2388 4750 2728 4690 
Q 3069 4631 3425 4513 
z
" transform="scale(0.015625)"/>
       <path id="DejaVuSans-74" d="M 1172 4494 
L 1172 3500 
L 2356 3500 
L 2356 3053 
L 1172 3053 
L 1172 1153 
Q 1172 725 1289 603 
Q 1406 481 1766 481 
L 2356 481 
L 2356 0 
L 1766 0 
Q 1100 0 847 248 
Q 594 497 594 1153 
L 594 3053 
L 172 3053 
L 172 3500 
L 594 3500 
L 594 4494 
L 1172 4494 
z
" transform="scale(0.015625)"/>
       <path id="DejaVuSans-61" d="M 2194 1759 
Q 1497 1759 1228 1600 
Q 959 1441 959 1056 
Q 959 750 1161 570 
Q 1363 391 1709 391 
Q 2188 391 2477 730 
Q 2766 1069 2766 1631 
L 2766 1759 
L 2194 1759 
z
M 3341 1997 
L 3341 0 
L 2766 0 
L 2766 531 
Q 2569 213 2275 61 
Q 1981 -91 1556 -91 
Q 1019 -91 701 211 
Q 384 513 384 1019 
Q 384 1609 779 1909 
Q 1175 2209 1959 2209 
L 2766 2209 
L 2766 2266 
Q 2766 2663 2505 2880 
Q 2244 3097 1772 3097 
Q 1472 3097 1187 3025 
Q 903 2953 641 2809 
L 641 3341 
Q 956 3463 1253 3523 
Q 1550 3584 1831 3584 
Q 2591 3584 2966 3190 
Q 3341 2797 3341 1997 
z
" transform="scale(0.015625)"/>
       <path id="DejaVuSans-73" d="M 2834 3397 
L 2834 2853 
Q 2591 2978 2328 3040 
Q 2066 3103 1784 3103 
Q 1356 3103 1142 2972 
Q 928 2841 928 2578 
Q 928 2378 1081 2264 
Q 1234 2150 1697 2047 
L 1894 2003 
Q 2506 1872 2764 1633 
Q 3022 1394 3022 966 
Q 3022 478 2636 193 
Q 2250 -91 1575 -91 
Q 1294 -91 989 -36 
Q 684 19 347 128 
L 347 722 
Q 666 556 975 473 
Q 1284 391 1588 391 
Q 1994 391 2212 530 
Q 2431 669 2431 922 
Q 2431 1156 2273 1281 
Q 2116 1406 1581 1522 
L 1381 1569 
Q 847 1681 609 1914 
Q 372 2147 372 2553 
Q 372 3047 722 3315 
Q 1072 3584 1716 3584 
Q 2034 3584 2315 3537 
Q 2597 3491 2834 3397 
z
" transform="scale(0.015625)"/>
       <path id="DejaVuSans-2f" d="M 1625 4666 
L 2156 4666 
L 531 -594 
L 0 -594 
L 1625 4666 
z
" transform="scale(0.015625)"/>
      </defs>
      <use xlink:href="#DejaVuSans-44"/>
      <use xlink:href="#DejaVuSans-4f" x="77.001953"/>
      <use xlink:href="#DejaVuSans-53" x="155.712891"/>
      <use xlink:href="#DejaVuSans-20" x="219.189453"/>
      <use xlink:href="#DejaVuSans-28" x="250.976562"/>
      <use xlink:href="#DejaVuSans-53" x="289.990234"/>
      <use xlink:href="#DejaVuSans-74" x="353.466797"/>
      <use xlink:href="#DejaVuSans-61" x="392.675781"/>
      <use xlink:href="#DejaVuSans-74" x="453.955078"/>
      <use xlink:href="#DejaVuSans-65" x="493.164062"/>
      <use xlink:href="#DejaVuSans-73" x="554.6875"/>
      <use xlink:href="#DejaVuSans-2f" x="606.787109"/>
      <use xlink:href="#DejaVuSans-65" x="640.478516"/>
      <use xlink:href="#DejaVuSans-56" x="702.001953"/>
      <use xlink:href="#DejaVuSans-29" x="770.410156"/>
     </g>
    </g>
   </g>
   <g id="line2d_21">
    <path d="M 367.816 289.816 
L 367.816 10.8 
" clip-path="url(#pe162303763)" style="fill: none; stroke-dasharray: 5.55,2.4; stroke-dashoffset: 0; stroke: #808080; stroke-width: 1.5"/>
   </g>
   <g id="line2d_22">
    <path d="M 367.816 289.816 
L 367.816 10.8 
" clip-path="url(#pe162303763)" style="fill: none; stroke-dasharray: 5.55,2.4; stroke-dashoffset: 0; stroke: #808080; stroke-width: 1.5"/>
   </g>
   <g id="line2d_23">
    <path d="M 367.816 289.816 
L 367.816 10.8 
" clip-path="url(#pe162303763)" style="fill: none; stroke-dasharray: 5.55,2.4; stroke-dashoffset: 0; stroke: #808080; stroke-width: 1.5"/>
   </g>
   <g id="line2d_24">
    <path d="M 367.816 289.816 
L 367.816 10.8 
" clip-path="url(#pe162303763)" style="fill: none; stroke-dasharray: 5.55,2.4; stroke-dashoffset: 0; stroke: #808080; stroke-width: 1.5"/>
   </g>
   <g id="line2d_25">
    <path d="M 367.816 289.816 
L 367.816 10.8 
" clip-path="url(#pe162303763)" style="fill: none; stroke-dasharray: 5.55,2.4; stroke-dashoffset: 0; stroke: #808080; stroke-width: 1.5"/>
   </g>
   <g id="patch_3">
    <path d="M 59.6 289.816 
L 59.6 10.8 
" style="fill: none; stroke: #000000; stroke-width: 0.8; stroke-linejoin: miter; stroke-linecap: square"/>
   </g>
   <g id="patch_4">
    <path d="M 444.87 289.816 
L 444.87 10.8 
" style="fill: none; stroke: #000000; stroke-width: 0.8; stroke-linejoin: miter; stroke-linecap: square"/>
   </g>
   <g id="patch_5">
    <path d="M 59.6 289.816 
L 444.87 289.816 
" style="fill: none; stroke: #000000; stroke-width: 0.8; stroke-linejoin: miter; stroke-linecap: square"/>
   </g>
   <g id="patch_6">
    <path d="M 59.6 10.8 
L 444.87 10.8 
" style="fill: none; stroke: #000000; stroke-width: 0.8; stroke-linejoin: miter; stroke-linecap: square"/>
   </g>
   <g id="legend_1">
    <g id="patch_7">
     <path d="M 382.516875 93.251563 
L 437.87 93.251563 
Q 439.87 93.251563 439.87 91.251563 
L 439.87 17.8 
Q 439.87 15.8 437.87 15.8 
L 382.516875 15.8 
Q 380.516875 15.8 380.516875 17.8 
L 380.516875 91.251563 
Q 380.516875 93.251563 382.516875 93.251563 
z
" style="fill: #ffffff; opacity: 0.8; stroke: #cccccc; stroke-linejoin: miter"/>
    </g>
    <g id="line2d_26">
     <path d="M 384.516875 23.898438 
L 394.516875 23.898438 
L 404.516875 23.898438 
" style="fill: none; stroke: #1f77b4; stroke-width: 2; stroke-linecap: square"/>
    </g>
    <g id="text_18">
     <!-- s -->
     <g transform="translate(412.516875 27.398438) scale(0.1 -0.1)">
      <use xlink:href="#DejaVuSans-73"/>
     </g>
    </g>
    <g id="line2d_27">
     <path d="M 384.516875 38.576563 
L 394.516875 38.576563 
L 404.516875 38.576563 
" style="fill: none; stroke: #ff7f0e; stroke-width: 2; stroke-linecap: square"/>
    </g>
    <g id="text_19">
     <!-- $p_x$ -->
     <g transform="translate(412.516875 42.076563) scale(0.1 -0.1)">
      <defs>
       <path id="DejaVuSans-Oblique-70" d="M 3175 2156 
Q 3175 2616 2975 2859 
Q 2775 3103 2400 3103 
Q 2144 3103 1911 2972 
Q 1678 2841 1497 2591 
Q 1319 2344 1212 1994 
Q 1106 1644 1106 1300 
Q 1106 863 1306 627 
Q 1506 391 1875 391 
Q 2147 391 2380 519 
Q 2613 647 2778 891 
Q 2956 1147 3065 1494 
Q 3175 1841 3175 2156 
z
M 1394 2969 
Q 1625 3272 1939 3428 
Q 2253 3584 2638 3584 
Q 3175 3584 3472 3232 
Q 3769 2881 3769 2247 
Q 3769 1728 3584 1258 
Q 3400 788 3053 416 
Q 2822 169 2531 39 
Q 2241 -91 1919 -91 
Q 1547 -91 1294 64 
Q 1041 219 916 525 
L 556 -1331 
L -19 -1331 
L 922 3500 
L 1497 3500 
L 1394 2969 
z
" transform="scale(0.015625)"/>
       <path id="DejaVuSans-Oblique-78" d="M 3841 3500 
L 2234 1784 
L 3219 0 
L 2559 0 
L 1819 1388 
L 531 0 
L -166 0 
L 1556 1844 
L 641 3500 
L 1300 3500 
L 1972 2234 
L 3144 3500 
L 3841 3500 
z
" transform="scale(0.015625)"/>
      </defs>
      <use xlink:href="#DejaVuSans-Oblique-70"/>
      <use xlink:href="#DejaVuSans-Oblique-78" transform="translate(63.476562 -16.40625) scale(0.7)"/>
     </g>
    </g>
    <g id="line2d_28">
     <path d="M 384.516875 53.275 
L 394.516875 53.275 
L 404.516875 53.275 
" style="fill: none; stroke: #2ca02c; stroke-width: 2; stroke-linecap: square"/>
    </g>
    <g id="text_20">
     <!-- $p_y$ -->
     <g transform="translate(412.516875 56.775) scale(0.1 -0.1)">
      <defs>
       <path id="DejaVuSans-Oblique-79" d="M 1588 -325 
Q 1188 -997 936 -1164 
Q 684 -1331 294 -1331 
L -159 -1331 
L -63 -850 
L 269 -850 
Q 509 -850 678 -719 
Q 847 -588 1056 -206 
L 1234 128 
L 459 3500 
L 1069 3500 
L 1650 819 
L 3256 3500 
L 3859 3500 
L 1588 -325 
z
" transform="scale(0.015625)"/>
      </defs>
      <use xlink:href="#DejaVuSans-Oblique-70"/>
      <use xlink:href="#DejaVuSans-Oblique-79" transform="translate(63.476562 -16.40625) scale(0.7)"/>
     </g>
    </g>
    <g id="line2d_29">
     <path d="M 384.516875 68.973438 
L 394.516875 68.973438 
L 404.516875 68.973438 
" style="fill: none; stroke: #d62728; stroke-width: 2; stroke-linecap: square"/>
    </g>
    <g id="text_21">
     <!-- $p_z$ -->
     <g transform="translate(412.516875 72.473438) scale(0.1 -0.1)">
      <defs>
       <path id="DejaVuSans-Oblique-7a" d="M 744 3500 
L 3475 3500 
L 3372 2975 
L 738 459 
L 2913 459 
L 2822 0 
L -19 0 
L 84 525 
L 2719 3041 
L 653 3041 
L 744 3500 
z
" transform="scale(0.015625)"/>
      </defs>
      <use xlink:href="#DejaVuSans-Oblique-70"/>
      <use xlink:href="#DejaVuSans-Oblique-7a" transform="translate(63.476562 -16.40625) scale(0.7)"/>
     </g>
    </g>
    <g id="line2d_30">
     <path d="M 384.516875 83.671875 
L 394.516875 83.671875 
L 404.516875 83.671875 
" style="fill: none; stroke: #000000; stroke-width: 2; stroke-linecap: square"/>
    </g>
    <g id="text_22">
     <!-- Total -->
     <g transform="translate(412.516875 87.171875) scale(0.1 -0.1)">
      <defs>
       <path id="DejaVuSans-54" d="M -19 4666 
L 3928 4666 
L 3928 4134 
L 2272 4134 
L 2272 0 
L 1638 0 
L 1638 4134 
L -19 4134 
L -19 4666 
z
" transform="scale(0.015625)"/>
       <path id="DejaVuSans-6f" d="M 1959 3097 
Q 1497 3097 1228 2736 
Q 959 2375 959 1747 
Q 959 1119 1226 758 
Q 1494 397 1959 397 
Q 2419 397 2687 759 
Q 2956 1122 2956 1747 
Q 2956 2369 2687 2733 
Q 2419 3097 1959 3097 
z
M 1959 3584 
Q 2709 3584 3137 3096 
Q 3566 2609 3566 1747 
Q 3566 888 3137 398 
Q 2709 -91 1959 -91 
Q 1206 -91 779 398 
Q 353 888 353 1747 
Q 353 2609 779 3096 
Q 1206 3584 1959 3584 
z
" transform="scale(0.015625)"/>
       <path id="DejaVuSans-6c" d="M 603 4863 
L 1178 4863 
L 1178 0 
L 603 0 
L 603 4863 
z
" transform="scale(0.015625)"/>
      </defs>
      <use xlink:href="#DejaVuSans-54"/>
      <use xlink:href="#DejaVuSans-6f" x="44.083984"/>
      <use xlink:href="#DejaVuSans-74" x="105.265625"/>
      <use xlink:href="#DejaVuSans-61" x="144.474609"/>
      <use xlink:href="#DejaVuSans-6c" x="205.753906"/>
     </g>
    </g>
   </g>
  </g>
 </g>
 <defs>
  <clipPath id="pe162303763">
   <rect x="59.6" y="10.8" width="385.27" height="279.016"/>
  </clipPath>
 </defs>
</svg>
