<?xml version="1.0" encoding="utf-8" standalone="no"?>
<!DOCTYPE svg PUBLIC "-//W3C//DTD SVG 1.1//EN"
  "http://www.w3.org/Graphics/SVG/1.1/DTD/svg11.dtd">
<svg xmlns:xlink="http://www.w3.org/1999/xlink" width="460.8pt" height="345.6pt" viewBox="0 0 460.8 345.6" xmlns="http://www.w3.org/2000/svg" version="1.1">
 <metadata>
  <rdf:RDF xmlns:dc="http://purl.org/dc/elements/1.1/" xmlns:cc="http://creativecommons.org/ns#" xmlns:rdf="http://www.w3.org/1999/02/22-rdf-syntax-ns#">
   <cc:Work>
    <dc:type rdf:resource="http://purl.org/dc/dcmitype/StillImage"/>
    <dc:date>2023-08-11T12:58:54.253276</dc:date>
    <dc:format>image/svg+xml</dc:format>
    <dc:creator>
     <cc:Agent>
      <dc:title>Matplotlib v3.7.1, https://matplotlib.org/</dc:title>
     </cc:Agent>
    </dc:creator>
   </cc:Work>
  </rdf:RDF>
 </metadata>
 <defs>
  <style type="text/css">*{stroke-linejoin: round; stroke-linecap: butt}</style>
 </defs>
 <g id="figure_1">
  <g id="patch_1">
   <path d="M 0 345.6 
L 460.8 345.6 
L 460.8 0 
L 0 0 
z
" style="fill: #ffffff"/>
  </g>
  <g id="axes_1">
   <g id="patch_2">
    <path d="M 59.51 289.816 
L 444.915 289.816 
L 444.915 10.8 
L 59.51 10.8 
z
" style="fill: #ffffff"/>
   </g>
   <g id="line2d_1">
    <path d="M 59.445766 281.875992 
L 60.473513 281.529284 
L 61.115854 281.518198 
L 61.886664 281.746984 
L 62.721708 282.280148 
L 63.813689 283.305758 
L 65.740714 285.198741 
L 66.639993 285.748232 
L 67.410803 285.942147 
L 68.117378 285.897901 
L 68.952423 285.632428 
L 71.586023 284.556526 
L 72.549536 284.566907 
L 73.448814 284.839334 
L 76.596288 286.112981 
L 77.367098 286.097258 
L 78.202143 285.873813 
L 79.101421 285.442041 
L 80.386104 284.622239 
L 82.570066 283.035144 
L 85.460603 280.641047 
L 87.516097 279.383627 
L 88.736546 279.387558 
L 89.443122 279.72842 
L 90.470868 280.681765 
L 91.691318 282.26241 
L 93.104469 284.073856 
L 93.939513 284.862011 
L 94.581855 285.233331 
L 95.224197 285.390539 
L 95.930773 285.329472 
L 96.701583 285.050574 
L 98.114734 284.255777 
L 99.399418 283.590199 
L 101.519145 282.955724 
L 103.44617 282.380633 
L 106.015537 281.318337 
L 107.235986 281.027465 
L 108.520669 280.938873 
L 110.961568 280.528771 
L 113.916339 279.389574 
L 114.622915 279.357423 
L 115.136788 279.445007 
L 117.449218 281.028957 
L 118.541199 282.042684 
L 119.697414 282.93477 
L 121.303268 283.521563 
L 122.973357 283.356998 
L 124.322274 282.831857 
L 125.928128 281.75662 
L 127.277046 280.41857 
L 128.625963 278.85517 
L 129.525242 277.957381 
L 130.231818 277.498224 
L 130.681457 277.34359 
L 131.066862 277.293708 
L 131.709203 277.453078 
L 132.287311 277.807104 
L 132.993887 278.456418 
L 135.04938 280.748224 
L 135.948658 281.410224 
L 136.976405 281.633075 
L 137.426044 281.543344 
L 138.389557 281.012166 
L 140.252348 279.122196 
L 144.363334 273.904357 
L 145.455315 272.212323 
L 146.033423 271.306377 
L 147.703511 269.008532 
L 148.345853 268.418706 
L 149.116663 268.036693 
L 149.502068 268.010931 
L 150.080175 268.123813 
L 150.594048 268.420228 
L 151.686029 269.49481 
L 154.448098 272.806563 
L 155.797016 273.265175 
L 156.246655 273.099944 
L 157.017465 272.45019 
L 157.659807 271.566388 
L 158.494851 270.10685 
L 160.678813 266.237925 
L 161.25692 265.590247 
L 161.770793 265.234267 
L 162.284667 265.10913 
L 162.670072 265.165721 
L 163.183945 265.44216 
L 164.147458 266.5408 
L 164.918268 267.851809 
L 168.322678 274.539386 
L 169.286191 275.545685 
L 170.313938 275.978706 
L 172.947538 275.634952 
L 174.232222 276.033494 
L 176.480418 278.228506 
L 176.930057 278.684629 
L 177.700867 279.216583 
L 178.535911 279.354379 
L 179.306721 278.983251 
L 179.884828 278.41461 
L 180.848341 277.093291 
L 182.261493 274.852259 
L 183.289239 273.626174 
L 183.867347 273.222179 
L 184.573923 273.124133 
L 185.537435 273.713264 
L 186.629416 275.334435 
L 187.400226 276.929683 
L 191.125808 285.646209 
L 192.282023 287.429553 
L 193.181301 288.380091 
L 194.080579 289.009442 
L 195.044092 289.413488 
L 196.264541 289.668073 
L 198.127332 289.791395 
L 203.523002 289.81598 
L 293.515069 289.711268 
L 295.506328 289.448687 
L 297.754524 288.868726 
L 301.480106 287.832846 
L 305.719561 286.799766 
L 306.875776 286.867415 
L 308.160459 287.295298 
L 309.766313 288.129987 
L 311.243699 288.805771 
L 312.271446 289.052688 
L 313.299193 289.055936 
L 314.262705 288.831082 
L 315.483154 288.274557 
L 319.465673 286.207258 
L 320.750356 285.975002 
L 322.291976 285.876623 
L 324.347469 285.715041 
L 326.081792 285.336507 
L 327.430709 284.77071 
L 328.843861 283.921678 
L 331.541696 282.271349 
L 333.211784 281.818563 
L 334.496467 281.812103 
L 335.845385 281.98202 
L 338.157815 282.292646 
L 339.121328 282.38033 
L 341.947631 283.031718 
L 342.782675 283.424586 
L 345.416276 284.647436 
L 346.315554 284.745804 
L 347.150598 284.607826 
L 348.049877 284.21264 
L 349.206092 283.377216 
L 350.233838 282.37126 
L 351.518522 280.78346 
L 354.344825 277.019061 
L 355.051401 276.512102 
L 355.757977 276.382087 
L 356.27185 276.582653 
L 356.657255 276.863849 
L 357.299597 277.62076 
L 357.941938 278.676001 
L 360.89671 284.296999 
L 361.603286 285.078603 
L 362.245628 285.446073 
L 362.759501 285.509266 
L 363.337608 285.344378 
L 363.97995 284.921173 
L 364.814994 284.092703 
L 367.962468 280.582591 
L 369.37562 279.662505 
L 370.017962 279.410538 
L 370.724538 279.26359 
L 371.495348 279.26359 
L 372.587328 279.60929 
L 373.358138 280.087021 
L 374.193183 280.804625 
L 376.505613 283.145909 
L 377.404891 283.73763 
L 378.111467 283.906953 
L 378.753808 283.78621 
L 379.331916 283.440409 
L 380.038492 282.716859 
L 380.873536 281.485946 
L 382.47939 278.472411 
L 383.828308 276.188575 
L 384.470649 275.46694 
L 385.112991 275.105114 
L 385.755333 275.078909 
L 386.269206 275.315658 
L 387.361187 276.364247 
L 388.838573 278.104538 
L 389.673617 278.720045 
L 390.123256 278.847541 
L 390.701363 278.770842 
L 391.664876 278.066239 
L 392.371452 277.233738 
L 393.656135 275.489113 
L 394.555413 274.544738 
L 395.454692 274.123448 
L 396.225502 274.2454 
L 396.482438 274.390533 
L 396.867843 274.686848 
L 397.510185 275.396389 
L 400.914596 280.691743 
L 402.006577 281.794354 
L 402.713153 282.213729 
L 403.612431 282.4532 
L 404.447475 282.43667 
L 405.667924 282.100747 
L 406.567203 281.59913 
L 407.338013 281.014766 
L 408.494228 279.834045 
L 410.678189 277.413139 
L 411.256297 276.983786 
L 411.77017 276.762054 
L 412.412512 276.692511 
L 413.504493 277.164195 
L 414.339537 277.863657 
L 416.523498 279.948842 
L 418.193587 281.04863 
L 420.441783 282.478296 
L 421.854934 283.728257 
L 423.781959 285.491024 
L 425.195111 286.437515 
L 426.544028 286.997287 
L 428.471053 287.494268 
L 430.911952 288.199879 
L 435.279875 289.503539 
L 437.142666 289.722615 
L 440.161672 289.809541 
L 443.501848 289.815885 
L 443.501848 289.815885 
" clip-path="url(#pa674d1ddc8)" style="fill: none; stroke: #1f77b4; stroke-width: 2; stroke-linecap: square"/>
   </g>
   <g id="line2d_2">
    <path d="M 59.445766 237.533697 
L 60.216576 235.306302 
L 60.794683 234.358903 
L 61.115854 234.187565 
L 61.308557 234.188573 
L 61.565493 234.353864 
L 61.950898 234.991846 
L 62.336303 236.025922 
L 62.914411 238.354104 
L 63.685221 242.594217 
L 66.061885 257.516756 
L 66.704227 260.078764 
L 67.089632 261.041281 
L 67.539271 261.598634 
L 67.796208 261.64802 
L 68.117378 261.450477 
L 68.631252 260.566574 
L 69.337828 258.5851 
L 70.429808 254.859 
L 71.007916 253.190974 
L 71.586023 252.186126 
L 71.971428 251.897875 
L 72.549536 252.21737 
L 73.127643 253.341146 
L 73.705751 255.090811 
L 76.018181 263.018724 
L 76.403586 263.547857 
L 76.724757 263.670817 
L 77.110162 263.365432 
L 77.559801 262.391829 
L 77.945206 260.990888 
L 78.523313 258.012629 
L 79.229889 252.989399 
L 80.193402 244.3207 
L 82.762768 218.600839 
L 83.469344 212.685644 
L 84.240154 207.472935 
L 84.94673 204.015937 
L 85.71754 201.956856 
L 86.038711 201.549676 
L 86.102945 201.620227 
L 86.616818 201.932667 
L 87.002223 202.773232 
L 87.25916 203.632946 
L 87.580331 205.142737 
L 88.222673 209.024048 
L 89.635824 221.874404 
L 92.140957 247.462235 
L 92.911767 252.313118 
L 93.489874 254.229081 
L 93.746811 254.595946 
L 94.003748 254.623158 
L 94.389153 254.075884 
L 94.838792 252.597338 
L 95.481133 249.070192 
L 96.251943 243.299223 
L 98.371671 226.285957 
L 99.656354 220.311599 
L 99.720588 220.243467 
L 100.041759 219.390002 
L 100.427164 218.688524 
L 100.684101 218.240021 
L 100.941037 217.895329 
L 101.583379 217.172686 
L 102.546892 215.270833 
L 103.895809 210.041998 
L 105.244727 202.877043 
L 106.400942 198.159198 
L 106.465176 198.209592 
L 106.722113 197.546413 
L 107.107518 196.965879 
L 107.364454 196.897344 
L 107.428688 196.942698 
L 107.557157 196.784462 
L 108.006796 197.248083 
L 108.327967 197.668365 
L 108.970308 199.123731 
L 109.098777 199.336392 
L 109.484182 200.34527 
L 110.961568 202.939531 
L 111.411207 203.198553 
L 112.053548 203.527119 
L 112.246251 203.462616 
L 112.567422 203.620851 
L 112.69589 203.553324 
L 112.888593 203.732725 
L 112.952827 203.709544 
L 113.145529 203.937323 
L 113.980573 205.002643 
L 114.23751 205.64768 
L 114.301744 205.711176 
L 114.815618 207.374163 
L 115.00832 208.037342 
L 115.457959 210.052077 
L 115.586428 210.594311 
L 116.036067 212.75821 
L 116.806877 216.861253 
L 117.384984 219.992709 
L 117.641921 221.231382 
L 118.605433 225.337449 
L 118.669668 225.42211 
L 119.055072 226.744437 
L 120.211288 228.868021 
L 120.339756 228.951675 
L 120.789395 229.210698 
L 120.853629 229.138131 
L 120.982098 229.265022 
L 121.110566 229.195781 
L 121.239034 229.268449 
L 121.495971 229.20969 
L 121.624439 229.233475 
L 121.94561 229.233979 
L 122.138313 229.298181 
L 122.331015 229.168669 
L 122.395249 229.399976 
L 122.459483 229.29556 
L 122.909123 229.557204 
L 123.037591 229.755351 
L 123.166059 229.855634 
L 123.936869 231.285098 
L 124.514977 232.910592 
L 124.579211 232.979127 
L 126.506236 239.814509 
L 126.955875 241.157195 
L 127.34128 242.12848 
L 127.726685 242.884887 
L 127.919388 243.322606 
L 127.983622 243.337018 
L 128.304793 243.839543 
L 128.369027 243.860708 
L 128.625963 244.187661 
L 128.947134 244.392259 
L 129.139837 244.514212 
L 129.268305 244.564605 
L 129.910647 244.830683 
L 130.745691 245.355784 
L 131.002628 245.634964 
L 131.516501 246.287057 
L 131.837672 246.92 
L 132.223077 247.63962 
L 132.801184 249.129253 
L 133.058121 249.77933 
L 134.021633 252.617495 
L 135.434785 256.324445 
L 136.077127 257.375654 
L 136.719468 257.881606 
L 137.104873 257.884629 
L 137.490278 257.671968 
L 138.196854 256.697357 
L 139.288835 254.09705 
L 141.858202 246.481576 
L 143.014417 243.604104 
L 143.271353 242.921775 
L 143.399822 242.624453 
L 143.785227 241.651858 
L 144.556037 239.794352 
L 145.005676 238.456907 
L 145.134144 238.20897 
L 145.904954 236.036 
L 146.226125 235.040224 
L 146.418828 234.632036 
L 146.739998 233.733015 
L 147.189638 232.52357 
L 148.217384 230.656993 
L 148.602789 230.253844 
L 148.731258 230.279041 
L 148.988194 230.193372 
L 149.180897 230.254852 
L 149.245131 230.245781 
L 149.502068 230.507828 
L 149.759004 230.792047 
L 150.658283 232.98719 
L 151.621795 236.815085 
L 152.585308 241.65085 
L 154.576567 251.139956 
L 155.283142 253.232296 
L 155.797016 254.100073 
L 156.182421 254.34801 
L 156.503592 254.294592 
L 156.760528 254.126278 
L 157.40287 253.099257 
L 158.045212 251.45038 
L 158.623319 249.620086 
L 160.550344 243.53053 
L 161.192686 242.221305 
L 161.642325 241.590378 
L 162.220433 241.180174 
L 162.734306 241.188237 
L 163.183945 241.426095 
L 163.954755 242.292864 
L 164.789799 243.647745 
L 166.845293 247.198273 
L 167.4234 247.959014 
L 167.487634 247.959115 
L 167.744571 248.299372 
L 167.937273 248.387057 
L 168.19421 248.637009 
L 168.322678 248.682565 
L 168.515381 248.801796 
L 168.836552 248.999742 
L 168.96502 248.983717 
L 169.157723 249.110708 
L 169.286191 249.053058 
L 169.800064 249.192749 
L 169.928533 249.18267 
L 170.057001 249.28245 
L 170.185469 249.25816 
L 170.378172 249.328812 
L 170.442406 249.287791 
L 170.635108 249.458827 
L 170.699343 249.435646 
L 170.892045 249.588842 
L 171.020513 249.630165 
L 171.27745 249.828716 
L 171.405918 249.873062 
L 172.690602 251.724521 
L 173.654114 254.242183 
L 177.122759 266.288258 
L 177.636633 267.113704 
L 178.086272 267.37313 
L 178.535911 267.158655 
L 178.921316 266.608156 
L 179.370955 265.533363 
L 179.949063 263.549872 
L 180.719873 260.026355 
L 183.546176 245.96353 
L 184.38122 243.845993 
L 184.638157 243.62023 
L 184.702391 243.482152 
L 184.766625 243.553711 
L 184.830859 243.546655 
L 184.959328 243.406561 
L 185.216264 243.585559 
L 185.280498 243.583443 
L 186.179777 245.505352 
L 186.950587 248.822457 
L 187.271758 250.542591 
L 188.042568 255.389745 
L 190.611934 273.448184 
L 191.703915 279.55553 
L 192.538959 283.095082 
L 193.374003 285.660412 
L 194.144813 287.287928 
L 194.787155 288.211073 
L 195.493731 288.882305 
L 196.328775 289.352824 
L 197.292288 289.625363 
L 198.705439 289.771879 
L 201.981382 289.8153 
L 289.725253 289.789083 
L 291.652278 289.621385 
L 292.744259 289.313662 
L 293.643538 288.814788 
L 294.350113 288.196179 
L 295.185158 287.134748 
L 296.084436 285.550897 
L 297.304885 282.743225 
L 298.782271 278.903589 
L 300.00272 275.91258 
L 302.122448 271.370589 
L 304.756048 265.433473 
L 305.334156 264.568528 
L 305.848029 264.194668 
L 306.297668 264.240385 
L 306.747308 264.681994 
L 307.132713 265.361581 
L 307.646586 266.701384 
L 308.545864 270.05395 
L 311.500636 282.037339 
L 312.014509 283.129812 
L 312.399914 283.616164 
L 312.849553 283.828058 
L 313.234958 283.682666 
L 313.556129 283.362506 
L 314.005768 282.572975 
L 314.776578 280.404576 
L 315.611623 277.194132 
L 317.602882 268.815413 
L 318.373692 266.682033 
L 318.887565 265.903777 
L 319.27297 265.706651 
L 319.594141 265.777477 
L 320.108014 266.382237 
L 320.750356 267.820941 
L 321.456932 270.03023 
L 322.484678 273.673605 
L 323.512425 276.956009 
L 324.475938 278.980892 
L 325.054045 279.590644 
L 325.632153 279.689617 
L 326.017558 279.501851 
L 326.402963 279.119666 
L 327.045304 278.031266 
L 327.880348 275.936305 
L 329.486203 270.509928 
L 331.284759 264.628395 
L 332.055569 262.949282 
L 332.633677 262.215552 
L 332.890613 262.013675 
L 333.276018 261.898375 
L 333.854126 262.142582 
L 334.496467 262.870769 
L 334.881873 263.488291 
L 335.716917 265.204696 
L 338.157815 270.701121 
L 339.121328 272.390413 
L 340.020606 273.730076 
L 341.176821 275.209429 
L 343.296548 277.198664 
L 343.93889 277.357504 
L 344.452763 277.227791 
L 345.287808 276.378559 
L 345.865915 275.278569 
L 346.379788 273.948481 
L 347.150598 271.300905 
L 347.985643 267.615221 
L 348.692218 263.874709 
L 349.976902 255.522381 
L 351.068883 246.705223 
L 352.867439 229.361878 
L 353.895186 219.652048 
L 354.665996 213.943467 
L 355.372572 210.873492 
L 355.629508 210.254659 
L 356.014913 210.199226 
L 356.27185 210.518721 
L 356.464553 210.914814 
L 357.685002 218.838697 
L 358.58428 228.510227 
L 361.153647 257.909826 
L 361.860223 262.943134 
L 362.374096 265.404355 
L 362.759501 266.589309 
L 363.144906 267.282321 
L 363.530311 267.505968 
L 363.787248 267.445496 
L 364.301121 266.907292 
L 364.943463 265.713772 
L 366.677785 261.943527 
L 367.384361 260.72229 
L 368.669044 259.151321 
L 370.531835 257.637701 
L 371.174177 257.43915 
L 371.495348 257.43915 
L 371.816518 257.534898 
L 372.266158 257.838267 
L 372.587328 258.213195 
L 373.22967 259.38031 
L 373.615075 260.290417 
L 374.450119 262.771796 
L 375.927505 267.902867 
L 376.762549 270.217947 
L 377.469125 271.321566 
L 377.790296 271.504999 
L 378.239935 271.393125 
L 378.753808 270.672497 
L 379.39615 268.951053 
L 380.231194 265.521268 
L 381.002004 261.554288 
L 382.607858 253.061966 
L 383.507137 249.662417 
L 383.956776 248.583995 
L 384.406415 247.983304 
L 384.727586 247.851273 
L 385.112991 247.992375 
L 385.626864 248.628341 
L 387.232718 252.790849 
L 388.003528 254.747127 
L 388.517402 255.599785 
L 388.902807 255.912225 
L 389.352446 255.823533 
L 389.737851 255.345802 
L 390.315958 253.913617 
L 390.9583 251.400995 
L 391.664876 247.801887 
L 393.784603 236.143843 
L 394.491179 233.619126 
L 394.940818 232.61831 
L 395.326223 232.228264 
L 395.58316 232.209114 
L 395.968565 232.486278 
L 396.675141 234.050494 
L 397.253248 236.181134 
L 398.152527 240.726632 
L 398.987571 245.805295 
L 401.492703 260.782258 
L 402.456216 264.699853 
L 403.098558 266.352762 
L 403.419728 266.900036 
L 403.933602 267.313263 
L 404.511709 267.036098 
L 404.897114 266.449517 
L 405.282519 265.490024 
L 405.924861 263.079197 
L 406.567203 259.607081 
L 407.338013 254.130309 
L 408.558462 242.945964 
L 410.806658 221.381555 
L 411.577468 216.456089 
L 412.155575 214.177293 
L 412.54098 213.462712 
L 412.669448 213.37402 
L 412.862151 213.334713 
L 413.376024 213.986805 
L 413.954132 215.864469 
L 414.532239 218.644177 
L 418.771694 246.314269 
L 421.276827 258.85924 
L 422.111871 261.918129 
L 422.818447 263.781683 
L 423.396554 264.593019 
L 423.910428 264.838939 
L 424.360067 264.676672 
L 425.066643 263.816958 
L 427.122136 259.942702 
L 427.571775 259.4559 
L 428.149882 259.33294 
L 428.599522 259.650419 
L 428.920693 260.09489 
L 429.563034 261.625847 
L 430.26961 264.107225 
L 430.847718 266.609769 
L 433.802489 280.776304 
L 434.701768 283.945957 
L 435.536812 286.131616 
L 436.307622 287.547323 
L 437.078432 288.495074 
L 437.849242 289.089557 
L 438.74852 289.479213 
L 439.840501 289.697156 
L 441.703292 289.800724 
L 443.501848 289.814494 
L 443.501848 289.814494 
" clip-path="url(#pa674d1ddc8)" style="fill: none; stroke: #ff7f0e; stroke-width: 2; stroke-linecap: square"/>
   </g>
   <g id="line2d_3">
    <path d="M 59.445766 244.629109 
L 59.766937 245.137076 
L 60.152342 246.096569 
L 60.666215 247.962139 
L 61.372791 251.470538 
L 62.336303 257.424032 
L 64.456031 270.78941 
L 65.291075 274.634438 
L 65.997651 276.888038 
L 66.511524 277.927455 
L 67.025398 278.476544 
L 67.410803 278.602326 
L 67.860442 278.446207 
L 68.245847 278.119052 
L 68.631252 277.659866 
L 69.723233 275.923808 
L 70.686745 274.496461 
L 71.329087 273.884179 
L 71.971428 273.660432 
L 72.292599 273.658013 
L 73.38458 274.251649 
L 74.091156 274.768485 
L 74.412327 274.895175 
L 74.797732 274.968144 
L 75.311605 274.74601 
L 75.761244 274.201054 
L 76.275118 273.105397 
L 76.788991 271.463474 
L 77.624035 267.634471 
L 78.651782 261.401898 
L 81.478085 244.077804 
L 82.441598 240.172404 
L 83.469344 237.121377 
L 84.368623 235.098076 
L 84.497091 234.910208 
L 85.010964 234.04989 
L 85.267901 233.728681 
L 85.460603 233.481753 
L 86.295648 232.999486 
L 86.616818 233.139379 
L 86.809521 233.179895 
L 87.708799 234.775154 
L 88.415375 237.17046 
L 89.314653 241.650749 
L 90.406634 248.758458 
L 92.590596 263.282484 
L 93.42564 267.033579 
L 94.067982 268.751293 
L 94.453387 269.282038 
L 94.774558 269.426365 
L 95.031494 269.376476 
L 95.481133 268.920616 
L 95.930773 268.100813 
L 96.637348 266.25782 
L 98.628608 260.577157 
L 99.656354 258.486127 
L 100.427164 257.073394 
L 101.326443 254.862729 
L 101.968784 252.450995 
L 102.611126 249.111112 
L 103.510404 242.787225 
L 106.400942 220.015386 
L 106.914815 217.953685 
L 107.30022 217.114834 
L 107.621391 216.881209 
L 107.814093 216.936945 
L 108.07103 217.246764 
L 108.456435 218.134497 
L 109.098777 220.484752 
L 110.319226 226.337459 
L 111.025802 229.43384 
L 112.053548 232.398795 
L 112.760124 233.344884 
L 113.4667 233.662464 
L 114.044808 233.695724 
L 114.23751 233.77847 
L 114.815618 234.079823 
L 115.072554 234.383697 
L 115.265257 234.620647 
L 116.54994 238.046199 
L 117.192282 240.890311 
L 119.312009 253.937605 
L 120.468224 260.970126 
L 121.495971 265.703088 
L 122.266781 267.929878 
L 122.71642 268.648894 
L 123.166059 268.959822 
L 123.744167 268.701404 
L 124.25804 267.910628 
L 124.707679 266.779293 
L 125.285787 264.754883 
L 125.992363 261.447856 
L 127.020109 255.253683 
L 130.039115 235.402553 
L 130.42452 233.786634 
L 131.066862 232.078695 
L 131.19533 231.9896 
L 131.388033 231.830356 
L 131.580735 231.860794 
L 131.773438 231.904031 
L 131.901906 232.083432 
L 132.608482 233.90012 
L 134.407038 243.94799 
L 136.077127 254.290259 
L 136.719468 257.014635 
L 137.233342 258.444098 
L 137.682981 259.086314 
L 138.004152 259.21905 
L 138.453791 258.893407 
L 138.774962 258.341598 
L 139.224601 257.190609 
L 139.802708 255.075592 
L 140.958923 249.092768 
L 145.198378 222.79328 
L 146.097657 219.061234 
L 146.290359 218.447844 
L 146.675764 217.400868 
L 147.639277 215.882711 
L 147.960448 215.755921 
L 148.024682 215.641125 
L 148.088916 215.749874 
L 148.281618 215.857414 
L 148.602789 216.027442 
L 148.859726 216.320934 
L 148.988194 216.496203 
L 150.144409 219.287098 
L 150.46558 220.505413 
L 150.529814 220.587353 
L 150.850985 221.984061 
L 151.107922 223.074073 
L 154.833503 241.009844 
L 155.604313 243.04272 
L 156.053953 243.606926 
L 156.375123 243.721622 
L 156.696294 243.576892 
L 157.081699 243.082833 
L 157.595573 241.861797 
L 158.237914 239.587536 
L 159.265661 234.883197 
L 159.972237 231.31745 
L 161.064218 226.920815 
L 161.192686 226.623493 
L 161.578091 225.694235 
L 161.899262 225.207434 
L 162.02773 225.113702 
L 162.413135 225.100599 
L 162.670072 225.324347 
L 162.991242 225.903369 
L 163.505116 227.504473 
L 164.083223 230.250921 
L 164.661331 233.87321 
L 165.496375 240.310684 
L 168.322678 263.640379 
L 169.093488 268.082591 
L 169.73583 270.783706 
L 170.313938 272.409734 
L 170.827811 273.333781 
L 171.534387 273.902855 
L 172.176728 273.988494 
L 172.754836 273.885399 
L 173.782583 273.813185 
L 174.489158 274.122399 
L 175.003032 274.580608 
L 175.90231 275.809959 
L 177.122759 277.945345 
L 178.343208 279.648365 
L 178.792848 280.010866 
L 179.370955 280.216955 
L 179.884828 280.163276 
L 180.462936 279.888289 
L 181.940322 278.680607 
L 182.454195 278.279031 
L 183.353473 277.913748 
L 184.124283 278.006089 
L 185.280498 278.959062 
L 186.179777 280.256524 
L 187.721397 283.037987 
L 189.134548 285.571143 
L 190.226529 287.152587 
L 191.190042 288.187122 
L 192.08932 288.860871 
L 193.117067 289.339116 
L 194.209048 289.612166 
L 195.814902 289.768411 
L 199.155078 289.814994 
L 286.513545 289.816 
L 301.608574 289.705518 
L 308.031991 289.45593 
L 313.170724 289.624629 
L 315.161983 289.385031 
L 319.144502 288.809937 
L 321.713868 288.555659 
L 322.548913 288.153837 
L 323.191254 287.59154 
L 323.89783 286.625518 
L 324.540172 285.376224 
L 325.310982 283.379496 
L 326.338728 279.895037 
L 330.000076 266.469755 
L 331.284759 263.656122 
L 331.798633 262.771816 
L 333.789892 258.983733 
L 337.0016 250.868768 
L 337.579708 250.087225 
L 337.900878 249.953823 
L 338.029347 249.884713 
L 338.671688 250.239564 
L 339.057093 250.800243 
L 339.506732 251.899195 
L 339.699435 252.45683 
L 341.497992 260.592043 
L 343.360783 270.185564 
L 344.131593 273.014457 
L 344.7097 274.408252 
L 345.223573 275.081963 
L 345.673213 275.262382 
L 346.058618 275.139261 
L 346.572491 274.636353 
L 347.02213 273.957552 
L 348.049877 271.993615 
L 349.463028 269.442592 
L 352.674737 264.791066 
L 354.087888 261.337192 
L 355.693743 257.391478 
L 356.400318 256.402454 
L 356.785723 256.210455 
L 357.171128 256.269617 
L 357.428065 256.478246 
L 357.877704 257.148782 
L 358.327343 258.194953 
L 358.905451 260.027262 
L 360.061666 264.771614 
L 361.025178 268.891387 
L 362.052925 272.255863 
L 362.759501 273.550473 
L 363.144906 273.84336 
L 363.530311 273.832878 
L 363.787248 273.682504 
L 363.97995 273.494939 
L 364.365355 272.924787 
L 364.943463 271.668475 
L 366.228146 267.661684 
L 370.14643 254.256293 
L 370.788772 252.869463 
L 371.366879 252.078284 
L 371.944987 251.831356 
L 372.45886 252.124646 
L 372.908499 252.813022 
L 373.293904 253.698941 
L 373.936246 255.740887 
L 374.707056 258.958012 
L 376.955252 268.381606 
L 377.469125 269.36932 
L 377.790296 269.605162 
L 377.982998 269.609193 
L 378.304169 269.292722 
L 378.689574 268.456189 
L 379.139213 266.811343 
L 379.717321 263.72121 
L 380.488131 258.20614 
L 383.057498 238.237191 
L 384.02101 234.910208 
L 384.149478 234.802366 
L 384.277947 234.590713 
L 384.342181 234.697548 
L 384.406415 234.621957 
L 384.727586 234.88098 
L 385.691098 237.797759 
L 386.783079 243.713962 
L 387.939294 249.999046 
L 388.517402 252.062158 
L 388.967041 252.850313 
L 389.288212 252.859384 
L 389.545148 252.511669 
L 389.802085 251.895859 
L 390.251724 249.980904 
L 390.765598 246.624694 
L 391.472173 240.156177 
L 392.628388 226.543871 
L 393.527667 215.573194 
L 394.234243 208.240932 
L 394.81235 203.899024 
L 395.133521 202.09695 
L 395.454692 200.934875 
L 395.647394 200.585144 
L 395.775863 200.446058 
L 395.904331 200.377522 
L 396.225502 200.688954 
L 397.12478 204.454361 
L 397.638653 208.179452 
L 398.216761 213.348823 
L 401.043064 241.364615 
L 401.942342 247.99439 
L 402.648918 251.944237 
L 403.29126 254.617111 
L 403.869368 256.246839 
L 404.383241 257.045073 
L 404.768646 257.269828 
L 405.089817 257.169041 
L 405.475222 256.706428 
L 405.924861 255.633045 
L 406.438734 253.697933 
L 407.14531 249.806543 
L 407.91612 243.998182 
L 411.127828 216.067051 
L 411.641702 213.466744 
L 411.834404 212.906367 
L 412.091341 212.121236 
L 412.669448 211.439915 
L 412.926385 211.565899 
L 413.119088 211.763442 
L 413.954132 213.736853 
L 414.532239 215.857414 
L 417.16584 225.707338 
L 419.927909 234.282305 
L 420.698719 237.68387 
L 422.368808 246.986519 
L 424.809706 260.890101 
L 425.708984 264.749239 
L 426.41556 267.169137 
L 427.507541 269.983214 
L 428.856458 272.701039 
L 430.590781 276.40298 
L 432.068167 280.173516 
L 433.738255 284.373496 
L 434.830236 286.516767 
L 435.729514 287.805658 
L 436.564558 288.631545 
L 437.463837 289.194825 
L 438.491583 289.546244 
L 439.840501 289.7392 
L 442.217165 289.81067 
L 443.501848 289.81501 
L 443.501848 289.81501 
" clip-path="url(#pa674d1ddc8)" style="fill: none; stroke: #2ca02c; stroke-width: 2; stroke-linecap: square"/>
   </g>
   <g id="line2d_4">
    <path d="M 59.445766 218.954602 
L 60.023873 215.827178 
L 60.601981 213.771121 
L 60.923152 213.191595 
L 61.180088 213.027312 
L 61.501259 213.220823 
L 61.82243 213.838648 
L 62.400538 216.052941 
L 63.235582 221.582122 
L 64.13486 229.444524 
L 65.997651 245.616823 
L 66.768461 249.706763 
L 67.2181 251.075452 
L 67.539271 251.554191 
L 67.860442 251.621718 
L 68.181613 251.389908 
L 68.695486 250.306447 
L 69.658998 246.951244 
L 70.879447 242.708107 
L 71.457555 241.566189 
L 71.971428 241.347481 
L 72.421068 241.748614 
L 72.934941 242.868358 
L 73.641517 245.322524 
L 75.118903 251.309278 
L 75.761244 252.962187 
L 76.210883 253.368359 
L 76.403586 253.341146 
L 76.724757 252.97025 
L 77.110162 251.979513 
L 77.559801 250.084715 
L 78.073674 247.00063 
L 78.651782 242.459163 
L 79.936465 229.507012 
L 81.413851 213.10895 
L 82.377363 203.679308 
L 83.276642 196.877186 
L 83.854749 193.773951 
L 84.432857 191.808603 
L 84.818262 191.364131 
L 85.010964 191.234116 
L 85.203667 191.447785 
L 85.524838 192.0132 
L 85.781774 192.717702 
L 86.295648 195.168845 
L 86.809521 198.723606 
L 87.580331 205.914766 
L 88.608078 218.057596 
L 89.635824 231.732391 
L 90.984742 248.389476 
L 91.819786 256.194429 
L 92.397893 259.966891 
L 92.847533 261.869751 
L 93.232938 262.687135 
L 93.489874 262.876614 
L 93.682577 262.827229 
L 94.003748 262.310191 
L 94.324918 261.336588 
L 94.710323 259.643364 
L 95.288431 256.135973 
L 96.187709 249.049631 
L 97.986266 234.276257 
L 98.628608 230.374789 
L 99.270949 227.720056 
L 99.656354 226.678925 
L 100.105993 226.019778 
L 100.684101 225.822235 
L 101.326443 226.162895 
L 102.611126 226.945003 
L 103.124999 226.811964 
L 103.703107 226.182045 
L 104.538151 224.531152 
L 105.887068 221.1568 
L 107.043283 219.491797 
L 107.171752 219.557309 
L 107.235986 219.454506 
L 107.30022 219.511954 
L 107.364454 219.520017 
L 107.428688 219.394033 
L 107.492923 219.489781 
L 107.685625 219.450474 
L 108.07103 219.772993 
L 108.135264 219.753843 
L 108.327967 220.016898 
L 108.456435 220.078378 
L 109.098777 220.878628 
L 109.419948 221.423886 
L 109.805353 221.726247 
L 110.062289 222.099159 
L 110.190758 222.125364 
L 110.38346 222.261427 
L 110.447694 222.263442 
L 110.576163 222.45393 
L 110.704631 222.426717 
L 110.833099 222.477111 
L 110.897333 222.445867 
L 110.961568 222.627284 
L 111.025802 222.585961 
L 111.090036 222.64341 
L 111.15427 222.56278 
L 111.282738 222.567819 
L 111.411207 222.656512 
L 111.603909 222.566812 
L 111.92508 222.618213 
L 112.117783 222.511379 
L 112.374719 222.586969 
L 112.503188 222.593016 
L 112.760124 222.699851 
L 112.888593 222.700858 
L 113.145529 222.880259 
L 113.209763 222.860102 
L 114.301744 224.727687 
L 114.879852 226.414863 
L 116.228769 231.920863 
L 118.348497 240.718569 
L 119.183541 243.048767 
L 120.018585 244.530338 
L 120.468224 245.043344 
L 121.110566 245.527122 
L 122.780654 246.58841 
L 123.679933 247.774675 
L 126.955875 254.508765 
L 127.084343 254.583448 
L 127.277046 254.806793 
L 128.240558 255.145336 
L 128.433261 255.033967 
L 128.625963 254.97168 
L 128.818666 254.837331 
L 129.011368 254.66438 
L 129.268305 254.423398 
L 130.681457 252.994338 
L 130.809925 252.906351 
L 131.066862 252.801734 
L 131.259564 252.695605 
L 131.452267 252.609634 
L 131.580735 252.642188 
L 131.709203 252.555713 
L 132.480013 252.927012 
L 133.058121 253.602689 
L 133.700463 254.73473 
L 134.728209 257.331106 
L 135.113614 258.543676 
L 135.755956 260.486045 
L 136.655234 263.011669 
L 137.426044 264.563791 
L 137.875683 265.035071 
L 138.196854 265.151379 
L 138.518025 265.064703 
L 139.031898 264.44083 
L 139.353069 263.786722 
L 140.188113 261.012053 
L 141.087392 256.671152 
L 142.75748 246.62167 
L 143.720993 240.947356 
L 145.455315 233.665488 
L 145.776486 232.826939 
L 145.84072 232.829963 
L 146.161891 232.127476 
L 146.547296 231.632612 
L 146.61153 231.655793 
L 146.804233 231.451195 
L 146.996935 231.37762 
L 147.189638 231.434061 
L 147.318106 231.417935 
L 148.410087 232.545743 
L 148.731258 233.173647 
L 148.795492 233.213961 
L 149.052428 233.860007 
L 149.116663 233.921487 
L 149.566302 235.162176 
L 150.080175 236.547999 
L 152.392605 244.338338 
L 152.842244 245.984091 
L 153.741523 249.000246 
L 154.191162 250.469419 
L 155.732782 253.775539 
L 156.375123 254.336923 
L 156.503592 254.259317 
L 156.760528 254.320797 
L 156.888997 254.245207 
L 157.210168 254.114184 
L 157.467104 253.83198 
L 157.531338 253.822909 
L 157.852509 253.361304 
L 157.980978 253.203068 
L 158.430617 252.412897 
L 158.559085 252.241559 
L 159.072958 251.212523 
L 159.137193 251.191357 
L 159.779534 249.962763 
L 160.229173 249.259269 
L 160.678813 248.690829 
L 161.578091 247.938958 
L 162.348901 247.905698 
L 162.541603 247.975241 
L 162.670072 247.987335 
L 162.927008 248.208059 
L 163.119711 248.256437 
L 164.789799 250.290321 
L 165.496375 251.552175 
L 166.138717 252.732392 
L 166.459888 253.412705 
L 166.781058 254.100073 
L 166.973761 254.412513 
L 167.680337 255.783218 
L 168.322678 256.762869 
L 169.029254 257.463339 
L 169.671596 257.717323 
L 170.378172 257.539937 
L 170.956279 257.110584 
L 172.690602 255.467754 
L 173.204475 255.289361 
L 173.654114 255.38007 
L 174.039519 255.671344 
L 174.617627 256.496791 
L 175.259968 257.966267 
L 175.966544 260.072717 
L 177.379696 264.647444 
L 178.150506 266.502935 
L 178.728613 267.274964 
L 178.98555 267.426144 
L 179.306721 267.420097 
L 179.563658 267.249767 
L 179.949063 266.76619 
L 180.398702 265.849733 
L 181.105277 263.769387 
L 181.876088 260.92588 
L 182.711132 257.69263 
L 183.481942 255.14836 
L 184.060049 253.81535 
L 184.38122 253.343465 
L 184.702391 253.098753 
L 184.959328 253.042817 
L 185.280498 253.223125 
L 185.858606 254.145931 
L 186.244011 255.188977 
L 186.950587 257.864169 
L 187.657163 261.331145 
L 191.254276 280.740121 
L 192.153554 283.970046 
L 192.988598 286.145565 
L 193.759408 287.546043 
L 194.530218 288.481962 
L 195.301028 289.071022 
L 196.200307 289.463505 
L 197.356522 289.694859 
L 199.219313 289.7994 
L 206.028134 289.815999 
L 292.615791 289.707343 
L 294.285879 289.442725 
L 295.570563 289.02393 
L 297.047948 288.282639 
L 300.323891 286.470011 
L 301.480106 286.035085 
L 305.719561 284.874671 
L 306.490371 284.95351 
L 307.518118 285.366424 
L 308.48163 286.038566 
L 311.821807 288.507371 
L 312.656851 288.703723 
L 313.363427 288.668992 
L 314.070003 288.452306 
L 314.969281 287.924202 
L 316.061262 286.958029 
L 317.602882 285.164086 
L 319.144502 283.069886 
L 322.227742 278.262593 
L 323.12702 277.12006 
L 324.026298 276.485333 
L 324.604406 276.389555 
L 324.989811 276.456054 
L 325.567918 276.777323 
L 326.916836 278.171965 
L 327.944583 279.382307 
L 329.036563 280.271451 
L 329.614671 280.462926 
L 330.385481 280.382428 
L 331.156291 279.839518 
L 331.734398 279.114143 
L 332.505208 277.669057 
L 333.276018 275.700262 
L 334.111063 272.991629 
L 337.77241 259.107378 
L 338.607454 257.350457 
L 338.864391 257.059989 
L 339.249796 256.762466 
L 339.827903 256.770831 
L 340.149074 256.981073 
L 340.727182 257.74 
L 341.176821 258.536923 
L 342.39727 261.332657 
L 343.489251 263.594622 
L 344.452763 264.512188 
L 344.966637 264.373404 
L 345.544744 263.617299 
L 345.994383 262.61356 
L 346.636725 260.545409 
L 347.471769 257.051926 
L 348.949155 249.865302 
L 350.041136 244.801354 
L 351.068883 240.779042 
L 352.096629 237.524626 
L 352.867439 235.678206 
L 353.445547 234.722744 
L 353.895186 234.304478 
L 354.409059 234.19462 
L 354.987167 234.705611 
L 355.629508 236.137795 
L 356.143382 237.960026 
L 356.914192 241.82118 
L 357.877704 248.210075 
L 360.575539 267.172161 
L 361.282115 270.075837 
L 361.795988 271.273894 
L 362.181393 271.624532 
L 362.502564 271.56537 
L 362.823735 271.191853 
L 363.337608 269.958219 
L 363.851482 268.080857 
L 364.622292 264.319583 
L 367.577063 248.155347 
L 368.283639 245.509787 
L 369.247152 243.096339 
L 370.210664 242.112153 
L 370.339133 242.071334 
L 371.174177 242.399698 
L 371.944987 243.576186 
L 373.165436 247.153624 
L 373.679309 249.226009 
L 374.193183 251.502386 
L 376.698315 262.958554 
L 377.726062 265.707926 
L 378.239935 266.350544 
L 378.561106 266.481769 
L 379.010745 266.282211 
L 379.781555 265.029427 
L 380.809302 262.031011 
L 382.415156 256.400035 
L 383.2502 254.257301 
L 383.699839 253.574973 
L 384.085244 253.275635 
L 384.534883 253.320989 
L 384.920288 253.639476 
L 385.626864 254.881173 
L 386.461908 256.974522 
L 387.296953 259.138421 
L 387.87506 260.19467 
L 388.196231 260.50207 
L 388.453168 260.61092 
L 388.774338 260.491992 
L 388.967041 260.294449 
L 389.480914 259.221066 
L 389.994788 257.339371 
L 390.637129 253.945869 
L 391.279471 249.583803 
L 392.692623 238.230136 
L 393.656135 230.94222 
L 394.362711 226.770642 
L 395.005053 224.216696 
L 395.390458 223.344888 
L 395.711628 222.943755 
L 395.904331 222.913519 
L 396.097033 222.965928 
L 396.482438 223.447691 
L 396.803609 224.1915 
L 397.381717 226.249572 
L 397.89559 228.730951 
L 399.501444 238.79152 
L 401.043064 248.178831 
L 401.878108 251.816238 
L 402.584684 253.764452 
L 403.098558 254.511285 
L 403.483963 254.703788 
L 403.740899 254.703788 
L 404.254773 254.270404 
L 404.897114 253.172832 
L 405.667924 250.989783 
L 406.695671 246.712378 
L 407.787652 240.595609 
L 409.136569 231.566092 
L 410.22855 224.682333 
L 410.935126 221.468232 
L 411.513233 219.946347 
L 411.834404 219.606694 
L 412.091341 219.584521 
L 412.412512 219.900993 
L 412.733683 220.596424 
L 413.183322 222.024577 
L 413.825663 224.994773 
L 414.917644 231.175038 
L 416.330796 238.363175 
L 417.679713 242.567005 
L 420.120612 248.477161 
L 421.341061 253.06499 
L 422.689978 258.53773 
L 423.910428 262.013877 
L 424.617003 263.083228 
L 425.195111 263.46118 
L 425.837453 263.529211 
L 426.222858 263.451403 
L 427.379073 263.441526 
L 427.828712 263.700045 
L 428.406819 264.370279 
L 429.113395 265.77626 
L 430.141142 268.917189 
L 431.04042 272.413191 
L 433.609787 282.449612 
L 434.637533 285.317075 
L 435.472578 286.99516 
L 436.243388 288.08226 
L 437.078432 288.85343 
L 437.913476 289.315036 
L 438.941223 289.61151 
L 440.418608 289.768914 
L 443.501848 289.814918 
L 443.501848 289.814918 
" clip-path="url(#pa674d1ddc8)" style="fill: none; stroke: #d62728; stroke-width: 2; stroke-linecap: square"/>
   </g>
   <g id="line2d_5">
    <path d="M 59.445766 113.652234 
L 59.766937 110.987422 
L 60.152342 108.901129 
L 60.216576 108.883996 
L 60.409278 108.437509 
L 60.537747 108.164376 
L 60.601981 108.238958 
L 60.730449 108.10088 
L 60.923152 108.580626 
L 61.115854 109.373821 
L 61.308557 110.332306 
L 61.82243 114.968513 
L 62.400538 122.792616 
L 63.492518 143.792013 
L 65.997651 195.658771 
L 66.575758 202.860715 
L 67.153866 207.111714 
L 67.475037 208.200517 
L 67.731973 208.420333 
L 68.310081 206.798467 
L 68.888188 203.17507 
L 69.851701 194.491455 
L 70.879447 185.780526 
L 71.521789 182.662274 
L 71.778726 182.086275 
L 71.84296 182.142817 
L 72.035663 181.883895 
L 72.228365 182.261947 
L 72.356833 182.415144 
L 73.320346 187.518398 
L 74.091156 194.229207 
L 75.440073 204.821226 
L 75.825478 206.273366 
L 76.082415 206.622493 
L 76.275118 206.525939 
L 76.532054 205.900757 
L 76.917459 203.736757 
L 77.23863 200.897584 
L 77.688269 195.276284 
L 78.394845 182.792188 
L 79.229889 163.424132 
L 82.698534 73.002073 
L 83.918983 51.379912 
L 84.818262 42.032009 
L 84.882496 41.762 
L 85.075198 40.511535 
L 85.203667 39.574316 
L 85.267901 39.619771 
L 85.460603 38.953568 
L 85.524838 38.930387 
L 85.589072 38.697468 
L 85.71754 38.928169 
L 85.781774 38.787975 
L 86.231413 39.954081 
L 87.066458 47.446998 
L 87.837268 60.228919 
L 88.543843 76.435889 
L 89.507356 103.765321 
L 91.241678 157.264628 
L 92.269425 182.821517 
L 92.911767 193.675885 
L 93.489874 199.395957 
L 93.811045 200.785509 
L 94.003748 201.009861 
L 94.132216 200.919656 
L 94.389153 200.119356 
L 94.774558 197.504576 
L 95.352665 190.650831 
L 96.123475 177.443487 
L 98.82131 127.794922 
L 99.270949 122.82766 
L 99.784823 118.643221 
L 100.427164 115.281004 
L 100.684101 114.370241 
L 100.941037 113.351948 
L 101.197974 112.568369 
L 101.583379 111.017659 
L 101.711848 110.481572 
L 102.097253 108.271915 
L 103.189233 98.237047 
L 104.602385 76.55119 
L 105.630132 59.68729 
L 106.400942 50.206146 
L 106.722113 47.6649 
L 107.107518 45.703482 
L 107.428688 44.891239 
L 107.621391 44.734515 
L 108.199498 46.371096 
L 108.970308 51.164631 
L 109.933821 59.091638 
L 110.576163 63.649835 
L 111.15427 66.651679 
L 111.603909 68.291283 
L 111.668143 68.224764 
L 112.374719 69.581257 
L 112.438953 69.494984 
L 112.503188 69.543664 
L 112.760124 69.981181 
L 112.824358 69.925042 
L 113.017061 70.180034 
L 113.916339 72.45248 
L 114.173276 73.618285 
L 114.751383 77.097153 
L 115.201023 81.02261 
L 115.586428 85.263429 
L 116.357238 95.021112 
L 118.86237 132.225674 
L 119.568946 140.840059 
L 119.890117 144.060973 
L 120.468224 148.91737 
L 120.660927 150.317212 
L 121.367503 154.306779 
L 121.431737 154.352758 
L 121.817142 155.984048 
L 122.009844 156.624983 
L 122.202547 157.147242 
L 122.909123 159.112117 
L 123.037591 159.284009 
L 123.294528 160.05115 
L 123.358762 160.086677 
L 124.707679 163.292443 
L 124.964616 163.728337 
L 125.221553 164.209031 
L 125.285787 164.173111 
L 125.671192 164.521834 
L 125.863894 164.570434 
L 125.928128 164.636963 
L 125.992363 164.559277 
L 126.056597 164.589503 
L 126.313533 164.217356 
L 126.377768 164.215794 
L 126.955875 162.563611 
L 127.148578 161.857124 
L 127.598217 159.478457 
L 127.726685 158.863485 
L 129.268305 147.244327 
L 129.782178 143.619249 
L 130.360286 140.358173 
L 130.42452 140.238627 
L 130.617223 139.307094 
L 130.745691 139.152048 
L 131.002628 138.549678 
L 131.19533 138.311686 
L 131.259564 138.327707 
L 131.452267 138.545572 
L 131.773438 139.306947 
L 132.287311 141.788858 
L 132.480013 143.200273 
L 132.993887 147.598472 
L 134.728209 169.02423 
L 136.205595 186.425896 
L 137.104873 192.184659 
L 137.36181 192.991218 
L 137.747215 193.473868 
L 137.939918 193.299173 
L 138.068386 193.034416 
L 138.261088 192.468063 
L 138.774962 189.89519 
L 139.417303 184.56839 
L 140.830455 166.350394 
L 142.372075 141.409789 
L 143.399822 124.362184 
L 144.620271 106.051757 
L 145.391081 96.153002 
L 146.161891 87.936766 
L 146.868467 82.329859 
L 147.639277 78.614896 
L 148.281618 77.751917 
L 148.410087 77.808065 
L 148.538555 77.825512 
L 149.180897 79.685709 
L 150.46558 89.373859 
L 151.878732 107.637561 
L 154.126928 140.934225 
L 155.347377 152.855505 
L 155.797016 155.142687 
L 156.182421 155.887836 
L 156.246655 155.874462 
L 156.310889 156.061956 
L 156.567826 155.604705 
L 156.63206 155.586392 
L 157.017465 154.206758 
L 157.595573 150.434478 
L 158.237914 144.424472 
L 160.48611 118.729152 
L 161.385388 111.97176 
L 161.513857 111.590412 
L 161.899262 110.12538 
L 161.963496 109.917134 
L 162.02773 110.038955 
L 162.348901 109.778249 
L 162.477369 109.904405 
L 162.605838 110.061118 
L 162.79854 110.664622 
L 162.862774 110.71823 
L 163.505116 114.125842 
L 164.982502 129.278982 
L 168.258444 173.576346 
L 169.221957 181.403483 
L 169.73583 184.08317 
L 170.185469 185.520112 
L 170.50664 186.23563 
L 170.763577 186.502927 
L 171.148982 186.786734 
L 171.213216 186.735766 
L 171.405918 186.831413 
L 171.662855 186.800925 
L 171.791323 186.967617 
L 171.855558 186.819197 
L 171.919792 186.861266 
L 172.176728 186.996613 
L 172.240963 186.849423 
L 172.305197 186.946229 
L 172.626368 187.1499 
L 173.397177 188.784909 
L 174.296456 193.018572 
L 175.067266 198.809638 
L 177.636633 220.949672 
L 178.150506 223.209954 
L 178.471677 223.916099 
L 178.664379 224.053925 
L 178.98555 223.790186 
L 179.306721 222.875069 
L 179.75636 220.622497 
L 180.270233 216.82114 
L 181.105277 208.412452 
L 183.481942 183.291891 
L 183.867347 180.832655 
L 184.060049 180.075522 
L 184.316986 179.226814 
L 184.573923 178.767245 
L 184.766625 178.760391 
L 184.830859 178.726557 
L 185.15203 179.422522 
L 185.408967 180.397255 
L 185.730138 182.215182 
L 186.179777 185.916246 
L 186.950587 194.774818 
L 187.592928 204.176712 
L 188.941846 227.087738 
L 190.676168 255.045274 
L 191.639681 267.120169 
L 192.474725 275.040416 
L 193.309769 280.73058 
L 194.080579 284.316089 
L 194.851389 286.648986 
L 195.493731 287.895974 
L 196.136073 288.694813 
L 196.842648 289.22239 
L 197.613458 289.534434 
L 198.705439 289.727216 
L 200.696698 289.807948 
L 212.515785 289.816 
L 290.753 289.706032 
L 291.973449 289.46303 
L 292.872728 289.060762 
L 293.643538 288.460998 
L 294.414348 287.527958 
L 295.120923 286.311206 
L 295.955968 284.386496 
L 297.304885 280.239912 
L 300.452359 269.74588 
L 301.608574 266.515697 
L 302.829023 263.01736 
L 304.370643 258.379018 
L 305.141453 256.626514 
L 305.655327 255.957844 
L 306.040732 255.817633 
L 306.361903 255.98326 
L 306.618839 256.28648 
L 307.132713 257.43387 
L 307.646586 259.234427 
L 308.160459 261.597458 
L 309.123972 267.077642 
L 311.050997 277.783991 
L 311.629104 279.927208 
L 312.142978 281.185708 
L 312.528383 281.693095 
L 312.849553 281.822448 
L 313.170724 281.676624 
L 313.491895 281.264384 
L 313.8773 280.413741 
L 314.455408 278.480968 
L 315.097749 275.512053 
L 316.18973 269.097507 
L 317.859818 259.171547 
L 318.566394 256.118622 
L 319.144502 254.451932 
L 319.594141 253.694364 
L 320.108014 253.380776 
L 320.493419 253.475509 
L 321.071527 254.025096 
L 321.5854 254.759493 
L 323.448191 257.264818 
L 324.090533 257.366557 
L 324.732874 256.821964 
L 325.054045 256.322496 
L 325.824855 254.313835 
L 326.338728 252.413089 
L 327.302241 247.575447 
L 328.458456 240.175486 
L 332.37674 214.713863 
L 336.616195 194.575108 
L 337.258537 192.647252 
L 337.322771 192.648562 
L 337.579708 192.001207 
L 337.77241 191.783708 
L 337.836644 191.897497 
L 338.029347 191.507249 
L 338.157815 191.700156 
L 338.222049 191.542625 
L 338.414752 191.707009 
L 338.671688 192.064904 
L 339.570967 194.788978 
L 341.241055 206.41215 
L 342.011865 213.54818 
L 343.681953 227.08157 
L 344.003124 228.827001 
L 344.516998 230.591582 
L 344.902403 231.039681 
L 345.030871 231.023253 
L 345.287808 230.711619 
L 345.608978 229.822576 
L 346.058618 227.710078 
L 346.700959 223.015213 
L 348.049877 208.304831 
L 349.013389 195.83535 
L 350.747712 171.539912 
L 351.64699 157.932041 
L 352.353566 146.972652 
L 352.995908 136.875598 
L 354.087888 121.562006 
L 354.665996 115.417016 
L 355.244103 111.775578 
L 355.629508 110.806006 
L 356.079148 111.681846 
L 356.143382 111.855199 
L 356.978426 119.397099 
L 357.620768 129.952532 
L 358.391578 146.774908 
L 361.089413 210.986474 
L 361.795988 221.169096 
L 362.245628 225.225777 
L 362.631033 227.157765 
L 362.887969 227.678935 
L 363.080672 227.673593 
L 363.337608 227.184171 
L 363.658779 225.832415 
L 364.108418 222.788745 
L 364.879228 215.075306 
L 365.906975 202.57065 
L 366.870488 190.636549 
L 367.512829 183.4212 
L 369.054449 170.089888 
L 369.825259 165.520806 
L 369.953728 165.052347 
L 370.403367 163.254305 
L 370.467601 163.185669 
L 370.724538 162.491649 
L 371.109943 161.934297 
L 371.302645 161.999808 
L 371.431113 161.949415 
L 371.816518 162.629728 
L 372.073455 163.399741 
L 372.523094 165.543483 
L 373.101202 169.676762 
L 374.128948 180.738147 
L 375.734803 202.882082 
L 376.634081 213.841773 
L 377.276423 219.171092 
L 377.726062 221.215055 
L 377.982998 221.623747 
L 378.111467 221.660836 
L 378.239935 221.567709 
L 378.496872 220.904832 
L 378.818043 219.327514 
L 379.331916 214.930374 
L 379.910023 207.556386 
L 380.423897 199.250521 
L 381.644346 176.117058 
L 382.607858 158.625456 
L 383.314434 148.91361 
L 383.764073 144.810567 
L 384.277947 142.339267 
L 384.470649 141.873631 
L 384.727586 141.952245 
L 385.112991 143.19495 
L 385.755333 147.784795 
L 386.204972 152.322936 
L 387.553889 168.559436 
L 388.324699 175.527957 
L 388.902807 177.827919 
L 389.159743 177.763113 
L 389.41668 176.938372 
L 389.609383 175.97777 
L 390.059022 172.014721 
L 390.765598 161.285228 
L 391.793344 137.670809 
L 394.491179 70.98502 
L 394.940818 64.884377 
L 395.58316 60.597901 
L 395.775863 60.301587 
L 395.904331 60.326784 
L 395.968565 60.38524 
L 396.482438 63.211311 
L 397.253248 72.83144 
L 398.216761 91.733054 
L 399.051805 112.202915 
L 400.143786 139.419465 
L 401.300001 164.363266 
L 402.135045 177.784077 
L 402.841621 185.621786 
L 403.355494 189.292251 
L 403.676665 190.632216 
L 403.997836 191.39598 
L 404.383241 191.430752 
L 405.089817 188.743264 
L 405.410988 186.412965 
L 405.796393 182.775961 
L 406.502968 173.269722 
L 407.273778 158.832674 
L 408.108823 139.068726 
L 410.613955 73.142872 
L 411.448999 59.027638 
L 411.77017 55.685538 
L 412.155575 53.106396 
L 412.412512 52.390807 
L 412.54098 52.457327 
L 412.669448 52.458334 
L 413.31179 56.015111 
L 414.275303 67.84651 
L 417.101606 113.324373 
L 417.808182 122.390677 
L 421.276827 166.135909 
L 423.846193 198.621307 
L 424.552769 203.731112 
L 425.066643 206.236277 
L 425.708984 208.131377 
L 426.672497 209.56084 
L 427.057902 210.046735 
L 427.764478 211.413912 
L 428.406819 213.702586 
L 428.856458 216.049514 
L 429.434566 220.040381 
L 430.141142 226.366183 
L 431.168888 237.749875 
L 433.609787 266.168966 
L 434.509065 274.204935 
L 435.344109 279.837301 
L 436.114919 283.576851 
L 436.821495 285.950675 
L 437.528071 287.533252 
L 438.170412 288.458773 
L 438.876988 289.084962 
L 439.647798 289.464096 
L 440.675545 289.695115 
L 442.345633 289.799015 
L 443.501848 289.812308 
L 443.501848 289.812308 
" clip-path="url(#pa674d1ddc8)" style="fill: none; stroke: #000000; stroke-width: 2; stroke-linecap: square"/>
   </g>
   <g id="matplotlib.axis_1">
    <g id="xtick_1">
     <g id="line2d_6">
      <defs>
       <path id="m5857735e48" d="M 0 0 
L 0 3.5 
" style="stroke: #000000; stroke-width: 0.8"/>
      </defs>
      <g>
       <use xlink:href="#m5857735e48" x="59.51" y="289.816" style="stroke: #000000; stroke-width: 0.8"/>
      </g>
     </g>
     <g id="text_1">
      <!-- −3 -->
      <g transform="translate(47.71625 308.9735) scale(0.16 -0.16)">
       <defs>
        <path id="DejaVuSans-2212" d="M 678 2272 
L 4684 2272 
L 4684 1741 
L 678 1741 
L 678 2272 
z
" transform="scale(0.015625)"/>
        <path id="DejaVuSans-33" d="M 2597 2516 
Q 3050 2419 3304 2112 
Q 3559 1806 3559 1356 
Q 3559 666 3084 287 
Q 2609 -91 1734 -91 
Q 1441 -91 1130 -33 
Q 819 25 488 141 
L 488 750 
Q 750 597 1062 519 
Q 1375 441 1716 441 
Q 2309 441 2620 675 
Q 2931 909 2931 1356 
Q 2931 1769 2642 2001 
Q 2353 2234 1838 2234 
L 1294 2234 
L 1294 2753 
L 1863 2753 
Q 2328 2753 2575 2939 
Q 2822 3125 2822 3475 
Q 2822 3834 2567 4026 
Q 2313 4219 1838 4219 
Q 1578 4219 1281 4162 
Q 984 4106 628 3988 
L 628 4550 
Q 988 4650 1302 4700 
Q 1616 4750 1894 4750 
Q 2613 4750 3031 4423 
Q 3450 4097 3450 3541 
Q 3450 3153 3228 2886 
Q 3006 2619 2597 2516 
z
" transform="scale(0.015625)"/>
       </defs>
       <use xlink:href="#DejaVuSans-2212"/>
       <use xlink:href="#DejaVuSans-33" x="83.789062"/>
      </g>
     </g>
    </g>
    <g id="xtick_2">
     <g id="line2d_7">
      <g>
       <use xlink:href="#m5857735e48" x="123.744167" y="289.816" style="stroke: #000000; stroke-width: 0.8"/>
      </g>
     </g>
     <g id="text_2">
      <!-- −2 -->
      <g transform="translate(111.950417 308.9735) scale(0.16 -0.16)">
       <defs>
        <path id="DejaVuSans-32" d="M 1228 531 
L 3431 531 
L 3431 0 
L 469 0 
L 469 531 
Q 828 903 1448 1529 
Q 2069 2156 2228 2338 
Q 2531 2678 2651 2914 
Q 2772 3150 2772 3378 
Q 2772 3750 2511 3984 
Q 2250 4219 1831 4219 
Q 1534 4219 1204 4116 
Q 875 4013 500 3803 
L 500 4441 
Q 881 4594 1212 4672 
Q 1544 4750 1819 4750 
Q 2544 4750 2975 4387 
Q 3406 4025 3406 3419 
Q 3406 3131 3298 2873 
Q 3191 2616 2906 2266 
Q 2828 2175 2409 1742 
Q 1991 1309 1228 531 
z
" transform="scale(0.015625)"/>
       </defs>
       <use xlink:href="#DejaVuSans-2212"/>
       <use xlink:href="#DejaVuSans-32" x="83.789062"/>
      </g>
     </g>
    </g>
    <g id="xtick_3">
     <g id="line2d_8">
      <g>
       <use xlink:href="#m5857735e48" x="187.978333" y="289.816" style="stroke: #000000; stroke-width: 0.8"/>
      </g>
     </g>
     <g id="text_3">
      <!-- −1 -->
      <g transform="translate(176.184583 308.9735) scale(0.16 -0.16)">
       <defs>
        <path id="DejaVuSans-31" d="M 794 531 
L 1825 531 
L 1825 4091 
L 703 3866 
L 703 4441 
L 1819 4666 
L 2450 4666 
L 2450 531 
L 3481 531 
L 3481 0 
L 794 0 
L 794 531 
z
" transform="scale(0.015625)"/>
       </defs>
       <use xlink:href="#DejaVuSans-2212"/>
       <use xlink:href="#DejaVuSans-31" x="83.789062"/>
      </g>
     </g>
    </g>
    <g id="xtick_4">
     <g id="line2d_9">
      <g>
       <use xlink:href="#m5857735e48" x="252.2125" y="289.816" style="stroke: #000000; stroke-width: 0.8"/>
      </g>
     </g>
     <g id="text_4">
      <!-- 0 -->
      <g transform="translate(247.1225 308.9735) scale(0.16 -0.16)">
       <defs>
        <path id="DejaVuSans-30" d="M 2034 4250 
Q 1547 4250 1301 3770 
Q 1056 3291 1056 2328 
Q 1056 1369 1301 889 
Q 1547 409 2034 409 
Q 2525 409 2770 889 
Q 3016 1369 3016 2328 
Q 3016 3291 2770 3770 
Q 2525 4250 2034 4250 
z
M 2034 4750 
Q 2819 4750 3233 4129 
Q 3647 3509 3647 2328 
Q 3647 1150 3233 529 
Q 2819 -91 2034 -91 
Q 1250 -91 836 529 
Q 422 1150 422 2328 
Q 422 3509 836 4129 
Q 1250 4750 2034 4750 
z
" transform="scale(0.015625)"/>
       </defs>
       <use xlink:href="#DejaVuSans-30"/>
      </g>
     </g>
    </g>
    <g id="xtick_5">
     <g id="line2d_10">
      <g>
       <use xlink:href="#m5857735e48" x="316.446667" y="289.816" style="stroke: #000000; stroke-width: 0.8"/>
      </g>
     </g>
     <g id="text_5">
      <!-- 1 -->
      <g transform="translate(311.356667 308.9735) scale(0.16 -0.16)">
       <use xlink:href="#DejaVuSans-31"/>
      </g>
     </g>
    </g>
    <g id="xtick_6">
     <g id="line2d_11">
      <g>
       <use xlink:href="#m5857735e48" x="380.680833" y="289.816" style="stroke: #000000; stroke-width: 0.8"/>
      </g>
     </g>
     <g id="text_6">
      <!-- 2 -->
      <g transform="translate(375.590833 308.9735) scale(0.16 -0.16)">
       <use xlink:href="#DejaVuSans-32"/>
      </g>
     </g>
    </g>
    <g id="xtick_7">
     <g id="line2d_12">
      <g>
       <use xlink:href="#m5857735e48" x="444.915" y="289.816" style="stroke: #000000; stroke-width: 0.8"/>
      </g>
     </g>
     <g id="text_7">
      <!-- 3 -->
      <g transform="translate(439.825 308.9735) scale(0.16 -0.16)">
       <use xlink:href="#DejaVuSans-33"/>
      </g>
     </g>
    </g>
    <g id="text_8">
     <!-- $E$-$E_F$ (eV) -->
     <g transform="translate(212.0725 329.978187) scale(0.18 -0.18)">
      <defs>
       <path id="DejaVuSans-Oblique-45" d="M 1081 4666 
L 4031 4666 
L 3928 4134 
L 1606 4134 
L 1338 2753 
L 3566 2753 
L 3463 2222 
L 1234 2222 
L 909 531 
L 3284 531 
L 3181 0 
L 172 0 
L 1081 4666 
z
" transform="scale(0.015625)"/>
       <path id="DejaVuSans-2d" d="M 313 2009 
L 1997 2009 
L 1997 1497 
L 313 1497 
L 313 2009 
z
" transform="scale(0.015625)"/>
       <path id="DejaVuSans-Oblique-46" d="M 1081 4666 
L 3756 4666 
L 3653 4134 
L 1606 4134 
L 1338 2759 
L 3188 2759 
L 3084 2228 
L 1234 2228 
L 800 0 
L 172 0 
L 1081 4666 
z
" transform="scale(0.015625)"/>
       <path id="DejaVuSans-20" transform="scale(0.015625)"/>
       <path id="DejaVuSans-28" d="M 1984 4856 
Q 1566 4138 1362 3434 
Q 1159 2731 1159 2009 
Q 1159 1288 1364 580 
Q 1569 -128 1984 -844 
L 1484 -844 
Q 1016 -109 783 600 
Q 550 1309 550 2009 
Q 550 2706 781 3412 
Q 1013 4119 1484 4856 
L 1984 4856 
z
" transform="scale(0.015625)"/>
       <path id="DejaVuSans-65" d="M 3597 1894 
L 3597 1613 
L 953 1613 
Q 991 1019 1311 708 
Q 1631 397 2203 397 
Q 2534 397 2845 478 
Q 3156 559 3463 722 
L 3463 178 
Q 3153 47 2828 -22 
Q 2503 -91 2169 -91 
Q 1331 -91 842 396 
Q 353 884 353 1716 
Q 353 2575 817 3079 
Q 1281 3584 2069 3584 
Q 2775 3584 3186 3129 
Q 3597 2675 3597 1894 
z
M 3022 2063 
Q 3016 2534 2758 2815 
Q 2500 3097 2075 3097 
Q 1594 3097 1305 2825 
Q 1016 2553 972 2059 
L 3022 2063 
z
" transform="scale(0.015625)"/>
       <path id="DejaVuSans-56" d="M 1831 0 
L 50 4666 
L 709 4666 
L 2188 738 
L 3669 4666 
L 4325 4666 
L 2547 0 
L 1831 0 
z
" transform="scale(0.015625)"/>
       <path id="DejaVuSans-29" d="M 513 4856 
L 1013 4856 
Q 1481 4119 1714 3412 
Q 1947 2706 1947 2009 
Q 1947 1309 1714 600 
Q 1481 -109 1013 -844 
L 513 -844 
Q 928 -128 1133 580 
Q 1338 1288 1338 2009 
Q 1338 2731 1133 3434 
Q 928 4138 513 4856 
z
" transform="scale(0.015625)"/>
      </defs>
      <use xlink:href="#DejaVuSans-Oblique-45" transform="translate(0 0.125)"/>
      <use xlink:href="#DejaVuSans-2d" transform="translate(63.183594 0.125)"/>
      <use xlink:href="#DejaVuSans-Oblique-45" transform="translate(99.267578 0.125)"/>
      <use xlink:href="#DejaVuSans-Oblique-46" transform="translate(162.451172 -16.28125) scale(0.7)"/>
      <use xlink:href="#DejaVuSans-20" transform="translate(205.449219 0.125)"/>
      <use xlink:href="#DejaVuSans-28" transform="translate(237.236328 0.125)"/>
      <use xlink:href="#DejaVuSans-65" transform="translate(276.25 0.125)"/>
      <use xlink:href="#DejaVuSans-56" transform="translate(337.773438 0.125)"/>
      <use xlink:href="#DejaVuSans-29" transform="translate(406.181641 0.125)"/>
     </g>
    </g>
   </g>
   <g id="matplotlib.axis_2">
    <g id="ytick_1">
     <g id="line2d_13">
      <defs>
       <path id="mac780a3fd1" d="M 0 0 
L -3.5 0 
" style="stroke: #000000; stroke-width: 0.8"/>
      </defs>
      <g>
       <use xlink:href="#mac780a3fd1" x="59.51" y="289.816" style="stroke: #000000; stroke-width: 0.8"/>
      </g>
     </g>
     <g id="text_9">
      <!-- 0 -->
      <g transform="translate(42.33 295.89475) scale(0.16 -0.16)">
       <use xlink:href="#DejaVuSans-30"/>
      </g>
     </g>
    </g>
    <g id="ytick_2">
     <g id="line2d_14">
      <g>
       <use xlink:href="#mac780a3fd1" x="59.51" y="239.422447" style="stroke: #000000; stroke-width: 0.8"/>
      </g>
     </g>
     <g id="text_10">
      <!-- 5 -->
      <g transform="translate(42.33 245.501197) scale(0.16 -0.16)">
       <defs>
        <path id="DejaVuSans-35" d="M 691 4666 
L 3169 4666 
L 3169 4134 
L 1269 4134 
L 1269 2991 
Q 1406 3038 1543 3061 
Q 1681 3084 1819 3084 
Q 2600 3084 3056 2656 
Q 3513 2228 3513 1497 
Q 3513 744 3044 326 
Q 2575 -91 1722 -91 
Q 1428 -91 1123 -41 
Q 819 9 494 109 
L 494 744 
Q 775 591 1075 516 
Q 1375 441 1709 441 
Q 2250 441 2565 725 
Q 2881 1009 2881 1497 
Q 2881 1984 2565 2268 
Q 2250 2553 1709 2553 
Q 1456 2553 1204 2497 
Q 953 2441 691 2322 
L 691 4666 
z
" transform="scale(0.015625)"/>
       </defs>
       <use xlink:href="#DejaVuSans-35"/>
      </g>
     </g>
    </g>
    <g id="ytick_3">
     <g id="line2d_15">
      <g>
       <use xlink:href="#mac780a3fd1" x="59.51" y="189.028894" style="stroke: #000000; stroke-width: 0.8"/>
      </g>
     </g>
     <g id="text_11">
      <!-- 10 -->
      <g transform="translate(32.15 195.107644) scale(0.16 -0.16)">
       <use xlink:href="#DejaVuSans-31"/>
       <use xlink:href="#DejaVuSans-30" x="63.623047"/>
      </g>
     </g>
    </g>
    <g id="ytick_4">
     <g id="line2d_16">
      <g>
       <use xlink:href="#mac780a3fd1" x="59.51" y="138.635341" style="stroke: #000000; stroke-width: 0.8"/>
      </g>
     </g>
     <g id="text_12">
      <!-- 15 -->
      <g transform="translate(32.15 144.714091) scale(0.16 -0.16)">
       <use xlink:href="#DejaVuSans-31"/>
       <use xlink:href="#DejaVuSans-35" x="63.623047"/>
      </g>
     </g>
    </g>
    <g id="ytick_5">
     <g id="line2d_17">
      <g>
       <use xlink:href="#mac780a3fd1" x="59.51" y="88.241788" style="stroke: #000000; stroke-width: 0.8"/>
      </g>
     </g>
     <g id="text_13">
      <!-- 20 -->
      <g transform="translate(32.15 94.320538) scale(0.16 -0.16)">
       <use xlink:href="#DejaVuSans-32"/>
       <use xlink:href="#DejaVuSans-30" x="63.623047"/>
      </g>
     </g>
    </g>
    <g id="ytick_6">
     <g id="line2d_18">
      <g>
       <use xlink:href="#mac780a3fd1" x="59.51" y="37.848236" style="stroke: #000000; stroke-width: 0.8"/>
      </g>
     </g>
     <g id="text_14">
      <!-- 25 -->
      <g transform="translate(32.15 43.926986) scale(0.16 -0.16)">
       <use xlink:href="#DejaVuSans-32"/>
       <use xlink:href="#DejaVuSans-35" x="63.623047"/>
      </g>
     </g>
    </g>
    <g id="text_15">
     <!-- DOS (States/eV) -->
     <g transform="translate(24.406563 223.157375) rotate(-90) scale(0.18 -0.18)">
      <defs>
       <path id="DejaVuSans-44" d="M 1259 4147 
L 1259 519 
L 2022 519 
Q 2988 519 3436 956 
Q 3884 1394 3884 2338 
Q 3884 3275 3436 3711 
Q 2988 4147 2022 4147 
L 1259 4147 
z
M 628 4666 
L 1925 4666 
Q 3281 4666 3915 4102 
Q 4550 3538 4550 2338 
Q 4550 1131 3912 565 
Q 3275 0 1925 0 
L 628 0 
L 628 4666 
z
" transform="scale(0.015625)"/>
       <path id="DejaVuSans-4f" d="M 2522 4238 
Q 1834 4238 1429 3725 
Q 1025 3213 1025 2328 
Q 1025 1447 1429 934 
Q 1834 422 2522 422 
Q 3209 422 3611 934 
Q 4013 1447 4013 2328 
Q 4013 3213 3611 3725 
Q 3209 4238 2522 4238 
z
M 2522 4750 
Q 3503 4750 4090 4092 
Q 4678 3434 4678 2328 
Q 4678 1225 4090 567 
Q 3503 -91 2522 -91 
Q 1538 -91 948 565 
Q 359 1222 359 2328 
Q 359 3434 948 4092 
Q 1538 4750 2522 4750 
z
" transform="scale(0.015625)"/>
       <path id="DejaVuSans-53" d="M 3425 4513 
L 3425 3897 
Q 3066 4069 2747 4153 
Q 2428 4238 2131 4238 
Q 1616 4238 1336 4038 
Q 1056 3838 1056 3469 
Q 1056 3159 1242 3001 
Q 1428 2844 1947 2747 
L 2328 2669 
Q 3034 2534 3370 2195 
Q 3706 1856 3706 1288 
Q 3706 609 3251 259 
Q 2797 -91 1919 -91 
Q 1588 -91 1214 -16 
Q 841 59 441 206 
L 441 856 
Q 825 641 1194 531 
Q 1563 422 1919 422 
Q 2459 422 2753 634 
Q 3047 847 3047 1241 
Q 3047 1584 2836 1778 
Q 2625 1972 2144 2069 
L 1759 2144 
Q 1053 2284 737 2584 
Q 422 2884 422 3419 
Q 422 4038 858 4394 
Q 1294 4750 2059 4750 
Q 2388 4750 2728 4690 
Q 3069 4631 3425 4513 
z
" transform="scale(0.015625)"/>
       <path id="DejaVuSans-74" d="M 1172 4494 
L 1172 3500 
L 2356 3500 
L 2356 3053 
L 1172 3053 
L 1172 1153 
Q 1172 725 1289 603 
Q 1406 481 1766 481 
L 2356 481 
L 2356 0 
L 1766 0 
Q 1100 0 847 248 
Q 594 497 594 1153 
L 594 3053 
L 172 3053 
L 172 3500 
L 594 3500 
L 594 4494 
L 1172 4494 
z
" transform="scale(0.015625)"/>
       <path id="DejaVuSans-61" d="M 2194 1759 
Q 1497 1759 1228 1600 
Q 959 1441 959 1056 
Q 959 750 1161 570 
Q 1363 391 1709 391 
Q 2188 391 2477 730 
Q 2766 1069 2766 1631 
L 2766 1759 
L 2194 1759 
z
M 3341 1997 
L 3341 0 
L 2766 0 
L 2766 531 
Q 2569 213 2275 61 
Q 1981 -91 1556 -91 
Q 1019 -91 701 211 
Q 384 513 384 1019 
Q 384 1609 779 1909 
Q 1175 2209 1959 2209 
L 2766 2209 
L 2766 2266 
Q 2766 2663 2505 2880 
Q 2244 3097 1772 3097 
Q 1472 3097 1187 3025 
Q 903 2953 641 2809 
L 641 3341 
Q 956 3463 1253 3523 
Q 1550 3584 1831 3584 
Q 2591 3584 2966 3190 
Q 3341 2797 3341 1997 
z
" transform="scale(0.015625)"/>
       <path id="DejaVuSans-73" d="M 2834 3397 
L 2834 2853 
Q 2591 2978 2328 3040 
Q 2066 3103 1784 3103 
Q 1356 3103 1142 2972 
Q 928 2841 928 2578 
Q 928 2378 1081 2264 
Q 1234 2150 1697 2047 
L 1894 2003 
Q 2506 1872 2764 1633 
Q 3022 1394 3022 966 
Q 3022 478 2636 193 
Q 2250 -91 1575 -91 
Q 1294 -91 989 -36 
Q 684 19 347 128 
L 347 722 
Q 666 556 975 473 
Q 1284 391 1588 391 
Q 1994 391 2212 530 
Q 2431 669 2431 922 
Q 2431 1156 2273 1281 
Q 2116 1406 1581 1522 
L 1381 1569 
Q 847 1681 609 1914 
Q 372 2147 372 2553 
Q 372 3047 722 3315 
Q 1072 3584 1716 3584 
Q 2034 3584 2315 3537 
Q 2597 3491 2834 3397 
z
" transform="scale(0.015625)"/>
       <path id="DejaVuSans-2f" d="M 1625 4666 
L 2156 4666 
L 531 -594 
L 0 -594 
L 1625 4666 
z
" transform="scale(0.015625)"/>
      </defs>
      <use xlink:href="#DejaVuSans-44"/>
      <use xlink:href="#DejaVuSans-4f" x="77.001953"/>
      <use xlink:href="#DejaVuSans-53" x="155.712891"/>
      <use xlink:href="#DejaVuSans-20" x="219.189453"/>
      <use xlink:href="#DejaVuSans-28" x="250.976562"/>
      <use xlink:href="#DejaVuSans-53" x="289.990234"/>
      <use xlink:href="#DejaVuSans-74" x="353.466797"/>
      <use xlink:href="#DejaVuSans-61" x="392.675781"/>
      <use xlink:href="#DejaVuSans-74" x="453.955078"/>
      <use xlink:href="#DejaVuSans-65" x="493.164062"/>
      <use xlink:href="#DejaVuSans-73" x="554.6875"/>
      <use xlink:href="#DejaVuSans-2f" x="606.787109"/>
      <use xlink:href="#DejaVuSans-65" x="640.478516"/>
      <use xlink:href="#DejaVuSans-56" x="702.001953"/>
      <use xlink:href="#DejaVuSans-29" x="770.410156"/>
     </g>
    </g>
   </g>
   <g id="line2d_19">
    <path d="M 252.2125 289.816 
L 252.2125 10.8 
" clip-path="url(#pa674d1ddc8)" style="fill: none; stroke-dasharray: 5.55,2.4; stroke-dashoffset: 0; stroke: #808080; stroke-width: 1.5"/>
   </g>
   <g id="line2d_20">
    <path d="M 252.2125 289.816 
L 252.2125 10.8 
" clip-path="url(#pa674d1ddc8)" style="fill: none; stroke-dasharray: 5.55,2.4; stroke-dashoffset: 0; stroke: #808080; stroke-width: 1.5"/>
   </g>
   <g id="line2d_21">
    <path d="M 252.2125 289.816 
L 252.2125 10.8 
" clip-path="url(#pa674d1ddc8)" style="fill: none; stroke-dasharray: 5.55,2.4; stroke-dashoffset: 0; stroke: #808080; stroke-width: 1.5"/>
   </g>
   <g id="line2d_22">
    <path d="M 252.2125 289.816 
L 252.2125 10.8 
" clip-path="url(#pa674d1ddc8)" style="fill: none; stroke-dasharray: 5.55,2.4; stroke-dashoffset: 0; stroke: #808080; stroke-width: 1.5"/>
   </g>
   <g id="line2d_23">
    <path d="M 252.2125 289.816 
L 252.2125 10.8 
" clip-path="url(#pa674d1ddc8)" style="fill: none; stroke-dasharray: 5.55,2.4; stroke-dashoffset: 0; stroke: #808080; stroke-width: 1.5"/>
   </g>
   <g id="patch_3">
    <path d="M 59.51 289.816 
L 59.51 10.8 
" style="fill: none; stroke: #000000; stroke-width: 0.8; stroke-linejoin: miter; stroke-linecap: square"/>
   </g>
   <g id="patch_4">
    <path d="M 444.915 289.816 
L 444.915 10.8 
" style="fill: none; stroke: #000000; stroke-width: 0.8; stroke-linejoin: miter; stroke-linecap: square"/>
   </g>
   <g id="patch_5">
    <path d="M 59.51 289.816 
L 444.915 289.816 
" style="fill: none; stroke: #000000; stroke-width: 0.8; stroke-linejoin: miter; stroke-linecap: square"/>
   </g>
   <g id="patch_6">
    <path d="M 59.51 10.8 
L 444.915 10.8 
" style="fill: none; stroke: #000000; stroke-width: 0.8; stroke-linejoin: miter; stroke-linecap: square"/>
   </g>
   <g id="legend_1">
    <g id="patch_7">
     <path d="M 382.561875 92.190625 
L 437.915 92.190625 
Q 439.915 92.190625 439.915 90.190625 
L 439.915 17.8 
Q 439.915 15.8 437.915 15.8 
L 382.561875 15.8 
Q 380.561875 15.8 380.561875 17.8 
L 380.561875 90.190625 
Q 380.561875 92.190625 382.561875 92.190625 
z
" style="fill: #ffffff; opacity: 0.8; stroke: #cccccc; stroke-linejoin: miter"/>
    </g>
    <g id="line2d_24">
     <path d="M 384.561875 23.898438 
L 394.561875 23.898438 
L 404.561875 23.898438 
" style="fill: none; stroke: #1f77b4; stroke-width: 2; stroke-linecap: square"/>
    </g>
    <g id="text_16">
     <!-- s -->
     <g transform="translate(412.561875 27.398438) scale(0.1 -0.1)">
      <use xlink:href="#DejaVuSans-73"/>
     </g>
    </g>
    <g id="line2d_25">
     <path d="M 384.561875 38.576563 
L 394.561875 38.576563 
L 404.561875 38.576563 
" style="fill: none; stroke: #ff7f0e; stroke-width: 2; stroke-linecap: square"/>
    </g>
    <g id="text_17">
     <!-- px -->
     <g transform="translate(412.561875 42.076563) scale(0.1 -0.1)">
      <defs>
       <path id="DejaVuSans-70" d="M 1159 525 
L 1159 -1331 
L 581 -1331 
L 581 3500 
L 1159 3500 
L 1159 2969 
Q 1341 3281 1617 3432 
Q 1894 3584 2278 3584 
Q 2916 3584 3314 3078 
Q 3713 2572 3713 1747 
Q 3713 922 3314 415 
Q 2916 -91 2278 -91 
Q 1894 -91 1617 61 
Q 1341 213 1159 525 
z
M 3116 1747 
Q 3116 2381 2855 2742 
Q 2594 3103 2138 3103 
Q 1681 3103 1420 2742 
Q 1159 2381 1159 1747 
Q 1159 1113 1420 752 
Q 1681 391 2138 391 
Q 2594 391 2855 752 
Q 3116 1113 3116 1747 
z
" transform="scale(0.015625)"/>
       <path id="DejaVuSans-78" d="M 3513 3500 
L 2247 1797 
L 3578 0 
L 2900 0 
L 1881 1375 
L 863 0 
L 184 0 
L 1544 1831 
L 300 3500 
L 978 3500 
L 1906 2253 
L 2834 3500 
L 3513 3500 
z
" transform="scale(0.015625)"/>
      </defs>
      <use xlink:href="#DejaVuSans-70"/>
      <use xlink:href="#DejaVuSans-78" x="63.476562"/>
     </g>
    </g>
    <g id="line2d_26">
     <path d="M 384.561875 53.254687 
L 394.561875 53.254687 
L 404.561875 53.254687 
" style="fill: none; stroke: #2ca02c; stroke-width: 2; stroke-linecap: square"/>
    </g>
    <g id="text_18">
     <!-- py -->
     <g transform="translate(412.561875 56.754687) scale(0.1 -0.1)">
      <defs>
       <path id="DejaVuSans-79" d="M 2059 -325 
Q 1816 -950 1584 -1140 
Q 1353 -1331 966 -1331 
L 506 -1331 
L 506 -850 
L 844 -850 
Q 1081 -850 1212 -737 
Q 1344 -625 1503 -206 
L 1606 56 
L 191 3500 
L 800 3500 
L 1894 763 
L 2988 3500 
L 3597 3500 
L 2059 -325 
z
" transform="scale(0.015625)"/>
      </defs>
      <use xlink:href="#DejaVuSans-70"/>
      <use xlink:href="#DejaVuSans-79" x="63.476562"/>
     </g>
    </g>
    <g id="line2d_27">
     <path d="M 384.561875 67.932813 
L 394.561875 67.932813 
L 404.561875 67.932813 
" style="fill: none; stroke: #d62728; stroke-width: 2; stroke-linecap: square"/>
    </g>
    <g id="text_19">
     <!-- pz -->
     <g transform="translate(412.561875 71.432813) scale(0.1 -0.1)">
      <defs>
       <path id="DejaVuSans-7a" d="M 353 3500 
L 3084 3500 
L 3084 2975 
L 922 459 
L 3084 459 
L 3084 0 
L 275 0 
L 275 525 
L 2438 3041 
L 353 3041 
L 353 3500 
z
" transform="scale(0.015625)"/>
      </defs>
      <use xlink:href="#DejaVuSans-70"/>
      <use xlink:href="#DejaVuSans-7a" x="63.476562"/>
     </g>
    </g>
    <g id="line2d_28">
     <path d="M 384.561875 82.610938 
L 394.561875 82.610938 
L 404.561875 82.610938 
" style="fill: none; stroke: #000000; stroke-width: 2; stroke-linecap: square"/>
    </g>
    <g id="text_20">
     <!-- Total -->
     <g transform="translate(412.561875 86.110938) scale(0.1 -0.1)">
      <defs>
       <path id="DejaVuSans-54" d="M -19 4666 
L 3928 4666 
L 3928 4134 
L 2272 4134 
L 2272 0 
L 1638 0 
L 1638 4134 
L -19 4134 
L -19 4666 
z
" transform="scale(0.015625)"/>
       <path id="DejaVuSans-6f" d="M 1959 3097 
Q 1497 3097 1228 2736 
Q 959 2375 959 1747 
Q 959 1119 1226 758 
Q 1494 397 1959 397 
Q 2419 397 2687 759 
Q 2956 1122 2956 1747 
Q 2956 2369 2687 2733 
Q 2419 3097 1959 3097 
z
M 1959 3584 
Q 2709 3584 3137 3096 
Q 3566 2609 3566 1747 
Q 3566 888 3137 398 
Q 2709 -91 1959 -91 
Q 1206 -91 779 398 
Q 353 888 353 1747 
Q 353 2609 779 3096 
Q 1206 3584 1959 3584 
z
" transform="scale(0.015625)"/>
       <path id="DejaVuSans-6c" d="M 603 4863 
L 1178 4863 
L 1178 0 
L 603 0 
L 603 4863 
z
" transform="scale(0.015625)"/>
      </defs>
      <use xlink:href="#DejaVuSans-54"/>
      <use xlink:href="#DejaVuSans-6f" x="44.083984"/>
      <use xlink:href="#DejaVuSans-74" x="105.265625"/>
      <use xlink:href="#DejaVuSans-61" x="144.474609"/>
      <use xlink:href="#DejaVuSans-6c" x="205.753906"/>
     </g>
    </g>
   </g>
  </g>
 </g>
 <defs>
  <clipPath id="pa674d1ddc8">
   <rect x="59.51" y="10.8" width="385.405" height="279.016"/>
  </clipPath>
 </defs>
</svg>
