<?xml version="1.0" encoding="utf-8" standalone="no"?>
<!DOCTYPE svg PUBLIC "-//W3C//DTD SVG 1.1//EN"
  "http://www.w3.org/Graphics/SVG/1.1/DTD/svg11.dtd">
<svg xmlns:xlink="http://www.w3.org/1999/xlink" width="460.8pt" height="345.6pt" viewBox="0 0 460.8 345.6" xmlns="http://www.w3.org/2000/svg" version="1.1">
 <metadata>
  <rdf:RDF xmlns:dc="http://purl.org/dc/elements/1.1/" xmlns:cc="http://creativecommons.org/ns#" xmlns:rdf="http://www.w3.org/1999/02/22-rdf-syntax-ns#">
   <cc:Work>
    <dc:type rdf:resource="http://purl.org/dc/dcmitype/StillImage"/>
    <dc:date>2023-08-14T21:09:24.758404</dc:date>
    <dc:format>image/svg+xml</dc:format>
    <dc:creator>
     <cc:Agent>
      <dc:title>Matplotlib v3.7.1, https://matplotlib.org/</dc:title>
     </cc:Agent>
    </dc:creator>
   </cc:Work>
  </rdf:RDF>
 </metadata>
 <defs>
  <style type="text/css">*{stroke-linejoin: round; stroke-linecap: butt}</style>
 </defs>
 <g id="figure_1">
  <g id="patch_1">
   <path d="M 0 345.6 
L 460.8 345.6 
L 460.8 0 
L 0 0 
z
" style="fill: #ffffff"/>
  </g>
  <g id="axes_1">
   <g id="patch_2">
    <path d="M 59.51 289.816 
L 444.915 289.816 
L 444.915 10.8 
L 59.51 10.8 
z
" style="fill: #ffffff"/>
   </g>
   <g id="line2d_1">
    <path d="M 59.445766 281.87754 
L 60.473513 281.5309 
L 61.115854 281.519816 
L 61.886664 281.748558 
L 62.721708 282.281618 
L 63.813689 283.307027 
L 65.740714 285.199642 
L 66.639993 285.749026 
L 67.410803 285.942902 
L 68.117378 285.898665 
L 68.952423 285.633244 
L 71.586023 284.557551 
L 72.549536 284.56793 
L 73.448814 284.840305 
L 76.596288 286.113703 
L 77.367098 286.097983 
L 78.202143 285.874582 
L 79.101421 285.442894 
L 80.386104 284.623252 
L 82.570066 283.036467 
L 85.460603 280.642837 
L 87.516097 279.385662 
L 88.736546 279.389592 
L 89.443122 279.730387 
L 90.470868 280.683547 
L 91.691318 282.263883 
L 93.104469 284.074976 
L 93.939513 284.862978 
L 94.581855 285.234225 
L 95.224197 285.391402 
L 95.930773 285.330347 
L 96.701583 285.051503 
L 98.114734 284.256861 
L 99.399418 283.591413 
L 101.519145 282.957062 
L 103.44617 282.382083 
L 106.015537 281.319994 
L 107.235986 281.029179 
L 108.520669 280.940605 
L 110.961568 280.530582 
L 113.916339 279.391607 
L 114.622915 279.359462 
L 115.136788 279.447029 
L 117.449218 281.03067 
L 118.541199 282.0442 
L 119.697414 282.936112 
L 121.303268 283.522791 
L 122.973357 283.358258 
L 124.322274 282.833219 
L 125.928128 281.758191 
L 127.277046 280.420403 
L 128.625963 278.857308 
L 129.525242 277.959694 
L 130.231818 277.500626 
L 130.681457 277.346022 
L 131.066862 277.29615 
L 131.709203 277.455489 
L 132.287311 277.809446 
L 132.993887 278.458634 
L 135.04938 280.749993 
L 135.948658 281.411864 
L 136.976405 281.634671 
L 137.426044 281.544957 
L 138.389557 281.013883 
L 140.252348 279.124281 
L 144.363334 273.90746 
L 145.455315 272.215756 
L 146.033423 271.309987 
L 147.703511 269.01259 
L 148.345853 268.422879 
L 149.116663 268.04094 
L 149.502068 268.015184 
L 150.080175 268.128043 
L 150.594048 268.4244 
L 151.686029 269.498773 
L 154.448098 272.809881 
L 155.797016 273.268403 
L 156.246655 273.103205 
L 157.017465 272.453577 
L 157.659807 271.569947 
L 158.494851 270.110693 
L 160.678813 266.242523 
L 161.25692 265.594971 
L 161.770793 265.239061 
L 162.284667 265.113948 
L 162.670072 265.170529 
L 163.183945 265.446914 
L 164.147458 266.545339 
L 164.918268 267.856092 
L 168.322678 274.542365 
L 169.286191 275.548468 
L 170.313938 275.981405 
L 172.947538 275.637717 
L 174.232222 276.036182 
L 176.480418 278.230766 
L 176.930057 278.686799 
L 177.700867 279.21865 
L 178.535911 279.356419 
L 179.306721 278.985363 
L 179.884828 278.416833 
L 180.848341 277.095772 
L 182.261493 274.855178 
L 183.289239 273.629332 
L 183.867347 273.225415 
L 184.573923 273.127389 
L 185.537435 273.716405 
L 186.629416 275.337259 
L 187.400226 276.932196 
L 191.125808 285.647022 
L 192.282023 287.430018 
L 193.181301 288.380371 
L 194.080579 289.0096 
L 195.044092 289.413566 
L 196.264541 289.668102 
L 198.127332 289.7914 
L 203.523002 289.81598 
L 293.515069 289.711289 
L 295.506328 289.448759 
L 297.754524 288.868911 
L 301.480106 287.833233 
L 305.719561 286.800354 
L 306.875776 286.86799 
L 308.160459 287.295789 
L 309.766313 288.130316 
L 311.243699 288.805968 
L 312.271446 289.052837 
L 313.299193 289.056085 
L 314.262705 288.831274 
L 315.483154 288.274858 
L 319.465673 286.207962 
L 320.750356 285.975751 
L 322.291976 285.877391 
L 324.347469 285.715841 
L 326.081792 285.337381 
L 327.430709 284.771694 
L 328.843861 283.922827 
L 331.541696 282.272821 
L 333.211784 281.820123 
L 334.496467 281.813664 
L 335.845385 281.983548 
L 338.157815 282.294113 
L 339.121328 282.381781 
L 341.947631 283.033041 
L 342.782675 283.425832 
L 345.416276 284.648444 
L 346.315554 284.746793 
L 347.150598 284.608842 
L 348.049877 284.213733 
L 349.206092 283.378471 
L 350.233838 282.372712 
L 351.518522 280.785221 
L 354.344825 277.021557 
L 355.051401 276.514697 
L 355.757977 276.384707 
L 356.27185 276.585234 
L 356.657255 276.866375 
L 357.299597 277.623139 
L 357.941938 278.678174 
L 360.89671 284.298075 
L 361.603286 285.079527 
L 362.245628 285.446925 
L 362.759501 285.510106 
L 363.337608 285.345251 
L 363.97995 284.922128 
L 364.814994 284.09382 
L 367.962468 280.584392 
L 369.37562 279.664486 
L 370.017962 279.412567 
L 370.724538 279.265648 
L 371.495348 279.265648 
L 372.587328 279.61128 
L 373.358138 280.088918 
L 374.193183 280.806382 
L 376.505613 283.14721 
L 377.404891 283.738816 
L 378.111467 283.908105 
L 378.753808 283.787386 
L 379.331916 283.441653 
L 380.038492 282.718243 
L 380.873536 281.48757 
L 382.47939 278.474624 
L 383.828308 276.191233 
L 384.470649 275.469738 
L 385.112991 275.107983 
L 385.755333 275.081783 
L 386.269206 275.318486 
L 387.361187 276.366871 
L 388.838573 278.106822 
L 389.673617 278.722209 
L 390.123256 278.84968 
L 390.701363 278.772996 
L 391.664876 278.068531 
L 392.371452 277.236192 
L 393.656135 275.491907 
L 394.555413 274.547716 
L 395.454692 274.126508 
L 396.225502 274.248437 
L 396.482438 274.393542 
L 396.867843 274.689798 
L 397.510185 275.399201 
L 400.914596 280.693523 
L 402.006577 281.795919 
L 402.713153 282.215212 
L 403.612431 282.454635 
L 404.447475 282.43811 
L 405.667924 282.102252 
L 406.567203 281.600732 
L 407.338013 281.016482 
L 408.494228 279.835992 
L 410.678189 277.415558 
L 411.256297 276.986288 
L 411.77017 276.7646 
L 412.412512 276.69507 
L 413.504493 277.166662 
L 414.339537 277.865988 
L 416.523498 279.950766 
L 418.193587 281.05034 
L 420.441783 282.479727 
L 421.854934 283.729444 
L 423.781959 285.491867 
L 425.195111 286.438174 
L 426.544028 286.997837 
L 428.471053 287.494721 
L 430.911952 288.200194 
L 435.279875 289.5036 
L 437.142666 289.722633 
L 440.161672 289.809542 
L 443.501848 289.815885 
L 443.501848 289.815885 
" clip-path="url(#pba9688676f)" style="fill: none; stroke: #1f77b4; stroke-width: 2; stroke-linecap: square"/>
   </g>
   <g id="line2d_2">
    <path d="M 59.445766 237.543893 
L 60.216576 235.316932 
L 60.794683 234.369718 
L 61.115854 234.198414 
L 61.308557 234.199421 
L 61.565493 234.36468 
L 61.950898 235.002538 
L 62.336303 236.036412 
L 62.914411 238.36414 
L 63.685221 242.603427 
L 66.061885 257.523055 
L 66.704227 260.084564 
L 67.089632 261.046893 
L 67.539271 261.604137 
L 67.796208 261.653513 
L 68.117378 261.456009 
L 68.631252 260.572278 
L 69.337828 258.59119 
L 70.429808 254.865818 
L 71.007916 253.198116 
L 71.586023 252.193465 
L 71.971428 251.90527 
L 72.549536 252.224703 
L 73.127643 253.34826 
L 73.705751 255.097583 
L 76.018181 263.02395 
L 76.403586 263.55298 
L 76.724757 263.675916 
L 77.110162 263.37059 
L 77.559801 262.397177 
L 77.945206 260.996509 
L 78.523313 258.018831 
L 79.229889 252.996581 
L 80.193402 244.329573 
L 82.762768 218.614727 
L 83.469344 212.700686 
L 84.240154 207.488993 
L 84.94673 204.03267 
L 85.71754 201.973991 
L 86.038711 201.56689 
L 86.102945 201.637428 
L 86.616818 201.949807 
L 87.002223 202.790207 
L 87.25916 203.649753 
L 87.580331 205.15925 
L 88.222673 209.039804 
L 89.635824 221.887654 
L 92.140957 247.470494 
L 92.911767 252.320432 
L 93.489874 254.236021 
L 93.746811 254.602815 
L 94.003748 254.630022 
L 94.389153 254.082855 
L 94.838792 252.604596 
L 95.481133 249.078138 
L 96.251943 243.308295 
L 98.371671 226.298346 
L 99.656354 220.325154 
L 99.720588 220.257035 
L 100.041759 219.403737 
L 100.427164 218.702395 
L 100.684101 218.25398 
L 100.941037 217.909355 
L 101.583379 217.186853 
L 102.546892 215.285371 
L 103.895809 210.057556 
L 105.244727 202.893998 
L 106.400942 198.177073 
L 106.465176 198.227457 
L 106.722113 197.564407 
L 107.107518 196.983987 
L 107.364454 196.915465 
L 107.428688 196.96081 
L 107.557157 196.802605 
L 108.006796 197.266136 
L 108.327967 197.686336 
L 108.970308 199.141418 
L 109.098777 199.354037 
L 109.484182 200.362719 
L 110.961568 202.956473 
L 111.411207 203.215446 
L 112.053548 203.543948 
L 112.246251 203.479457 
L 112.567422 203.637661 
L 112.69589 203.570147 
L 112.888593 203.749513 
L 112.952827 203.726337 
L 113.145529 203.954071 
L 113.980573 205.019183 
L 114.23751 205.664095 
L 114.301744 205.727578 
L 114.815618 207.390241 
L 115.00832 208.053291 
L 115.457959 210.067632 
L 115.586428 210.609761 
L 116.036067 212.773238 
L 116.806877 216.875481 
L 117.384984 220.006326 
L 117.641921 221.244758 
L 118.605433 225.350024 
L 118.669668 225.434669 
L 119.055072 226.756737 
L 120.211288 228.879908 
L 120.339756 228.963545 
L 120.789395 229.222517 
L 120.853629 229.149964 
L 120.982098 229.276831 
L 121.110566 229.207603 
L 121.239034 229.280257 
L 121.495971 229.221509 
L 121.624439 229.24529 
L 121.94561 229.245794 
L 122.138313 229.309983 
L 122.331015 229.180497 
L 122.395249 229.411758 
L 122.459483 229.307363 
L 122.909123 229.568955 
L 123.037591 229.767064 
L 123.166059 229.867328 
L 123.936869 231.296513 
L 124.514977 232.92169 
L 124.579211 232.990212 
L 126.506236 239.82426 
L 126.955875 241.166684 
L 127.34128 242.13778 
L 127.726685 242.89404 
L 127.919388 243.331673 
L 127.983622 243.346083 
L 128.304793 243.848509 
L 128.369027 243.86967 
L 128.625963 244.19656 
L 128.947134 244.401118 
L 129.139837 244.523047 
L 129.268305 244.57343 
L 129.910647 244.839456 
L 130.745691 245.364455 
L 131.002628 245.643581 
L 131.516501 246.295546 
L 131.837672 246.928366 
L 132.223077 247.647845 
L 132.801184 249.137188 
L 133.058121 249.787138 
L 134.021633 252.62475 
L 135.434785 256.330976 
L 136.077127 257.381981 
L 136.719468 257.887833 
L 137.104873 257.890856 
L 137.490278 257.678237 
L 138.196854 256.703816 
L 139.288835 254.104016 
L 141.858202 246.490027 
L 143.014417 243.613116 
L 143.271353 242.930921 
L 143.399822 242.633657 
L 143.785227 241.661251 
L 144.556037 239.804107 
L 145.005676 238.466923 
L 145.134144 238.219035 
L 145.904954 236.046489 
L 146.226125 235.050906 
L 146.418828 234.642798 
L 146.739998 233.743952 
L 147.189638 232.534743 
L 148.217384 230.66853 
L 148.602789 230.26546 
L 148.731258 230.290652 
L 148.988194 230.205 
L 149.180897 230.266468 
L 149.245131 230.257399 
L 149.502068 230.519394 
L 149.759004 230.803558 
L 150.658283 232.998273 
L 151.621795 236.825421 
L 152.585308 241.660243 
L 154.576567 251.147499 
L 155.283142 253.239431 
L 155.797016 254.107039 
L 156.182421 254.354927 
L 156.503592 254.30152 
L 156.760528 254.133238 
L 157.40287 253.106418 
L 158.045212 251.457862 
L 158.623319 249.627926 
L 160.550344 243.539556 
L 161.192686 242.230587 
L 161.642325 241.599783 
L 162.220433 241.189659 
L 162.734306 241.197721 
L 163.183945 241.435532 
L 163.954755 242.302132 
L 164.789799 243.656749 
L 166.845293 247.206585 
L 167.4234 247.967177 
L 167.487634 247.967278 
L 167.744571 248.307469 
L 167.937273 248.395137 
L 168.19421 248.64504 
L 168.322678 248.690587 
L 168.515381 248.809795 
L 168.836552 249.007702 
L 168.96502 248.99168 
L 169.157723 249.118647 
L 169.286191 249.061008 
L 169.800064 249.200672 
L 169.928533 249.190595 
L 170.057001 249.290355 
L 170.185469 249.26607 
L 170.378172 249.336708 
L 170.442406 249.295695 
L 170.635108 249.466698 
L 170.699343 249.443521 
L 170.892045 249.596688 
L 171.020513 249.638002 
L 171.27745 249.836514 
L 171.405918 249.880852 
L 172.690602 251.73195 
L 173.654114 254.249121 
L 177.122759 266.292846 
L 177.636633 267.118132 
L 178.086272 267.377507 
L 178.535911 267.163074 
L 178.921316 266.612682 
L 179.370955 265.538098 
L 179.949063 263.554995 
L 180.719873 260.032165 
L 183.546176 245.972083 
L 184.38122 243.854958 
L 184.638157 243.629239 
L 184.702391 243.491188 
L 184.766625 243.562733 
L 184.830859 243.555679 
L 184.959328 243.415612 
L 185.216264 243.594575 
L 185.280498 243.592459 
L 186.179777 245.513994 
L 186.950587 248.830452 
L 187.271758 250.55025 
L 188.042568 255.396459 
L 190.611934 273.451376 
L 191.703915 279.557531 
L 192.538959 283.096393 
L 193.374003 285.661222 
L 194.144813 287.288421 
L 194.787155 288.211386 
L 195.493731 288.882487 
L 196.328775 289.352914 
L 197.292288 289.6254 
L 198.705439 289.771888 
L 201.981382 289.8153 
L 289.725253 289.789089 
L 291.652278 289.621423 
L 292.744259 289.31376 
L 293.643538 288.814984 
L 294.350113 288.196495 
L 295.185158 287.13527 
L 296.084436 285.551729 
L 297.304885 282.744604 
L 298.782271 278.905717 
L 300.00272 275.915291 
L 302.122448 271.374186 
L 304.756048 265.438228 
L 305.334156 264.573451 
L 305.848029 264.199665 
L 306.297668 264.245373 
L 306.747308 264.686895 
L 307.132713 265.36635 
L 307.646586 266.705892 
L 308.545864 270.057804 
L 311.500636 282.038856 
L 312.014509 283.131116 
L 312.399914 283.617373 
L 312.849553 283.829225 
L 313.234958 283.683862 
L 313.556129 283.363764 
L 314.005768 282.574388 
L 314.776578 280.406411 
L 315.611623 277.196594 
L 317.602882 268.819509 
L 318.373692 266.686545 
L 318.887565 265.908441 
L 319.27297 265.711353 
L 319.594141 265.782165 
L 320.108014 266.386807 
L 320.750356 267.82523 
L 321.456932 270.034089 
L 322.484678 273.676753 
L 323.512425 276.958517 
L 324.475938 278.983005 
L 325.054045 279.592638 
L 325.632153 279.691592 
L 326.017558 279.503862 
L 326.402963 279.121752 
L 327.045304 278.033564 
L 327.880348 275.939012 
L 329.486203 270.513693 
L 331.284759 264.633307 
L 332.055569 262.954522 
L 332.633677 262.220935 
L 332.890613 262.019097 
L 333.276018 261.903819 
L 333.854126 262.147979 
L 334.496467 262.876024 
L 334.881873 263.493426 
L 335.716917 265.209496 
L 338.157815 270.704849 
L 339.121328 272.393812 
L 340.020606 273.733213 
L 341.176821 275.212277 
L 343.296548 277.201124 
L 343.93889 277.359934 
L 344.452763 277.230246 
L 345.287808 276.38118 
L 345.865915 275.281404 
L 346.379788 273.951576 
L 347.150598 271.304516 
L 347.985643 267.619551 
L 348.692218 263.879768 
L 349.976902 255.529069 
L 351.068883 246.71363 
L 352.867439 229.373668 
L 353.895186 219.665732 
L 354.665996 213.958264 
L 355.372572 210.888887 
L 355.629508 210.270175 
L 356.014913 210.214753 
L 356.27185 210.534186 
L 356.464553 210.930202 
L 357.685002 218.852539 
L 358.58428 228.522183 
L 361.153647 257.916048 
L 361.860223 262.948375 
L 362.374096 265.409116 
L 362.759501 266.593839 
L 363.144906 267.286716 
L 363.530311 267.510319 
L 363.787248 267.449858 
L 364.301121 266.91176 
L 364.943463 265.718472 
L 366.677785 261.948963 
L 367.384361 260.727964 
L 368.669044 259.157302 
L 370.531835 257.643976 
L 371.174177 257.445464 
L 371.495348 257.445464 
L 371.816518 257.541193 
L 372.266158 257.844503 
L 372.587328 258.219358 
L 373.22967 259.386245 
L 373.615075 260.296176 
L 374.450119 262.77707 
L 375.927505 267.907141 
L 376.762549 270.221769 
L 377.469125 271.325173 
L 377.790296 271.50857 
L 378.239935 271.396718 
L 378.753808 270.676231 
L 379.39615 268.955122 
L 380.231194 265.526006 
L 381.002004 261.559799 
L 382.607858 253.069134 
L 383.507137 249.670248 
L 383.956776 248.592036 
L 384.406415 247.991462 
L 384.727586 247.859457 
L 385.112991 248.000531 
L 385.626864 248.636374 
L 387.232718 252.79807 
L 388.003528 254.753966 
L 388.517402 255.606458 
L 388.902807 255.918837 
L 389.352446 255.830162 
L 389.737851 255.352524 
L 390.315958 253.920619 
L 390.9583 251.408486 
L 391.664876 247.810081 
L 393.784603 236.15431 
L 394.491179 233.630085 
L 394.940818 232.629464 
L 395.326223 232.239494 
L 395.58316 232.220349 
L 395.968565 232.497459 
L 396.675141 234.06137 
L 397.253248 236.191594 
L 398.152527 240.736206 
L 398.987571 245.813878 
L 401.492703 260.787921 
L 402.456216 264.704751 
L 403.098558 266.357338 
L 403.419728 266.904505 
L 403.933602 267.317651 
L 404.511709 267.040541 
L 404.897114 266.454074 
L 405.282519 265.494768 
L 405.924861 263.084411 
L 406.567203 259.612972 
L 407.338013 254.137269 
L 408.558462 242.955105 
L 410.806658 221.394901 
L 411.577468 216.470396 
L 412.155575 214.192044 
L 412.54098 213.477603 
L 412.669448 213.388928 
L 412.862151 213.349628 
L 413.376024 214.001594 
L 413.954132 215.878891 
L 414.532239 218.658058 
L 418.771694 246.322753 
L 421.276827 258.865278 
L 422.111871 261.92357 
L 422.818447 263.78676 
L 423.396554 264.597938 
L 423.910428 264.843811 
L 424.360067 264.681575 
L 425.066643 263.822029 
L 427.122136 259.948528 
L 427.571775 259.461821 
L 428.149882 259.338885 
L 428.599522 259.656302 
L 428.920693 260.100687 
L 429.563034 261.631344 
L 430.26961 264.112239 
L 430.847718 266.614295 
L 433.802489 280.778067 
L 434.701768 283.947102 
L 435.536812 286.132335 
L 436.307622 287.547765 
L 437.078432 288.495332 
L 437.849242 289.089698 
L 438.74852 289.479279 
L 439.840501 289.697179 
L 441.703292 289.800727 
L 443.501848 289.814494 
L 443.501848 289.814494 
" clip-path="url(#pba9688676f)" style="fill: none; stroke: #ff7f0e; stroke-width: 2; stroke-linecap: square"/>
   </g>
   <g id="line2d_3">
    <path d="M 59.445766 244.637921 
L 59.766937 245.145789 
L 60.152342 246.105096 
L 60.666215 247.970301 
L 61.372791 251.478016 
L 62.336303 257.430349 
L 64.456031 270.793121 
L 65.291075 274.637399 
L 65.997651 276.890559 
L 66.511524 277.929774 
L 67.025398 278.478755 
L 67.410803 278.604513 
L 67.860442 278.448424 
L 68.245847 278.121333 
L 68.631252 277.662236 
L 69.723233 275.926517 
L 70.686745 274.499448 
L 71.329087 273.887286 
L 71.971428 273.663582 
L 72.292599 273.661164 
L 73.38458 274.254684 
L 74.091156 274.77142 
L 74.412327 274.898084 
L 74.797732 274.97104 
L 75.311605 274.748949 
L 75.761244 274.204099 
L 76.275118 273.108656 
L 76.788991 271.467053 
L 77.624035 267.638797 
L 78.651782 261.407439 
L 81.478085 244.086724 
L 82.441598 240.182086 
L 83.469344 237.131653 
L 84.368623 235.108747 
L 84.497091 234.920916 
L 85.010964 234.060765 
L 85.267901 233.739619 
L 85.460603 233.492739 
L 86.295648 233.010567 
L 86.616818 233.150432 
L 86.809521 233.190941 
L 87.708799 234.785888 
L 88.415375 237.180727 
L 89.314653 241.660143 
L 90.406634 248.766465 
L 92.590596 263.287659 
L 93.42564 267.038022 
L 94.067982 268.755401 
L 94.453387 269.286043 
L 94.774558 269.430342 
L 95.031494 269.380462 
L 95.481133 268.924691 
L 95.930773 268.105048 
L 96.637348 266.262415 
L 98.628608 260.582859 
L 99.656354 258.492237 
L 100.427164 257.079779 
L 101.326443 254.869546 
L 101.968784 252.458282 
L 102.611126 249.11905 
L 103.510404 242.796396 
L 106.400942 220.028999 
L 106.914815 217.9677 
L 107.30022 217.129012 
L 107.621391 216.895433 
L 107.814093 216.951158 
L 108.07103 217.260917 
L 108.456435 218.148477 
L 109.098777 220.498273 
L 110.319226 226.349838 
L 111.025802 229.445616 
L 112.053548 232.409993 
L 112.760124 233.355897 
L 113.4667 233.673415 
L 114.044808 233.706668 
L 114.23751 233.789399 
L 114.815618 234.090693 
L 115.072554 234.394507 
L 115.265257 234.631411 
L 116.54994 238.056295 
L 117.192282 240.899852 
L 119.312009 253.944602 
L 120.468224 260.975751 
L 121.495971 265.707791 
L 122.266781 267.934147 
L 122.71642 268.653022 
L 123.166059 268.963889 
L 123.744167 268.705522 
L 124.25804 267.9149 
L 124.707679 266.783785 
L 125.285787 264.75977 
L 125.992363 261.453389 
L 127.020109 255.260423 
L 130.039115 235.413165 
L 130.42452 233.797561 
L 131.066862 232.089956 
L 131.19533 232.000877 
L 131.388033 231.841665 
L 131.580735 231.872096 
L 131.773438 231.915326 
L 131.901906 232.094692 
L 132.608482 233.911025 
L 134.407038 243.956935 
L 136.077127 254.297187 
L 136.719468 257.021032 
L 137.233342 258.450217 
L 137.682981 259.092307 
L 138.004152 259.225018 
L 138.453791 258.899438 
L 138.774962 258.347736 
L 139.224601 257.196972 
L 139.802708 255.082367 
L 140.958923 249.10071 
L 145.198378 222.806351 
L 146.097657 219.075033 
L 146.290359 218.461763 
L 146.675764 217.41499 
L 147.639277 215.89713 
L 147.960448 215.770365 
L 148.024682 215.655591 
L 148.088916 215.764319 
L 148.281618 215.871838 
L 148.602789 216.041832 
L 148.859726 216.335267 
L 148.988194 216.510502 
L 150.144409 219.300853 
L 150.46558 220.51893 
L 150.529814 220.600854 
L 150.850985 221.997289 
L 151.107922 223.087089 
L 154.833503 241.019362 
L 155.604313 243.051842 
L 156.053953 243.615938 
L 156.375123 243.730611 
L 156.696294 243.585909 
L 157.081699 243.091947 
L 157.595573 241.87115 
L 158.237914 239.597332 
L 159.265661 234.893911 
L 159.972237 231.328859 
L 161.064218 226.93308 
L 161.192686 226.635817 
L 161.578091 225.706741 
L 161.899262 225.220034 
L 162.02773 225.12632 
L 162.413135 225.11322 
L 162.670072 225.336924 
L 162.991242 225.915833 
L 163.505116 227.516625 
L 164.083223 230.262538 
L 164.661331 233.88412 
L 165.496375 240.320339 
L 168.322678 263.645484 
L 169.093488 268.08683 
L 169.73583 270.787417 
L 170.313938 272.413129 
L 170.827811 273.336995 
L 171.534387 273.905958 
L 172.176728 273.99158 
L 172.754836 273.888505 
L 173.782583 273.816306 
L 174.489158 274.12546 
L 175.003032 274.583579 
L 175.90231 275.81269 
L 177.122759 277.94766 
L 178.343208 279.650348 
L 178.792848 280.012778 
L 179.370955 280.218827 
L 179.884828 280.165159 
L 180.462936 279.890225 
L 181.940322 278.682779 
L 182.454195 278.281281 
L 183.353473 277.91607 
L 184.124283 278.008393 
L 185.280498 278.961179 
L 186.179777 280.258389 
L 187.721397 283.039308 
L 189.134548 285.571971 
L 190.226529 287.153106 
L 191.190042 288.18744 
L 192.08932 288.861058 
L 193.117067 289.339209 
L 194.209048 289.612206 
L 195.814902 289.768421 
L 199.155078 289.814994 
L 286.513545 289.816 
L 301.608574 289.70554 
L 308.031991 289.456 
L 313.170724 289.624666 
L 315.161983 289.385115 
L 319.144502 288.810133 
L 321.713868 288.555905 
L 322.548913 288.154161 
L 323.191254 287.591974 
L 323.89783 286.62614 
L 324.540172 285.37709 
L 325.310982 283.380751 
L 326.338728 279.896972 
L 330.000076 266.474308 
L 331.284759 263.661224 
L 331.798633 262.77709 
L 333.789892 258.989746 
L 337.0016 250.876364 
L 337.579708 250.094973 
L 337.900878 249.961597 
L 338.029347 249.892501 
L 338.671688 250.247283 
L 339.057093 250.807852 
L 339.506732 251.90659 
L 339.699435 252.464116 
L 341.497992 260.597742 
L 343.360783 270.189393 
L 344.131593 273.017734 
L 344.7097 274.411257 
L 345.223573 275.084837 
L 345.673213 275.265221 
L 346.058618 275.142123 
L 346.572491 274.639314 
L 347.02213 273.960645 
L 348.049877 271.99709 
L 349.463028 269.446565 
L 352.674737 264.795946 
L 354.087888 261.342746 
L 355.693743 257.397801 
L 356.400318 256.40897 
L 356.785723 256.217008 
L 357.171128 256.276159 
L 357.428065 256.484747 
L 357.877704 257.155153 
L 358.327343 258.201119 
L 358.905451 260.033072 
L 360.061666 264.776498 
L 361.025178 268.895468 
L 362.052925 272.259287 
L 362.759501 273.553645 
L 363.144906 273.846475 
L 363.530311 273.835995 
L 363.787248 273.68565 
L 363.97995 273.498122 
L 364.365355 272.928081 
L 364.943463 271.672014 
L 366.228146 267.666005 
L 370.14643 254.263228 
L 370.788772 252.876668 
L 371.366879 252.085644 
L 371.944987 251.838763 
L 372.45886 252.131997 
L 372.908499 252.820238 
L 373.293904 253.705984 
L 373.936246 255.747533 
L 374.707056 258.96403 
L 376.955252 268.385786 
L 377.469125 269.373307 
L 377.790296 269.609103 
L 377.982998 269.613134 
L 378.304169 269.296724 
L 378.689574 268.460354 
L 379.139213 266.81583 
L 379.717321 263.7263 
L 380.488131 258.212305 
L 383.057498 238.24725 
L 384.02101 234.920916 
L 384.149478 234.813095 
L 384.277947 234.601483 
L 384.342181 234.708297 
L 384.406415 234.632721 
L 384.727586 234.891694 
L 385.691098 237.807904 
L 386.783079 243.722953 
L 387.939294 250.006811 
L 388.517402 252.069521 
L 388.967041 252.857522 
L 389.288212 252.866591 
L 389.545148 252.518944 
L 389.802085 251.903255 
L 390.251724 249.988673 
L 390.765598 246.633117 
L 391.472173 240.165862 
L 392.628388 226.55621 
L 393.527667 215.587673 
L 394.234243 208.256841 
L 394.81235 203.91578 
L 395.133521 202.114058 
L 395.454692 200.952209 
L 395.647394 200.602546 
L 395.775863 200.463487 
L 395.904331 200.394965 
L 396.225502 200.706336 
L 397.12478 204.471008 
L 397.638653 208.195373 
L 398.216761 213.363736 
L 401.043064 241.374064 
L 401.942342 248.002547 
L 402.648918 251.951623 
L 403.29126 254.623976 
L 403.869368 256.253385 
L 404.383241 257.051464 
L 404.768646 257.276175 
L 405.089817 257.175408 
L 405.475222 256.712885 
L 405.924861 255.639712 
L 406.438734 253.704977 
L 407.14531 249.814345 
L 407.91612 244.007117 
L 411.127828 216.081434 
L 411.641702 213.481634 
L 411.834404 212.921367 
L 412.091341 212.136388 
L 412.669448 211.4552 
L 412.926385 211.581159 
L 413.119088 211.778664 
L 413.954132 213.75169 
L 414.532239 215.871838 
L 417.16584 225.71984 
L 419.927909 234.293135 
L 420.698719 237.694036 
L 422.368808 246.994872 
L 424.809706 260.895742 
L 425.708984 264.754128 
L 426.41556 267.173554 
L 427.507541 269.987082 
L 428.856458 272.704377 
L 430.590781 276.405596 
L 432.068167 280.175397 
L 433.738255 284.374558 
L 434.830236 286.517411 
L 435.729514 287.80605 
L 436.564558 288.631776 
L 437.463837 289.194946 
L 438.491583 289.546297 
L 439.840501 289.739215 
L 442.217165 289.810671 
L 443.501848 289.815011 
L 443.501848 289.815011 
" clip-path="url(#pba9688676f)" style="fill: none; stroke: #2ca02c; stroke-width: 2; stroke-linecap: square"/>
   </g>
   <g id="line2d_4">
    <path d="M 59.445766 218.968421 
L 60.023873 215.841607 
L 60.601981 213.785951 
L 60.923152 213.206538 
L 61.180088 213.042288 
L 61.501259 213.235761 
L 61.82243 213.853465 
L 62.400538 216.067326 
L 63.235582 221.595429 
L 64.13486 229.456297 
L 65.997651 245.625442 
L 66.768461 249.714586 
L 67.2181 251.083008 
L 67.539271 251.561653 
L 67.860442 251.629167 
L 68.181613 251.397402 
L 68.695486 250.314152 
L 69.658998 246.959604 
L 70.879447 242.717294 
L 71.457555 241.575599 
L 71.971428 241.356933 
L 72.421068 241.757988 
L 72.934941 242.877514 
L 73.641517 245.331202 
L 75.118903 251.316788 
L 75.761244 252.969374 
L 76.210883 253.375467 
L 76.403586 253.34826 
L 76.724757 252.977436 
L 77.110162 251.986892 
L 77.559801 250.092464 
L 78.073674 247.00898 
L 78.651782 242.468398 
L 79.936465 229.518773 
L 81.413851 213.123909 
L 82.377363 203.696107 
L 83.276642 196.895311 
L 83.854749 193.792682 
L 84.432857 191.827716 
L 84.818262 191.383332 
L 85.010964 191.253342 
L 85.203667 191.466969 
L 85.524838 192.032274 
L 85.781774 192.736639 
L 86.295648 195.187303 
L 86.809521 198.741371 
L 87.580331 205.931129 
L 88.608078 218.071591 
L 89.635824 231.743719 
L 90.984742 248.397555 
L 91.819786 256.200986 
L 92.397893 259.972712 
L 92.847533 261.875201 
L 93.232938 262.692425 
L 93.489874 262.881868 
L 93.682577 262.832492 
L 94.003748 262.315555 
L 94.324918 261.342142 
L 94.710323 259.649248 
L 95.288431 256.142541 
L 96.187709 249.057582 
L 97.986266 234.287089 
L 98.628608 230.386381 
L 99.270949 227.732166 
L 99.656354 226.691239 
L 100.105993 226.032219 
L 100.684101 225.834715 
L 101.326443 226.175309 
L 102.611126 226.957265 
L 103.124999 226.824252 
L 103.703107 226.194455 
L 104.538151 224.543884 
L 105.887068 221.17019 
L 107.043283 219.505512 
L 107.171752 219.571011 
L 107.235986 219.468228 
L 107.30022 219.525665 
L 107.364454 219.533727 
L 107.428688 219.407767 
L 107.492923 219.503496 
L 107.685625 219.464197 
L 108.07103 219.786653 
L 108.135264 219.767507 
L 108.327967 220.03051 
L 108.456435 220.091978 
L 109.098777 220.892072 
L 109.419948 221.437224 
L 109.805353 221.739526 
L 110.062289 222.112366 
L 110.190758 222.138565 
L 110.38346 222.274601 
L 110.447694 222.276617 
L 110.576163 222.467067 
L 110.704631 222.43986 
L 110.833099 222.490244 
L 110.897333 222.459006 
L 110.961568 222.640387 
L 111.025802 222.599072 
L 111.090036 222.65651 
L 111.15427 222.575896 
L 111.282738 222.580934 
L 111.411207 222.66961 
L 111.603909 222.579927 
L 111.92508 222.631318 
L 112.117783 222.524505 
L 112.374719 222.60008 
L 112.503188 222.606126 
L 112.760124 222.71294 
L 112.888593 222.713947 
L 113.145529 222.893313 
L 113.209763 222.87316 
L 114.301744 224.740381 
L 114.879852 226.427228 
L 116.228769 231.932154 
L 118.348497 240.728144 
L 119.183541 243.057888 
L 120.018585 244.539169 
L 120.468224 245.052076 
L 121.110566 245.535759 
L 122.780654 246.596841 
L 123.679933 247.782874 
L 126.955875 254.515651 
L 127.084343 254.590319 
L 127.277046 254.81362 
L 128.240558 255.152098 
L 128.433261 255.04075 
L 128.625963 254.978476 
L 128.818666 254.844153 
L 129.011368 254.671236 
L 129.268305 254.430301 
L 130.681457 253.001519 
L 130.809925 252.913549 
L 131.066862 252.808952 
L 131.259564 252.702844 
L 131.452267 252.61689 
L 131.580735 252.649438 
L 131.709203 252.562979 
L 132.480013 252.934206 
L 133.058121 253.609751 
L 133.700463 254.741571 
L 134.728209 257.337442 
L 135.113614 258.549775 
L 135.755956 260.491765 
L 136.655234 263.016897 
L 137.426044 264.568715 
L 137.875683 265.039904 
L 138.196854 265.15619 
L 138.518025 265.06953 
L 139.031898 264.445779 
L 139.353069 263.791798 
L 140.188113 261.01767 
L 141.087392 256.677616 
L 142.75748 246.630094 
L 143.720993 240.956887 
L 145.455315 233.676438 
L 145.776486 232.838053 
L 145.84072 232.841076 
L 146.161891 232.138727 
L 146.547296 231.643959 
L 146.61153 231.667135 
L 146.804233 231.462577 
L 146.996935 231.389017 
L 147.189638 231.445447 
L 147.318106 231.429324 
L 148.410087 232.556912 
L 148.731258 233.184693 
L 148.795492 233.225 
L 149.052428 233.870919 
L 149.116663 233.932388 
L 149.566302 235.172835 
L 150.080175 236.558387 
L 152.392605 244.347207 
L 152.842244 245.992639 
L 153.741523 249.008206 
L 154.191162 250.477093 
L 155.732782 253.782568 
L 156.375123 254.343842 
L 156.503592 254.266251 
L 156.760528 254.327719 
L 156.888997 254.252144 
L 157.210168 254.121146 
L 157.467104 253.838997 
L 157.531338 253.829928 
L 157.852509 253.368413 
L 157.980978 253.210208 
L 158.430617 252.420192 
L 158.559085 252.248887 
L 159.072958 251.220051 
L 159.137193 251.19889 
L 159.779534 249.970535 
L 160.229173 249.267178 
L 160.678813 248.69885 
L 161.578091 247.947125 
L 162.348901 247.913871 
L 162.541603 247.983401 
L 162.670072 247.995493 
L 162.927008 248.216174 
L 163.119711 248.264542 
L 164.789799 250.298029 
L 165.496375 251.559638 
L 166.138717 252.739624 
L 166.459888 253.419805 
L 166.781058 254.107039 
L 166.973761 254.419418 
L 167.680337 255.789855 
L 168.322678 256.769315 
L 169.029254 257.469649 
L 169.671596 257.723583 
L 170.378172 257.546232 
L 170.956279 257.116962 
L 172.690602 255.474453 
L 173.204475 255.296095 
L 173.654114 255.386785 
L 174.039519 255.678003 
L 174.617627 256.503289 
L 175.259968 257.972478 
L 175.966544 260.078518 
L 177.379696 264.652352 
L 178.150506 266.507481 
L 178.728613 267.27936 
L 178.98555 267.430511 
L 179.306721 267.424465 
L 179.563658 267.254168 
L 179.949063 266.770686 
L 180.398702 265.854407 
L 181.105277 263.774466 
L 181.876088 260.931514 
L 182.711132 257.698894 
L 183.481942 255.155121 
L 184.060049 253.822371 
L 184.38122 253.350577 
L 184.702391 253.105914 
L 184.959328 253.049988 
L 185.280498 253.230261 
L 185.858606 254.152888 
L 186.244011 255.19573 
L 186.950587 257.870401 
L 187.657163 261.3367 
L 191.254276 280.741891 
L 192.153554 283.971186 
L 192.988598 286.146281 
L 193.759408 287.546485 
L 194.530218 288.482222 
L 195.301028 289.071167 
L 196.200307 289.463574 
L 197.356522 289.694883 
L 199.219313 289.799403 
L 206.028134 289.815999 
L 292.615791 289.707364 
L 294.285879 289.442798 
L 295.570563 289.024084 
L 297.047948 288.282938 
L 300.323891 286.470664 
L 301.480106 286.035823 
L 305.719561 284.875635 
L 306.490371 284.954458 
L 307.518118 285.367291 
L 308.48163 286.039302 
L 311.821807 288.507626 
L 312.656851 288.703939 
L 313.363427 288.669216 
L 314.070003 288.452572 
L 314.969281 287.924571 
L 316.061262 286.958587 
L 317.602882 285.164994 
L 319.144502 283.071201 
L 322.227742 278.264846 
L 323.12702 277.122536 
L 324.026298 276.487933 
L 324.604406 276.392173 
L 324.989811 276.45866 
L 325.567918 276.779866 
L 326.916836 278.174236 
L 327.944583 279.384342 
L 329.036563 280.273312 
L 329.614671 280.46475 
L 330.385481 280.384267 
L 331.156291 279.841463 
L 331.734398 279.11623 
L 332.505208 277.671426 
L 333.276018 275.703015 
L 334.111063 272.99491 
L 337.77241 259.113367 
L 338.607454 257.356789 
L 338.864391 257.066377 
L 339.249796 256.768912 
L 339.827903 256.777275 
L 340.149074 256.987476 
L 340.727182 257.746255 
L 341.176821 258.543023 
L 342.39727 261.338212 
L 343.489251 263.599736 
L 344.452763 264.517122 
L 344.966637 264.378366 
L 345.544744 263.622408 
L 345.994383 262.618865 
L 346.636725 260.551117 
L 347.471769 257.058316 
L 348.949155 249.873093 
L 350.041136 244.810133 
L 351.068883 240.788605 
L 352.096629 237.534824 
L 352.867439 235.688764 
L 353.445547 234.733489 
L 353.895186 234.315304 
L 354.409059 234.205467 
L 354.987167 234.716358 
L 355.629508 236.148264 
L 356.143382 237.970139 
L 356.914192 241.83054 
L 357.877704 248.218189 
L 360.575539 267.176577 
L 361.282115 270.079687 
L 361.795988 271.27751 
L 362.181393 271.62808 
L 362.502564 271.568929 
L 362.823735 271.195485 
L 363.337608 269.962092 
L 363.851482 268.085096 
L 364.622292 264.324556 
L 367.577063 248.163472 
L 368.283639 245.518427 
L 369.247152 243.10545 
L 370.210664 242.121456 
L 370.339133 242.080645 
L 371.174177 242.408945 
L 371.944987 243.585204 
L 373.165436 247.161945 
L 373.679309 249.233925 
L 374.193183 251.509858 
L 376.698315 262.963792 
L 377.726062 265.712627 
L 378.239935 266.355121 
L 378.561106 266.48632 
L 379.010745 266.2868 
L 379.781555 265.034261 
L 380.809302 262.036429 
L 382.415156 256.406552 
L 383.2502 254.264236 
L 383.699839 253.58204 
L 384.085244 253.282761 
L 384.534883 253.328106 
L 384.920288 253.646531 
L 385.626864 254.887986 
L 386.461908 256.980926 
L 387.296953 259.144404 
L 387.87506 260.200446 
L 388.196231 260.507787 
L 388.453168 260.616616 
L 388.774338 260.49771 
L 388.967041 260.300206 
L 389.480914 259.227033 
L 389.994788 257.345705 
L 390.637129 253.952865 
L 391.279471 249.591649 
L 392.692623 238.240196 
L 393.656135 230.953702 
L 394.362711 226.782937 
L 395.005053 224.22949 
L 395.390458 223.357851 
L 395.711628 222.956797 
L 395.904331 222.926567 
L 396.097033 222.978966 
L 396.482438 223.460634 
L 396.803609 224.204298 
L 397.381717 226.261969 
L 397.89559 228.742864 
L 399.501444 238.801471 
L 401.043064 248.186951 
L 401.878108 251.823648 
L 402.584684 253.771483 
L 403.098558 254.51817 
L 403.483963 254.710636 
L 403.740899 254.710636 
L 404.254773 254.277336 
L 404.897114 253.179978 
L 405.667924 250.997355 
L 406.695671 246.720785 
L 407.787652 240.605208 
L 409.136569 231.577452 
L 410.22855 224.695035 
L 410.935126 221.481561 
L 411.513233 219.959973 
L 411.834404 219.620387 
L 412.091341 219.598218 
L 412.412512 219.914628 
L 412.733683 220.609923 
L 413.183322 222.037798 
L 413.825663 225.007415 
L 414.917644 231.186475 
L 416.330796 238.373209 
L 417.679713 242.576219 
L 420.120612 248.485223 
L 421.341061 253.072157 
L 422.689978 258.54383 
L 423.910428 262.019299 
L 424.617003 263.088442 
L 425.195111 263.466319 
L 425.837453 263.534338 
L 426.222858 263.456545 
L 427.379073 263.44667 
L 427.828712 263.705138 
L 428.406819 264.375242 
L 429.113395 265.780948 
L 430.141142 268.921265 
L 431.04042 272.416585 
L 433.609787 282.451048 
L 434.637533 285.317953 
L 435.472578 286.995711 
L 436.243388 288.082598 
L 437.078432 288.853617 
L 437.913476 289.315133 
L 438.941223 289.611549 
L 440.418608 289.768923 
L 443.501848 289.814918 
L 443.501848 289.814918 
" clip-path="url(#pba9688676f)" style="fill: none; stroke: #d62728; stroke-width: 2; stroke-linecap: square"/>
   </g>
   <g id="line2d_5">
    <path d="M 59.445766 113.579776 
L 59.959639 109.888664 
L 60.345044 108.409398 
L 60.601981 108.166549 
L 60.794683 108.333823 
L 61.05162 109.133916 
L 61.437025 111.425368 
L 61.758196 114.314371 
L 62.272069 120.924715 
L 62.721708 128.335154 
L 63.492518 143.782199 
L 66.061885 196.569429 
L 66.639993 203.492456 
L 67.153866 207.097209 
L 67.475037 208.158996 
L 67.667739 208.349346 
L 67.924676 208.090575 
L 68.117378 207.639741 
L 68.567018 205.424873 
L 69.080891 201.603872 
L 71.329087 183.379474 
L 71.714492 182.254506 
L 71.971428 182.005208 
L 72.292599 182.331493 
L 72.678004 183.604085 
L 73.256112 187.052448 
L 74.348093 196.544137 
L 75.247371 203.724019 
L 75.69701 205.920346 
L 76.018181 206.583396 
L 76.146649 206.624812 
L 76.339352 206.449678 
L 76.660523 205.3496 
L 76.981693 203.282456 
L 77.367098 199.502165 
L 77.816738 193.308494 
L 78.523313 180.124484 
L 79.615294 153.361657 
L 83.083939 65.272566 
L 83.918983 51.675308 
L 84.497091 44.700186 
L 85.075198 40.484579 
L 85.396369 39.210173 
L 85.653306 38.667641 
L 85.71754 38.89205 
L 85.781774 38.855472 
L 85.846008 38.880361 
L 86.231413 40.135017 
L 86.48835 41.626274 
L 87.002223 46.763802 
L 87.644565 56.683048 
L 88.286907 70.209667 
L 88.993482 88.589448 
L 92.333659 184.049981 
L 92.976001 194.458855 
L 93.42564 198.970012 
L 93.811045 200.804685 
L 94.003748 201.067991 
L 94.260684 200.594575 
L 94.517621 199.415586 
L 94.838792 196.89903 
L 95.481133 188.706052 
L 96.187709 176.201919 
L 98.564373 131.149599 
L 99.399418 121.615597 
L 99.977525 117.557299 
L 100.684101 114.339462 
L 101.262208 112.351925 
L 101.840316 109.798276 
L 102.546892 104.947734 
L 103.253468 97.366495 
L 103.767341 90.172001 
L 104.473917 78.818029 
L 105.694366 58.782437 
L 106.400942 50.270509 
L 106.593644 48.581445 
L 107.043283 45.734664 
L 107.235986 45.293303 
L 107.492923 44.832594 
L 107.621391 44.768002 
L 107.685625 44.803976 
L 108.392201 47.333743 
L 109.098777 52.206756 
L 109.61265 56.524137 
L 110.38346 62.458534 
L 111.539675 67.977366 
L 111.732378 68.424471 
L 111.92508 68.925386 
L 112.117783 69.118759 
L 112.374719 69.58108 
L 112.69589 69.813046 
L 112.888593 70.14175 
L 113.338232 70.761873 
L 113.530934 71.253517 
L 114.173276 73.616111 
L 114.622915 76.201703 
L 116.228769 93.201675 
L 117.32075 109.403721 
L 118.09156 121.40452 
L 119.568946 140.792127 
L 120.532458 149.456183 
L 121.431737 154.493346 
L 122.266781 157.456503 
L 122.331015 157.522828 
L 122.587952 158.344627 
L 124.193806 162.217483 
L 124.514977 162.938101 
L 124.579211 162.941356 
L 124.964616 163.722193 
L 125.093084 163.870029 
L 125.350021 164.292869 
L 125.542723 164.528585 
L 125.606958 164.446036 
L 125.671192 164.632325 
L 125.735426 164.591967 
L 125.928128 164.653415 
L 126.698938 163.579708 
L 127.790919 158.551523 
L 128.433261 153.942541 
L 130.488754 139.973737 
L 130.745691 139.109281 
L 131.19533 138.438473 
L 131.452267 138.621729 
L 131.773438 139.269995 
L 132.351545 142.321595 
L 132.865418 146.403338 
L 133.250823 150.286202 
L 134.535507 166.493678 
L 135.948658 183.894164 
L 136.591 189.4057 
L 137.040639 192.008644 
L 137.490278 193.292583 
L 137.682981 193.428609 
L 137.875683 193.373166 
L 138.13262 192.894844 
L 138.453791 191.679659 
L 138.774962 189.863688 
L 139.288835 185.780601 
L 139.931177 178.710868 
L 140.637753 169.235594 
L 145.326847 96.871193 
L 146.739998 83.35729 
L 147.125403 80.844825 
L 147.510808 79.289641 
L 147.767745 78.435979 
L 148.088916 77.844817 
L 148.281618 77.826527 
L 148.410087 77.749249 
L 148.988194 79.056918 
L 150.144409 86.282045 
L 150.722517 92.347188 
L 151.23639 98.723994 
L 152.264137 113.506861 
L 154.255396 142.470157 
L 155.09044 151.007215 
L 155.540079 153.968237 
L 155.86125 155.316515 
L 156.246655 156.006087 
L 156.375123 156.004545 
L 156.888997 154.792021 
L 157.274402 152.790205 
L 157.724041 149.380667 
L 158.17368 145.080537 
L 159.522598 129.306864 
L 160.229173 121.287851 
L 160.999983 114.480587 
L 161.449623 111.799124 
L 162.156198 109.874567 
L 162.348901 109.807315 
L 162.541603 110.037538 
L 162.670072 110.253674 
L 163.119711 111.873088 
L 163.633584 115.104095 
L 164.468628 123.090722 
L 165.560609 137.296786 
L 167.551868 165.527412 
L 168.386913 174.870892 
L 169.478893 182.854153 
L 170.057001 185.212908 
L 170.699343 186.455683 
L 170.892045 186.688909 
L 171.020513 186.737519 
L 171.213216 186.820108 
L 171.470153 186.886736 
L 171.662855 186.867267 
L 172.433665 187.081862 
L 172.690602 187.298562 
L 173.204475 188.281992 
L 173.846817 190.589254 
L 174.424924 193.901651 
L 175.003032 198.277448 
L 176.287715 210.186054 
L 177.122759 217.524766 
L 177.829335 221.995808 
L 178.278974 223.59141 
L 178.600145 224.030948 
L 178.728613 224.022755 
L 178.857082 223.962738 
L 179.242487 223.109923 
L 179.627892 221.399214 
L 180.205999 217.366471 
L 180.848341 211.237774 
L 182.325727 194.3059 
L 182.968068 187.573738 
L 183.61041 182.429942 
L 184.188518 179.508623 
L 184.702391 178.703995 
L 184.895093 178.831224 
L 185.023562 179.108214 
L 185.280498 179.826172 
L 185.987074 184.151998 
L 186.757884 192.271667 
L 187.914099 209.308158 
L 190.676168 255.044352 
L 191.639681 267.127527 
L 192.538959 275.549079 
L 193.245535 280.363752 
L 193.887877 283.549596 
L 194.594453 285.987238 
L 195.236794 287.46264 
L 195.94337 288.494333 
L 196.585712 289.063906 
L 197.356522 289.452877 
L 198.384268 289.689753 
L 199.990123 289.796265 
L 205.514261 289.815995 
L 290.753 289.705996 
L 291.973449 289.462929 
L 292.872728 289.060583 
L 293.579303 288.523085 
L 294.350113 287.621165 
L 295.120923 286.311343 
L 295.891733 284.546241 
L 296.91948 281.525205 
L 298.075695 277.534199 
L 300.452359 269.741251 
L 304.756048 257.418606 
L 305.334156 256.317903 
L 305.783795 255.871047 
L 306.1692 255.86301 
L 306.426137 256.055524 
L 306.747308 256.522657 
L 307.196947 257.622114 
L 307.71082 259.503717 
L 308.417396 262.950345 
L 309.509377 269.417783 
L 310.729826 276.303831 
L 311.56487 279.730287 
L 312.142978 281.181701 
L 312.592617 281.735049 
L 312.849553 281.823897 
L 313.170724 281.67857 
L 313.620363 281.032271 
L 314.134237 279.655453 
L 314.840813 276.795493 
L 315.868559 271.101804 
L 317.988287 258.549794 
L 318.630628 255.913557 
L 319.144502 254.470376 
L 319.594141 253.689302 
L 320.172248 253.397649 
L 320.493419 253.489198 
L 321.007293 253.940279 
L 321.392698 254.461103 
L 323.191254 257.054693 
L 323.640893 257.334003 
L 324.154767 257.346544 
L 324.66864 256.923638 
L 325.182513 256.078272 
L 325.760621 254.533041 
L 326.402963 252.13128 
L 327.302241 247.592782 
L 328.779627 237.957811 
L 330.321247 227.113828 
L 332.633677 213.41292 
L 334.175297 205.556384 
L 335.074575 201.199734 
L 336.359258 195.518193 
L 337.065834 193.182081 
L 337.708176 191.92403 
L 337.900878 191.746226 
L 338.093581 191.642244 
L 338.607454 191.961515 
L 339.31403 193.787744 
L 339.699435 195.473271 
L 340.727182 202.237941 
L 341.497992 208.821512 
L 343.232314 224.160676 
L 343.93889 228.544392 
L 344.452763 230.474129 
L 344.966637 231.048554 
L 345.287808 230.723589 
L 345.608978 229.838105 
L 346.058618 227.715923 
L 346.636725 223.54145 
L 347.471769 215.239925 
L 348.627984 200.9511 
L 350.490775 175.234643 
L 354.473293 117.230883 
L 355.051401 112.742298 
L 355.372572 111.371659 
L 355.629508 110.878805 
L 355.886445 111.132739 
L 356.27185 112.745018 
L 356.528787 114.665243 
L 356.978426 119.605871 
L 357.299597 124.254677 
L 358.070407 139.327069 
L 359.290856 169.637011 
L 360.704008 203.667791 
L 361.410583 216.196208 
L 362.052925 223.748325 
L 362.502564 226.693456 
L 362.823735 227.61709 
L 363.016438 227.729446 
L 363.20914 227.505238 
L 363.530311 226.469248 
L 363.787248 225.114228 
L 364.236887 221.715543 
L 365.071931 212.894059 
L 368.283639 176.100638 
L 369.311386 168.469015 
L 369.953728 165.088368 
L 370.403367 163.349525 
L 370.724538 162.442618 
L 371.302645 161.920542 
L 371.559582 162.199668 
L 371.68805 162.336308 
L 372.266158 164.230736 
L 372.780031 167.205895 
L 373.293904 171.500402 
L 373.872012 177.619707 
L 374.963993 192.119539 
L 376.569847 213.167138 
L 377.147954 218.30386 
L 377.597593 220.789088 
L 377.918764 221.586763 
L 378.111467 221.686119 
L 378.304169 221.471082 
L 378.561106 220.700513 
L 378.946511 218.412286 
L 379.39615 214.28213 
L 380.16696 203.64935 
L 381.066238 187.461463 
L 382.672093 157.602052 
L 383.507137 147.001316 
L 383.892542 143.948062 
L 384.277947 142.166494 
L 384.342181 142.166494 
L 384.470649 141.897445 
L 384.534883 141.922637 
L 384.727586 142.043558 
L 385.241459 143.913801 
L 385.626864 146.67886 
L 386.397674 154.662968 
L 388.067763 173.64423 
L 388.517402 176.606188 
L 388.838573 177.73035 
L 389.031275 177.859836 
L 389.223978 177.651147 
L 389.41668 177.057123 
L 389.673617 175.589747 
L 390.059022 172.046764 
L 390.572895 164.732357 
L 391.151003 153.405088 
L 391.986047 132.668154 
L 394.105774 77.975613 
L 394.876584 65.636639 
L 395.454692 61.077919 
L 395.711628 60.461222 
L 395.840097 60.336271 
L 396.032799 60.762517 
L 396.225502 61.517265 
L 396.803609 66.458901 
L 397.574419 78.497588 
L 398.537932 99.683945 
L 399.694147 128.508474 
L 401.043064 159.448112 
L 401.878108 174.18132 
L 402.584684 183.209681 
L 403.162792 188.186384 
L 403.805133 191.033467 
L 404.06207 191.434622 
L 404.319007 191.39623 
L 404.575943 190.971596 
L 405.025583 189.110018 
L 405.475222 185.920426 
L 405.989095 180.530073 
L 406.695671 170.053785 
L 407.466481 154.699143 
L 408.68693 123.532879 
L 410.485487 75.972356 
L 411.256297 61.66237 
L 411.705936 56.227982 
L 412.091341 53.382309 
L 412.412512 52.482456 
L 412.605214 52.508655 
L 412.733683 52.744451 
L 412.990619 53.813594 
L 413.697195 60.139774 
L 414.339537 68.988164 
L 417.679713 120.837652 
L 419.157099 137.861003 
L 420.441783 154.162456 
L 423.460788 194.949593 
L 424.038896 200.251371 
L 424.809706 205.132849 
L 425.516282 207.719751 
L 426.544028 209.405187 
L 427.571775 210.974539 
L 428.149882 212.660379 
L 428.72799 215.31409 
L 429.370332 219.552772 
L 430.205376 227.013201 
L 431.554293 242.414226 
L 433.481318 264.89236 
L 434.509065 274.196325 
L 435.344109 279.840673 
L 436.114919 283.575832 
L 436.757261 285.772479 
L 437.463837 287.415812 
L 438.106178 288.383919 
L 438.812754 289.041158 
L 439.583564 289.44138 
L 440.547077 289.676959 
L 442.088697 289.792605 
L 443.501848 289.812308 
L 443.501848 289.812308 
" clip-path="url(#pba9688676f)" style="fill: none; stroke: #000000; stroke-width: 2; stroke-linecap: square"/>
   </g>
   <g id="matplotlib.axis_1">
    <g id="xtick_1">
     <g id="line2d_6">
      <defs>
       <path id="m3226e2e94e" d="M 0 0 
L 0 3.5 
" style="stroke: #000000; stroke-width: 0.8"/>
      </defs>
      <g>
       <use xlink:href="#m3226e2e94e" x="59.51" y="289.816" style="stroke: #000000; stroke-width: 0.8"/>
      </g>
     </g>
     <g id="text_1">
      <!-- −3 -->
      <g transform="translate(47.71625 308.9735) scale(0.16 -0.16)">
       <defs>
        <path id="DejaVuSans-2212" d="M 678 2272 
L 4684 2272 
L 4684 1741 
L 678 1741 
L 678 2272 
z
" transform="scale(0.015625)"/>
        <path id="DejaVuSans-33" d="M 2597 2516 
Q 3050 2419 3304 2112 
Q 3559 1806 3559 1356 
Q 3559 666 3084 287 
Q 2609 -91 1734 -91 
Q 1441 -91 1130 -33 
Q 819 25 488 141 
L 488 750 
Q 750 597 1062 519 
Q 1375 441 1716 441 
Q 2309 441 2620 675 
Q 2931 909 2931 1356 
Q 2931 1769 2642 2001 
Q 2353 2234 1838 2234 
L 1294 2234 
L 1294 2753 
L 1863 2753 
Q 2328 2753 2575 2939 
Q 2822 3125 2822 3475 
Q 2822 3834 2567 4026 
Q 2313 4219 1838 4219 
Q 1578 4219 1281 4162 
Q 984 4106 628 3988 
L 628 4550 
Q 988 4650 1302 4700 
Q 1616 4750 1894 4750 
Q 2613 4750 3031 4423 
Q 3450 4097 3450 3541 
Q 3450 3153 3228 2886 
Q 3006 2619 2597 2516 
z
" transform="scale(0.015625)"/>
       </defs>
       <use xlink:href="#DejaVuSans-2212"/>
       <use xlink:href="#DejaVuSans-33" x="83.789062"/>
      </g>
     </g>
    </g>
    <g id="xtick_2">
     <g id="line2d_7">
      <g>
       <use xlink:href="#m3226e2e94e" x="123.744167" y="289.816" style="stroke: #000000; stroke-width: 0.8"/>
      </g>
     </g>
     <g id="text_2">
      <!-- −2 -->
      <g transform="translate(111.950417 308.9735) scale(0.16 -0.16)">
       <defs>
        <path id="DejaVuSans-32" d="M 1228 531 
L 3431 531 
L 3431 0 
L 469 0 
L 469 531 
Q 828 903 1448 1529 
Q 2069 2156 2228 2338 
Q 2531 2678 2651 2914 
Q 2772 3150 2772 3378 
Q 2772 3750 2511 3984 
Q 2250 4219 1831 4219 
Q 1534 4219 1204 4116 
Q 875 4013 500 3803 
L 500 4441 
Q 881 4594 1212 4672 
Q 1544 4750 1819 4750 
Q 2544 4750 2975 4387 
Q 3406 4025 3406 3419 
Q 3406 3131 3298 2873 
Q 3191 2616 2906 2266 
Q 2828 2175 2409 1742 
Q 1991 1309 1228 531 
z
" transform="scale(0.015625)"/>
       </defs>
       <use xlink:href="#DejaVuSans-2212"/>
       <use xlink:href="#DejaVuSans-32" x="83.789062"/>
      </g>
     </g>
    </g>
    <g id="xtick_3">
     <g id="line2d_8">
      <g>
       <use xlink:href="#m3226e2e94e" x="187.978333" y="289.816" style="stroke: #000000; stroke-width: 0.8"/>
      </g>
     </g>
     <g id="text_3">
      <!-- −1 -->
      <g transform="translate(176.184583 308.9735) scale(0.16 -0.16)">
       <defs>
        <path id="DejaVuSans-31" d="M 794 531 
L 1825 531 
L 1825 4091 
L 703 3866 
L 703 4441 
L 1819 4666 
L 2450 4666 
L 2450 531 
L 3481 531 
L 3481 0 
L 794 0 
L 794 531 
z
" transform="scale(0.015625)"/>
       </defs>
       <use xlink:href="#DejaVuSans-2212"/>
       <use xlink:href="#DejaVuSans-31" x="83.789062"/>
      </g>
     </g>
    </g>
    <g id="xtick_4">
     <g id="line2d_9">
      <g>
       <use xlink:href="#m3226e2e94e" x="252.2125" y="289.816" style="stroke: #000000; stroke-width: 0.8"/>
      </g>
     </g>
     <g id="text_4">
      <!-- 0 -->
      <g transform="translate(247.1225 308.9735) scale(0.16 -0.16)">
       <defs>
        <path id="DejaVuSans-30" d="M 2034 4250 
Q 1547 4250 1301 3770 
Q 1056 3291 1056 2328 
Q 1056 1369 1301 889 
Q 1547 409 2034 409 
Q 2525 409 2770 889 
Q 3016 1369 3016 2328 
Q 3016 3291 2770 3770 
Q 2525 4250 2034 4250 
z
M 2034 4750 
Q 2819 4750 3233 4129 
Q 3647 3509 3647 2328 
Q 3647 1150 3233 529 
Q 2819 -91 2034 -91 
Q 1250 -91 836 529 
Q 422 1150 422 2328 
Q 422 3509 836 4129 
Q 1250 4750 2034 4750 
z
" transform="scale(0.015625)"/>
       </defs>
       <use xlink:href="#DejaVuSans-30"/>
      </g>
     </g>
    </g>
    <g id="xtick_5">
     <g id="line2d_10">
      <g>
       <use xlink:href="#m3226e2e94e" x="316.446667" y="289.816" style="stroke: #000000; stroke-width: 0.8"/>
      </g>
     </g>
     <g id="text_5">
      <!-- 1 -->
      <g transform="translate(311.356667 308.9735) scale(0.16 -0.16)">
       <use xlink:href="#DejaVuSans-31"/>
      </g>
     </g>
    </g>
    <g id="xtick_6">
     <g id="line2d_11">
      <g>
       <use xlink:href="#m3226e2e94e" x="380.680833" y="289.816" style="stroke: #000000; stroke-width: 0.8"/>
      </g>
     </g>
     <g id="text_6">
      <!-- 2 -->
      <g transform="translate(375.590833 308.9735) scale(0.16 -0.16)">
       <use xlink:href="#DejaVuSans-32"/>
      </g>
     </g>
    </g>
    <g id="xtick_7">
     <g id="line2d_12">
      <g>
       <use xlink:href="#m3226e2e94e" x="444.915" y="289.816" style="stroke: #000000; stroke-width: 0.8"/>
      </g>
     </g>
     <g id="text_7">
      <!-- 3 -->
      <g transform="translate(439.825 308.9735) scale(0.16 -0.16)">
       <use xlink:href="#DejaVuSans-33"/>
      </g>
     </g>
    </g>
    <g id="text_8">
     <!-- $E$-$E_F$ (eV) -->
     <g transform="translate(212.0725 329.978187) scale(0.18 -0.18)">
      <defs>
       <path id="DejaVuSans-Oblique-45" d="M 1081 4666 
L 4031 4666 
L 3928 4134 
L 1606 4134 
L 1338 2753 
L 3566 2753 
L 3463 2222 
L 1234 2222 
L 909 531 
L 3284 531 
L 3181 0 
L 172 0 
L 1081 4666 
z
" transform="scale(0.015625)"/>
       <path id="DejaVuSans-2d" d="M 313 2009 
L 1997 2009 
L 1997 1497 
L 313 1497 
L 313 2009 
z
" transform="scale(0.015625)"/>
       <path id="DejaVuSans-Oblique-46" d="M 1081 4666 
L 3756 4666 
L 3653 4134 
L 1606 4134 
L 1338 2759 
L 3188 2759 
L 3084 2228 
L 1234 2228 
L 800 0 
L 172 0 
L 1081 4666 
z
" transform="scale(0.015625)"/>
       <path id="DejaVuSans-20" transform="scale(0.015625)"/>
       <path id="DejaVuSans-28" d="M 1984 4856 
Q 1566 4138 1362 3434 
Q 1159 2731 1159 2009 
Q 1159 1288 1364 580 
Q 1569 -128 1984 -844 
L 1484 -844 
Q 1016 -109 783 600 
Q 550 1309 550 2009 
Q 550 2706 781 3412 
Q 1013 4119 1484 4856 
L 1984 4856 
z
" transform="scale(0.015625)"/>
       <path id="DejaVuSans-65" d="M 3597 1894 
L 3597 1613 
L 953 1613 
Q 991 1019 1311 708 
Q 1631 397 2203 397 
Q 2534 397 2845 478 
Q 3156 559 3463 722 
L 3463 178 
Q 3153 47 2828 -22 
Q 2503 -91 2169 -91 
Q 1331 -91 842 396 
Q 353 884 353 1716 
Q 353 2575 817 3079 
Q 1281 3584 2069 3584 
Q 2775 3584 3186 3129 
Q 3597 2675 3597 1894 
z
M 3022 2063 
Q 3016 2534 2758 2815 
Q 2500 3097 2075 3097 
Q 1594 3097 1305 2825 
Q 1016 2553 972 2059 
L 3022 2063 
z
" transform="scale(0.015625)"/>
       <path id="DejaVuSans-56" d="M 1831 0 
L 50 4666 
L 709 4666 
L 2188 738 
L 3669 4666 
L 4325 4666 
L 2547 0 
L 1831 0 
z
" transform="scale(0.015625)"/>
       <path id="DejaVuSans-29" d="M 513 4856 
L 1013 4856 
Q 1481 4119 1714 3412 
Q 1947 2706 1947 2009 
Q 1947 1309 1714 600 
Q 1481 -109 1013 -844 
L 513 -844 
Q 928 -128 1133 580 
Q 1338 1288 1338 2009 
Q 1338 2731 1133 3434 
Q 928 4138 513 4856 
z
" transform="scale(0.015625)"/>
      </defs>
      <use xlink:href="#DejaVuSans-Oblique-45" transform="translate(0 0.125)"/>
      <use xlink:href="#DejaVuSans-2d" transform="translate(63.183594 0.125)"/>
      <use xlink:href="#DejaVuSans-Oblique-45" transform="translate(99.267578 0.125)"/>
      <use xlink:href="#DejaVuSans-Oblique-46" transform="translate(162.451172 -16.28125) scale(0.7)"/>
      <use xlink:href="#DejaVuSans-20" transform="translate(205.449219 0.125)"/>
      <use xlink:href="#DejaVuSans-28" transform="translate(237.236328 0.125)"/>
      <use xlink:href="#DejaVuSans-65" transform="translate(276.25 0.125)"/>
      <use xlink:href="#DejaVuSans-56" transform="translate(337.773438 0.125)"/>
      <use xlink:href="#DejaVuSans-29" transform="translate(406.181641 0.125)"/>
     </g>
    </g>
   </g>
   <g id="matplotlib.axis_2">
    <g id="ytick_1">
     <g id="line2d_13">
      <defs>
       <path id="me85a080d3f" d="M 0 0 
L -3.5 0 
" style="stroke: #000000; stroke-width: 0.8"/>
      </defs>
      <g>
       <use xlink:href="#me85a080d3f" x="59.51" y="289.816" style="stroke: #000000; stroke-width: 0.8"/>
      </g>
     </g>
     <g id="text_9">
      <!-- 0 -->
      <g transform="translate(42.33 295.89475) scale(0.16 -0.16)">
       <use xlink:href="#DejaVuSans-30"/>
      </g>
     </g>
    </g>
    <g id="ytick_2">
     <g id="line2d_14">
      <g>
       <use xlink:href="#me85a080d3f" x="59.51" y="239.432275" style="stroke: #000000; stroke-width: 0.8"/>
      </g>
     </g>
     <g id="text_10">
      <!-- 5 -->
      <g transform="translate(42.33 245.511025) scale(0.16 -0.16)">
       <defs>
        <path id="DejaVuSans-35" d="M 691 4666 
L 3169 4666 
L 3169 4134 
L 1269 4134 
L 1269 2991 
Q 1406 3038 1543 3061 
Q 1681 3084 1819 3084 
Q 2600 3084 3056 2656 
Q 3513 2228 3513 1497 
Q 3513 744 3044 326 
Q 2575 -91 1722 -91 
Q 1428 -91 1123 -41 
Q 819 9 494 109 
L 494 744 
Q 775 591 1075 516 
Q 1375 441 1709 441 
Q 2250 441 2565 725 
Q 2881 1009 2881 1497 
Q 2881 1984 2565 2268 
Q 2250 2553 1709 2553 
Q 1456 2553 1204 2497 
Q 953 2441 691 2322 
L 691 4666 
z
" transform="scale(0.015625)"/>
       </defs>
       <use xlink:href="#DejaVuSans-35"/>
      </g>
     </g>
    </g>
    <g id="ytick_3">
     <g id="line2d_15">
      <g>
       <use xlink:href="#me85a080d3f" x="59.51" y="189.04855" style="stroke: #000000; stroke-width: 0.8"/>
      </g>
     </g>
     <g id="text_11">
      <!-- 10 -->
      <g transform="translate(32.15 195.1273) scale(0.16 -0.16)">
       <use xlink:href="#DejaVuSans-31"/>
       <use xlink:href="#DejaVuSans-30" x="63.623047"/>
      </g>
     </g>
    </g>
    <g id="ytick_4">
     <g id="line2d_16">
      <g>
       <use xlink:href="#me85a080d3f" x="59.51" y="138.664825" style="stroke: #000000; stroke-width: 0.8"/>
      </g>
     </g>
     <g id="text_12">
      <!-- 15 -->
      <g transform="translate(32.15 144.743575) scale(0.16 -0.16)">
       <use xlink:href="#DejaVuSans-31"/>
       <use xlink:href="#DejaVuSans-35" x="63.623047"/>
      </g>
     </g>
    </g>
    <g id="ytick_5">
     <g id="line2d_17">
      <g>
       <use xlink:href="#me85a080d3f" x="59.51" y="88.2811" style="stroke: #000000; stroke-width: 0.8"/>
      </g>
     </g>
     <g id="text_13">
      <!-- 20 -->
      <g transform="translate(32.15 94.35985) scale(0.16 -0.16)">
       <use xlink:href="#DejaVuSans-32"/>
       <use xlink:href="#DejaVuSans-30" x="63.623047"/>
      </g>
     </g>
    </g>
    <g id="ytick_6">
     <g id="line2d_18">
      <g>
       <use xlink:href="#me85a080d3f" x="59.51" y="37.897375" style="stroke: #000000; stroke-width: 0.8"/>
      </g>
     </g>
     <g id="text_14">
      <!-- 25 -->
      <g transform="translate(32.15 43.976125) scale(0.16 -0.16)">
       <use xlink:href="#DejaVuSans-32"/>
       <use xlink:href="#DejaVuSans-35" x="63.623047"/>
      </g>
     </g>
    </g>
    <g id="text_15">
     <!-- DOS (States/eV) -->
     <g transform="translate(24.406563 223.157375) rotate(-90) scale(0.18 -0.18)">
      <defs>
       <path id="DejaVuSans-44" d="M 1259 4147 
L 1259 519 
L 2022 519 
Q 2988 519 3436 956 
Q 3884 1394 3884 2338 
Q 3884 3275 3436 3711 
Q 2988 4147 2022 4147 
L 1259 4147 
z
M 628 4666 
L 1925 4666 
Q 3281 4666 3915 4102 
Q 4550 3538 4550 2338 
Q 4550 1131 3912 565 
Q 3275 0 1925 0 
L 628 0 
L 628 4666 
z
" transform="scale(0.015625)"/>
       <path id="DejaVuSans-4f" d="M 2522 4238 
Q 1834 4238 1429 3725 
Q 1025 3213 1025 2328 
Q 1025 1447 1429 934 
Q 1834 422 2522 422 
Q 3209 422 3611 934 
Q 4013 1447 4013 2328 
Q 4013 3213 3611 3725 
Q 3209 4238 2522 4238 
z
M 2522 4750 
Q 3503 4750 4090 4092 
Q 4678 3434 4678 2328 
Q 4678 1225 4090 567 
Q 3503 -91 2522 -91 
Q 1538 -91 948 565 
Q 359 1222 359 2328 
Q 359 3434 948 4092 
Q 1538 4750 2522 4750 
z
" transform="scale(0.015625)"/>
       <path id="DejaVuSans-53" d="M 3425 4513 
L 3425 3897 
Q 3066 4069 2747 4153 
Q 2428 4238 2131 4238 
Q 1616 4238 1336 4038 
Q 1056 3838 1056 3469 
Q 1056 3159 1242 3001 
Q 1428 2844 1947 2747 
L 2328 2669 
Q 3034 2534 3370 2195 
Q 3706 1856 3706 1288 
Q 3706 609 3251 259 
Q 2797 -91 1919 -91 
Q 1588 -91 1214 -16 
Q 841 59 441 206 
L 441 856 
Q 825 641 1194 531 
Q 1563 422 1919 422 
Q 2459 422 2753 634 
Q 3047 847 3047 1241 
Q 3047 1584 2836 1778 
Q 2625 1972 2144 2069 
L 1759 2144 
Q 1053 2284 737 2584 
Q 422 2884 422 3419 
Q 422 4038 858 4394 
Q 1294 4750 2059 4750 
Q 2388 4750 2728 4690 
Q 3069 4631 3425 4513 
z
" transform="scale(0.015625)"/>
       <path id="DejaVuSans-74" d="M 1172 4494 
L 1172 3500 
L 2356 3500 
L 2356 3053 
L 1172 3053 
L 1172 1153 
Q 1172 725 1289 603 
Q 1406 481 1766 481 
L 2356 481 
L 2356 0 
L 1766 0 
Q 1100 0 847 248 
Q 594 497 594 1153 
L 594 3053 
L 172 3053 
L 172 3500 
L 594 3500 
L 594 4494 
L 1172 4494 
z
" transform="scale(0.015625)"/>
       <path id="DejaVuSans-61" d="M 2194 1759 
Q 1497 1759 1228 1600 
Q 959 1441 959 1056 
Q 959 750 1161 570 
Q 1363 391 1709 391 
Q 2188 391 2477 730 
Q 2766 1069 2766 1631 
L 2766 1759 
L 2194 1759 
z
M 3341 1997 
L 3341 0 
L 2766 0 
L 2766 531 
Q 2569 213 2275 61 
Q 1981 -91 1556 -91 
Q 1019 -91 701 211 
Q 384 513 384 1019 
Q 384 1609 779 1909 
Q 1175 2209 1959 2209 
L 2766 2209 
L 2766 2266 
Q 2766 2663 2505 2880 
Q 2244 3097 1772 3097 
Q 1472 3097 1187 3025 
Q 903 2953 641 2809 
L 641 3341 
Q 956 3463 1253 3523 
Q 1550 3584 1831 3584 
Q 2591 3584 2966 3190 
Q 3341 2797 3341 1997 
z
" transform="scale(0.015625)"/>
       <path id="DejaVuSans-73" d="M 2834 3397 
L 2834 2853 
Q 2591 2978 2328 3040 
Q 2066 3103 1784 3103 
Q 1356 3103 1142 2972 
Q 928 2841 928 2578 
Q 928 2378 1081 2264 
Q 1234 2150 1697 2047 
L 1894 2003 
Q 2506 1872 2764 1633 
Q 3022 1394 3022 966 
Q 3022 478 2636 193 
Q 2250 -91 1575 -91 
Q 1294 -91 989 -36 
Q 684 19 347 128 
L 347 722 
Q 666 556 975 473 
Q 1284 391 1588 391 
Q 1994 391 2212 530 
Q 2431 669 2431 922 
Q 2431 1156 2273 1281 
Q 2116 1406 1581 1522 
L 1381 1569 
Q 847 1681 609 1914 
Q 372 2147 372 2553 
Q 372 3047 722 3315 
Q 1072 3584 1716 3584 
Q 2034 3584 2315 3537 
Q 2597 3491 2834 3397 
z
" transform="scale(0.015625)"/>
       <path id="DejaVuSans-2f" d="M 1625 4666 
L 2156 4666 
L 531 -594 
L 0 -594 
L 1625 4666 
z
" transform="scale(0.015625)"/>
      </defs>
      <use xlink:href="#DejaVuSans-44"/>
      <use xlink:href="#DejaVuSans-4f" x="77.001953"/>
      <use xlink:href="#DejaVuSans-53" x="155.712891"/>
      <use xlink:href="#DejaVuSans-20" x="219.189453"/>
      <use xlink:href="#DejaVuSans-28" x="250.976562"/>
      <use xlink:href="#DejaVuSans-53" x="289.990234"/>
      <use xlink:href="#DejaVuSans-74" x="353.466797"/>
      <use xlink:href="#DejaVuSans-61" x="392.675781"/>
      <use xlink:href="#DejaVuSans-74" x="453.955078"/>
      <use xlink:href="#DejaVuSans-65" x="493.164062"/>
      <use xlink:href="#DejaVuSans-73" x="554.6875"/>
      <use xlink:href="#DejaVuSans-2f" x="606.787109"/>
      <use xlink:href="#DejaVuSans-65" x="640.478516"/>
      <use xlink:href="#DejaVuSans-56" x="702.001953"/>
      <use xlink:href="#DejaVuSans-29" x="770.410156"/>
     </g>
    </g>
   </g>
   <g id="line2d_19">
    <path d="M 252.2125 289.816 
L 252.2125 10.8 
" clip-path="url(#pba9688676f)" style="fill: none; stroke-dasharray: 5.55,2.4; stroke-dashoffset: 0; stroke: #808080; stroke-width: 1.5"/>
   </g>
   <g id="line2d_20">
    <path d="M 252.2125 289.816 
L 252.2125 10.8 
" clip-path="url(#pba9688676f)" style="fill: none; stroke-dasharray: 5.55,2.4; stroke-dashoffset: 0; stroke: #808080; stroke-width: 1.5"/>
   </g>
   <g id="line2d_21">
    <path d="M 252.2125 289.816 
L 252.2125 10.8 
" clip-path="url(#pba9688676f)" style="fill: none; stroke-dasharray: 5.55,2.4; stroke-dashoffset: 0; stroke: #808080; stroke-width: 1.5"/>
   </g>
   <g id="line2d_22">
    <path d="M 252.2125 289.816 
L 252.2125 10.8 
" clip-path="url(#pba9688676f)" style="fill: none; stroke-dasharray: 5.55,2.4; stroke-dashoffset: 0; stroke: #808080; stroke-width: 1.5"/>
   </g>
   <g id="line2d_23">
    <path d="M 252.2125 289.816 
L 252.2125 10.8 
" clip-path="url(#pba9688676f)" style="fill: none; stroke-dasharray: 5.55,2.4; stroke-dashoffset: 0; stroke: #808080; stroke-width: 1.5"/>
   </g>
   <g id="patch_3">
    <path d="M 59.51 289.816 
L 59.51 10.8 
" style="fill: none; stroke: #000000; stroke-width: 0.8; stroke-linejoin: miter; stroke-linecap: square"/>
   </g>
   <g id="patch_4">
    <path d="M 444.915 289.816 
L 444.915 10.8 
" style="fill: none; stroke: #000000; stroke-width: 0.8; stroke-linejoin: miter; stroke-linecap: square"/>
   </g>
   <g id="patch_5">
    <path d="M 59.51 289.816 
L 444.915 289.816 
" style="fill: none; stroke: #000000; stroke-width: 0.8; stroke-linejoin: miter; stroke-linecap: square"/>
   </g>
   <g id="patch_6">
    <path d="M 59.51 10.8 
L 444.915 10.8 
" style="fill: none; stroke: #000000; stroke-width: 0.8; stroke-linejoin: miter; stroke-linecap: square"/>
   </g>
   <g id="legend_1">
    <g id="patch_7">
     <path d="M 382.561875 93.251563 
L 437.915 93.251563 
Q 439.915 93.251563 439.915 91.251563 
L 439.915 17.8 
Q 439.915 15.8 437.915 15.8 
L 382.561875 15.8 
Q 380.561875 15.8 380.561875 17.8 
L 380.561875 91.251563 
Q 380.561875 93.251563 382.561875 93.251563 
z
" style="fill: #ffffff; opacity: 0.8; stroke: #cccccc; stroke-linejoin: miter"/>
    </g>
    <g id="line2d_24">
     <path d="M 384.561875 23.898438 
L 394.561875 23.898438 
L 404.561875 23.898438 
" style="fill: none; stroke: #1f77b4; stroke-width: 2; stroke-linecap: square"/>
    </g>
    <g id="text_16">
     <!-- s -->
     <g transform="translate(412.561875 27.398438) scale(0.1 -0.1)">
      <use xlink:href="#DejaVuSans-73"/>
     </g>
    </g>
    <g id="line2d_25">
     <path d="M 384.561875 38.576563 
L 394.561875 38.576563 
L 404.561875 38.576563 
" style="fill: none; stroke: #ff7f0e; stroke-width: 2; stroke-linecap: square"/>
    </g>
    <g id="text_17">
     <!-- $p_x$ -->
     <g transform="translate(412.561875 42.076563) scale(0.1 -0.1)">
      <defs>
       <path id="DejaVuSans-Oblique-70" d="M 3175 2156 
Q 3175 2616 2975 2859 
Q 2775 3103 2400 3103 
Q 2144 3103 1911 2972 
Q 1678 2841 1497 2591 
Q 1319 2344 1212 1994 
Q 1106 1644 1106 1300 
Q 1106 863 1306 627 
Q 1506 391 1875 391 
Q 2147 391 2380 519 
Q 2613 647 2778 891 
Q 2956 1147 3065 1494 
Q 3175 1841 3175 2156 
z
M 1394 2969 
Q 1625 3272 1939 3428 
Q 2253 3584 2638 3584 
Q 3175 3584 3472 3232 
Q 3769 2881 3769 2247 
Q 3769 1728 3584 1258 
Q 3400 788 3053 416 
Q 2822 169 2531 39 
Q 2241 -91 1919 -91 
Q 1547 -91 1294 64 
Q 1041 219 916 525 
L 556 -1331 
L -19 -1331 
L 922 3500 
L 1497 3500 
L 1394 2969 
z
" transform="scale(0.015625)"/>
       <path id="DejaVuSans-Oblique-78" d="M 3841 3500 
L 2234 1784 
L 3219 0 
L 2559 0 
L 1819 1388 
L 531 0 
L -166 0 
L 1556 1844 
L 641 3500 
L 1300 3500 
L 1972 2234 
L 3144 3500 
L 3841 3500 
z
" transform="scale(0.015625)"/>
      </defs>
      <use xlink:href="#DejaVuSans-Oblique-70"/>
      <use xlink:href="#DejaVuSans-Oblique-78" transform="translate(63.476562 -16.40625) scale(0.7)"/>
     </g>
    </g>
    <g id="line2d_26">
     <path d="M 384.561875 53.275 
L 394.561875 53.275 
L 404.561875 53.275 
" style="fill: none; stroke: #2ca02c; stroke-width: 2; stroke-linecap: square"/>
    </g>
    <g id="text_18">
     <!-- $p_y$ -->
     <g transform="translate(412.561875 56.775) scale(0.1 -0.1)">
      <defs>
       <path id="DejaVuSans-Oblique-79" d="M 1588 -325 
Q 1188 -997 936 -1164 
Q 684 -1331 294 -1331 
L -159 -1331 
L -63 -850 
L 269 -850 
Q 509 -850 678 -719 
Q 847 -588 1056 -206 
L 1234 128 
L 459 3500 
L 1069 3500 
L 1650 819 
L 3256 3500 
L 3859 3500 
L 1588 -325 
z
" transform="scale(0.015625)"/>
      </defs>
      <use xlink:href="#DejaVuSans-Oblique-70"/>
      <use xlink:href="#DejaVuSans-Oblique-79" transform="translate(63.476562 -16.40625) scale(0.7)"/>
     </g>
    </g>
    <g id="line2d_27">
     <path d="M 384.561875 68.973438 
L 394.561875 68.973438 
L 404.561875 68.973438 
" style="fill: none; stroke: #d62728; stroke-width: 2; stroke-linecap: square"/>
    </g>
    <g id="text_19">
     <!-- $p_z$ -->
     <g transform="translate(412.561875 72.473438) scale(0.1 -0.1)">
      <defs>
       <path id="DejaVuSans-Oblique-7a" d="M 744 3500 
L 3475 3500 
L 3372 2975 
L 738 459 
L 2913 459 
L 2822 0 
L -19 0 
L 84 525 
L 2719 3041 
L 653 3041 
L 744 3500 
z
" transform="scale(0.015625)"/>
      </defs>
      <use xlink:href="#DejaVuSans-Oblique-70"/>
      <use xlink:href="#DejaVuSans-Oblique-7a" transform="translate(63.476562 -16.40625) scale(0.7)"/>
     </g>
    </g>
    <g id="line2d_28">
     <path d="M 384.561875 83.671875 
L 394.561875 83.671875 
L 404.561875 83.671875 
" style="fill: none; stroke: #000000; stroke-width: 2; stroke-linecap: square"/>
    </g>
    <g id="text_20">
     <!-- Total -->
     <g transform="translate(412.561875 87.171875) scale(0.1 -0.1)">
      <defs>
       <path id="DejaVuSans-54" d="M -19 4666 
L 3928 4666 
L 3928 4134 
L 2272 4134 
L 2272 0 
L 1638 0 
L 1638 4134 
L -19 4134 
L -19 4666 
z
" transform="scale(0.015625)"/>
       <path id="DejaVuSans-6f" d="M 1959 3097 
Q 1497 3097 1228 2736 
Q 959 2375 959 1747 
Q 959 1119 1226 758 
Q 1494 397 1959 397 
Q 2419 397 2687 759 
Q 2956 1122 2956 1747 
Q 2956 2369 2687 2733 
Q 2419 3097 1959 3097 
z
M 1959 3584 
Q 2709 3584 3137 3096 
Q 3566 2609 3566 1747 
Q 3566 888 3137 398 
Q 2709 -91 1959 -91 
Q 1206 -91 779 398 
Q 353 888 353 1747 
Q 353 2609 779 3096 
Q 1206 3584 1959 3584 
z
" transform="scale(0.015625)"/>
       <path id="DejaVuSans-6c" d="M 603 4863 
L 1178 4863 
L 1178 0 
L 603 0 
L 603 4863 
z
" transform="scale(0.015625)"/>
      </defs>
      <use xlink:href="#DejaVuSans-54"/>
      <use xlink:href="#DejaVuSans-6f" x="44.083984"/>
      <use xlink:href="#DejaVuSans-74" x="105.265625"/>
      <use xlink:href="#DejaVuSans-61" x="144.474609"/>
      <use xlink:href="#DejaVuSans-6c" x="205.753906"/>
     </g>
    </g>
   </g>
  </g>
 </g>
 <defs>
  <clipPath id="pba9688676f">
   <rect x="59.51" y="10.8" width="385.405" height="279.016"/>
  </clipPath>
 </defs>
</svg>
